<svg width="190" height="235" viewBox="0 0 190 235" fill="none" xmlns="http://www.w3.org/2000/svg">
<mask id="mask0_235_6393" style="mask-type:luminance" maskUnits="userSpaceOnUse" x="0" y="0" width="190" height="235">
<path d="M190 0H0V234.893H190V0Z" fill="white"/>
</mask>
<g mask="url(#mask0_235_6393)">
<path d="M75.6246 105.67C72.4814 105.138 71.4493 110.619 74.6551 111.183C77.7044 111.699 78.8147 106.203 75.6246 105.67Z" fill="#DBB65E"/>
<path d="M95.0937 104.104C96.8452 106.485 100.833 103.995 99.5505 101.38C97.9242 98.0911 92.8732 101.051 95.0937 104.104Z" fill="#DBB65E"/>
<path d="M88.1192 120.594C89.683 120.312 89.6518 117.744 88.0254 117.603C85.9143 117.431 86.0863 120.97 88.1192 120.594Z" fill="#DBB65E"/>
<path d="M91.7004 119.341C93.4675 118.871 93.5144 116.836 91.6066 116.616C89.4955 116.381 89.7457 119.874 91.7004 119.341Z" fill="#DBB65E"/>
<path d="M62.3324 128.267C63.7555 127.609 64.2403 129.614 64.9752 130.538C66.1168 131.963 67.4304 133.403 68.9629 134.421C72.3407 136.692 76.3283 138.148 80.3629 138.931C88.8386 140.575 98.0024 139.072 105.524 134.719C112.937 130.428 117.831 123.365 119.473 115.129C119.802 113.437 119.473 112.56 121.24 112.091C122.319 111.809 123.211 110.321 121.928 109.601C120.521 108.818 119.16 109.507 117.925 108.097C117.644 107.769 117.112 106.579 116.439 107.048C115.689 107.581 115.658 108.693 116.064 109.397C117.081 111.151 117.206 111.652 116.596 113.672C116.017 115.567 115.454 117.446 114.735 119.294C113.234 123.146 110.951 126.529 107.792 129.285C102.053 134.28 94.2806 136.895 86.7119 136.942C82.4271 136.958 78.3143 136.081 74.4205 134.296C72.6065 133.466 70.8707 132.495 69.2131 131.368C67.1489 129.974 66.1168 128.189 64.4748 126.45C66.2575 124.211 64.6781 120.234 62.9892 123.663C62.2699 125.135 61.7538 125.589 60.2057 126.106C58.6575 126.623 58.6263 128.126 60.2683 128.439C60.9094 128.564 61.7382 128.58 62.3637 128.298L62.3324 128.267Z" fill="#DBB65E"/>
<path d="M43.0354 127.233C43.7703 127.092 44.7086 126.403 45.0995 125.777C45.8658 124.54 43.4107 124.681 42.8477 124.665C41.8 124.634 40.6271 124.117 41.0493 122.817C41.4872 121.486 43.6452 121.894 43.8798 120.719C44.3958 118.167 39.5325 119.967 38.8288 121.251C37.2024 124.18 39.5325 127.907 43.051 127.218L43.0354 127.233Z" fill="#DBB65E"/>
<path d="M134.267 106.876C132.484 107.08 133.016 108.614 134.142 109.272C135.393 110.024 137.097 109.476 138.051 108.458C139.865 106.532 139.412 102.35 136.894 101.254C135.58 100.675 133.438 100.972 132.375 101.99C131.687 102.664 131.984 104.887 133.266 104.308C134.079 103.932 135.643 102.523 136.143 104.355C136.597 106.03 135.94 106.657 134.267 106.86V106.876Z" fill="#DBB65E"/>
<path d="M116.737 132.307C104.633 144.443 86.5712 147.841 70.4642 143.128C53.3408 138.117 42.6757 120.234 48.2741 102.883C49.6815 98.5296 52.2148 94.5834 55.3737 91.2166C59.0955 87.2391 63.7087 83.841 68.8066 81.8365C71.5276 80.7717 74.4206 80.1453 77.3292 80.067C78.0955 80.0514 79.7531 80.5055 80.2535 79.6755C80.6445 79.0491 80.3004 78.1722 79.5342 78.0626C94.9375 74.7271 114.266 73.5213 123.695 88.2726C132.609 102.241 128.199 120.782 116.721 132.307H116.737ZM100.708 148.969C98.8626 150.378 96.7984 150.707 96.0008 148.389C95.1877 146.041 94.0461 148.452 93.8272 149.486C93.5301 150.926 91.2469 151.568 89.949 151.412C87.8066 151.146 88.2757 148.389 86.3992 147.998C91.7943 147.779 97.2206 146.808 102.319 144.944C101.99 146.354 102.006 147.982 100.723 148.969H100.708ZM131.389 101.755C131.014 97.1046 129.716 92.7356 127.48 88.6641C126.682 87.2077 125.525 86.2995 125.963 84.6709C128.731 86.1742 132.171 84.0445 133.563 81.6173C134.314 80.3019 134.955 78.3758 133.844 77.0917C132.656 75.698 131.968 78.9239 131.827 79.472C131.796 79.4406 131.765 79.4093 131.749 79.378C131.796 80.2706 131.436 81.1945 130.733 81.7269H130.764C129.56 83.1363 127.793 83.0267 126.244 83.6844C126.244 83.653 126.276 83.6217 126.276 83.5904C125.854 83.7313 125.431 83.7627 124.993 83.6844C124.587 83.6217 124.212 83.4495 123.883 83.2146C123.868 83.2929 123.836 83.3712 123.821 83.4338C114.704 73.1299 99.3317 71.282 86.1334 73.3647C82.349 73.9598 78.6585 74.8837 75.0461 76.1521C73.9984 76.528 72.5597 76.7942 71.6527 77.4675C70.5424 78.2818 71.7934 78.2192 70.0107 78.689C68.9317 78.9708 67.8683 79.331 66.8206 79.7382C59.6741 82.5412 53.4659 87.9124 49.3218 94.2389C47.586 92.5946 43.5827 89.8385 41.0963 91.7647C39.9391 92.6729 37.5152 96.6348 40.1893 97.1515C41.8782 97.4804 41.5342 95.476 41.9251 94.5364C42.5663 93.0018 44.7712 94.0823 45.7095 94.5834C46.5696 95.0375 47.3515 95.5856 48.1646 96.1023C47.6486 96.9949 47.1794 97.9189 46.7416 98.8584C45.8815 100.738 45.2091 102.679 44.7243 104.699C42.8008 112.78 44.0519 121.533 47.758 128.846C54.7638 142.721 70.7301 148.499 85.9301 147.998C83.6157 148.844 87.1811 152.586 88.0412 153.072C89.386 153.823 90.8716 153.62 92.2634 153.291C93.7334 152.931 94.828 151.427 96.079 151.882C98.3778 152.743 101.208 152.524 102.803 150.503C104.023 148.985 105.274 146.041 103.726 144.365C115.079 139.792 124.18 130.193 128.621 119.044C130.811 113.547 131.858 107.596 131.374 101.74L131.389 101.755Z" fill="#DBB65E"/>
<path d="M42.8164 101.615C43.9423 101.489 45.4279 101.02 46.1317 100.064C46.3037 99.845 47.2263 98.3887 46.4757 98.3417C45.3341 98.2791 43.958 99.3126 42.7695 99.4379C41.2839 99.5945 40.1111 99.0151 39.1259 97.9816C37.8279 96.6035 35.279 95.4917 36.4049 98.467C37.2337 100.659 40.6428 101.849 42.8321 101.599L42.8164 101.615Z" fill="#DBB65E"/>
<path d="M35.9045 101.708C36.2016 101.521 37.1868 100.127 36.8115 99.798C36.6551 99.6571 35.4041 100.158 35.1226 100.174C34.2 100.205 33.3399 99.8293 32.5893 99.3439C31.1819 98.4356 29.8214 96.212 28.1638 95.8205C25.5835 95.2254 28.6955 99.6571 29.2428 100.096C30.8066 101.395 33.8403 103.024 35.9045 101.724V101.708Z" fill="#DBB65E"/>
<path d="M27.976 94.2859C29.0081 94.4268 29.8995 95.429 30.9629 95.1785C30.7283 95.9928 31.8073 100.049 32.5892 98.1851C33.4962 96.0711 33.8559 93.5342 36.4048 92.6103C37.2024 92.3284 38.5785 93.221 38.9538 92.1249C39.3135 91.0757 37.953 90.5433 37.1554 90.4336C34.669 90.0735 32.2608 92.2501 31.2756 94.3172C29.6024 92.0309 26.9596 91.3106 24.7546 93.3933C23.9415 94.1606 23.5349 95.6326 24.9736 96.0084C26.2402 96.3529 26.6312 94.0823 27.9604 94.2702L27.976 94.2859Z" fill="#DBB65E"/>
<path d="M28.7737 100.44C29.2585 98.9836 26.1622 98.9836 25.349 98.5295C24.8017 98.232 22.5186 95.9613 22.0025 97.3394C20.9392 100.158 28.1169 102.413 28.7737 100.44Z" fill="#DBB65E"/>
<path d="M18.9687 95.8988C18.6559 95.8048 18.3744 95.6639 18.1242 95.476C16.3103 94.74 14.293 94.2232 12.3382 94.1136C10.837 94.0353 8.55387 95.6326 10.9308 96.3842C12.7292 96.948 14.6996 96.6505 16.5135 97.1829C17.1391 97.3708 18.0304 98.0128 18.7028 97.5431C19.2033 97.1985 19.4222 96.3686 18.9687 95.9145V95.8988Z" fill="#DBB65E"/>
<path d="M17.9209 98.5139C16.1695 95.8205 9.17936 99.2186 10.8057 101.333C11.3374 102.022 18.3119 99.1247 17.9209 98.5139Z" fill="#DBB65E"/>
<path d="M14.0583 105.263C15.6847 104.637 16.8575 103.149 18.1085 102.022C18.609 101.567 19.4534 101.145 19.7974 100.534C20.7201 98.874 18.3118 99.4378 17.7176 99.7823C16.1695 100.628 13.9645 101.724 13.0888 103.306C12.5102 104.339 12.3851 105.921 14.074 105.263H14.0583Z" fill="#DBB65E"/>
<path d="M129.638 74.5236C130.576 72.3782 134.094 74.2261 135.392 74.9307C135.924 75.2283 137.034 76.2148 137.691 75.8703C138.927 75.197 137.238 73.1142 136.659 72.6601C137.863 72.2843 137.613 70.0606 139.13 69.7005C139.865 69.5282 140.303 70.1233 140.991 70.1233C142.101 70.1233 142.242 68.7609 141.679 68.1502C138.927 65.1592 135.752 69.5282 135.783 72.1434C133.844 71.1725 131.123 71.0159 129.231 72.2843C126.807 73.8972 128.965 76.0895 129.653 74.5393L129.638 74.5236Z" fill="#DBB65E"/>
<path d="M141.695 74.2573C141.929 71.7831 140.256 70.4364 139.365 73.2864C138.583 75.7919 138.207 77.5771 135.971 79.1744C133.469 80.9596 137.16 81.2728 138.52 80.1766C140.193 78.8299 141.491 76.3557 141.695 74.2573Z" fill="#DBB65E"/>
<path d="M145.604 69.5282C144.494 69.5282 143.993 72.1903 143.649 72.9107C143.321 73.5997 140.272 75.3535 142.148 76.0895C145.041 77.217 148.325 69.5439 145.604 69.5282Z" fill="#DBB65E"/>
<path d="M148.966 65.3158C148.45 65.9578 147.027 68.9957 149.31 68.1345C150.014 67.8683 150.546 66.8191 151.062 66.318C151.984 65.4097 153.016 64.6424 154.064 63.8908C154.674 63.4523 156.081 61.3539 154.455 61.2443C152.391 61.119 150.092 63.9221 148.966 65.3158Z" fill="#DBB65E"/>
<path d="M151.609 66.6937C150.217 67.4924 150.092 70.2015 151.437 69.1366C153.22 67.7273 154.971 68.5886 156.879 68.0405C158.161 67.6803 157.442 66.2553 156.629 65.8638C155.096 65.0965 152.969 65.9108 151.593 66.7094L151.609 66.6937Z" fill="#DBB65E"/>
<path d="M156.457 69.716C154.58 69.2932 152.61 69.3715 150.702 69.5437C148.388 69.7473 149.17 71.3132 151.046 71.5325C152.891 71.7517 155.331 72.6286 157.176 72.0962C158.865 71.5951 157.489 69.9509 156.457 69.716Z" fill="#DBB65E"/>
<path d="M78.5646 92.0778C79.4403 91.7803 81.0823 93.3463 82.2082 93.7691C83.8815 94.3798 85.758 94.6147 87.5407 94.2075C88.1662 94.0666 91.1374 92.8608 89.4016 91.9056C88.1819 91.2322 85.3671 92.0309 83.8658 91.6863C79.5341 90.6841 78.0016 87.2077 76.2502 83.653C75.0304 81.1945 74.7646 84.4203 74.9523 85.5165C75.3119 87.5679 76.5473 89.4157 77.9704 90.9034C75.5465 90.6685 72.2625 90.9973 70.9177 88.5388C70.4485 87.6932 70.3234 86.7066 70.2922 85.7357C70.2922 85.4852 69.651 82.228 69.0099 84.0445C66.7893 90.324 73.0132 93.957 78.5959 92.0778H78.5646Z" fill="#DBB65E"/>
<path d="M99.5662 89.2904C100.974 87.7245 95.4065 88.9929 94.9374 89.0086C92.9201 89.1182 90.8715 88.7737 89.0888 87.8811C87.3061 86.9885 85.8674 85.5635 85.0386 83.7783C84.6946 83.0579 84.6477 81.5076 84.0222 81.0065C82.8337 80.0357 82.6929 82.0557 82.7242 82.6978C83.0683 89.6819 94.3588 95.0375 99.5662 89.2904Z" fill="#DBB65E"/>
<path d="M94.3276 86.4405C96.0634 87.1451 98.0025 87.0668 99.7696 86.3935C100.645 86.0646 104.086 84.4674 103.804 83.2459C103.491 81.8366 99.8009 84.0132 98.9252 84.2325C97.1424 84.6866 95.0939 84.624 93.577 83.5434C92.3729 82.6822 91.7005 81.3198 91.2313 79.9731C91.1688 79.7852 89.5737 75.8859 89.3548 77.9217C88.9482 81.7113 90.7153 84.9998 94.3276 86.4405Z" fill="#DBB65E"/>
<path d="M129.263 77.6085C128.84 76.4027 126.495 76.0269 125.416 75.9016C123.821 75.7137 122.366 77.4205 122.241 78.9082C122.225 79.1274 122.288 79.2997 122.444 79.4563C122.601 79.5972 122.788 79.6599 122.992 79.6285C123.586 79.5659 123.961 79.2057 124.43 78.8612C124.665 78.689 124.9 78.2818 125.197 78.1879C125.431 78.1252 125.853 78.2348 126.104 78.2505C126.964 78.3288 128.387 78.6263 129.153 78.1252C129.325 78.0156 129.341 77.7807 129.278 77.6085H129.263Z" fill="#DBB65E"/>
<path d="M146.495 65.8168C149.342 64.4388 149.873 59.8975 149.295 57.1571C148.575 53.7433 144.9 51.3631 141.554 52.3183C138.223 53.2736 137.504 57.2041 138.317 60.1324C139.13 63.0921 142.617 65.9421 145.323 67.1322C145.76 67.3201 146.198 66.913 146.136 66.4745C145.948 64.7363 144.838 63.8907 143.524 62.8572C141.554 61.2756 140.24 59.647 140.522 56.9849C140.694 55.3249 142.101 54.4637 143.649 54.5576C145.463 54.6829 146.761 56.6403 147.184 58.2063C147.903 60.8528 146.323 63.0607 146.183 65.5819C146.183 65.7542 146.339 65.8951 146.495 65.8168Z" fill="#DBB65E"/>
<path d="M148.122 73.1141C147.058 74.038 147.168 75.9955 147.215 77.2952C147.293 79.3466 147.84 81.1631 149.076 82.823C150.937 85.3129 154.924 85.2659 156.989 83.0892C159.24 80.7246 158.631 76.9507 156.394 74.8054C154.784 73.2551 150.655 70.6243 148.419 72.0963C148.184 72.2529 148.122 72.6287 148.231 72.8792C148.935 74.3982 151.312 74.774 152.688 75.4474C154.612 76.3713 156.3 78.2035 155.597 80.4898C155.268 81.5389 154.189 82.0087 153.204 82.1497C151.859 82.3376 150.858 81.2884 150.249 80.2392C149.592 79.1117 149.435 77.718 149.295 76.4496C149.185 75.3691 149.373 74.038 148.607 73.1924C148.482 73.0515 148.278 73.0045 148.122 73.1454V73.1141Z" fill="#DBB65E"/>
<path d="M22.6905 94.9279C27.507 91.5611 28.9613 80.3176 21.158 79.9575C17.7959 79.8009 15.7786 83.058 15.4346 86.002C15.1062 88.8207 16.4667 93.8161 19.3127 95.0062C19.9226 95.2568 20.4699 94.7244 20.4074 94.1293C20.251 92.2032 18.8123 90.4963 18.2963 88.6172C17.7177 86.4248 18.0774 83.2146 20.7045 82.6039C23.5975 81.9462 24.442 85.3756 24.3325 87.4897C24.2074 90.0422 22.3934 91.9057 21.7992 94.2702C21.6584 94.8183 22.1745 95.2725 22.6749 94.9279H22.6905Z" fill="#DBB65E"/>
<path d="M20.7828 100.471C16.1384 102.319 12.9482 110.118 16.5606 114.142C18.7186 116.538 22.6593 116.679 24.6453 113.97C26.9441 110.822 26.3342 105.686 23.8478 102.773C23.0972 101.896 21.8149 102.554 21.8931 103.635C22.0807 106.406 23.8947 108.63 22.8939 111.511C21.6429 115.097 17.7021 112.435 17.405 109.883C17.0453 106.766 19.61 103.478 21.1894 101.004C21.2832 100.863 21.2832 100.722 21.1737 100.581C21.0643 100.44 20.9235 100.409 20.7672 100.471H20.7828Z" fill="#DBB65E"/>
<path d="M82.8805 151.897C82.1768 153.729 82.4427 155.749 82.5991 157.66C82.9587 161.966 83.3653 166.226 81.7077 170.313C78.8147 177.469 71.8089 181.086 65.8978 185.221C65.5069 185.502 65.8196 186.113 66.2575 186.051C73.232 184.923 79.8937 178.706 83.4748 172.881C87.306 166.68 84.9916 158.505 83.4122 151.96C83.3497 151.694 82.9744 151.615 82.8649 151.897H82.8805Z" fill="#DBB65E"/>
<path d="M110.497 144.24C109.872 152.148 114.516 159.993 120.177 165.176C123.351 168.073 127.37 170.062 131.483 171.237C135.565 172.396 140.553 173.601 144.697 172.239C145.166 172.082 145.151 171.299 144.682 171.158C140.725 169.968 136.519 169.765 132.515 168.637C128.934 167.635 125.666 165.865 122.695 163.658C116.017 158.725 113.578 151.694 111.123 144.146C111.013 143.833 110.513 143.927 110.497 144.24Z" fill="#DBB65E"/>
<path d="M66.0699 187.335C66.5547 193.003 74.6082 195.102 79.1745 195.243C83.209 195.368 86.3053 193.176 90.0271 192.095C94.9218 190.67 100.489 192.878 105.337 193.614C108.323 194.084 112.092 193.692 114.594 191.845C116.486 190.451 118.035 188.634 120.083 187.46C122.491 186.066 126.072 187.068 128.7 187.241C136.143 187.726 140.021 182.183 143.524 176.31C144.15 175.261 142.821 174.243 142.007 175.183C139.787 177.72 137.91 180.679 135.565 183.091C132.937 185.784 128.277 184.86 124.978 184.532C122.585 184.297 119.849 184.532 117.863 186.035C114.235 188.807 111.826 191.469 106.869 191.39C99.9259 191.265 94.0774 187.945 87.1498 190.607C82.6461 192.33 79.1276 193.645 74.2016 192.393C71.5745 191.735 67.5399 189.903 66.5391 187.194C66.4453 186.927 66.0543 187.068 66.0856 187.335H66.0699Z" fill="#DBB65E"/>
<path d="M99.5038 157.096C98.2527 157.033 97.5959 158.302 97.9243 159.398C98.0494 159.821 98.3778 159.993 98.7375 160.024C99.0346 160.228 99.363 160.306 99.7071 160.244C100.207 160.15 100.52 159.805 100.739 159.367C101.161 158.49 100.52 157.174 99.5038 157.112V157.096Z" fill="#DBB65E"/>
<path d="M104.039 166.21C103.976 165.114 102.616 164.863 101.802 165.239C100.817 165.709 100.364 166.962 101.318 167.729C101.333 167.745 101.365 167.745 101.38 167.76C101.443 167.823 101.505 167.886 101.568 167.933C102.084 168.355 102.881 168.199 103.366 167.792C103.851 167.369 104.07 166.821 104.039 166.194V166.21Z" fill="#DBB65E"/>
<path d="M44.9745 157.174C52.4494 157.832 59.7836 160.572 67.2897 160.322C71.5432 160.181 79.9251 159.555 80.9416 154.199C81.1136 153.291 79.9877 152.852 79.3465 153.322C76.7663 155.154 75.0148 156.485 71.7934 157.143C69.1037 157.675 66.2733 157.722 63.5523 157.613C57.5317 157.378 50.7136 153.886 44.8963 156.579C44.6148 156.705 44.6774 157.143 44.9901 157.174H44.9745Z" fill="#DBB65E"/>
<path d="M115.705 145.649C121.319 147.747 127.214 145.117 131.499 141.499C136.472 137.303 142.195 130.115 143.79 123.726C144.04 122.724 142.946 122.066 142.211 122.849C138.348 127.014 136.112 132.699 132.281 137.036C130.232 139.37 127.746 141.39 124.947 142.752C122.022 144.177 118.832 144.052 115.767 144.929C115.439 145.023 115.298 145.508 115.689 145.649H115.705Z" fill="#DBB65E"/>
<path d="M144.087 119.388C144.791 118.37 145.385 117.29 145.964 116.193C146.511 115.176 147.528 114.048 146.965 112.874C146.824 112.56 146.574 112.42 146.214 112.466C144.994 112.654 144.666 113.954 144.165 114.941C143.54 116.209 142.993 117.446 142.649 118.824C142.461 119.607 143.649 119.999 144.072 119.388H144.087Z" fill="#DBB65E"/>
<path d="M145.244 121.439C146.308 121.158 147.168 120.155 147.997 119.466C149.154 118.511 150.467 117.869 151.703 117.039C152.625 116.413 151.906 114.706 150.811 115.003C149.31 115.411 148.012 116.428 146.933 117.525C146.026 118.448 144.759 119.764 144.869 121.158C144.869 121.314 145.072 121.471 145.244 121.424V121.439Z" fill="#DBB65E"/>
<path d="M145.979 123.647C147.043 124.242 148.435 123.914 149.561 123.71C150.843 123.475 152.516 123.131 153.533 122.269C154.346 121.58 153.814 119.952 152.641 120.249C151.5 120.531 150.405 121.126 149.295 121.533C148.2 121.941 146.996 122.066 145.948 122.583C145.463 122.817 145.542 123.413 145.964 123.647H145.979Z" fill="#DBB65E"/>
<path d="M36.1859 150.535C36.2797 151.788 37.4057 152.649 38.4221 153.307C39.5011 154.011 41.5341 155.781 42.9102 155.139C43.1135 155.045 43.2542 154.904 43.3637 154.716C43.4732 154.528 43.5044 154.324 43.4732 154.105C43.2699 152.711 41.1588 152.179 40.0641 151.694C39.3135 151.365 38.5941 151.036 37.8279 150.754C37.39 150.597 36.7332 150.597 36.3579 150.41C36.311 150.41 36.2797 150.41 36.2485 150.425C36.2172 150.457 36.2016 150.488 36.2016 150.535H36.1859Z" fill="#DBB65E"/>
<path d="M33.4963 157.785C34.7473 159.837 38.7975 158.96 40.5802 158.239C41.5967 157.832 41.1745 156.517 40.2831 156.313C39.2979 156.094 38.3284 156.344 37.3588 156.532C36.2955 156.752 35.2321 156.767 34.1531 156.579C33.4494 156.454 33.1835 157.284 33.4963 157.785Z" fill="#DBB65E"/>
<path d="M37.0148 164.033C38.2345 164.127 39.1884 163.235 40.1111 162.53C41.2683 161.653 42.5662 160.823 43.6452 159.868C43.9267 159.617 44.1456 159.21 44.0518 158.803C44.0049 158.615 43.958 158.427 43.8172 158.271C43.4419 157.879 42.9884 157.769 42.488 157.942C41.2683 158.365 40.2049 159.398 39.2353 160.244C38.3127 161.042 36.8897 162.045 36.5769 163.266C36.4831 163.61 36.6395 164.002 37.0304 164.033H37.0148Z" fill="#DBB65E"/>
<path d="M119.473 191.594C121.678 193.097 123.789 194.773 126.135 196.041C128.793 197.482 130.013 199.643 132.421 201.381C134.658 203.01 136.753 204.842 139.021 206.439C141.21 207.99 143.509 210.088 146.183 210.526C146.918 210.652 147.246 209.775 146.886 209.258C145.385 207.05 142.852 205.688 140.631 204.278C137.957 202.587 135.549 200.504 132.984 198.656C131.999 197.936 131.733 196.48 130.858 195.587C130.185 194.898 129.059 194.585 128.215 194.194C125.431 192.956 122.914 190.952 119.817 190.717C119.364 190.686 119.067 191.296 119.473 191.578V191.594Z" fill="#DBB65E"/>
<path d="M149.811 209.9C150.436 208.037 151.625 206.11 152.829 204.576C153.517 203.715 154.361 202.791 155.565 202.853C156.863 202.932 158.052 204.607 157.973 205.813C157.833 208.037 154.94 209.822 153.266 210.84C151.453 211.951 149.435 212.625 147.574 213.627C147.105 213.878 146.98 214.708 147.606 214.895C152.406 216.289 162.555 209.884 160.476 204.2C159.475 201.444 156.066 199.299 153.329 201.037C150.42 202.885 149.388 206.502 149.169 209.728C149.138 210.104 149.685 210.26 149.811 209.884V209.9Z" fill="#DBB65E"/>
<path d="M116.377 2.69336C118.144 9.03546 126.229 42.2806 127.636 48.701C128.402 52.1931 129.247 55.6538 130.138 59.1146C130.826 61.7767 131.311 64.4388 133.047 66.6311C133.375 67.0539 134.142 66.866 134.173 66.3023C134.36 63.186 133.094 60.2107 132.312 57.2198C131.405 53.7747 130.623 50.2983 129.763 46.8375C128.34 41.0905 119.927 7.51648 116.627 2.58374C116.549 2.45846 116.33 2.55242 116.377 2.69336Z" fill="#DBB65E"/>
<path d="M138.723 82.1654C138.098 86.9258 140.287 91.3418 141.491 95.8361C142.774 100.628 143.915 105.874 146.136 110.305C146.449 110.932 147.496 110.869 147.559 110.086C147.887 105.498 145.635 100.863 144.306 96.5564C142.805 91.655 140.881 86.9102 139.083 82.1027C139.005 81.9148 138.739 81.9774 138.708 82.1654H138.723Z" fill="#DBB65E"/>
<path d="M0.218968 0.501278C3.76999e-05 4.38484 6.89633 32.2588 7.9128 35.9701C9.1951 40.6679 9.96136 45.3814 11.0091 50.1263C12.0412 54.8084 13.6363 59.381 14.9655 63.9849C16.2321 68.3696 16.2478 73.1927 18.0618 77.3895C18.3276 78.0158 19.1721 77.7966 19.2815 77.2015C20.9704 68.6828 16.1852 59.1618 13.949 51.1128C11.4782 42.2495 3.73749 9.1923 0.953947 0.391661C0.844482 0.000173464 0.234606 0.12545 0.218968 0.501278Z" fill="#DBB65E"/>
<path d="M28.5703 112.529C28.758 115.583 29.7119 118.542 30.353 121.533C31.088 125.025 31.5571 128.549 32.5423 131.978C33.3555 134.813 34.4189 137.522 35.0287 140.419C35.5448 142.924 35.5448 145.32 36.9522 147.497C37.3119 148.061 38.0625 147.669 38.172 147.137C39.2197 141.953 36.5925 136.081 34.9662 131.242C32.902 125.057 32.558 117.947 28.7736 112.435C28.7111 112.341 28.5703 112.435 28.586 112.513L28.5703 112.529Z" fill="#DBB65E"/>
<path d="M48.7745 176.843C52.4337 177.892 56.5309 176.749 60.2683 176.498C65.7103 176.138 72.763 176.952 77.7202 174.525C78.3769 174.196 78.2206 173.257 77.5012 173.131C72.4971 172.301 66.5391 173.664 61.4724 174.04C57.344 174.353 52.6058 174.666 48.7745 176.295C48.5556 176.389 48.5399 176.764 48.7745 176.827V176.843Z" fill="#DBB65E"/>
<path d="M134.454 169.671C137.519 170.736 140.662 170.281 143.837 169.984C147.324 169.655 151.625 169.906 154.862 168.559C155.331 168.355 155.331 167.619 154.846 167.447C151.75 166.351 148.059 167.322 144.885 167.729C141.397 168.167 137.816 168.277 134.439 169.311C134.267 169.357 134.298 169.624 134.439 169.686L134.454 169.671Z" fill="#DBB65E"/>
<path d="M161.492 166.758C162.993 167.228 163.947 167.165 165.558 166.899C169.092 166.335 171 168.355 172.845 170.814C173.908 172.239 175.3 173.413 176.536 174.666C178.256 176.389 185.981 183.31 182.603 185.675C181.993 186.097 182.541 186.849 183.119 186.833C190 186.677 181.852 177.109 180.336 175.465C178.209 173.147 175.785 171.127 173.877 168.621C170.249 163.83 167.028 164.707 161.586 165.85C161.164 165.944 161.007 166.601 161.492 166.758Z" fill="#DBB65E"/>
<path d="M151.14 192.424C155.988 192.549 160.851 191.375 165.589 190.435C170.281 189.511 175.551 189.057 179.945 187.147C180.649 186.849 180.539 185.628 179.71 185.612C174.925 185.518 169.905 187.209 165.245 188.227C160.523 189.261 155.566 190.028 151.062 191.813C150.78 191.923 150.843 192.408 151.156 192.424H151.14Z" fill="#DBB65E"/>
<path d="M42.4567 176.968C39.1415 176.389 34.3719 176.451 31.3538 178.033C29.2896 179.098 29.8526 181.963 30.2748 183.764C31.7448 190.106 36.1234 199.032 41.1901 203.119C41.9876 203.761 42.9102 202.806 42.6287 201.976C41.7061 199.377 39.6732 197.294 38.1563 195.023C36.702 192.847 35.6386 190.326 34.4814 187.977C33.6995 186.364 30.5876 180.993 33.0427 179.614C35.7012 178.127 39.6575 178.988 42.5662 177.688C42.9102 177.532 42.8008 177.062 42.4567 176.999V176.968Z" fill="#DBB65E"/>
<path d="M44.0362 203.636C46.9135 206.11 49.744 205.985 53.4189 205.547C58.4386 204.967 63.4428 204.529 68.4781 204.106C73.7794 203.667 79.0806 203.119 84.3818 202.65C89.6205 202.18 95.5004 202.477 100.536 200.943C101.49 200.645 101.067 199.345 100.27 199.189C96.0477 198.422 91.4032 199.345 87.1497 199.706C82.3489 200.113 77.5637 200.63 72.7786 201.115C68.1028 201.585 63.4271 202.008 58.7514 202.477C53.7942 202.978 49.4469 204.325 44.5366 202.744C44.2551 202.65 44.0518 202.728 43.9111 202.978C43.7703 203.229 43.8172 203.464 44.0362 203.636Z" fill="#DBB65E"/>
<path d="M109.543 198.562C112.045 199.11 114.75 198.719 117.268 198.5C119.833 198.296 122.757 198.437 125.103 197.31C125.572 197.09 125.681 196.213 125.071 196.057C122.757 195.462 120.364 196.057 118.019 196.37C115.173 196.746 112.123 196.824 109.434 197.858C109.058 197.999 109.215 198.484 109.543 198.547V198.562Z" fill="#DBB65E"/>
<path d="M132.234 195.524C134.595 196.01 136.894 195.665 139.255 195.274C141.679 194.867 144.415 194.663 146.542 193.363C147.027 193.066 146.683 192.393 146.245 192.314C144.15 191.891 142.007 192.659 139.943 193.082C137.378 193.614 134.751 193.912 132.218 194.601C131.702 194.741 131.718 195.415 132.234 195.509V195.524Z" fill="#DBB65E"/>
<path d="M58.8609 208.224C66.0074 208.303 73.2164 207.629 80.316 206.925C84.2411 206.549 88.1662 206.001 92.0913 205.562C96.1572 205.108 100.489 205.14 104.445 204.153C105.29 203.949 105.321 202.712 104.414 202.603C97.549 201.71 89.8082 203.621 82.9901 204.591C74.9992 205.719 66.6642 205.876 58.8609 208.052C58.7671 208.084 58.7514 208.224 58.8609 208.224Z" fill="#DBB65E"/>
<path d="M113.171 201.867C115.657 202.008 118.159 201.804 120.646 201.522C123.117 201.24 126.041 201.256 128.152 199.847C128.668 199.502 128.324 198.766 127.808 198.688C125.431 198.281 122.71 199.283 120.349 199.674C117.894 200.097 115.454 200.52 113.093 201.35C112.843 201.444 112.905 201.851 113.171 201.867Z" fill="#DBB65E"/>
<path d="M134.032 198.406C137.66 199.001 141.554 197.905 145.15 197.341C149.169 196.715 153.188 196.041 157.207 195.415C163.071 194.491 170.015 193.411 175.363 190.811C175.848 190.576 175.801 189.699 175.191 189.699C169.452 189.731 163.619 192.158 157.958 193.191C154.111 193.896 150.233 194.413 146.386 195.055C142.336 195.728 137.613 195.994 133.954 197.905C133.829 197.967 133.782 198.061 133.797 198.187C133.813 198.312 133.891 198.39 134.032 198.406Z" fill="#DBB65E"/>
<path d="M50.1192 188.086C49.9003 188.008 49.6813 187.977 49.4468 187.945C49.525 184.25 47.7892 180.554 46.6789 177.093C45.2715 172.709 44.99 166.899 42.0344 163.203C41.7842 162.89 41.2838 163.125 41.3307 163.517C42.2377 171.519 44.1143 180.491 47.3826 187.992C47.1793 188.008 46.976 188.055 46.7727 188.118C45.6624 188.478 45.0369 189.934 45.9908 190.811C46.7571 191.516 48.055 191.375 49.0089 191.406C49.7752 191.422 50.6822 191.203 50.9949 190.42C51.292 189.699 50.9324 188.337 50.1036 188.071L50.1192 188.086Z" fill="#DBB65E"/>
<path d="M166.137 175.011C165.558 174.525 164.901 174.556 164.182 174.635C164.072 174.635 163.947 174.666 163.838 174.682C163.869 174.588 163.885 174.494 163.885 174.4C163.885 170.845 162.649 167.337 161.789 163.908C160.695 159.492 159.49 155.092 158.302 150.707C156.019 142.361 154.565 132.746 150.514 125.041C150.389 124.791 150.202 124.712 149.936 124.791C149.67 124.869 149.545 125.057 149.592 125.323C150.327 133.904 153.658 142.768 155.831 151.099C156.848 155.013 157.88 158.928 158.849 162.859C159.803 166.742 160.304 171.127 162.149 174.682C162.227 174.823 162.352 174.948 162.493 175.026C162.383 175.089 162.29 175.167 162.211 175.246C161.664 175.59 161.273 176.107 161.32 176.858C161.351 177.297 161.774 177.594 162.165 177.657C162.415 177.688 162.665 177.688 162.915 177.626C164.057 178.111 165.495 178.002 166.371 177.031C166.934 176.404 166.731 175.527 166.137 175.011Z" fill="#DBB65E"/>
<path d="M102.365 196.636C103.617 199.455 105.227 202.008 107.135 204.419C109.324 207.191 112.061 211.372 107.995 213.768C105.681 215.13 99.1128 215.882 99.0972 219.405C99.0972 220.047 99.5507 220.58 100.239 220.486C102.24 220.204 104.414 218.497 106.353 217.745C108.652 216.853 110.951 215.819 112.28 213.643C113.765 211.215 112.796 208.24 111.482 206.001C109.481 202.587 106.165 198.813 103.429 195.979C102.944 195.478 102.037 195.932 102.35 196.636H102.365Z" fill="#DBB65E"/>
<path d="M100.27 223.853C100.145 226.155 102.756 229.819 100.614 231.667C99.7539 232.403 98.6749 231.275 98.1901 230.758C97.33 229.835 97.2362 228.832 97.2362 227.611C97.2362 225.278 98.3778 223.148 98.456 220.862C98.4716 220.204 97.6428 219.499 97.0642 220.094C93.358 223.915 93.0609 233.781 99.8165 234.579C102.287 234.877 103.804 232.246 103.835 230.148C103.867 227.94 102.616 224.917 100.817 223.602C100.614 223.461 100.27 223.571 100.254 223.853H100.27Z" fill="#DBB65E"/>
</g>
</svg>
