<svg width="241" height="165" viewBox="0 0 241 165" fill="none" xmlns="http://www.w3.org/2000/svg">
<g filter="url(#filter0_d_228_5475)">
<rect x="24" y="20" width="193" height="116.648" rx="5" fill="white"/>
<ellipse cx="8.2698" cy="8.26979" rx="8.2698" ry="8.26979" transform="matrix(-0.995396 -0.0958442 -0.0958442 0.995396 140.5 57.9097)" fill="#335269"/>
<path d="M133.196 68.0737L133.283 68.0726L133.901 68.0692L136.718 68.0559L133.889 65.4812L136.693 62.8799L133.876 62.8933L133.259 62.8966H133.171L130.366 65.498L133.196 68.0737Z" fill="#DBB65D"/>
<path d="M128.585 68.0737L128.672 68.0726L129.289 68.0703L132.107 68.0559L129.277 65.4812L132.082 62.8799L129.265 62.8933L128.647 62.8966L128.56 62.8977L125.755 65.4991L128.585 68.0737Z" fill="#DBB65D"/>
<path d="M115.51 47.9849H117.013L116.266 45.9946L115.51 47.9849Z" fill="black"/>
<path d="M104.211 35.0087C102.16 35.0087 100.5 36.6687 100.5 38.7112V77.6483H131.093V75.797C125.461 75.797 120.899 71.2341 120.899 65.6021C120.899 59.9702 125.461 55.3985 131.093 55.3985V38.7112C131.093 36.66 132.753 35 134.805 35H104.211V35.0087ZM106.062 42.4224H111.625C112.138 42.4224 112.555 42.8396 112.555 43.3524C112.555 43.8651 112.138 44.2823 111.625 44.2823H109.774V50.7661C109.774 51.2788 109.356 51.696 108.844 51.696C108.331 51.696 107.914 51.2788 107.914 50.7661V44.2736H106.062C105.55 44.2736 105.132 43.8565 105.132 43.3437C105.132 42.8309 105.55 42.4224 106.062 42.4224ZM105.132 57.2585H112.546C113.059 57.2585 113.476 57.6756 113.476 58.1884C113.476 58.7012 113.059 59.1184 112.546 59.1184H105.132C104.62 59.1184 104.203 58.7012 104.203 58.1884C104.211 57.667 104.62 57.2585 105.132 57.2585ZM118.117 73.0158H105.132C104.62 73.0158 104.203 72.5986 104.203 72.0859C104.203 71.5731 104.62 71.1559 105.132 71.1559H118.109C118.621 71.1559 119.039 71.5731 119.039 72.0859C119.039 72.5986 118.63 73.0158 118.117 73.0158ZM118.117 68.3834H105.132C104.62 68.3834 104.203 67.9662 104.203 67.4534C104.203 66.9406 104.62 66.5234 105.132 66.5234H118.109C118.621 66.5234 119.039 66.9406 119.039 67.4534C119.039 67.9662 118.63 68.3834 118.117 68.3834ZM118.117 63.7422H105.132C104.62 63.7422 104.203 63.325 104.203 62.8122C104.203 62.2994 104.62 61.8822 105.132 61.8822H118.109C118.621 61.8822 119.039 62.2994 119.039 62.8122C119.039 63.3337 118.63 63.7422 118.117 63.7422ZM119.369 51.6352C118.891 51.8177 118.352 51.5657 118.169 51.0876L117.709 49.8361H114.815L114.354 51.0876C114.171 51.5657 113.641 51.8177 113.155 51.6352C112.677 51.4527 112.424 50.9225 112.607 50.4358L115.388 43.0221C115.562 42.5441 116.092 42.292 116.579 42.4658C116.84 42.5614 117.04 42.7613 117.135 43.0221L119.916 50.4358C120.09 50.9225 119.847 51.4614 119.369 51.6352ZM125.948 51.5917C125.818 51.6526 125.679 51.6873 125.531 51.6873C124.801 51.6873 124.731 51.2441 123.68 49.1321C122.585 51.331 122.55 51.6873 121.828 51.6873C121.316 51.6873 120.899 51.2701 120.907 50.7574C120.907 50.6096 120.942 50.4705 121.003 50.3402L122.645 47.0462L121.003 43.7522C120.803 43.2828 121.029 42.7353 121.498 42.5441C121.924 42.3702 122.411 42.5267 122.645 42.9178L123.671 44.9689L124.697 42.9178C124.957 42.4832 125.531 42.3355 125.966 42.6049C126.357 42.8396 126.522 43.335 126.339 43.7522L124.697 47.0462L126.339 50.3402C126.583 50.8095 126.4 51.3658 125.948 51.5917Z" fill="#335269"/>
<path d="M132.944 39.6411V42.4223H138.507V39.6411C138.507 38.1027 137.264 36.8599 135.726 36.8599C134.187 36.8599 132.944 38.1027 132.944 39.6411Z" fill="#375B74" fill-opacity="0.25"/>
<path d="M88.7266 100.297C89.7109 100.297 90.5586 100.652 91.2695 101.363C92.0508 102.145 92.5938 103.371 92.8984 105.043C93.0547 105.941 93.1328 106.957 93.1328 108.09C93.1328 109.223 93.0508 110.238 92.8867 111.137C92.7305 112.035 92.5156 112.777 92.2422 113.363C91.9766 113.949 91.6523 114.434 91.2695 114.816C90.5586 115.527 89.7109 115.883 88.7266 115.883C87.5 115.883 86.4844 115.32 85.6797 114.195C85.2578 113.609 84.9258 112.797 84.6836 111.758C84.4492 110.719 84.332 109.496 84.332 108.09C84.332 105.488 84.9023 103.441 86.043 101.949L84.543 102.031V100.52C86.1133 100.371 87.5078 100.297 88.7266 100.297ZM87.7188 101.902C87.125 102.543 86.7148 103.352 86.4883 104.328C86.2695 105.305 86.1602 106.477 86.1602 107.844C86.1602 109.211 86.2227 110.316 86.3477 111.16C86.4805 111.996 86.668 112.641 86.9102 113.094C87.1602 113.547 87.4297 113.871 87.7188 114.066C88.0156 114.254 88.3516 114.348 88.7266 114.348C89.1016 114.348 89.4336 114.254 89.7227 114.066C90.0195 113.871 90.2891 113.547 90.5312 113.094C91.0469 112.148 91.3047 110.48 91.3047 108.09C91.3047 105.355 90.9531 103.531 90.25 102.617C90.0234 102.328 89.7852 102.129 89.5352 102.02C89.293 101.902 89.0234 101.844 88.7266 101.844L87.7188 101.902ZM99.4023 100.52C99.7695 100.371 100.152 100.297 100.551 100.297C100.949 100.297 101.309 100.363 101.629 100.496C101.949 100.621 102.211 100.781 102.414 100.977C102.625 101.172 102.805 101.43 102.953 101.75C103.109 102.062 103.227 102.367 103.305 102.664C103.383 102.953 103.445 103.305 103.492 103.719C103.555 104.359 103.586 105.074 103.586 105.863V115.648H99.1445V114.16H101.816V105.863C101.816 104.488 101.742 103.57 101.594 103.109C101.406 102.531 101.16 102.16 100.855 101.996C100.668 101.895 100.418 101.844 100.105 101.844C99.8008 101.844 99.4922 101.93 99.1797 102.102C98.8672 102.273 98.6172 102.484 98.4297 102.734C98.0547 103.234 97.8008 103.691 97.668 104.105L97.5859 104.363L96.5664 115.648H94.7852L95.6875 105.652C95.7656 104.754 95.8047 104.156 95.8047 103.859C95.8125 103.555 95.8008 103.289 95.7695 103.062C95.7383 102.828 95.6992 102.621 95.6523 102.441C95.6133 102.254 95.5586 102.043 95.4883 101.809C95.418 101.574 95.3633 101.398 95.3242 101.281C95.2852 101.156 95.2305 101.004 95.1602 100.824C95.0898 100.637 95.0547 100.539 95.0547 100.531H96.8242C96.8711 100.648 96.9609 100.918 97.0938 101.34C97.2266 101.762 97.3164 102.078 97.3633 102.289H97.4688C97.5391 102.117 97.6797 101.902 97.8906 101.645C98.1094 101.387 98.3242 101.172 98.5352 101C98.7539 100.82 99.043 100.66 99.4023 100.52ZM111.672 115.648V100.566C112.93 100.387 114.078 100.297 115.117 100.297C116.164 100.297 116.969 100.363 117.531 100.496C118.094 100.629 118.551 100.875 118.902 101.234C119.254 101.586 119.492 102.039 119.617 102.594C119.742 103.141 119.805 103.863 119.805 104.762V115.648H111.672ZM118.023 114.16V104.762C118.023 104.098 117.984 103.582 117.906 103.215C117.836 102.84 117.684 102.543 117.449 102.324C117.215 102.105 116.926 101.965 116.582 101.902C116.246 101.84 115.797 101.809 115.234 101.809C114.672 101.809 114.078 101.848 113.453 101.926V114.16H118.023ZM124.645 115.648H122.875V100.531H124.645V115.648ZM128.512 100.484H133.738V102.055C133.512 102.969 133.188 104.289 132.766 106.016C132.344 107.742 132.039 108.988 131.852 109.754C131.656 110.816 131.285 112.781 130.738 115.648H128.98C129.051 115.242 129.23 114.285 129.52 112.777C129.809 111.27 129.992 110.289 130.07 109.836L132.016 102.043H126.742V97.3203H128.512V100.484ZM138.402 115.648H136.176L134.922 100.531H136.633L137.324 108.852C138.121 108.562 138.707 108.086 139.082 107.422C139.465 106.75 139.715 105.742 139.832 104.398L140.172 100.531H141.848L141.508 104.387C141.383 105.754 141.148 106.836 140.805 107.633C140.219 109.023 139.102 109.918 137.453 110.316L137.77 114.137H138.402C139.527 114.137 140.523 113.836 141.391 113.234C142.258 112.625 142.938 111.801 143.43 110.762C143.93 109.715 144.242 108.504 144.367 107.129L144.977 100.531H146.664L146.055 107.129C145.82 109.77 145.047 111.852 143.734 113.375C143.336 113.844 142.891 114.242 142.398 114.57C141.906 114.891 141.316 115.152 140.629 115.355C139.949 115.551 139.207 115.648 138.402 115.648ZM148.223 100.66C148.246 100.66 148.422 100.637 148.75 100.59C149.086 100.543 149.414 100.5 149.734 100.461C150.633 100.352 151.523 100.297 152.406 100.297C153.289 100.297 153.996 100.383 154.527 100.555C155.059 100.727 155.477 100.949 155.781 101.223C156.094 101.488 156.34 101.832 156.52 102.254C156.699 102.668 156.816 103.078 156.871 103.484C156.926 103.891 156.953 104.359 156.953 104.891V115.648H155.184V104.891C155.184 103.312 154.801 102.367 154.035 102.055C153.668 101.898 153.23 101.82 152.723 101.82C152.215 101.82 151.645 101.84 151.012 101.879V111.512C151.012 113.098 150.855 114.195 150.543 114.805C150.238 115.414 149.633 115.719 148.727 115.719C148.438 115.719 148.074 115.668 147.637 115.566V114.02C148.012 114.09 148.219 114.125 148.258 114.125C148.609 114.125 148.859 114.004 149.008 113.762C149.156 113.512 149.23 113.141 149.23 112.648V102.043C149.035 102.066 148.699 102.109 148.223 102.172V100.66Z" fill="black"/>
<rect x="24.5" y="20.5" width="192" height="115.648" rx="4.5" stroke="#DBB65D"/>
</g>
<defs>
<filter id="filter0_d_228_5475" x="0" y="0" width="241" height="164.648" filterUnits="userSpaceOnUse" color-interpolation-filters="sRGB">
<feFlood flood-opacity="0" result="BackgroundImageFix"/>
<feColorMatrix in="SourceAlpha" type="matrix" values="0 0 0 0 0 0 0 0 0 0 0 0 0 0 0 0 0 0 127 0" result="hardAlpha"/>
<feOffset dy="4"/>
<feGaussianBlur stdDeviation="12"/>
<feComposite in2="hardAlpha" operator="out"/>
<feColorMatrix type="matrix" values="0 0 0 0 0.245573 0 0 0 0 0.594951 0 0 0 0 0.854167 0 0 0 0.15 0"/>
<feBlend mode="normal" in2="BackgroundImageFix" result="effect1_dropShadow_228_5475"/>
<feBlend mode="normal" in="SourceGraphic" in2="effect1_dropShadow_228_5475" result="shape"/>
</filter>
</defs>
</svg>
