<svg width="184" height="269" viewBox="0 0 184 269" fill="none" xmlns="http://www.w3.org/2000/svg">
<rect x="20" y="20" width="144" height="57" rx="5" fill="#E96D5A"/>
<path d="M69.9395 54.0674H68.2402L67.7129 38.584H70.4375L69.9395 54.0674ZM67.5811 58.4326C67.5811 57.8369 67.708 57.3828 67.9619 57.0703C68.2158 56.7578 68.5967 56.6016 69.1045 56.6016C69.5732 56.6016 69.9443 56.748 70.2178 57.041C70.4912 57.3242 70.6279 57.7881 70.6279 58.4326C70.6279 59.0576 70.4814 59.5166 70.1885 59.8096C69.9053 60.1025 69.5439 60.249 69.1045 60.249C68.6064 60.249 68.2256 60.0977 67.9619 59.7949C67.708 59.4824 67.5811 59.0283 67.5811 58.4326ZM74.5098 60V41.2207C74.9492 41.1621 75.3643 41.1133 75.7549 41.0742C76.1455 41.0254 76.5117 40.9814 76.8535 40.9424C77.3223 40.9033 77.752 40.874 78.1426 40.8545C78.543 40.8252 78.8945 40.8105 79.1973 40.8105C80.0957 40.8105 80.8721 40.8887 81.5264 41.0449C82.1904 41.2012 82.7666 41.4795 83.2549 41.8799C83.4014 41.9971 83.5283 42.124 83.6357 42.2607C83.7529 42.3975 83.8604 42.5439 83.958 42.7002C84.2217 43.1494 84.4072 43.6914 84.5146 44.3262C84.6318 44.9512 84.6904 45.6836 84.6904 46.5234V60H82.4492V46.5088C82.4492 45.708 82.3857 45.0586 82.2588 44.5605C82.1416 44.0625 81.9268 43.6768 81.6143 43.4033C81.3115 43.1299 80.9502 42.9492 80.5303 42.8613C80.1201 42.7637 79.6172 42.7148 79.0215 42.7148C78.7383 42.7148 78.4062 42.7295 78.0254 42.7588C77.6543 42.7783 77.2295 42.8174 76.751 42.876V60H74.5098ZM88.543 60V41.1035H90.7842V60H88.543ZM99.6318 60.3076C98.9482 60.3076 98.333 60.1855 97.7861 59.9414C97.2393 59.6973 96.7559 59.3359 96.3359 58.8574C96.0039 58.4863 95.7061 58.042 95.4424 57.5244C95.1885 57.0068 94.9736 56.4209 94.7979 55.7666C94.5928 55.0635 94.4414 54.2773 94.3438 53.4082C94.2461 52.5293 94.1973 51.5771 94.1973 50.5518V41.1182H96.4531V50.5518C96.4531 52.0654 96.5312 53.3398 96.6875 54.375C96.8535 55.4004 97.0977 56.2061 97.4199 56.792C97.7324 57.3682 98.0693 57.7734 98.4307 58.0078C98.8018 58.2422 99.2217 58.3594 99.6904 58.3594C100.169 58.3594 100.589 58.2373 100.95 57.9932C101.312 57.749 101.644 57.3486 101.946 56.792C102.259 56.2256 102.493 55.4297 102.649 54.4043C102.815 53.3691 102.898 52.085 102.898 50.5518C102.898 49.0674 102.82 47.8027 102.664 46.7578C102.508 45.7031 102.269 44.8828 101.946 44.2969C101.644 43.7305 101.307 43.3301 100.936 43.0957C100.564 42.8516 100.169 42.7246 99.749 42.7148C99.5342 42.7148 99.3242 42.7246 99.1191 42.7441C98.9141 42.7637 98.6895 42.793 98.4453 42.832V40.9277C98.6699 40.8887 98.9092 40.8594 99.1631 40.8398C99.417 40.8203 99.6514 40.8105 99.8662 40.8105C100.481 40.8105 101.053 40.9229 101.58 41.1475C102.107 41.3623 102.576 41.6943 102.986 42.1436C103.377 42.5537 103.719 43.0713 104.012 43.6963C104.314 44.3213 104.554 45.0342 104.729 45.835C104.886 46.499 105.003 47.2314 105.081 48.0322C105.159 48.833 105.198 49.6826 105.198 50.5811C105.198 51.665 105.135 52.6709 105.008 53.5986C104.891 54.5264 104.725 55.3418 104.51 56.0449C104.305 56.7383 104.046 57.3486 103.733 57.876C103.431 58.4033 103.089 58.833 102.708 59.165C102.269 59.5654 101.785 59.8535 101.258 60.0293C100.74 60.2148 100.198 60.3076 99.6318 60.3076ZM107.879 60V58.125H114.178V46.5088C114.178 45.3076 114.026 44.4189 113.724 43.8428C113.421 43.2666 112.898 42.9199 112.156 42.8027C111.99 42.7734 111.81 42.7539 111.614 42.7441C111.429 42.7246 111.238 42.7148 111.043 42.7148C110.467 42.7148 109.964 42.7295 109.534 42.7588C109.114 42.7783 108.558 42.8271 107.864 42.9053V40.9863C108.392 40.9277 108.899 40.8838 109.388 40.8545C109.876 40.8252 110.354 40.8105 110.823 40.8105C111.478 40.8105 112.024 40.835 112.464 40.8838C112.903 40.9326 113.289 41.0107 113.621 41.1182C114.08 41.2646 114.48 41.4697 114.822 41.7334C115.174 41.9873 115.462 42.2949 115.687 42.6562C115.853 42.9102 115.989 43.2422 116.097 43.6523C116.204 44.0527 116.282 44.502 116.331 45C116.38 45.4883 116.404 45.9961 116.404 46.5234V58.125H117.898V60H107.879Z" fill="white"/>
<rect x="20" y="174" width="144" height="57" rx="5" fill="#E96D5A" fill-opacity="0.75"/>
<path d="M69.9395 208.067H68.2402L67.7129 192.584H70.4375L69.9395 208.067ZM67.5811 212.433C67.5811 211.837 67.708 211.383 67.9619 211.07C68.2158 210.758 68.5967 210.602 69.1045 210.602C69.5732 210.602 69.9443 210.748 70.2178 211.041C70.4912 211.324 70.6279 211.788 70.6279 212.433C70.6279 213.058 70.4814 213.517 70.1885 213.81C69.9053 214.103 69.5439 214.249 69.1045 214.249C68.6064 214.249 68.2256 214.098 67.9619 213.795C67.708 213.482 67.5811 213.028 67.5811 212.433ZM74.5098 214V195.221C74.9492 195.162 75.3643 195.113 75.7549 195.074C76.1455 195.025 76.5117 194.981 76.8535 194.942C77.3223 194.903 77.752 194.874 78.1426 194.854C78.543 194.825 78.8945 194.811 79.1973 194.811C80.0957 194.811 80.8721 194.889 81.5264 195.045C82.1904 195.201 82.7666 195.479 83.2549 195.88C83.4014 195.997 83.5283 196.124 83.6357 196.261C83.7529 196.397 83.8604 196.544 83.958 196.7C84.2217 197.149 84.4072 197.691 84.5146 198.326C84.6318 198.951 84.6904 199.684 84.6904 200.523V214H82.4492V200.509C82.4492 199.708 82.3857 199.059 82.2588 198.561C82.1416 198.062 81.9268 197.677 81.6143 197.403C81.3115 197.13 80.9502 196.949 80.5303 196.861C80.1201 196.764 79.6172 196.715 79.0215 196.715C78.7383 196.715 78.4062 196.729 78.0254 196.759C77.6543 196.778 77.2295 196.817 76.751 196.876V214H74.5098ZM88.543 214V195.104H90.7842V214H88.543ZM99.6318 214.308C98.9482 214.308 98.333 214.186 97.7861 213.941C97.2393 213.697 96.7559 213.336 96.3359 212.857C96.0039 212.486 95.7061 212.042 95.4424 211.524C95.1885 211.007 94.9736 210.421 94.7979 209.767C94.5928 209.063 94.4414 208.277 94.3438 207.408C94.2461 206.529 94.1973 205.577 94.1973 204.552V195.118H96.4531V204.552C96.4531 206.065 96.5312 207.34 96.6875 208.375C96.8535 209.4 97.0977 210.206 97.4199 210.792C97.7324 211.368 98.0693 211.773 98.4307 212.008C98.8018 212.242 99.2217 212.359 99.6904 212.359C100.169 212.359 100.589 212.237 100.95 211.993C101.312 211.749 101.644 211.349 101.946 210.792C102.259 210.226 102.493 209.43 102.649 208.404C102.815 207.369 102.898 206.085 102.898 204.552C102.898 203.067 102.82 201.803 102.664 200.758C102.508 199.703 102.269 198.883 101.946 198.297C101.644 197.73 101.307 197.33 100.936 197.096C100.564 196.852 100.169 196.725 99.749 196.715C99.5342 196.715 99.3242 196.725 99.1191 196.744C98.9141 196.764 98.6895 196.793 98.4453 196.832V194.928C98.6699 194.889 98.9092 194.859 99.1631 194.84C99.417 194.82 99.6514 194.811 99.8662 194.811C100.481 194.811 101.053 194.923 101.58 195.147C102.107 195.362 102.576 195.694 102.986 196.144C103.377 196.554 103.719 197.071 104.012 197.696C104.314 198.321 104.554 199.034 104.729 199.835C104.886 200.499 105.003 201.231 105.081 202.032C105.159 202.833 105.198 203.683 105.198 204.581C105.198 205.665 105.135 206.671 105.008 207.599C104.891 208.526 104.725 209.342 104.51 210.045C104.305 210.738 104.046 211.349 103.733 211.876C103.431 212.403 103.089 212.833 102.708 213.165C102.269 213.565 101.785 213.854 101.258 214.029C100.74 214.215 100.198 214.308 99.6318 214.308ZM107.879 214V212.125H114.178V200.509C114.178 199.308 114.026 198.419 113.724 197.843C113.421 197.267 112.898 196.92 112.156 196.803C111.99 196.773 111.81 196.754 111.614 196.744C111.429 196.725 111.238 196.715 111.043 196.715C110.467 196.715 109.964 196.729 109.534 196.759C109.114 196.778 108.558 196.827 107.864 196.905V194.986C108.392 194.928 108.899 194.884 109.388 194.854C109.876 194.825 110.354 194.811 110.823 194.811C111.478 194.811 112.024 194.835 112.464 194.884C112.903 194.933 113.289 195.011 113.621 195.118C114.08 195.265 114.48 195.47 114.822 195.733C115.174 195.987 115.462 196.295 115.687 196.656C115.853 196.91 115.989 197.242 116.097 197.652C116.204 198.053 116.282 198.502 116.331 199C116.38 199.488 116.404 199.996 116.404 200.523V212.125H117.898V214H107.879Z" fill="white"/>
<rect x="20.5" y="97.5" width="143" height="56" rx="4.5" fill="white"/>
<path d="M69.9395 131.067H68.2402L67.7129 115.584H70.4375L69.9395 131.067ZM67.5811 135.433C67.5811 134.837 67.708 134.383 67.9619 134.07C68.2158 133.758 68.5967 133.602 69.1045 133.602C69.5732 133.602 69.9443 133.748 70.2178 134.041C70.4912 134.324 70.6279 134.788 70.6279 135.433C70.6279 136.058 70.4814 136.517 70.1885 136.81C69.9053 137.103 69.5439 137.249 69.1045 137.249C68.6064 137.249 68.2256 137.098 67.9619 136.795C67.708 136.482 67.5811 136.028 67.5811 135.433ZM74.5098 137V118.221C74.9492 118.162 75.3643 118.113 75.7549 118.074C76.1455 118.025 76.5117 117.981 76.8535 117.942C77.3223 117.903 77.752 117.874 78.1426 117.854C78.543 117.825 78.8945 117.811 79.1973 117.811C80.0957 117.811 80.8721 117.889 81.5264 118.045C82.1904 118.201 82.7666 118.479 83.2549 118.88C83.4014 118.997 83.5283 119.124 83.6357 119.261C83.7529 119.397 83.8604 119.544 83.958 119.7C84.2217 120.149 84.4072 120.691 84.5146 121.326C84.6318 121.951 84.6904 122.684 84.6904 123.523V137H82.4492V123.509C82.4492 122.708 82.3857 122.059 82.2588 121.561C82.1416 121.062 81.9268 120.677 81.6143 120.403C81.3115 120.13 80.9502 119.949 80.5303 119.861C80.1201 119.764 79.6172 119.715 79.0215 119.715C78.7383 119.715 78.4062 119.729 78.0254 119.759C77.6543 119.778 77.2295 119.817 76.751 119.876V137H74.5098ZM88.543 137V118.104H90.7842V137H88.543ZM99.6318 137.308C98.9482 137.308 98.333 137.186 97.7861 136.941C97.2393 136.697 96.7559 136.336 96.3359 135.857C96.0039 135.486 95.7061 135.042 95.4424 134.524C95.1885 134.007 94.9736 133.421 94.7979 132.767C94.5928 132.063 94.4414 131.277 94.3438 130.408C94.2461 129.529 94.1973 128.577 94.1973 127.552V118.118H96.4531V127.552C96.4531 129.065 96.5312 130.34 96.6875 131.375C96.8535 132.4 97.0977 133.206 97.4199 133.792C97.7324 134.368 98.0693 134.773 98.4307 135.008C98.8018 135.242 99.2217 135.359 99.6904 135.359C100.169 135.359 100.589 135.237 100.95 134.993C101.312 134.749 101.644 134.349 101.946 133.792C102.259 133.226 102.493 132.43 102.649 131.404C102.815 130.369 102.898 129.085 102.898 127.552C102.898 126.067 102.82 124.803 102.664 123.758C102.508 122.703 102.269 121.883 101.946 121.297C101.644 120.73 101.307 120.33 100.936 120.096C100.564 119.852 100.169 119.725 99.749 119.715C99.5342 119.715 99.3242 119.725 99.1191 119.744C98.9141 119.764 98.6895 119.793 98.4453 119.832V117.928C98.6699 117.889 98.9092 117.859 99.1631 117.84C99.417 117.82 99.6514 117.811 99.8662 117.811C100.481 117.811 101.053 117.923 101.58 118.147C102.107 118.362 102.576 118.694 102.986 119.144C103.377 119.554 103.719 120.071 104.012 120.696C104.314 121.321 104.554 122.034 104.729 122.835C104.886 123.499 105.003 124.231 105.081 125.032C105.159 125.833 105.198 126.683 105.198 127.581C105.198 128.665 105.135 129.671 105.008 130.599C104.891 131.526 104.725 132.342 104.51 133.045C104.305 133.738 104.046 134.349 103.733 134.876C103.431 135.403 103.089 135.833 102.708 136.165C102.269 136.565 101.785 136.854 101.258 137.029C100.74 137.215 100.198 137.308 99.6318 137.308ZM107.879 137V135.125H114.178V123.509C114.178 122.308 114.026 121.419 113.724 120.843C113.421 120.267 112.898 119.92 112.156 119.803C111.99 119.773 111.81 119.754 111.614 119.744C111.429 119.725 111.238 119.715 111.043 119.715C110.467 119.715 109.964 119.729 109.534 119.759C109.114 119.778 108.558 119.827 107.864 119.905V117.986C108.392 117.928 108.899 117.884 109.388 117.854C109.876 117.825 110.354 117.811 110.823 117.811C111.478 117.811 112.024 117.835 112.464 117.884C112.903 117.933 113.289 118.011 113.621 118.118C114.08 118.265 114.48 118.47 114.822 118.733C115.174 118.987 115.462 119.295 115.687 119.656C115.853 119.91 115.989 120.242 116.097 120.652C116.204 121.053 116.282 121.502 116.331 122C116.38 122.488 116.404 122.996 116.404 123.523V135.125H117.898V137H107.879Z" fill="#E96D5A"/>
<rect x="20.5" y="97.5" width="143" height="56" rx="4.5" stroke="#E96D5A"/>
<rect x="0.5" y="0.5" width="183" height="268" rx="4.5" stroke="#9747FF" stroke-dasharray="10 5"/>
</svg>
