<svg width="228" height="323" viewBox="0 0 228 323" fill="none" xmlns="http://www.w3.org/2000/svg">
<rect x="20" y="20" width="188" height="54" rx="5" fill="#E96D5A"/>
<path d="M73.4219 43.3047V53H71.3125V43.3047H73.4219ZM82.7188 47.3828V53H80.6016V47.3672C80.6016 46.5599 80.4271 45.9974 80.0781 45.6797C79.7344 45.3568 79.1536 45.1953 78.3359 45.1953H75.0859V43.3047H78.4609C79.487 43.3047 80.3099 43.4427 80.9297 43.7188C81.5547 43.9896 82.0078 44.4245 82.2891 45.0234C82.5755 45.6172 82.7188 46.4036 82.7188 47.3828ZM93.6797 51.1094V53H84.6406V51.1094H90.5312V47.6562C90.5312 46.7448 90.3594 46.1068 90.0156 45.7422C89.6771 45.3776 89.0964 45.1953 88.2734 45.1953H85.0078V43.3047H88.3047C89.8255 43.3047 90.9271 43.6224 91.6094 44.2578C92.2969 44.8932 92.6406 45.9349 92.6406 47.3828V51.1094H93.6797ZM102.055 47.6406C102.055 46.7656 101.888 46.1406 101.555 45.7656C101.221 45.3854 100.638 45.1953 99.8047 45.1953H97.7188V53H95.6094V43.3047H99.8047C101.346 43.3047 102.458 43.625 103.141 44.2656C103.828 44.901 104.172 45.9401 104.172 47.3828V53H102.055V47.6406ZM109.305 51.4531C109.096 51.9896 108.776 52.3828 108.344 52.6328C107.911 52.8776 107.284 53 106.461 53H105.93V51.1094H106.062C106.422 51.1094 106.708 51.0417 106.922 50.9062C107.13 50.7708 107.279 50.5651 107.367 50.2891C107.456 50.0078 107.5 49.5833 107.5 49.0156V45.1953H106.016V43.3047H111.453C112.953 43.3047 114.029 43.6224 114.68 44.2578C115.336 44.888 115.664 45.9349 115.664 47.3984V53H113.547V47.4297C113.547 46.5964 113.378 46.0156 113.039 45.6875C112.701 45.3594 112.13 45.1953 111.328 45.1953H109.609V49.2891C109.609 50.1901 109.508 50.9115 109.305 51.4531ZM126.477 47.3828V53H124.359V47.3672C124.359 46.5703 124.19 46.0104 123.852 45.6875C123.513 45.3594 122.924 45.1953 122.086 45.1953H118.125V43.3047H122.219C123.245 43.3047 124.068 43.4427 124.688 43.7188C125.312 43.9948 125.766 44.4323 126.047 45.0312C126.333 45.625 126.477 46.4089 126.477 47.3828ZM120.391 47.1094V53H118.281V47.1094H120.391Z" fill="white"/>
<path d="M150.5 38.7603C148.429 38.7603 146.75 40.4392 146.75 42.5103C146.75 44.5813 148.429 46.2603 150.5 46.2603C152.571 46.2603 154.25 44.5813 154.25 42.5103C154.25 40.4392 152.571 38.7603 150.5 38.7603Z" fill="white"/>
<path d="M146.5 48.2603C144.429 48.2603 142.75 49.9392 142.75 52.0103V53.1986C142.75 53.9518 143.296 54.594 144.039 54.7154C148.318 55.414 152.682 55.414 156.961 54.7154C157.704 54.594 158.25 53.9518 158.25 53.1986V52.0103C158.25 49.9392 156.571 48.2603 154.5 48.2603H154.159C153.975 48.2603 153.791 48.2895 153.616 48.3467L152.75 48.6294C151.288 49.1068 149.712 49.1068 148.25 48.6294L147.384 48.3467C147.209 48.2895 147.025 48.2603 146.841 48.2603H146.5Z" fill="white"/>
<rect x="20" y="168" width="188" height="54" rx="5" fill="#E96D5A" fill-opacity="0.75"/>
<path d="M73.4219 191.305V201H71.3125V191.305H73.4219ZM82.7188 195.383V201H80.6016V195.367C80.6016 194.56 80.4271 193.997 80.0781 193.68C79.7344 193.357 79.1536 193.195 78.3359 193.195H75.0859V191.305H78.4609C79.487 191.305 80.3099 191.443 80.9297 191.719C81.5547 191.99 82.0078 192.424 82.2891 193.023C82.5755 193.617 82.7188 194.404 82.7188 195.383ZM93.6797 199.109V201H84.6406V199.109H90.5312V195.656C90.5312 194.745 90.3594 194.107 90.0156 193.742C89.6771 193.378 89.0964 193.195 88.2734 193.195H85.0078V191.305H88.3047C89.8255 191.305 90.9271 191.622 91.6094 192.258C92.2969 192.893 92.6406 193.935 92.6406 195.383V199.109H93.6797ZM102.055 195.641C102.055 194.766 101.888 194.141 101.555 193.766C101.221 193.385 100.638 193.195 99.8047 193.195H97.7188V201H95.6094V191.305H99.8047C101.346 191.305 102.458 191.625 103.141 192.266C103.828 192.901 104.172 193.94 104.172 195.383V201H102.055V195.641ZM109.305 199.453C109.096 199.99 108.776 200.383 108.344 200.633C107.911 200.878 107.284 201 106.461 201H105.93V199.109H106.062C106.422 199.109 106.708 199.042 106.922 198.906C107.13 198.771 107.279 198.565 107.367 198.289C107.456 198.008 107.5 197.583 107.5 197.016V193.195H106.016V191.305H111.453C112.953 191.305 114.029 191.622 114.68 192.258C115.336 192.888 115.664 193.935 115.664 195.398V201H113.547V195.43C113.547 194.596 113.378 194.016 113.039 193.688C112.701 193.359 112.13 193.195 111.328 193.195H109.609V197.289C109.609 198.19 109.508 198.911 109.305 199.453ZM126.477 195.383V201H124.359V195.367C124.359 194.57 124.19 194.01 123.852 193.688C123.513 193.359 122.924 193.195 122.086 193.195H118.125V191.305H122.219C123.245 191.305 124.068 191.443 124.688 191.719C125.312 191.995 125.766 192.432 126.047 193.031C126.333 193.625 126.477 194.409 126.477 195.383ZM120.391 195.109V201H118.281V195.109H120.391Z" fill="white"/>
<path d="M150.5 186.76C148.429 186.76 146.75 188.439 146.75 190.51C146.75 192.581 148.429 194.26 150.5 194.26C152.571 194.26 154.25 192.581 154.25 190.51C154.25 188.439 152.571 186.76 150.5 186.76Z" fill="white"/>
<path d="M146.5 196.26C144.429 196.26 142.75 197.939 142.75 200.01V201.199C142.75 201.952 143.296 202.594 144.039 202.715C148.318 203.414 152.682 203.414 156.961 202.715C157.704 202.594 158.25 201.952 158.25 201.199V200.01C158.25 197.939 156.571 196.26 154.5 196.26H154.159C153.975 196.26 153.791 196.289 153.616 196.347L152.75 196.629C151.288 197.107 149.712 197.107 148.25 196.629L147.384 196.347C147.209 196.289 147.025 196.26 146.841 196.26H146.5Z" fill="white"/>
<path d="M72.6719 127V116.898H75.0312V127H72.6719ZM81.2812 127V120.289C81.2812 119.841 81.1901 119.492 81.0078 119.242C80.8255 118.987 80.5547 118.81 80.1953 118.711C80.0807 118.669 79.9505 118.638 79.8047 118.617C79.6641 118.596 79.5104 118.586 79.3438 118.586C79.1094 118.586 78.8411 118.594 78.5391 118.609C78.2422 118.62 77.9323 118.635 77.6094 118.656C77.2865 118.677 76.9661 118.703 76.6484 118.734V116.875C77.1536 116.828 77.625 116.794 78.0625 116.773C78.5 116.753 78.9036 116.742 79.2734 116.742C80.013 116.742 80.5938 116.776 81.0156 116.844C81.4375 116.906 81.8073 117.016 82.125 117.172C82.4427 117.328 82.7031 117.51 82.9062 117.719C83.1146 117.922 83.276 118.185 83.3906 118.508C83.4844 118.779 83.5495 119.052 83.5859 119.328C83.6224 119.599 83.6406 119.919 83.6406 120.289V127H81.2812ZM85.5625 127V125.156H90.1328V120.289C90.1328 119.846 90.0443 119.503 89.8672 119.258C89.6953 119.008 89.4349 118.833 89.0859 118.734C88.9661 118.688 88.8281 118.651 88.6719 118.625C88.5156 118.599 88.3411 118.586 88.1484 118.586C87.8411 118.586 87.4844 118.599 87.0781 118.625C86.6719 118.651 86.1667 118.69 85.5625 118.742V116.906C85.9062 116.849 86.3099 116.807 86.7734 116.781C87.237 116.755 87.7604 116.742 88.3438 116.742C88.8333 116.742 89.2604 116.766 89.625 116.812C89.9948 116.854 90.3307 116.924 90.6328 117.023C90.9401 117.122 91.1979 117.245 91.4062 117.391C91.6146 117.536 91.7839 117.714 91.9141 117.922C92.0703 118.115 92.1901 118.326 92.2734 118.555C92.3568 118.779 92.4141 119.026 92.4453 119.297C92.4766 119.568 92.4922 119.867 92.4922 120.195V125.156H93.6172V127H85.5625ZM95.25 127V116.992C95.4167 116.966 95.599 116.943 95.7969 116.922C95.9948 116.901 96.2135 116.88 96.4531 116.859C96.9062 116.818 97.3542 116.789 97.7969 116.773C98.2448 116.753 98.6875 116.742 99.125 116.742C99.7396 116.742 100.258 116.776 100.68 116.844C101.107 116.906 101.474 117.01 101.781 117.156C102.099 117.302 102.359 117.477 102.562 117.68C102.771 117.883 102.932 118.146 103.047 118.469C103.141 118.734 103.206 119.01 103.242 119.297C103.279 119.578 103.297 119.909 103.297 120.289V127H100.93V120.289C100.93 119.815 100.831 119.448 100.633 119.188C100.435 118.927 100.138 118.755 99.7422 118.672C99.638 118.646 99.5156 118.625 99.375 118.609C99.2344 118.594 99.0781 118.586 98.9062 118.586C98.7292 118.586 98.5339 118.591 98.3203 118.602C98.1068 118.612 97.8698 118.625 97.6094 118.641V127H95.25ZM106.227 127.102C106.034 127.102 105.844 127.081 105.656 127.039C105.469 126.997 105.273 126.935 105.07 126.852V125.133C105.367 125.185 105.648 125.211 105.914 125.211C106.227 125.211 106.448 125.125 106.578 124.953C106.714 124.776 106.781 124.497 106.781 124.117V118.758C106.599 118.768 106.414 118.781 106.227 118.797C106.044 118.812 105.862 118.826 105.68 118.836V116.992C106.242 116.935 106.781 116.888 107.297 116.852C107.812 116.815 108.307 116.789 108.781 116.773C109.255 116.753 109.708 116.742 110.141 116.742C110.641 116.742 111.078 116.766 111.453 116.812C111.833 116.854 112.164 116.919 112.445 117.008C112.732 117.096 112.982 117.211 113.195 117.352C113.44 117.513 113.641 117.693 113.797 117.891C113.953 118.083 114.078 118.326 114.172 118.617C114.245 118.826 114.294 119.062 114.32 119.328C114.352 119.589 114.367 119.88 114.367 120.203V127H112.008V120.297C112.008 119.833 111.911 119.474 111.719 119.219C111.531 118.958 111.247 118.784 110.867 118.695C110.648 118.628 110.37 118.594 110.031 118.594C109.875 118.594 109.721 118.596 109.57 118.602C109.424 118.602 109.281 118.607 109.141 118.617V124.117C109.141 124.466 109.115 124.781 109.062 125.062C109.016 125.344 108.93 125.607 108.805 125.852C108.664 126.138 108.474 126.375 108.234 126.562C108 126.74 107.716 126.875 107.383 126.969C107.049 127.057 106.664 127.102 106.227 127.102ZM122.664 127V120.289C122.664 119.862 122.581 119.526 122.414 119.281C122.253 119.036 122.008 118.865 121.68 118.766C121.555 118.708 121.404 118.664 121.227 118.633C121.055 118.602 120.859 118.586 120.641 118.586C120.208 118.586 119.706 118.607 119.133 118.648C118.56 118.685 117.844 118.747 116.984 118.836V116.992C117.26 116.951 117.536 116.917 117.812 116.891C118.089 116.865 118.367 116.841 118.648 116.82C119.039 116.794 119.419 116.776 119.789 116.766C120.159 116.75 120.518 116.742 120.867 116.742C121.477 116.742 121.992 116.776 122.414 116.844C122.841 116.911 123.208 117.021 123.516 117.172C123.828 117.328 124.089 117.51 124.297 117.719C124.505 117.927 124.667 118.19 124.781 118.508C124.875 118.779 124.94 119.052 124.977 119.328C125.013 119.599 125.031 119.919 125.031 120.289V127H122.664ZM116.992 127V120.969H119.344V127H116.992Z" fill="#E96D5A"/>
<path d="M149 112.76C146.929 112.76 145.25 114.439 145.25 116.51C145.25 118.581 146.929 120.26 149 120.26C151.071 120.26 152.75 118.581 152.75 116.51C152.75 114.439 151.071 112.76 149 112.76Z" fill="#E96D5A"/>
<path d="M145 122.26C142.929 122.26 141.25 123.939 141.25 126.01V127.199C141.25 127.952 141.796 128.594 142.539 128.715C146.818 129.414 151.182 129.414 155.461 128.715C156.204 128.594 156.75 127.952 156.75 127.199V126.01C156.75 123.939 155.071 122.26 153 122.26H152.659C152.475 122.26 152.291 122.289 152.116 122.347L151.25 122.629C149.788 123.107 148.212 123.107 146.75 122.629L145.884 122.347C145.709 122.289 145.525 122.26 145.341 122.26H145Z" fill="#E96D5A"/>
<rect x="20.5" y="94.5" width="187" height="53" rx="4.5" stroke="#E96D5A"/>
<rect x="0.5" y="0.5" width="227" height="322" rx="4.5" stroke="#9747FF" stroke-dasharray="10 5"/>
</svg>
