<svg width="23" height="26" viewBox="0 0 23 26" fill="none" xmlns="http://www.w3.org/2000/svg">
<g id="Group 320">
<g id="Group">
<g id="Group_2">
<path id="Vector" d="M21.0807 3.13605H16.5634V2.38316C16.5634 1.13769 15.5503 0.124512 14.3048 0.124512H8.28172C7.03625 0.124512 6.02307 1.13769 6.02307 2.38316V3.13605H1.50577C0.674132 3.13605 0 3.81018 0 4.64181C0 5.47335 0.674132 6.14758 1.50577 6.14758C8.43059 6.14758 14.1562 6.14758 21.0807 6.14758C21.9124 6.14758 22.5865 5.47335 22.5865 4.64181C22.5865 3.81018 21.9124 3.13605 21.0807 3.13605ZM15.0577 3.13605H7.52884V2.38316C7.52884 1.96777 7.86633 1.63028 8.28172 1.63028H14.3048C14.7202 1.63028 15.0577 1.96777 15.0577 2.38316V3.13605Z" fill="#E96D5A"/>
</g>
</g>
<g id="Group_3">
<g id="Group_4">
<path id="Vector_2" d="M1.56641 7.06519L2.89996 23.1636C2.99553 24.3245 3.98442 25.2348 5.14978 25.2348H17.4371C18.6025 25.2348 19.5913 24.3245 19.6869 23.1636L21.0204 7.06519H1.56641ZM7.52829 22.2232C7.13418 22.2232 6.80261 21.9167 6.77762 21.5174L6.02473 9.37087C5.99898 8.95548 6.31439 8.59816 6.72908 8.57241C7.15918 8.54224 7.50109 8.86137 7.52754 9.27676L8.28042 21.4233C8.30707 21.8534 7.96672 22.2232 7.52829 22.2232ZM12.0463 21.4704C12.0463 21.8865 11.7096 22.2232 11.2934 22.2232C10.8773 22.2232 10.5405 21.8865 10.5405 21.4704V9.32384C10.5405 8.90769 10.8773 8.57095 11.2934 8.57095C11.7096 8.57095 12.0463 8.90769 12.0463 9.32384V21.4704ZM16.5621 9.37092L15.8092 21.5174C15.7845 21.9127 15.4551 22.242 15.0108 22.2218C14.5961 22.196 14.2807 21.8387 14.3064 21.4233L15.0593 9.27681C15.085 8.86142 15.449 8.55921 15.8577 8.57246C16.2724 8.59821 16.5878 8.95553 16.5621 9.37092Z" fill="#E96D5A"/>
</g>
</g>
</g>
</svg>
