<svg width="27" height="27" viewBox="0 0 27 27" fill="none" xmlns="http://www.w3.org/2000/svg">
<g id="Vector">
<path d="M13.125 0C5.87021 0 0 5.87072 0 13.125C0 20.3798 5.87072 26.25 13.125 26.25C20.3798 26.25 26.25 20.3793 26.25 13.125C26.25 5.87021 20.3793 0 13.125 0ZM13.125 24.1992C7.00378 24.1992 2.05078 19.2458 2.05078 13.125C2.05078 7.00378 7.00419 2.05078 13.125 2.05078C19.2462 2.05078 24.1992 7.00419 24.1992 13.125C24.1992 19.2462 19.2458 24.1992 13.125 24.1992Z" fill="#335269"/>
<path d="M13.125 6.60742C12.5587 6.60742 12.0996 7.06649 12.0996 7.63281V14.236C12.0996 14.8023 12.5587 15.2614 13.125 15.2614C13.6913 15.2614 14.1504 14.8023 14.1504 14.236V7.63281C14.1504 7.06649 13.6913 6.60742 13.125 6.60742Z" fill="#335269"/>
<path d="M13.1245 19.2856C13.889 19.2856 14.5088 18.6659 14.5088 17.9014C14.5088 17.1369 13.889 16.5171 13.1245 16.5171C12.36 16.5171 11.7402 17.1369 11.7402 17.9014C11.7402 18.6659 12.36 19.2856 13.1245 19.2856Z" fill="#335269"/>
</g>
</svg>
