<svg width="44" height="23" viewBox="0 0 44 23" fill="none" xmlns="http://www.w3.org/2000/svg">
<g id="Group">
<g id="Group_2">
<path id="Vector" d="M0.784176 10.811L10.5567 1.03839C10.9077 0.628469 11.5247 0.580683 11.9346 0.931816C12.3445 1.28286 12.3923 1.8998 12.0412 2.30972C12.0084 2.34794 11.9728 2.38363 11.9346 2.4163L3.83318 10.5275H42.5228C43.0624 10.5275 43.5 10.9651 43.5 11.5048C43.5 12.0446 43.0624 12.4821 42.5228 12.4821H3.83318L11.9346 20.5835C12.3445 20.9345 12.3923 21.5515 12.0412 21.9614C11.69 22.3713 11.0732 22.4191 10.6633 22.068C10.625 22.0352 10.5894 21.9996 10.5567 21.9614L0.784092 12.1888C0.405243 11.8078 0.405243 11.1922 0.784176 10.811Z" fill="white"/>
</g>
</g>
</svg>
