<svg width="76" height="49" viewBox="0 0 76 49" fill="none" xmlns="http://www.w3.org/2000/svg">
<path d="M60.4141 30.8232C59.1856 30.8232 58.1875 31.8213 58.1875 33.0498C58.1875 34.2783 59.1856 35.2764 60.4141 35.2764C61.6425 35.2764 62.6406 34.2783 62.6406 33.0498C62.6406 31.8213 61.6425 30.8232 60.4141 30.8232Z" fill="#DBB65D"/>
<path d="M73.7734 0H22.4504V6.67969C22.4504 7.91038 21.4546 8.90625 20.2239 8.90625C18.9932 8.90625 17.9973 7.91038 17.9973 6.67969V0H2.22656C0.995867 0 0 0.995867 0 2.22656V15.5859C0 16.8166 0.995867 17.8125 2.22656 17.8125C5.90989 17.8125 8.90625 20.8089 8.90625 24.4922C8.90625 28.1755 5.90989 31.1719 2.22656 31.1719C0.995867 31.1719 0 32.1677 0 33.3984V46.7578C0 47.9885 0.995867 48.9844 2.22656 48.9844H17.8125V42.3047C17.8125 41.074 18.8084 40.0781 20.0391 40.0781C21.2698 40.0781 22.2656 41.074 22.2656 42.3047V48.9844H73.7734C75.0041 48.9844 76 47.9885 76 46.7578V2.22656C76 0.995867 75.0041 0 73.7734 0ZM22.2656 33.3984C22.2656 34.6291 21.2698 35.625 20.0391 35.625C18.8084 35.625 17.8125 34.6291 17.8125 33.3984V28.9453C17.8125 27.7146 18.8084 26.7188 20.0391 26.7188C21.2698 26.7188 22.2656 27.7146 22.2656 28.9453V33.3984ZM22.2656 20.0391C22.2656 21.2698 21.2698 22.2656 20.0391 22.2656C18.8084 22.2656 17.8125 21.2698 17.8125 20.0391V15.5859C17.8125 14.3552 18.8084 13.3594 20.0391 13.3594C21.2698 13.3594 22.2656 14.3552 22.2656 15.5859V20.0391ZM35.9219 15.5859C35.9219 11.9026 38.9182 8.90625 42.6016 8.90625C46.2849 8.90625 49.2812 11.9026 49.2812 15.5859C49.2812 19.2693 46.2849 22.2656 42.6016 22.2656C38.9182 22.2656 35.9219 19.2693 35.9219 15.5859ZM41.3666 39.7041C40.3425 39.0213 40.0662 37.6406 40.7491 36.6164L58.5616 9.89766C59.2421 8.87359 60.6229 8.59958 61.6492 9.28016C62.6733 9.96298 62.9495 11.3436 62.2667 12.3678L44.4542 39.0866C43.7825 40.0955 42.407 40.3937 41.3666 39.7041ZM60.4141 40.0781C56.7307 40.0781 53.7344 37.0818 53.7344 33.3984C53.7344 29.7151 56.7307 26.7188 60.4141 26.7188C64.0974 26.7188 67.0938 29.7151 67.0938 33.3984C67.0938 37.0818 64.0974 40.0781 60.4141 40.0781Z" fill="#335269"/>
<path d="M42.6016 13.0107C41.3731 13.0107 40.375 14.0088 40.375 15.2373C40.375 16.4658 41.3731 17.4639 42.6016 17.4639C43.83 17.4639 44.8281 16.4658 44.8281 15.2373C44.8281 14.0088 43.83 13.0107 42.6016 13.0107Z" fill="#DBB65D"/>
</svg>
