<svg width="59" height="70" viewBox="0 0 59 70" fill="none" xmlns="http://www.w3.org/2000/svg">
<path fill-rule="evenodd" clip-rule="evenodd" d="M42.041 20.6035C40.3047 25.2793 36.6817 29.0117 32.0332 30.8574H46.8809V20.8633C46.8809 20.7129 46.7578 20.6035 46.6211 20.6035H42.041Z" fill="#CDD6DC"/>
<path fill-rule="evenodd" clip-rule="evenodd" d="M19.0587 30.8574C14.4239 29.0117 10.7872 25.2793 9.06454 20.6035H5.12703C2.29694 20.6172 0.0137329 22.9277 0.0274048 25.7578C0.0410767 28.5742 2.32429 30.8438 5.12703 30.8574H19.0587Z" fill="#CDD6DC"/>
<path fill-rule="evenodd" clip-rule="evenodd" d="M50.0255 43.7364H53.9904V34.166C53.9904 34.0977 53.963 34.0293 53.9083 33.9883C53.8536 33.9336 53.799 33.9063 53.7306 33.9063H5.12697C3.25391 33.9063 1.44922 33.2637 0 32.0879V64.8731C0.0136719 67.7032 2.29688 69.9864 5.12697 70.0001H53.7306C53.799 70.0001 53.8673 69.9727 53.9083 69.9181C53.963 69.8634 53.9904 69.8087 53.9904 69.7403V60.17H50.0255C45.4864 60.17 41.8087 56.4922 41.8087 51.9532C41.8224 47.4141 45.5001 43.7364 50.0255 43.7364ZM24.8419 64.1212H7.61525C6.76759 64.1075 6.09767 63.4239 6.11134 62.5899C6.12501 61.7559 6.79494 61.086 7.61525 61.086H24.8419C25.6895 61.0997 26.3594 61.7833 26.3458 62.6173C26.3458 63.4376 25.6758 64.1075 24.8419 64.1212Z" fill="#335269"/>
<path fill-rule="evenodd" clip-rule="evenodd" d="M58.5431 46.7852H50.0255C47.168 46.7988 44.8712 49.1231 44.8848 51.9805C44.8985 54.8106 47.1954 57.1074 50.0255 57.1211H58.5431V46.7852Z" fill="#CDD6DC"/>
<path fill-rule="evenodd" clip-rule="evenodd" d="M35.8204 4.25196C33.0997 1.53125 29.4082 0 25.5528 0C21.6973 0 18.0059 1.53125 15.2852 4.25196C9.61132 9.9258 9.61132 19.127 15.2852 24.7872C20.959 30.461 30.1602 30.461 35.8204 24.7872C41.4942 19.127 41.4942 9.9258 35.8204 4.25196ZM33.2501 17.3496L26.6192 23.9805C26.0176 24.5684 25.0606 24.5684 24.4727 23.9805L17.8418 17.3496C17.2402 16.7618 17.2402 15.7911 17.8281 15.2032C18.416 14.6016 19.3867 14.6016 19.9746 15.1895C19.9746 15.1895 19.9746 15.1895 19.9883 15.2032L24.0215 19.2364V6.15236C24.0215 5.31837 24.7051 4.63478 25.5391 4.63478C26.3731 4.63478 27.0567 5.31837 27.0567 6.15236V19.2364L31.0899 15.2032C31.6778 14.6153 32.6485 14.6153 33.2364 15.2032C33.8516 15.7911 33.8516 16.7618 33.2501 17.3496Z" fill="#DBB65D"/>
</svg>
