<svg width="72" height="47" viewBox="0 0 72 47" fill="none" xmlns="http://www.w3.org/2000/svg">
<path d="M57.2344 29.201C56.0706 29.201 55.125 30.1466 55.125 31.3104C55.125 32.4742 56.0706 33.4198 57.2344 33.4198C58.3982 33.4198 59.3438 32.4742 59.3438 31.3104C59.3438 30.1466 58.3982 29.201 57.2344 29.201Z" fill="#DBB65D"/>
<path d="M69.8906 0H21.2688V6.32812C21.2688 7.49405 20.3254 8.4375 19.1595 8.4375C17.9935 8.4375 17.0501 7.49405 17.0501 6.32812V0H2.10938C0.943453 0 0 0.943453 0 2.10938V14.7656C0 15.9315 0.943453 16.875 2.10938 16.875C5.59884 16.875 8.4375 19.7137 8.4375 23.2031C8.4375 26.6926 5.59884 29.5312 2.10938 29.5312C0.943453 29.5312 0 30.4747 0 31.6406V44.2969C0 45.4628 0.943453 46.4062 2.10938 46.4062H16.875V40.0781C16.875 38.9122 17.8185 37.9688 18.9844 37.9688C20.1503 37.9688 21.0938 38.9122 21.0938 40.0781V46.4062H69.8906C71.0565 46.4062 72 45.4628 72 44.2969V2.10938C72 0.943453 71.0565 0 69.8906 0ZM21.0938 31.6406C21.0938 32.8065 20.1503 33.75 18.9844 33.75C17.8185 33.75 16.875 32.8065 16.875 31.6406V27.4219C16.875 26.256 17.8185 25.3125 18.9844 25.3125C20.1503 25.3125 21.0938 26.256 21.0938 27.4219V31.6406ZM21.0938 18.9844C21.0938 20.1503 20.1503 21.0938 18.9844 21.0938C17.8185 21.0938 16.875 20.1503 16.875 18.9844V14.7656C16.875 13.5997 17.8185 12.6562 18.9844 12.6562C20.1503 12.6562 21.0938 13.5997 21.0938 14.7656V18.9844ZM34.0312 14.7656C34.0312 11.2762 36.8699 8.4375 40.3594 8.4375C43.8488 8.4375 46.6875 11.2762 46.6875 14.7656C46.6875 18.2551 43.8488 21.0938 40.3594 21.0938C36.8699 21.0938 34.0312 18.2551 34.0312 14.7656ZM39.1894 37.6144C38.2192 36.9675 37.9575 35.6595 38.6044 34.6892L55.4794 9.37673C56.1241 8.40656 57.4322 8.14697 58.4045 8.79173C59.3747 9.43861 59.6364 10.7466 58.9895 11.7169L42.1145 37.0294C41.4782 37.9852 40.175 38.2677 39.1894 37.6144ZM57.2344 37.9688C53.7449 37.9688 50.9062 35.1301 50.9062 31.6406C50.9062 28.1512 53.7449 25.3125 57.2344 25.3125C60.7238 25.3125 63.5625 28.1512 63.5625 31.6406C63.5625 35.1301 60.7238 37.9688 57.2344 37.9688Z" fill="#335269"/>
<path d="M40.3594 12.326C39.1956 12.326 38.25 13.2716 38.25 14.4354C38.25 15.5992 39.1956 16.5448 40.3594 16.5448C41.5232 16.5448 42.4688 15.5992 42.4688 14.4354C42.4688 13.2716 41.5232 12.326 40.3594 12.326Z" fill="#DBB65D"/>
</svg>
