<svg width="56" height="68" viewBox="0 0 56 68" fill="none" xmlns="http://www.w3.org/2000/svg">
<path fill-rule="evenodd" clip-rule="evenodd" d="M55.9029 23.4633C55.5961 21.5625 54.3127 19.9552 52.5273 19.2424L51.4392 18.7952C49.0679 17.8448 47.659 15.3989 48.0217 12.8692L48.1751 11.6952C48.5797 8.62042 46.4315 5.79719 43.3627 5.39188C42.5537 5.28007 41.7167 5.34995 40.9356 5.60153L39.8057 5.96491C37.3785 6.76156 34.7282 5.78322 33.3891 3.61688L32.7474 2.61059C31.0596 -0.0169658 27.6002 -0.785665 24.9917 0.87752C24.2943 1.32476 23.7084 1.91177 23.2621 2.61059L22.6204 3.61688C21.2673 5.78322 18.617 6.74759 16.1899 5.96491L15.06 5.60153C12.1028 4.66511 8.96423 6.30034 8.02964 9.26333C7.77856 10.046 7.70881 10.8846 7.82041 11.6952L7.97385 12.8692C8.33652 15.3989 6.92766 17.8448 4.55632 18.7952L3.46829 19.2424C0.608724 20.4304 -0.758287 23.7149 0.427386 26.58C0.748216 27.3487 1.22248 28.0196 1.8223 28.5786L2.70109 29.3753C4.59817 31.0804 5.08638 33.8617 3.88676 36.1259L3.34275 37.1741C1.90599 39.9274 2.96612 43.3237 5.71409 44.7493C6.43945 45.1266 7.24849 45.3503 8.07149 45.3782L9.25716 45.4341C11.8098 45.518 13.972 47.3349 14.4881 49.8367L14.7392 50.9967C15.4087 54.0296 18.3938 55.9443 21.4208 55.2735C22.2298 55.0918 22.9831 54.7424 23.6387 54.2392L24.5733 53.5124C26.5819 51.9331 29.3997 51.9331 31.4083 53.5124L32.3429 54.2392C34.798 56.126 38.3131 55.6648 40.2102 53.2189C40.7124 52.5621 41.0611 51.8073 41.2424 50.9967L41.4935 49.8367C42.0236 47.3349 44.1857 45.518 46.7244 45.4341L47.9101 45.3782C51.0068 45.2524 53.4061 42.6249 53.2666 39.5221C53.2387 38.6975 53.0155 37.8869 52.6389 37.1601L52.0948 36.1119C50.8952 33.8617 51.3834 31.0804 53.2805 29.3613L54.1593 28.5647C55.5961 27.2928 56.2656 25.3501 55.9029 23.4633Z" fill="#DBB65D"/>
<path fill-rule="evenodd" clip-rule="evenodd" d="M27.9999 49.4397C16.5647 49.4397 7.27881 40.2682 7.27881 28.9379C7.27881 17.6237 16.5647 8.43604 27.9999 8.43604C39.4351 8.43604 48.721 17.6075 48.721 28.9379C48.721 40.252 39.4351 49.4397 27.9999 49.4397Z" fill="white"/>
<path fill-rule="evenodd" clip-rule="evenodd" d="M27.9999 10.8711C17.9101 10.8711 9.73975 18.9549 9.73975 28.938C9.73975 38.9211 17.9101 47.0049 27.9999 47.0049C38.0897 47.0049 46.2601 38.9211 46.2601 28.938C46.2601 18.9549 38.0897 10.8711 27.9999 10.8711ZM38.6968 24.4903L27.8851 36.9732C26.9171 38.2069 25.1124 38.4341 23.8491 37.4764C23.7179 37.379 23.5866 37.2654 23.4718 37.1355L17.3358 30.3503C16.2694 29.1815 16.3679 27.3959 17.5491 26.3408C18.7304 25.2857 20.5351 25.3831 21.6015 26.5518L25.5718 30.9346L34.3491 20.8055C35.3827 19.6205 37.1874 19.4744 38.3851 20.497C39.5991 21.5035 39.7304 23.3053 38.6968 24.4903Z" fill="#335269"/>
<path fill-rule="evenodd" clip-rule="evenodd" d="M38.1985 56.9403C36.5517 57.5345 34.7515 57.5615 33.0908 57.0078L37.9054 68.0002L42.3711 58.9794L52.1817 62.1394L45.9158 47.8521C44.6179 48.1491 43.6131 49.1484 43.348 50.4178L43.0968 51.5387C42.5386 54.0504 40.6965 56.1031 38.1985 56.9403Z" fill="#335269"/>
<path fill-rule="evenodd" clip-rule="evenodd" d="M10.0843 47.8521L3.81836 62.1394L13.629 58.9794L18.0947 68.0002L22.9093 57.0078C18.8622 58.3177 14.4802 56.2111 13.1266 52.3084C13.0428 52.0518 12.9731 51.8088 12.9033 51.5522L12.6521 50.4313C12.3869 49.162 11.3822 48.1626 10.0843 47.8521Z" fill="#335269"/>
</svg>
