<svg width="82" height="82" viewBox="0 0 82 82" fill="none" xmlns="http://www.w3.org/2000/svg">
<path fill-rule="evenodd" clip-rule="evenodd" d="M39.6012 56.5023V45.422C37.0592 45.4704 34.5295 45.6941 32.0981 46.0902L32.0983 57.1496C34.5389 56.7658 37.0661 56.5492 39.6012 56.5023Z" fill="#335269"/>
<path fill-rule="evenodd" clip-rule="evenodd" d="M48.9042 57.1132C48.9046 54.8779 48.9061 51.4765 48.9076 46.0518C46.4756 45.6624 43.9449 45.4518 41.4014 45.4172V56.4975C43.9357 56.5311 46.4631 56.7356 48.9042 57.1132Z" fill="#335269"/>
<path fill-rule="evenodd" clip-rule="evenodd" d="M59.1068 60.0214V49.1228C56.6284 47.9055 53.7657 46.9921 50.7039 46.376L50.704 57.4263C53.7269 58.0122 56.5809 58.8755 59.1068 60.0214Z" fill="#335269"/>
<path fill-rule="evenodd" clip-rule="evenodd" d="M21.8953 62.0095V81.007H31.6484V66.4678H39.151V81.007H41.8513V66.4678H49.354V81.007H59.1071V62.0033C54.0358 59.5125 47.3574 58.2926 40.6497 58.2926C33.8478 58.2926 27.0484 59.5495 21.8953 62.0095Z" fill="#335269"/>
<path fill-rule="evenodd" clip-rule="evenodd" d="M21.8953 49.1289V60.0298C24.4193 58.9127 27.2738 58.0567 30.2983 57.4665C30.2984 55.2779 30.2999 51.909 30.3014 46.4182C27.2399 47.0388 24.3767 47.9444 21.8953 49.1289Z" fill="#335269"/>
<path fill-rule="evenodd" clip-rule="evenodd" d="M50.7037 44.5461C53.7265 45.1317 56.5807 45.9949 59.1069 47.1407V36.2421C56.6284 35.0248 53.7657 34.1112 50.7037 33.4951L50.7024 38.9037C50.7016 41.6275 50.7029 36.1679 50.7037 44.5461Z" fill="#335269"/>
<path fill-rule="evenodd" clip-rule="evenodd" d="M41.4014 43.6171C43.937 43.651 46.4657 43.8556 48.9081 44.2338L48.9094 38.9039C48.9102 36.1706 48.9089 41.6761 48.9081 33.1715C46.476 32.782 43.945 32.5714 41.4014 32.5369V43.6171Z" fill="#335269"/>
<path fill-rule="evenodd" clip-rule="evenodd" d="M32.098 44.2694C34.5385 43.8853 37.0661 43.6684 39.6012 43.6215V32.5414C37.0592 32.5898 34.5297 32.8135 32.0982 33.2096L32.0967 38.9239C32.0959 41.6182 32.0972 36.3216 32.098 44.2694Z" fill="#335269"/>
<path fill-rule="evenodd" clip-rule="evenodd" d="M21.8953 36.2484V47.1493C24.4204 46.0318 27.2762 45.1756 30.302 44.5854L30.3035 38.924C30.3042 36.2254 30.3029 41.5454 30.3022 33.5375C27.2403 34.1581 24.3769 35.0636 21.8953 36.2484Z" fill="#335269"/>
<path fill-rule="evenodd" clip-rule="evenodd" d="M50.7043 31.6655C53.727 32.2512 56.581 33.1143 59.107 34.2602V23.3616C56.6294 22.1449 53.7683 21.2317 50.7077 20.6154C50.7073 22.8371 50.706 26.2295 50.7043 31.6655Z" fill="#335269"/>
<path fill-rule="evenodd" clip-rule="evenodd" d="M41.4014 30.7364C43.937 30.77 46.4657 30.9748 48.9079 31.3529L48.9078 20.2906C46.4758 19.9013 43.945 19.6907 41.4014 19.6561V30.7364Z" fill="#335269"/>
<path fill-rule="evenodd" clip-rule="evenodd" d="M32.0986 31.3887C34.5392 31.0048 37.0664 30.7879 39.6013 30.741V19.6609C37.0608 19.7091 34.5324 19.9326 32.102 20.3286C32.1018 22.5105 32.1003 25.8781 32.0986 31.3887Z" fill="#335269"/>
<path fill-rule="evenodd" clip-rule="evenodd" d="M21.8953 23.3677V34.2686C24.4204 33.1511 27.2762 32.2947 30.302 31.7047L30.3018 20.657C27.2401 21.2774 24.3767 22.183 21.8953 23.3677Z" fill="#335269"/>
<path fill-rule="evenodd" clip-rule="evenodd" d="M21.8951 3.89593C32.1029 -1.3725 48.9008 -1.22393 59.1069 3.89593V21.3881C53.8151 19.046 47.0721 17.8506 40.3525 17.8506C33.7367 17.8506 27.1153 19.0117 21.8951 21.3797V3.89593ZM46.5399 5.86984H32.5794L34.5806 12.6059H44.7351L44.4173 13.792H35.2064C34.7391 13.792 34.3603 14.171 34.3603 14.6382C34.3603 15.1053 34.7391 15.4841 35.2064 15.4841H36.9318V15.8308C36.9318 16.2979 37.3106 16.6769 37.778 16.6769C38.2451 16.6769 38.6239 16.2979 38.6239 15.8308V15.4841H41.6477V15.8308C41.6477 16.2979 42.0264 16.6769 42.4938 16.6769C42.961 16.6769 43.3398 16.2979 43.3398 15.8308V15.4841H45.0528C45.4314 15.4899 45.7799 15.2393 45.8823 14.857L48.2844 5.88871L50.6791 4.50606C51.0824 4.27434 51.2214 3.75952 50.9897 3.35606C50.758 2.9528 50.2429 2.81377 49.8397 3.04549L47.1349 4.60286C46.9193 4.72732 46.7791 4.9325 46.7307 5.15824L46.5399 5.86984Z" fill="#335269"/>
<path fill-rule="evenodd" clip-rule="evenodd" d="M20.0951 30.4862V42.6449H10.9478V30.4862H20.0951ZM20.0951 44.4379V54.8501H10.9478V44.4379H20.0951ZM20.0951 56.6432V67.0554H10.9478V56.6432H20.0951ZM20.0951 68.8486V81.0071H10.9478V68.8484L20.0951 68.8486ZM9.14748 81.0071H0V68.8484H9.14748V81.0071ZM0 67.0554V56.6432H9.14748V67.0554H0ZM0 54.8501V44.4379H9.14748V54.8501H0ZM0 42.6447V30.4862H9.14748V42.6447H0Z" fill="#DBB65D"/>
<path fill-rule="evenodd" clip-rule="evenodd" d="M60.9072 30.4862V42.6449H70.0545V30.4862H60.9072ZM60.9072 44.4379V54.8501H70.0545V44.4379H60.9072ZM60.9072 56.6432V67.0554H70.0545V56.6432H60.9072ZM60.9072 68.8486V81.0071H70.0545V68.8484L60.9072 68.8486ZM71.8548 81.0071H81.0023V68.8484H71.8548V81.0071ZM81.0023 67.0554V56.6432H71.8548V67.0554H81.0023ZM81.0023 54.8501V44.4379H71.8548V54.8501H81.0023ZM81.0023 42.6447V30.4862H71.8548V42.6447H81.0023Z" fill="#DBB65D"/>
</svg>
