<svg width="32" height="32" viewBox="0 0 32 32" fill="none" xmlns="http://www.w3.org/2000/svg">
<g id="_217271192">
<g id="Group 282">
<path id="_217256456" fill-rule="evenodd" clip-rule="evenodd" d="M15.1665 21.639V17.3955C14.1929 17.414 13.2241 17.4997 12.293 17.6514L12.293 21.8869C13.2277 21.7399 14.1956 21.657 15.1665 21.639Z" fill="#335269"/>
<path id="_217245056" fill-rule="evenodd" clip-rule="evenodd" d="M18.7294 21.8729C18.7295 21.0168 18.7301 19.7141 18.7307 17.6366C17.7993 17.4875 16.8301 17.4068 15.856 17.3936V21.6371C16.8266 21.6499 17.7945 21.7282 18.7294 21.8729Z" fill="#335269"/>
<path id="_217273544" fill-rule="evenodd" clip-rule="evenodd" d="M22.6366 22.9871V18.8132C21.6874 18.347 20.5911 17.9972 19.4185 17.7612L19.4185 21.9933C20.5762 22.2177 21.6692 22.5483 22.6366 22.9871Z" fill="#335269"/>
<path id="_217273424" fill-rule="evenodd" clip-rule="evenodd" d="M8.38525 23.7487V31.0243H12.1205V25.4561H14.9938V31.0243H16.028V25.4561H18.9013V31.0243H22.6366V23.7463C20.6944 22.7924 18.1367 22.3252 15.5678 22.3252C12.9628 22.3252 10.3588 22.8066 8.38525 23.7487Z" fill="#335269"/>
<path id="_217272584" fill-rule="evenodd" clip-rule="evenodd" d="M8.38525 18.815V22.9898C9.35191 22.562 10.4451 22.2341 11.6034 22.0081C11.6035 21.1699 11.6041 19.8797 11.6046 17.7769C10.4321 18.0145 9.3356 18.3613 8.38525 18.815Z" fill="#335269"/>
<path id="_217273112" fill-rule="evenodd" clip-rule="evenodd" d="M19.4183 17.0604C20.576 17.2847 21.6691 17.6153 22.6365 18.0541V13.8802C21.6874 13.414 20.591 13.0641 19.4183 12.8281L19.4178 14.8995C19.4175 15.9427 19.418 13.8518 19.4183 17.0604Z" fill="#335269"/>
<path id="_217273016" fill-rule="evenodd" clip-rule="evenodd" d="M15.856 16.7044C16.8271 16.7174 17.7955 16.7958 18.7309 16.9406L18.7314 14.8994C18.7317 13.8526 18.7312 15.9611 18.7309 12.704C17.7994 12.5548 16.8301 12.4742 15.856 12.4609V16.7044Z" fill="#335269"/>
<path id="_217272992" fill-rule="evenodd" clip-rule="evenodd" d="M12.2928 16.954C13.2275 16.8069 14.1955 16.7238 15.1664 16.7058V12.4624C14.1929 12.4809 13.2241 12.5666 12.2929 12.7183L12.2923 14.9068C12.292 15.9386 12.2925 13.9101 12.2928 16.954Z" fill="#335269"/>
<path id="_217272704" fill-rule="evenodd" clip-rule="evenodd" d="M8.38525 13.8825V18.0573C9.35234 17.6293 10.446 17.3014 11.6049 17.0754L11.6054 14.9072C11.6057 13.8737 11.6052 15.9111 11.6049 12.8442C10.4323 13.0819 9.33567 13.4287 8.38525 13.8825Z" fill="#335269"/>
<path id="_217272008" fill-rule="evenodd" clip-rule="evenodd" d="M19.4187 12.127C20.5763 12.3513 21.6693 12.6819 22.6367 13.1207V8.94677C21.6879 8.4808 20.5921 8.13105 19.42 7.89502C19.4198 8.74588 19.4193 10.0451 19.4187 12.127Z" fill="#335269"/>
<path id="_217272272" fill-rule="evenodd" clip-rule="evenodd" d="M15.856 11.7713C16.8271 11.7842 17.7955 11.8627 18.7308 12.0074L18.7307 7.7708C17.7994 7.62173 16.8301 7.54107 15.856 7.52783V11.7713Z" fill="#335269"/>
<path id="_217272200" fill-rule="evenodd" clip-rule="evenodd" d="M12.2932 12.0213C13.2279 11.8743 14.1958 11.7912 15.1666 11.7732V7.52979C14.1936 7.54825 13.2253 7.63384 12.2945 7.78549C12.2944 8.62111 12.2939 9.91083 12.2932 12.0213Z" fill="#335269"/>
<path id="_217271960" fill-rule="evenodd" clip-rule="evenodd" d="M8.38525 8.94929V13.1241C9.35234 12.6961 10.446 12.3681 11.6049 12.1422L11.6048 7.91113C10.4322 8.14874 9.3356 8.49555 8.38525 8.94929Z" fill="#335269"/>
<path id="_217271072" fill-rule="evenodd" clip-rule="evenodd" d="M8.38539 1.49201C12.2947 -0.525684 18.728 -0.468788 22.6367 1.49201V8.19114C20.6101 7.29418 18.0276 6.83637 15.4542 6.83637C12.9205 6.83637 10.3846 7.28102 8.38539 8.18792V1.49201ZM17.8238 2.24798H12.4772L13.2437 4.82776H17.1326L17.0109 5.282H13.4833C13.3043 5.282 13.1593 5.42714 13.1593 5.60606C13.1593 5.78497 13.3043 5.93004 13.4833 5.93004H14.1441V6.0628C14.1441 6.24172 14.2892 6.38685 14.4682 6.38685C14.6471 6.38685 14.7922 6.24172 14.7922 6.0628V5.93004H15.9502V6.0628C15.9502 6.24172 16.0953 6.38685 16.2742 6.38685C16.4532 6.38685 16.5982 6.24172 16.5982 6.0628V5.93004H17.2543C17.3993 5.93226 17.5328 5.83629 17.572 5.68986L18.4919 2.25521L19.409 1.72568C19.5635 1.63694 19.6167 1.43977 19.528 1.28525C19.4392 1.13081 19.242 1.07757 19.0876 1.16631L18.0517 1.76275C17.9691 1.81041 17.9154 1.889 17.8969 1.97545L17.8238 2.24798Z" fill="#335269"/>
</g>
<path id="_217271336" fill-rule="evenodd" clip-rule="evenodd" d="M7.69599 11.6758V16.3323H4.19277V11.6758H7.69599ZM7.69599 17.019V21.0066H4.19277V17.019H7.69599ZM7.69599 21.6933V25.681H4.19277V21.6933H7.69599ZM7.69599 26.3678V31.0242H4.19277V26.3677L7.69599 26.3678ZM3.50329 31.0242H0V26.3677H3.50329V31.0242ZM0 25.681V21.6933H3.50329V25.681H0ZM0 21.0066V17.019H3.50329V21.0066H0ZM0 16.3322V11.6758H3.50329V16.3322H0Z" fill="#DBB65D"/>
<path id="_217271120" fill-rule="evenodd" clip-rule="evenodd" d="M23.3262 11.6758V16.3323H26.8294V11.6758H23.3262ZM23.3262 17.019V21.0066H26.8294V17.019H23.3262ZM23.3262 21.6933V25.681H26.8294V21.6933H23.3262ZM23.3262 26.3678V31.0242H26.8294V26.3677L23.3262 26.3678ZM27.5189 31.0242H31.0222V26.3677H27.5189V31.0242ZM31.0222 25.681V21.6933H27.5189V25.681H31.0222ZM31.0222 21.0066V17.019H27.5189V21.0066H31.0222ZM31.0222 16.3322V11.6758H27.5189V16.3322H31.0222Z" fill="#DBB65D"/>
</g>
</svg>
