<svg width="20" height="19" viewBox="0 0 20 19" fill="none" xmlns="http://www.w3.org/2000/svg">
<g id="Group 170">
<path id="Vector" d="M1.9275 2.625H15.7401L16.9202 0.5096C17.0527 0.27215 17.3033 0.125 17.5752 0.125H19.0752C19.4894 0.125 19.8252 0.46079 19.8252 0.875C19.8252 1.28921 19.4894 1.625 19.0752 1.625H18.0156L16.8509 3.71265L14.1648 9.6559L14.1621 9.6619L13.9255 10.1854L16.6223 13.062C16.8162 13.2689 16.8769 13.5674 16.7792 13.8335C16.6815 14.0997 16.442 14.288 16.1603 14.3202L13.7022 14.6011C10.6275 14.9525 7.52279 14.9525 4.44819 14.6011L1.99 14.3202C1.5785 14.2731 1.283 13.9014 1.33 13.4898C1.3771 13.0783 1.74879 12.7828 2.1603 12.8299L4.6185 13.1108C7.58 13.4492 10.5704 13.4492 13.5319 13.1108L14.5074 12.9993L12.528 10.888C12.5089 10.8675 12.4911 10.8463 12.4747 10.8244L11.7219 10.9224C10.6669 11.0597 9.6006 11.0866 8.5401 11.0027C6.0666 10.8071 3.77419 9.6301 2.17369 7.7341L1.5957 7.04925C1.57619 7.02625 1.5582 7.00211 1.54169 6.97694L0.464294 5.33509C-0.299305 4.17133 0.535496 2.625 1.9275 2.625Z" fill="white"/>
<path id="Vector_2" d="M14.5752 15.875C15.4036 15.875 16.0752 16.5466 16.0752 17.375C16.0752 18.2034 15.4036 18.875 14.5752 18.875C13.7468 18.875 13.0752 18.2034 13.0752 17.375C13.0752 16.5466 13.7468 15.875 14.5752 15.875Z" fill="white"/>
<path id="Vector_3" d="M5.0752 17.375C5.0752 16.5466 4.4036 15.875 3.5752 15.875C2.7468 15.875 2.0752 16.5466 2.0752 17.375C2.0752 18.2034 2.7468 18.875 3.5752 18.875C4.4036 18.875 5.0752 18.2034 5.0752 17.375Z" fill="white"/>
</g>
</svg>
