<svg width="46" height="46" viewBox="0 0 46 46" fill="none" xmlns="http://www.w3.org/2000/svg">
<circle cx="23" cy="23" r="23" fill="white" fill-opacity="0.15"/>
<mask id="mask0_552_3883" style="mask-type:alpha" maskUnits="userSpaceOnUse" x="0" y="0" width="46" height="46">
<circle cx="23" cy="23" r="23" fill="#D9D9D9"/>
</mask>
<g mask="url(#mask0_552_3883)">
<path d="M23.0913 24.0908C28.0869 24.0908 32.1367 20.041 32.1367 15.0454C32.1367 10.0498 28.0869 6 23.0913 6C18.0957 6 14.0459 10.0498 14.0459 15.0454C14.0459 20.041 18.0957 24.0908 23.0913 24.0908Z" fill="white"/>
<path d="M26.4563 38.057L23.0914 27.9985L19.7266 38.057V38.0751L23.0914 41.44L26.4563 38.0751V38.057Z" fill="#DBB65D"/>
<path d="M26.7089 25.8999H26.2024L30.2004 37.876C30.3308 38.2081 30.3626 38.5708 30.292 38.9206C30.2214 39.2703 30.0514 39.5923 29.8024 39.8479L23.8506 45.7998H39.3725C39.8518 45.7984 40.3112 45.6073 40.6502 45.2684C40.9891 44.9294 41.1802 44.47 41.1815 43.9907V40.3725C41.1765 36.5357 39.6501 32.8575 36.937 30.1444C34.224 27.4314 30.5457 25.905 26.7089 25.8999Z" fill="white"/>
<path d="M16.3791 39.8479C16.1301 39.5923 15.9601 39.2703 15.8895 38.9206C15.8189 38.5708 15.8507 38.2081 15.9811 37.876L19.9792 25.8999H19.4726C15.6358 25.905 11.9576 27.4314 9.24454 30.1444C6.53149 32.8575 5.00507 36.5357 5 40.3725V43.9907C5.00138 44.47 5.19243 44.9294 5.5314 45.2684C5.87036 45.6073 6.32971 45.7984 6.80908 45.7998H22.3491C22.3491 45.7998 21.1929 44.6617 16.3791 39.8479Z" fill="white"/>
</g>
</svg>
