<svg width="46" height="53" viewBox="0 0 46 53" fill="none" xmlns="http://www.w3.org/2000/svg">
<g filter="url(#filter0_d_552_9842)">
<rect x="5" y="5" width="36" height="43" rx="5" fill="white"/>
<path d="M30.2526 19.3218H26.7699V18.7413C26.7699 17.7811 25.9888 17 25.0285 17H20.3849C19.4247 17 18.6436 17.7811 18.6436 18.7413V19.3218H15.1609C14.5197 19.3218 14 19.8415 14 20.4827C14 21.1238 14.5197 21.6436 15.1609 21.6436C20.4997 21.6436 24.914 21.6436 30.2526 21.6436C30.8938 21.6436 31.4135 21.1238 31.4135 20.4827C31.4135 19.8415 30.8938 19.3218 30.2526 19.3218ZM25.609 19.3218H19.8045V18.7413C19.8045 18.4211 20.0647 18.1609 20.3849 18.1609H25.0285C25.3488 18.1609 25.609 18.4211 25.609 18.7413V19.3218Z" fill="#E96D5A"/>
<path d="M15.208 22.3511L16.2361 34.7624C16.3098 35.6575 17.0722 36.3593 17.9707 36.3593H27.4438C28.3423 36.3593 29.1047 35.6575 29.1783 34.7624L30.2064 22.3511H15.208ZM19.8044 34.0375C19.5006 34.0375 19.245 33.8011 19.2257 33.4933L18.6452 24.1287C18.6254 23.8084 18.8686 23.5329 19.1883 23.5131C19.5199 23.4898 19.7835 23.7359 19.8039 24.0561L20.3843 33.4207C20.4048 33.7523 20.1424 34.0375 19.8044 34.0375ZM23.2877 33.457C23.2877 33.7778 23.0281 34.0375 22.7072 34.0375C22.3864 34.0375 22.1268 33.7778 22.1268 33.457V24.0924C22.1268 23.7716 22.3864 23.512 22.7072 23.512C23.0281 23.512 23.2877 23.7716 23.2877 24.0924V33.457ZM26.7692 24.1287L26.1888 33.4933C26.1697 33.798 25.9157 34.0519 25.5732 34.0363C25.2535 34.0165 25.0103 33.741 25.0301 33.4207L25.6106 24.0562C25.6304 23.7359 25.911 23.5029 26.2262 23.5131C26.5459 23.533 26.7891 23.8085 26.7692 24.1287Z" fill="#E96D5A"/>
</g>
<defs>
<filter id="filter0_d_552_9842" x="0" y="0" width="46" height="53" filterUnits="userSpaceOnUse" color-interpolation-filters="sRGB">
<feFlood flood-opacity="0" result="BackgroundImageFix"/>
<feColorMatrix in="SourceAlpha" type="matrix" values="0 0 0 0 0 0 0 0 0 0 0 0 0 0 0 0 0 0 127 0" result="hardAlpha"/>
<feOffset/>
<feGaussianBlur stdDeviation="2.5"/>
<feComposite in2="hardAlpha" operator="out"/>
<feColorMatrix type="matrix" values="0 0 0 0 0 0 0 0 0 0 0 0 0 0 0 0 0 0 0.1 0"/>
<feBlend mode="normal" in2="BackgroundImageFix" result="effect1_dropShadow_552_9842"/>
<feBlend mode="normal" in="SourceGraphic" in2="effect1_dropShadow_552_9842" result="shape"/>
</filter>
</defs>
</svg>
