<svg width="80" height="73" viewBox="0 0 80 73" fill="none" xmlns="http://www.w3.org/2000/svg">
<path d="M68.6806 46.9962C68.769 46.408 69.0847 45.8785 69.5591 45.5225C70.0335 45.1664 70.6284 45.0125 71.215 45.0941L78.0131 46.0826C78.5977 46.1734 79.1235 46.491 79.4775 46.9671C79.8316 47.4432 79.9856 48.0398 79.9065 48.6287L76.7459 70.5401C76.7048 70.8326 76.6065 71.1141 76.4567 71.3683C76.3069 71.6225 76.1084 71.8444 75.8728 72.0212C75.6373 72.198 75.3692 72.3262 75.0841 72.3985C74.7989 72.4707 74.5024 72.4856 74.2115 72.4422L67.4134 71.4537C66.8265 71.3677 66.2975 71.0514 65.9425 70.574C65.5876 70.0967 65.4356 69.4974 65.52 68.9076L68.6806 46.9962Z" fill="#DBB65E"/>
<path d="M1.04193 38.2643C2.54567 37.4935 4.23766 37.1713 5.91789 37.3359C7.59812 37.5004 9.19632 38.1448 10.5236 39.1929L20.363 46.981C19.9941 47.9287 19.35 49.0964 19.9307 50.0812C20.0635 50.2971 20.2394 50.483 20.4472 50.6274C20.655 50.7717 20.8903 50.8713 21.1382 50.9199L39.207 53.8854C39.3987 53.9125 39.5933 53.8632 39.7492 53.7479C39.9051 53.6326 40.0098 53.4606 40.041 53.2687C40.0722 53.0768 40.0273 52.8802 39.916 52.7211C39.8047 52.5621 39.6358 52.4531 39.4454 52.4176L21.3917 49.4372C21.3551 49.432 21.3201 49.4188 21.2891 49.3987C21.258 49.3786 21.2317 49.352 21.2119 49.3207C21.192 49.2894 21.1792 49.2541 21.1742 49.2174C21.1692 49.1806 21.1722 49.1432 21.1829 49.1077C21.6212 47.2058 22.7591 45.5406 24.3683 44.4462C25.9775 43.3518 27.9391 42.909 29.8596 43.2067L44.723 45.5881C45.709 45.7359 46.7163 45.6223 47.6451 45.2586C50.8849 44.0974 54.3726 43.8169 57.7551 44.4455C61.1375 45.074 64.2946 46.5894 66.9065 48.8381L64.1634 67.829C61.7986 66.0296 59.0138 63.2672 55.785 63.7105L36.0614 65.2679C33.8832 65.4355 31.6943 65.1408 29.6369 64.4028C27.5795 63.6648 25.6998 62.5001 24.1199 60.9845L0.997203 38.6987C0.82965 38.5524 0.909244 38.382 1.04193 38.2643Z" fill="#335269"/>
<ellipse cx="15.7884" cy="15.8599" rx="15.7884" ry="15.8599" transform="matrix(-0.995354 -0.0962825 -0.095408 0.995438 42.78 3.50684)" fill="#335269"/>
<path d="M28.8378 23.001L29.0039 22.9989L30.1838 22.9925L35.5615 22.9668L30.1607 18.029L35.5132 13.0399L30.1354 13.0655L28.9577 13.0719H28.7894L23.4348 18.061L28.8378 23.001Z" fill="#DBB65D"/>
<path d="M20.0338 23.001L20.2 22.9989L21.3778 22.9946L26.7576 22.9668L21.3546 18.029L26.7092 13.0399L21.3315 13.0655L20.1516 13.0719L19.9855 13.074L14.6309 18.0632L20.0338 23.001Z" fill="#DBB65D"/>
<path fill-rule="evenodd" clip-rule="evenodd" d="M41.5633 30.4331C43.8458 27.4877 45.3502 23.8774 45.7327 19.8867C46.2578 14.4079 44.571 9.22743 41.4055 5.23875C44.474 2.84813 48.4212 1.58297 52.5915 1.98636C61.2706 2.82592 67.629 10.5748 66.7933 19.2941C65.9576 28.0133 58.2443 34.401 49.5652 33.5615C46.5496 33.2698 43.8142 32.144 41.5633 30.4331Z" fill="#DBB65E"/>
<g clip-path="url(#clip0_24_15019)">
<path d="M58.0495 23.3836L54.3292 18.3429L58.0165 13.2503L58.1316 13.2495L58.9434 13.2434L62.6472 13.216L58.9597 18.3087L62.68 23.3494L58.9762 23.3768L58.1644 23.3829L58.0493 23.3836M51.9855 23.2074L52.1006 23.2067L52.9124 23.2006L56.6162 23.1732L52.8959 18.1324L56.5836 13.0398L52.8798 13.0672L52.068 13.0733L51.9529 13.074L48.2654 18.1667L51.9857 23.2074" fill="#335269"/>
</g>
<defs>
<clipPath id="clip0_24_15019">
<rect width="14.4149" height="10.3439" fill="white" transform="translate(48.2654 13.0398)"/>
</clipPath>
</defs>
</svg>
