<svg width="116" height="68" viewBox="0 0 116 68" fill="none" xmlns="http://www.w3.org/2000/svg">
<path d="M30.2538 0.654823L54.8896 14.8986C55.8482 15.4531 55.8482 16.8283 54.8896 17.3828L30.2538 31.6266C28.74 32.5017 26.8716 32.5017 25.3599 31.6266L0.724018 17.3828C-0.234504 16.8283 -0.234504 15.4531 0.724018 14.8986L25.3599 0.654823C26.8716 -0.218274 28.74 -0.218274 30.2538 0.654823Z" fill="#DBB65D" fill-opacity="0.25"/>
<path d="M30.2538 0.654823L54.8896 14.8986C55.8482 15.4531 55.8482 16.8283 54.8896 17.3828L30.2538 31.6266C28.74 32.5017 26.8716 32.5017 25.3599 31.6266L0.724018 17.3828C-0.234504 16.8283 -0.234504 15.4531 0.724018 14.8986L25.3599 0.654823C26.8716 -0.218274 28.74 -0.218274 30.2538 0.654823Z" fill="#DBB65D" fill-opacity="0.25"/>
<path d="M54.882 17.3927L46.5126 22.232L30.2603 31.6284C28.7405 32.4954 26.8761 32.4954 25.3563 31.6284L9.10393 22.232L0.714332 17.3927C-0.238111 16.8281 -0.238111 15.4569 0.714332 14.8924L25.3563 0.656634C26.8761 -0.210414 28.7405 -0.210414 30.2603 0.656634L54.882 14.8924C55.8547 15.4569 55.8547 16.8281 54.882 17.3927Z" fill="#DBB65D" fill-opacity="0.25"/>
<path d="M31.7881 34.2439C30.5661 34.9396 29.1962 35.3045 27.8081 35.3045C26.42 35.3045 25.0501 34.9396 23.8443 34.254L9.10376 25.7307V33.3023C9.10376 34.996 9.99541 36.5487 11.4747 37.3955L21.749 43.3036C25.4979 45.4409 30.1183 45.4409 33.847 43.3036L44.1415 37.3955C45.6006 36.5487 46.5125 34.996 46.5125 33.3023V25.7307L31.7881 34.2439Z" fill="#DBB65D" fill-opacity="0.25"/>
<path d="M55.3283 35.9783V20.6335L51.6786 22.7427V35.9763C50.8214 36.557 50.2581 37.5349 50.2581 38.644C50.2581 40.4264 51.711 41.8722 53.5024 41.8722C55.2938 41.8722 56.7468 40.4285 56.7468 38.646C56.7468 37.537 56.1835 36.561 55.3283 35.9783Z" fill="#DBB65D" fill-opacity="0.25"/>
<path d="M89.5067 0.655067L114.143 14.8989C115.101 15.4534 115.101 16.8285 114.143 17.3831L89.5067 31.6268C87.9929 32.502 86.1245 32.502 84.6128 31.6268L59.9769 17.3831C59.0184 16.8285 59.0184 15.4534 59.9769 14.8989L84.6128 0.655067C86.1245 -0.21803 87.9929 -0.21803 89.5067 0.655067Z" fill="#DBB65D" fill-opacity="0.25"/>
<path d="M89.5067 0.655067L114.143 14.8989C115.101 15.4534 115.101 16.8285 114.143 17.3831L89.5067 31.6268C87.9929 32.502 86.1245 32.502 84.6128 31.6268L59.9769 17.3831C59.0184 16.8285 59.0184 15.4534 59.9769 14.8989L84.6128 0.655067C86.1245 -0.21803 87.9929 -0.21803 89.5067 0.655067Z" fill="#DBB65D" fill-opacity="0.25"/>
<path d="M114.135 17.3929L105.766 22.2323L89.5135 31.6286C87.9936 32.4957 86.1293 32.4957 84.6094 31.6286L68.3571 22.2323L59.9675 17.3929C59.0151 16.8283 59.0151 15.4572 59.9675 14.8926L84.6094 0.656878C86.1293 -0.21017 87.9936 -0.21017 89.5135 0.656878L114.135 14.8926C115.108 15.4572 115.108 16.8283 114.135 17.3929Z" fill="#DBB65D" fill-opacity="0.25"/>
<path d="M91.0413 34.2439C89.8193 34.9396 88.4494 35.3045 87.0613 35.3045C85.6732 35.3045 84.3033 34.9396 83.0975 34.254L68.3569 25.7307V33.3023C68.3569 34.996 69.2486 36.5487 70.7279 37.3955L81.0021 43.3036C84.7511 45.4409 89.3715 45.4409 93.1002 43.3036L103.395 37.3955C104.854 36.5487 105.766 34.996 105.766 33.3023V25.7307L91.0413 34.2439Z" fill="#DBB65D" fill-opacity="0.25"/>
<path d="M114.581 35.9783V20.6335L110.932 22.7427V35.9763C110.075 36.557 109.511 37.5349 109.511 38.644C109.511 40.4264 110.964 41.8722 112.756 41.8722C114.547 41.8722 116 40.4285 116 38.646C116 37.537 115.437 36.561 114.581 35.9783Z" fill="#DBB65D" fill-opacity="0.25"/>
<path d="M61.4396 23.2647L86.0754 37.5085C87.0339 38.063 87.0339 39.4382 86.0754 39.9927L61.4396 54.2365C59.9258 55.1116 58.0574 55.1116 56.5456 54.2365L31.9098 39.9927C30.9513 39.4382 30.9513 38.063 31.9098 37.5085L56.5456 23.2647C58.0574 22.3916 59.9258 22.3916 61.4396 23.2647Z" fill="#335269"/>
<path d="M61.4396 23.2647L86.0754 37.5085C87.0339 38.063 87.0339 39.4382 86.0754 39.9927L61.4396 54.2365C59.9258 55.1116 58.0574 55.1116 56.5456 54.2365L31.9098 39.9927C30.9513 39.4382 30.9513 38.063 31.9098 37.5085L56.5456 23.2647C58.0574 22.3916 59.9258 22.3916 61.4396 23.2647Z" fill="#335269"/>
<path d="M86.068 40.0025L77.6987 44.8419L61.4464 54.2383C59.9265 55.1053 58.0621 55.1053 56.5423 54.2383L40.29 44.8419L31.9004 40.0025C30.9479 39.438 30.9479 38.0668 31.9004 37.5022L56.5423 23.2665C58.0621 22.3994 59.9265 22.3994 61.4464 23.2665L86.068 37.5022C87.0407 38.0668 87.0407 39.438 86.068 40.0025Z" fill="#335269"/>
<path d="M62.9739 56.8538C61.7519 57.5494 60.382 57.9144 58.9939 57.9144C57.6058 57.9144 56.2359 57.5494 55.0301 56.8639L40.2896 48.3406V55.9121C40.2896 57.6059 41.1812 59.1585 42.6605 60.0054L52.9347 65.9134C56.6837 68.0508 61.3041 68.0508 65.0328 65.9134L75.3273 60.0054C76.7863 59.1585 77.6983 57.6059 77.6983 55.9121V48.3406L62.9739 56.8538Z" fill="#8285C7" fill-opacity="0.345098"/>
<path d="M86.5141 58.5881V43.2434L82.8644 45.3526V58.5861C82.0072 59.1669 81.4438 60.1448 81.4438 61.2538C81.4438 63.0363 82.8968 64.4821 84.6882 64.4821C86.4796 64.4821 87.9326 63.0383 87.9326 61.2558C87.9326 60.1468 87.3693 59.1709 86.5141 58.5881Z" fill="#8285C7" fill-opacity="0.345098"/>
</svg>
