<svg width="71" height="71" viewBox="0 0 71 71" fill="none" xmlns="http://www.w3.org/2000/svg">
<path d="M40.3036 22.9981L26.9238 9.67725L9.47754 27.0466L22.8574 40.3675C28.2355 34.8824 34.7943 28.4832 40.3036 22.9981Z" fill="#335269"/>
<path d="M30.5966 9.67708L40.1724 19.2106C40.8283 19.8636 42.4024 21.4308 43.0582 22.0838C44.6323 23.6509 47.2558 23.5203 48.6987 21.9532C50.1417 20.386 50.1417 17.9047 48.6987 16.4681L33.4825 1.18828C29.8096 -2.46843 24.1691 3.14723 27.842 6.80395C28.3667 7.45693 29.9408 9.02409 30.5966 9.67708Z" fill="#CDD6DC"/>
<path d="M16.4296 48.8558C18.0037 50.4229 20.6272 50.2923 22.2013 48.7252C22.8572 47.9416 23.2507 47.0274 23.2507 45.9826C23.3819 43.5013 20.6272 41.9341 19.1843 40.367L9.60855 30.8334C8.95267 30.1804 7.37858 28.6132 6.7227 27.9603C5.14861 26.3931 2.52511 26.5237 1.08219 28.0909C-0.36073 29.658 -0.36073 32.1394 1.08219 33.5759L16.4296 48.8558Z" fill="#CDD6DC"/>
<path d="M69.0308 59.565L52.634 43.2403C51.8469 42.4568 50.9287 42.9792 50.2729 43.7627L36.7619 30.1807L34.9254 32.1396L30.2031 36.8411L43.7141 50.2926L43.1894 50.815C42.6647 51.3374 42.6647 52.1209 43.1894 52.6433L59.5863 68.9679C63.6527 73.147 71.1296 69.8821 70.9985 64.1358C70.9985 62.4381 70.2114 60.7403 69.0308 59.565Z" fill="#335269"/>
<path d="M41.4727 68.3025H40.1609V65.2988C40.1609 62.2951 37.7998 59.9443 34.7828 59.9443H10.2531C7.2361 59.9443 4.87496 62.2951 4.87496 65.2988V68.3025H3.56321C2.77616 68.3025 2.25146 68.9555 2.25146 69.6085C2.25146 70.2615 2.77616 70.9145 3.56321 70.9145H41.4727C42.2597 70.9145 42.7844 70.2615 42.7844 69.6085C42.7844 68.8249 42.1286 68.3025 41.4727 68.3025Z" fill="#DBB65D"/>
</svg>
