<svg width="27" height="26" viewBox="0 0 27 26" fill="none" xmlns="http://www.w3.org/2000/svg">
<path d="M13.2 24.6517C13.2 23.9623 13.7452 23.4033 14.4176 23.4033H24.1588C24.383 23.4033 24.5647 23.2171 24.5647 22.9872V3.013C24.5647 2.78318 24.383 2.59687 24.1588 2.59687H14.4176C13.7452 2.59687 13.2 2.03794 13.2 1.34848C13.2 0.659026 13.7452 0.100098 14.4176 0.100098H24.1588C25.728 0.100098 27 1.40425 27 3.013V22.9872C27 24.5959 25.728 25.9001 24.1588 25.9001H14.4176C13.7452 25.9001 13.2 25.3412 13.2 24.6517Z" fill="#E96D5A"/>
<path d="M20.4 14.8672C20.4 15.7878 19.6459 16.5339 18.7157 16.5339H10.5366C10.4979 17.1263 10.4496 17.7183 10.3915 18.3095L10.3416 18.8182C10.2603 19.6454 9.37275 20.1406 8.61544 19.7815C5.53661 18.3213 2.7494 16.3234 0.387865 13.8835L0.337402 13.8314C-0.112467 13.3665 -0.112467 12.6337 0.337402 12.1688L0.387865 12.1166C2.7494 9.67673 5.53661 7.67876 8.61544 6.2187C9.37275 5.85956 10.2603 6.35489 10.3416 7.18198L10.3915 7.69066C10.4496 8.2819 10.4979 8.87383 10.5366 9.46622L18.7157 9.46624C19.6459 9.46624 20.4 10.2124 20.4 11.1329V14.8672Z" fill="#E96D5A"/>
</svg>
