<svg width="30" height="31" viewBox="0 0 30 31" fill="none" xmlns="http://www.w3.org/2000/svg">
<path id="Vector" fill-rule="evenodd" clip-rule="evenodd" d="M6.5111 0.968319C12.1074 0.343894 17.8927 0.343894 23.489 0.968319C26.6119 1.31678 29.1314 3.77321 29.4982 6.90333C30.1673 12.6151 30.1673 18.3851 29.4982 24.0967C29.1314 27.2269 26.6119 29.6833 23.489 30.0317C17.8927 30.6561 12.1074 30.6561 6.5111 30.0317C3.38809 29.6833 0.868564 27.2269 0.501856 24.0967C-0.167285 18.3851 -0.167285 12.6151 0.501856 6.90333C0.868564 3.77321 3.38809 1.31678 6.5111 0.968319ZM15 6.4115C15.7553 6.4115 16.3676 7.02277 16.3676 7.77678V14.1347H22.7363C23.4915 14.1347 24.1038 14.746 24.1038 15.5C24.1038 16.254 23.4915 16.8653 22.7363 16.8653H16.3676V23.2231C16.3676 23.9773 15.7553 24.5884 15 24.5884C14.2448 24.5884 13.6325 23.9773 13.6325 23.2231V16.8653H7.26398C6.50868 16.8653 5.89641 16.254 5.89641 15.5C5.89641 14.746 6.50868 14.1347 7.26398 14.1347H13.6325V7.77678C13.6325 7.02277 14.2448 6.4115 15 6.4115Z" fill="white"/>
</svg>
