<svg width="79" height="59" viewBox="0 0 79 59" fill="none" xmlns="http://www.w3.org/2000/svg">
<path d="M43.6772 0H79V29.7691C79 34.7238 78.0993 38.8257 76.2773 42.1051C74.4656 45.3745 72.1156 48.0955 69.2169 50.2683C66.3285 52.4309 63.1089 54.1773 59.558 55.487C56.0071 56.7968 52.4976 57.9745 49.0295 59L43.8222 49.72C46.4517 48.7453 48.6982 47.7503 50.5617 46.7451C52.4251 45.74 53.9573 44.6434 55.1375 43.4555C56.3177 42.2676 57.1873 40.9172 57.7359 39.3943C58.2846 37.8713 58.5641 36.0843 58.5641 34.0232H43.6669V0H43.6772ZM0 0H35.2399V29.7691C35.2399 34.7238 34.3393 38.8257 32.5172 42.1051C30.7055 45.3745 28.3659 48.0955 25.4982 50.2683C22.6306 52.4309 19.4317 54.1773 15.8807 55.487C12.3298 56.7968 8.82034 57.9745 5.35225 59L0.0828201 49.72C2.71236 48.7453 4.95885 47.7503 6.8223 46.7451C8.68576 45.74 10.2179 44.6434 11.3981 43.4555C12.5783 42.2676 13.4479 40.9172 13.9966 39.3943C14.5453 37.8713 14.8248 36.0843 14.8248 34.0232H0V0Z" fill="#DBB65D"/>
</svg>
