<svg width="21" height="19" viewBox="0 0 21 19" fill="none" xmlns="http://www.w3.org/2000/svg">
<g id="Group 170">
<path id="Vector" d="M2.4275 2.625H16.2401L17.4202 0.5096C17.5527 0.27215 17.8033 0.125 18.0752 0.125H19.5752C19.9894 0.125 20.3252 0.46079 20.3252 0.875C20.3252 1.28921 19.9894 1.625 19.5752 1.625H18.5156L17.3509 3.71265L14.6648 9.6559L14.6621 9.6619L14.4255 10.1854L17.1223 13.062C17.3162 13.2689 17.3769 13.5674 17.2792 13.8335C17.1815 14.0997 16.942 14.288 16.6603 14.3202L14.2022 14.6011C11.1275 14.9525 8.02279 14.9525 4.94819 14.6011L2.49 14.3202C2.0785 14.2731 1.783 13.9014 1.83 13.4898C1.8771 13.0783 2.24879 12.7828 2.6603 12.8299L5.1185 13.1108C8.08 13.4492 11.0704 13.4492 14.0319 13.1108L15.0074 12.9993L13.028 10.888C13.0089 10.8675 12.9911 10.8463 12.9747 10.8244L12.2219 10.9224C11.1669 11.0597 10.1006 11.0866 9.0401 11.0027C6.5666 10.8071 4.27419 9.6301 2.67369 7.7341L2.0957 7.04925C2.07619 7.02625 2.0582 7.00211 2.04169 6.97694L0.964294 5.33509C0.200695 4.17133 1.0355 2.625 2.4275 2.625Z" fill="#E96D5A"/>
<path id="Vector_2" d="M15.0752 15.875C15.9036 15.875 16.5752 16.5466 16.5752 17.375C16.5752 18.2034 15.9036 18.875 15.0752 18.875C14.2468 18.875 13.5752 18.2034 13.5752 17.375C13.5752 16.5466 14.2468 15.875 15.0752 15.875Z" fill="#E96D5A"/>
<path id="Vector_3" d="M5.5752 17.375C5.5752 16.5466 4.9036 15.875 4.0752 15.875C3.2468 15.875 2.5752 16.5466 2.5752 17.375C2.5752 18.2034 3.2468 18.875 4.0752 18.875C4.9036 18.875 5.5752 18.2034 5.5752 17.375Z" fill="#E96D5A"/>
</g>
</svg>
