<svg width="16" height="18" viewBox="0 0 16 18" fill="none" xmlns="http://www.w3.org/2000/svg">
<g id="Group 236">
<path id="Vector" d="M8 0.760254C5.92893 0.760254 4.25 2.43918 4.25 4.51025C4.25 6.58132 5.92893 8.26025 8 8.26025C10.0711 8.26025 11.75 6.58132 11.75 4.51025C11.75 2.43918 10.0711 0.760254 8 0.760254Z" fill="white"/>
<path id="Vector_2" d="M4 10.2603C1.92893 10.2603 0.25 11.9392 0.25 14.0103V15.1986C0.25 15.9518 0.79588 16.594 1.53927 16.7154C5.8181 17.414 10.1819 17.414 14.4607 16.7154C15.2041 16.594 15.75 15.9518 15.75 15.1986V14.0103C15.75 11.9392 14.0711 10.2603 12 10.2603H11.6591C11.4746 10.2603 11.2913 10.2895 11.1159 10.3467L10.2504 10.6294C8.7881 11.1068 7.2119 11.1068 5.74959 10.6294L4.88407 10.3467C4.70869 10.2895 4.52536 10.2603 4.34087 10.2603H4Z" fill="white"/>
</g>
</svg>
