<svg width="32" height="32" viewBox="0 0 32 32" fill="none" xmlns="http://www.w3.org/2000/svg">
<g id="Group 239">
<circle id="Ellipse 10" cx="16" cy="16" r="16" fill="#375B74" fill-opacity="0.15"/>
<g id="Mask group">
<mask id="mask0_184_1085" style="mask-type:alpha" maskUnits="userSpaceOnUse" x="0" y="0" width="32" height="32">
<circle id="Ellipse 9" cx="16" cy="16" r="16" fill="#D9D9D9"/>
</mask>
<g mask="url(#mask0_184_1085)">
<g id="Group 237">
<path id="Vector" d="M16.063 16.7587C19.5382 16.7587 22.3554 13.9415 22.3554 10.4663C22.3554 6.99105 19.5382 4.17383 16.063 4.17383C12.5877 4.17383 9.77051 6.99105 9.77051 10.4663C9.77051 13.9415 12.5877 16.7587 16.063 16.7587Z" fill="#335269"/>
<path id="Vector_2" d="M18.4042 26.4742L16.0634 19.4771L13.7227 26.4742V26.4868L16.0634 28.8276L18.4042 26.4868V26.4742Z" fill="#DBB65D"/>
<path id="Vector_3" d="M18.5807 18.0171H18.2283L21.0096 26.3483C21.1003 26.5793 21.1224 26.8316 21.0733 27.075C21.0242 27.3183 20.9059 27.5422 20.7327 27.72L16.5923 31.8605H27.3901C27.7236 31.8595 28.0431 31.7266 28.2789 31.4908C28.5147 31.255 28.6476 30.9355 28.6486 30.602V28.085C28.6451 25.4159 27.5832 22.8571 25.6959 20.9698C23.8086 19.0825 21.2498 18.0206 18.5807 18.0171Z" fill="#335269"/>
<path id="Vector_4" d="M11.3939 27.72C11.2207 27.5422 11.1025 27.3183 11.0533 27.075C11.0042 26.8317 11.0264 26.5793 11.1171 26.3483L13.8983 18.0171H13.5459C10.8768 18.0206 8.31808 19.0825 6.43075 20.9698C4.54341 22.8571 3.48156 25.4159 3.47803 28.085V30.602C3.47899 30.9355 3.61189 31.255 3.84769 31.4908C4.0835 31.7266 4.40304 31.8595 4.73652 31.8605H15.5469C15.5469 31.8605 14.7426 31.0688 11.3939 27.72Z" fill="#335269"/>
</g>
</g>
</g>
</g>
</svg>
