<svg width="15" height="16" viewBox="0 0 15 16" fill="none" xmlns="http://www.w3.org/2000/svg">
<path d="M13.6933 1.84207H10.9302V1.38155C10.9302 0.619735 10.3105 0 9.54867 0H5.86453C5.10271 0 4.48297 0.619735 4.48297 1.38155V1.84207H1.71986C1.21118 1.84207 0.798828 2.25442 0.798828 2.76311C0.798828 3.27174 1.21118 3.68415 1.71986 3.68415C5.95559 3.68415 9.45777 3.68415 13.6933 3.68415C14.202 3.68415 14.6144 3.27174 14.6144 2.76311C14.6144 2.25442 14.202 1.84207 13.6933 1.84207ZM10.0092 1.84207H5.40401V1.38155C5.40401 1.12747 5.61044 0.921036 5.86453 0.921036H9.54867C9.80275 0.921036 10.0092 1.12747 10.0092 1.38155V1.84207Z" fill="white"/>
<path d="M1.75684 4.24561L2.57254 14.0926C2.63099 14.8027 3.23587 15.3594 3.94869 15.3594H11.4645C12.1773 15.3594 12.7822 14.8027 12.8406 14.0926L13.6563 4.24561H1.75684ZM5.40356 13.5174C5.16249 13.5174 4.95968 13.3298 4.94439 13.0856L4.48387 5.65593C4.46812 5.40184 4.66105 5.18328 4.9147 5.16753C5.17778 5.14908 5.38692 5.34428 5.40309 5.59836L5.86361 13.0281C5.87992 13.2912 5.67173 13.5174 5.40356 13.5174ZM8.16709 13.0569C8.16709 13.3114 7.96112 13.5174 7.70658 13.5174C7.45203 13.5174 7.24606 13.3114 7.24606 13.0569V5.62716C7.24606 5.37262 7.45203 5.16664 7.70658 5.16664C7.96112 5.16664 8.16709 5.37262 8.16709 5.62716V13.0569ZM10.9293 5.65596L10.4688 13.0856C10.4536 13.3274 10.2521 13.5289 9.98037 13.5165C9.72672 13.5007 9.53379 13.2822 9.54954 13.0281L10.0101 5.59839C10.0258 5.34431 10.2484 5.15946 10.4985 5.16756C10.7521 5.18331 10.945 5.40187 10.9293 5.65596Z" fill="white"/>
</svg>
