<svg width="16" height="19" viewBox="0 0 16 19" fill="none" xmlns="http://www.w3.org/2000/svg">
<path d="M15.1337 0.833252H1.26705C0.775945 0.833252 0.400391 1.20881 0.400391 1.69992V4.01102C0.400391 4.50213 0.775945 4.87768 1.26705 4.87768C1.75816 4.87768 2.13372 4.50213 2.13372 4.01102V2.56658H7.3337V16.4332H5.60038C5.10927 16.4332 4.73371 16.8088 4.73371 17.2999C4.73371 17.791 5.10927 18.1665 5.60038 18.1665H10.8004C11.2915 18.1665 11.667 17.791 11.667 17.2999C11.667 16.8088 11.2915 16.4332 10.8004 16.4332H9.06703V2.56658H14.267V4.01102C14.267 4.50213 14.6426 4.87768 15.1337 4.87768C15.6248 4.87768 16.0003 4.50213 16.0003 4.01102V1.69992C16.0003 1.20881 15.6248 0.833252 15.1337 0.833252Z" fill="#DBB65D"/>
</svg>
