<svg width="301" height="424" viewBox="0 0 301 424" fill="none" xmlns="http://www.w3.org/2000/svg">
<g clip-path="url(#clip0_24_15761)">
<g filter="url(#filter0_d_24_15761)">
<rect x="20" y="20" width="261" height="81" rx="5" fill="white"/>
<path d="M71.0508 70V59.9336C71.0508 59.293 70.9258 58.7891 70.6758 58.4219C70.4336 58.0547 70.0664 57.7969 69.5742 57.6484C69.3867 57.5625 69.1602 57.4961 68.8945 57.4492C68.6367 57.4023 68.3438 57.3789 68.0156 57.3789C67.3672 57.3789 66.6133 57.4102 65.7539 57.4727C64.8945 57.5273 63.8203 57.6211 62.5312 57.7539V54.9883C62.9453 54.9258 63.3594 54.875 63.7734 54.8359C64.1875 54.7969 64.6055 54.7617 65.0273 54.7305C65.6133 54.6914 66.1836 54.6641 66.7383 54.6484C67.293 54.625 67.832 54.6133 68.3555 54.6133C69.2695 54.6133 70.043 54.6641 70.6758 54.7656C71.3164 54.8672 71.8672 55.0312 72.3281 55.2578C72.7969 55.4922 73.1875 55.7656 73.5 56.0781C73.8125 56.3906 74.0547 56.7852 74.2266 57.2617C74.3672 57.668 74.4648 58.0781 74.5195 58.4922C74.5742 58.8984 74.6016 59.3789 74.6016 59.9336V70H71.0508ZM62.543 70V60.9531H66.0703V70H62.543ZM77.625 70V67.2344H84.4805V59.9336C84.4805 59.2695 84.3477 58.7539 84.082 58.3867C83.8242 58.0117 83.4336 57.75 82.9102 57.6016C82.7305 57.5312 82.5234 57.4766 82.2891 57.4375C82.0547 57.3984 81.793 57.3789 81.5039 57.3789C81.043 57.3789 80.5078 57.3984 79.8984 57.4375C79.2891 57.4766 78.5312 57.5352 77.625 57.6133V54.8594C78.1406 54.7734 78.7461 54.7109 79.4414 54.6719C80.1367 54.6328 80.9219 54.6133 81.7969 54.6133C82.5312 54.6133 83.1719 54.6484 83.7188 54.7188C84.2734 54.7812 84.7773 54.8867 85.2305 55.0352C85.6914 55.1836 86.0781 55.3672 86.3906 55.5859C86.7031 55.8047 86.957 56.0703 87.1523 56.3828C87.3867 56.6719 87.5664 56.9883 87.6914 57.332C87.8164 57.668 87.9023 58.0391 87.9492 58.4453C87.9961 58.8516 88.0195 59.3008 88.0195 59.793V67.2344H89.707V70H77.625ZM98.3438 70.2227C97.8125 70.2227 97.2695 70.1758 96.7148 70.082C96.1602 69.9883 95.668 69.8203 95.2383 69.5781C94.8789 69.375 94.5234 69.1172 94.1719 68.8047C93.8203 68.4922 93.5039 68.0977 93.2227 67.6211C92.8242 66.9414 92.5352 66.168 92.3555 65.3008C92.1758 64.4336 92.0859 63.4258 92.0859 62.2773V54.8477H95.6367V62.2773C95.6367 63.2461 95.7109 64.0781 95.8594 64.7734C96.0078 65.4609 96.2305 66.0117 96.5273 66.4258C96.7461 66.7305 97.0117 66.9648 97.3242 67.1289C97.6445 67.2852 98.0078 67.3633 98.4141 67.3633C98.8672 67.3633 99.2656 67.2695 99.6094 67.082C99.9531 66.8945 100.234 66.6211 100.453 66.2617C100.742 65.8242 100.941 65.2656 101.051 64.5859C101.168 63.8984 101.227 63.1328 101.227 62.2891C101.227 61.4609 101.172 60.7227 101.062 60.0742C100.961 59.418 100.785 58.8867 100.535 58.4805C100.316 58.1211 100.027 57.8594 99.668 57.6953C99.3164 57.5234 98.9219 57.4375 98.4844 57.4375C98.3594 57.4375 98.2383 57.4453 98.1211 57.4609C98.0039 57.4766 97.8828 57.4961 97.7578 57.5195V54.7422C98.0469 54.6953 98.3281 54.6641 98.6016 54.6484C98.875 54.625 99.1445 54.6133 99.4102 54.6133C99.9883 54.6133 100.543 54.6797 101.074 54.8125C101.613 54.9375 102.102 55.1562 102.539 55.4688C102.844 55.6641 103.117 55.9102 103.359 56.207C103.602 56.5039 103.809 56.8477 103.98 57.2383C104.254 57.832 104.457 58.5508 104.59 59.3945C104.73 60.2305 104.801 61.1914 104.801 62.2773C104.801 63.043 104.75 63.7617 104.648 64.4336C104.547 65.0977 104.395 65.707 104.191 66.2617C103.926 66.9883 103.578 67.6172 103.148 68.1484C102.719 68.6797 102.211 69.1133 101.625 69.4492C101.172 69.707 100.668 69.8984 100.113 70.0234C99.5664 70.1562 98.9766 70.2227 98.3438 70.2227ZM116.262 70V59.9336C116.262 59.293 116.137 58.7891 115.887 58.4219C115.645 58.0547 115.277 57.7969 114.785 57.6484C114.598 57.5625 114.371 57.4961 114.105 57.4492C113.848 57.4023 113.555 57.3789 113.227 57.3789C112.578 57.3789 111.824 57.4102 110.965 57.4727C110.105 57.5273 109.031 57.6211 107.742 57.7539V54.9883C108.156 54.9258 108.57 54.875 108.984 54.8359C109.398 54.7969 109.816 54.7617 110.238 54.7305C110.824 54.6914 111.395 54.6641 111.949 54.6484C112.504 54.625 113.043 54.6133 113.566 54.6133C114.48 54.6133 115.254 54.6641 115.887 54.7656C116.527 54.8672 117.078 55.0312 117.539 55.2578C118.008 55.4922 118.398 55.7656 118.711 56.0781C119.023 56.3906 119.266 56.7852 119.438 57.2617C119.578 57.668 119.676 58.0781 119.73 58.4922C119.785 58.8984 119.812 59.3789 119.812 59.9336V70H116.262ZM107.754 70V60.9531H111.281V70H107.754ZM129.75 70V54.8477H133.289V70H129.75ZM142.477 70.2344C141.938 70.2344 141.395 70.2227 140.848 70.1992C140.309 70.1836 139.812 70.1562 139.359 70.1172C138.906 70.0781 138.543 70.0391 138.27 70L137.707 69.9297V67.2109C138.527 67.2891 139.344 67.3516 140.156 67.3984C140.969 67.4375 141.781 67.457 142.594 67.457C142.984 67.457 143.328 67.3945 143.625 67.2695C143.922 67.1445 144.168 66.9766 144.363 66.7656C144.637 66.4922 144.844 66.1406 144.984 65.7109C145.125 65.2734 145.215 64.8398 145.254 64.4102C145.293 63.9961 145.316 63.6523 145.324 63.3789C145.34 63.1055 145.348 62.7852 145.348 62.418C145.348 61.9258 145.332 61.5 145.301 61.1406C145.27 60.7812 145.215 60.3984 145.137 59.9922C145.051 59.5547 144.918 59.1445 144.738 58.7617C144.559 58.3789 144.316 58.0859 144.012 57.8828C143.816 57.7422 143.605 57.6367 143.379 57.5664C143.16 57.4961 142.926 57.4609 142.676 57.4609C142.176 57.4609 141.75 57.5273 141.398 57.6602C141.047 57.7852 140.773 57.9375 140.578 58.1172C140.352 58.3281 140.168 58.5977 140.027 58.9258C139.887 59.2539 139.816 59.6055 139.816 59.9805C139.816 60.3711 139.883 60.7344 140.016 61.0703C140.156 61.3984 140.34 61.6602 140.566 61.8555C140.754 62.0039 140.953 62.125 141.164 62.2188C141.375 62.3125 141.594 62.3711 141.82 62.3945L142.547 62.5352L141.984 65.1016L141.164 65.0547C140.711 65.0312 140.285 64.9727 139.887 64.8789C139.488 64.7852 139.117 64.6602 138.773 64.5039C138.43 64.332 138.117 64.1289 137.836 63.8945C137.555 63.6602 137.312 63.3945 137.109 63.0977C136.844 62.6992 136.641 62.2422 136.5 61.7266C136.359 61.2109 136.289 60.6445 136.289 60.0273C136.289 59.1914 136.434 58.4453 136.723 57.7891C137.012 57.1328 137.387 56.6016 137.848 56.1953C138.457 55.6484 139.18 55.25 140.016 55C140.859 54.7422 141.719 54.6133 142.594 54.6133C143.32 54.6133 143.988 54.6953 144.598 54.8594C145.207 55.0156 145.754 55.2539 146.238 55.5742C146.605 55.8164 146.953 56.1289 147.281 56.5117C147.609 56.8867 147.887 57.3242 148.113 57.8242C148.387 58.418 148.594 59.0977 148.734 59.8633C148.883 60.6289 148.957 61.4805 148.957 62.418C148.957 63.6133 148.848 64.6641 148.629 65.5703C148.418 66.4766 148.129 67.2188 147.762 67.7969C147.418 68.3203 146.996 68.7539 146.496 69.0977C145.996 69.4414 145.48 69.6914 144.949 69.8477C144.613 69.9727 144.238 70.0664 143.824 70.1289C143.41 70.1992 142.961 70.2344 142.477 70.2344ZM151.816 64.8672V54.8477H155.355V62.2422L153.27 64.8672H151.816ZM164.438 70.2227C163.352 70.2227 162.41 70.0312 161.613 69.6484C160.973 69.3516 160.418 68.9453 159.949 68.4297C159.48 67.9141 159.098 67.2891 158.801 66.5547C158.574 65.9844 158.402 65.3555 158.285 64.668C158.168 63.9727 158.109 63.2227 158.109 62.418C158.109 61.7148 158.168 61.0703 158.285 60.4844C158.41 59.8906 158.59 59.3555 158.824 58.8789C159.066 58.4023 159.367 57.9844 159.727 57.625L159.75 57.6016L158.285 57.6836V54.8477C159.02 54.793 159.734 54.75 160.43 54.7188C161.133 54.6875 161.82 54.6641 162.492 54.6484C163.164 54.625 163.82 54.6133 164.461 54.6133C165.07 54.6133 165.641 54.6758 166.172 54.8008C166.711 54.9258 167.203 55.1211 167.648 55.3867C168.211 55.6914 168.699 56.0898 169.113 56.582C169.535 57.0664 169.879 57.6445 170.145 58.3164C170.371 58.8711 170.543 59.4922 170.66 60.1797C170.777 60.8594 170.836 61.5977 170.836 62.3945C170.836 63.0742 170.793 63.7148 170.707 64.3164C170.621 64.9102 170.496 65.4609 170.332 65.9688C170.066 66.7734 169.707 67.4688 169.254 68.0547C168.801 68.6406 168.262 69.1094 167.637 69.4609C166.738 69.9688 165.672 70.2227 164.438 70.2227ZM164.461 67.3867C164.93 67.3867 165.336 67.2891 165.68 67.0938C166.023 66.8906 166.301 66.5977 166.512 66.2148C166.691 65.9258 166.832 65.5859 166.934 65.1953C167.035 64.7969 167.109 64.3633 167.156 63.8945C167.203 63.418 167.227 62.9219 167.227 62.4062C167.227 61.3359 167.141 60.4609 166.969 59.7812C166.797 59.1016 166.551 58.5703 166.23 58.1875C166.02 57.9219 165.766 57.7227 165.469 57.5898C165.18 57.457 164.855 57.3906 164.496 57.3906C164.246 57.3906 164.016 57.3984 163.805 57.4141C163.594 57.4219 163.383 57.4336 163.172 57.4492C162.672 58.0508 162.301 58.7617 162.059 59.582C161.824 60.3945 161.707 61.3398 161.707 62.418C161.707 63.2852 161.766 64.0352 161.883 64.668C162 65.3008 162.18 65.8203 162.422 66.2266C162.641 66.6016 162.918 66.8906 163.254 67.0938C163.598 67.2891 164 67.3867 164.461 67.3867ZM173.766 70V54.8477H177.305V70H173.766ZM189.621 70V59.9336C189.621 59.293 189.496 58.7891 189.246 58.4219C189.004 58.0547 188.637 57.7969 188.145 57.6484C187.957 57.5625 187.73 57.4961 187.465 57.4492C187.207 57.4023 186.914 57.3789 186.586 57.3789C185.938 57.3789 185.184 57.4102 184.324 57.4727C183.465 57.5273 182.391 57.6211 181.102 57.7539V54.9883C181.516 54.9258 181.93 54.875 182.344 54.8359C182.758 54.7969 183.176 54.7617 183.598 54.7305C184.184 54.6914 184.754 54.6641 185.309 54.6484C185.863 54.625 186.402 54.6133 186.926 54.6133C187.84 54.6133 188.613 54.6641 189.246 54.7656C189.887 54.8672 190.438 55.0312 190.898 55.2578C191.367 55.4922 191.758 55.7656 192.07 56.0781C192.383 56.3906 192.625 56.7852 192.797 57.2617C192.938 57.668 193.035 58.0781 193.09 58.4922C193.145 58.8984 193.172 59.3789 193.172 59.9336V70H189.621ZM181.113 70V60.9531H184.641V70H181.113Z" fill="#E96D5A"/>
<path fill-rule="evenodd" clip-rule="evenodd" d="M217.511 45.9683C223.107 45.3439 228.893 45.3439 234.489 45.9683C237.612 46.3168 240.131 48.7732 240.498 51.9033C241.167 57.6151 241.167 63.3851 240.498 69.0967C240.131 72.2269 237.612 74.6833 234.489 75.0317C228.893 75.6561 223.107 75.6561 217.511 75.0317C214.388 74.6833 211.869 72.2269 211.502 69.0967C210.833 63.3851 210.833 57.6151 211.502 51.9033C211.869 48.7732 214.388 46.3168 217.511 45.9683ZM226 51.4115C226.755 51.4115 227.368 52.0228 227.368 52.7768V59.1347H233.736C234.492 59.1347 235.104 59.746 235.104 60.5C235.104 61.254 234.492 61.8653 233.736 61.8653H227.368V68.2231C227.368 68.9773 226.755 69.5884 226 69.5884C225.245 69.5884 224.632 68.9773 224.632 68.2231V61.8653H218.264C217.509 61.8653 216.896 61.254 216.896 60.5C216.896 59.746 217.509 59.1347 218.264 59.1347H224.632V52.7768C224.632 52.0228 225.245 51.4115 226 51.4115Z" fill="#E96D5A"/>
<rect x="21" y="21" width="259" height="79" rx="4" stroke="#E96D5A" stroke-width="2" stroke-linecap="round"/>
</g>
<g filter="url(#filter1_d_24_15761)">
<rect x="20" y="151" width="261" height="81" rx="5" fill="#E96D5A"/>
<path d="M78.3242 192.574V201H75.1484V192.551C75.1484 191.355 74.8945 190.516 74.3867 190.031C73.8789 189.539 72.9961 189.293 71.7383 189.293H65.7969V186.457H71.9375C73.4766 186.457 74.7109 186.664 75.6406 187.078C76.5781 187.492 77.2578 188.148 77.6797 189.047C78.1094 189.938 78.3242 191.113 78.3242 192.574ZM69.1953 192.164V201H66.0312V192.164H69.1953ZM94.7539 198.164V201H81.1953V198.164H90.0312V192.984C90.0312 191.617 89.7734 190.66 89.2578 190.113C88.75 189.566 87.8789 189.293 86.6445 189.293H81.7461V186.457H86.6914C88.9727 186.457 90.625 186.934 91.6484 187.887C92.6797 188.84 93.1953 190.402 93.1953 192.574V198.164H94.7539ZM103.812 201.234C101.656 201.234 100.07 200.734 99.0547 199.734C98.0391 198.727 97.5312 197.18 97.5312 195.094V186.457H100.695V195.023C100.695 196.188 100.945 197.039 101.445 197.578C101.945 198.117 102.742 198.387 103.836 198.387C104.633 198.387 105.309 198.234 105.863 197.93C106.418 197.617 106.84 197.078 107.129 196.312C107.418 195.539 107.562 194.469 107.562 193.102C107.562 191.75 107.41 190.742 107.105 190.078C106.801 189.406 106.297 189.07 105.594 189.07C104.914 189.07 104.203 189.293 103.461 189.738V186.867C104.195 186.43 105.082 186.211 106.121 186.211C107.793 186.211 108.992 186.758 109.719 187.852C110.453 188.938 110.82 190.68 110.82 193.078C110.82 195.906 110.258 197.973 109.133 199.277C108.016 200.582 106.242 201.234 103.812 201.234ZM126.441 192.574V201H123.266V192.551C123.266 191.355 123.012 190.516 122.504 190.031C121.996 189.539 121.113 189.293 119.855 189.293H113.914V186.457H120.055C121.594 186.457 122.828 186.664 123.758 187.078C124.695 187.492 125.375 188.148 125.797 189.047C126.227 189.938 126.441 191.113 126.441 192.574ZM117.312 192.164V201H114.148V192.164H117.312ZM142.191 186.457C143.785 186.457 145.07 186.656 146.047 187.055C147.031 187.453 147.746 188.094 148.191 188.977C148.645 189.852 148.871 191.012 148.871 192.457V205.512H145.695V193.078C145.695 191.711 145.438 190.738 144.922 190.16C144.406 189.582 143.504 189.293 142.215 189.293H139.309V192.914H142.168V195.738H136.145V186.457H142.191ZM152.105 193.652C152.105 193.137 152.156 192.602 152.258 192.047C152.367 191.484 152.516 190.961 152.703 190.477C152.891 189.984 153.109 189.59 153.359 189.293H151.145V186.457H159.277C161.629 186.457 163.332 186.953 164.387 187.945C165.449 188.938 165.98 190.535 165.98 192.738V193.676C165.98 196.168 165.379 198.051 164.176 199.324C162.973 200.598 161.199 201.234 158.855 201.234C156.559 201.234 154.859 200.637 153.758 199.441C152.656 198.238 152.105 196.43 152.105 194.016V193.652ZM156.113 189.293C155.637 190.121 155.398 191.512 155.398 193.465V193.992C155.398 195.461 155.691 196.566 156.277 197.309C156.863 198.043 157.746 198.41 158.926 198.41C160.238 198.41 161.188 198.031 161.773 197.273C162.367 196.516 162.664 195.285 162.664 193.582V192.715C162.664 191.496 162.379 190.621 161.809 190.09C161.246 189.559 160.324 189.293 159.043 189.293H156.113ZM172.742 186.457V201H169.578V186.457H172.742ZM189.09 192.574V201H185.914V192.551C185.914 191.355 185.66 190.516 185.152 190.031C184.645 189.539 183.762 189.293 182.504 189.293H176.562V186.457H182.703C184.242 186.457 185.477 186.664 186.406 187.078C187.344 187.492 188.023 188.148 188.445 189.047C188.875 189.938 189.09 191.113 189.09 192.574ZM179.961 192.164V201H176.797V192.164H179.961Z" fill="white"/>
<path fill-rule="evenodd" clip-rule="evenodd" d="M213.511 176.968C219.107 176.344 224.893 176.344 230.489 176.968C233.612 177.317 236.131 179.773 236.498 182.903C237.167 188.615 237.167 194.385 236.498 200.097C236.131 203.227 233.612 205.683 230.489 206.032C224.893 206.656 219.107 206.656 213.511 206.032C210.388 205.683 207.869 203.227 207.502 200.097C206.833 194.385 206.833 188.615 207.502 182.903C207.869 179.773 210.388 177.317 213.511 176.968ZM222 182.412C222.755 182.412 223.368 183.023 223.368 183.777V190.135H229.736C230.492 190.135 231.104 190.746 231.104 191.5C231.104 192.254 230.492 192.865 229.736 192.865H223.368V199.223C223.368 199.977 222.755 200.588 222 200.588C221.245 200.588 220.632 199.977 220.632 199.223V192.865H214.264C213.509 192.865 212.896 192.254 212.896 191.5C212.896 190.746 213.509 190.135 214.264 190.135H220.632V183.777C220.632 183.023 221.245 182.412 222 182.412Z" fill="white"/>
</g>
<g filter="url(#filter2_d_24_15761)">
<rect x="20" y="282" width="261" height="81" rx="5" fill="#E96D5A" fill-opacity="0.75" shape-rendering="crispEdges"/>
<path d="M78.3242 323.574V332H75.1484V323.551C75.1484 322.355 74.8945 321.516 74.3867 321.031C73.8789 320.539 72.9961 320.293 71.7383 320.293H65.7969V317.457H71.9375C73.4766 317.457 74.7109 317.664 75.6406 318.078C76.5781 318.492 77.2578 319.148 77.6797 320.047C78.1094 320.938 78.3242 322.113 78.3242 323.574ZM69.1953 323.164V332H66.0312V323.164H69.1953ZM94.7539 329.164V332H81.1953V329.164H90.0312V323.984C90.0312 322.617 89.7734 321.66 89.2578 321.113C88.75 320.566 87.8789 320.293 86.6445 320.293H81.7461V317.457H86.6914C88.9727 317.457 90.625 317.934 91.6484 318.887C92.6797 319.84 93.1953 321.402 93.1953 323.574V329.164H94.7539ZM103.812 332.234C101.656 332.234 100.07 331.734 99.0547 330.734C98.0391 329.727 97.5312 328.18 97.5312 326.094V317.457H100.695V326.023C100.695 327.188 100.945 328.039 101.445 328.578C101.945 329.117 102.742 329.387 103.836 329.387C104.633 329.387 105.309 329.234 105.863 328.93C106.418 328.617 106.84 328.078 107.129 327.312C107.418 326.539 107.562 325.469 107.562 324.102C107.562 322.75 107.41 321.742 107.105 321.078C106.801 320.406 106.297 320.07 105.594 320.07C104.914 320.07 104.203 320.293 103.461 320.738V317.867C104.195 317.43 105.082 317.211 106.121 317.211C107.793 317.211 108.992 317.758 109.719 318.852C110.453 319.938 110.82 321.68 110.82 324.078C110.82 326.906 110.258 328.973 109.133 330.277C108.016 331.582 106.242 332.234 103.812 332.234ZM126.441 323.574V332H123.266V323.551C123.266 322.355 123.012 321.516 122.504 321.031C121.996 320.539 121.113 320.293 119.855 320.293H113.914V317.457H120.055C121.594 317.457 122.828 317.664 123.758 318.078C124.695 318.492 125.375 319.148 125.797 320.047C126.227 320.938 126.441 322.113 126.441 323.574ZM117.312 323.164V332H114.148V323.164H117.312ZM142.191 317.457C143.785 317.457 145.07 317.656 146.047 318.055C147.031 318.453 147.746 319.094 148.191 319.977C148.645 320.852 148.871 322.012 148.871 323.457V336.512H145.695V324.078C145.695 322.711 145.438 321.738 144.922 321.16C144.406 320.582 143.504 320.293 142.215 320.293H139.309V323.914H142.168V326.738H136.145V317.457H142.191ZM152.105 324.652C152.105 324.137 152.156 323.602 152.258 323.047C152.367 322.484 152.516 321.961 152.703 321.477C152.891 320.984 153.109 320.59 153.359 320.293H151.145V317.457H159.277C161.629 317.457 163.332 317.953 164.387 318.945C165.449 319.938 165.98 321.535 165.98 323.738V324.676C165.98 327.168 165.379 329.051 164.176 330.324C162.973 331.598 161.199 332.234 158.855 332.234C156.559 332.234 154.859 331.637 153.758 330.441C152.656 329.238 152.105 327.43 152.105 325.016V324.652ZM156.113 320.293C155.637 321.121 155.398 322.512 155.398 324.465V324.992C155.398 326.461 155.691 327.566 156.277 328.309C156.863 329.043 157.746 329.41 158.926 329.41C160.238 329.41 161.188 329.031 161.773 328.273C162.367 327.516 162.664 326.285 162.664 324.582V323.715C162.664 322.496 162.379 321.621 161.809 321.09C161.246 320.559 160.324 320.293 159.043 320.293H156.113ZM172.742 317.457V332H169.578V317.457H172.742ZM189.09 323.574V332H185.914V323.551C185.914 322.355 185.66 321.516 185.152 321.031C184.645 320.539 183.762 320.293 182.504 320.293H176.562V317.457H182.703C184.242 317.457 185.477 317.664 186.406 318.078C187.344 318.492 188.023 319.148 188.445 320.047C188.875 320.938 189.09 322.113 189.09 323.574ZM179.961 323.164V332H176.797V323.164H179.961Z" fill="white"/>
<path fill-rule="evenodd" clip-rule="evenodd" d="M213.511 307.968C219.107 307.344 224.893 307.344 230.489 307.968C233.612 308.317 236.131 310.773 236.498 313.903C237.167 319.615 237.167 325.385 236.498 331.097C236.131 334.227 233.612 336.683 230.489 337.032C224.893 337.656 219.107 337.656 213.511 337.032C210.388 336.683 207.869 334.227 207.502 331.097C206.833 325.385 206.833 319.615 207.502 313.903C207.869 310.773 210.388 308.317 213.511 307.968ZM222 313.412C222.755 313.412 223.368 314.023 223.368 314.777V321.135H229.736C230.492 321.135 231.104 321.746 231.104 322.5C231.104 323.254 230.492 323.865 229.736 323.865H223.368V330.223C223.368 330.977 222.755 331.588 222 331.588C221.245 331.588 220.632 330.977 220.632 330.223V323.865H214.264C213.509 323.865 212.896 323.254 212.896 322.5C212.896 321.746 213.509 321.135 214.264 321.135H220.632V314.777C220.632 314.023 221.245 313.412 222 313.412Z" fill="white"/>
</g>
</g>
<rect x="0.5" y="0.5" width="300" height="423" rx="4.5" stroke="#9747FF" stroke-dasharray="10 5"/>
<defs>
<filter id="filter0_d_24_15761" x="-4" y="0" width="309" height="129" filterUnits="userSpaceOnUse" color-interpolation-filters="sRGB">
<feFlood flood-opacity="0" result="BackgroundImageFix"/>
<feColorMatrix in="SourceAlpha" type="matrix" values="0 0 0 0 0 0 0 0 0 0 0 0 0 0 0 0 0 0 127 0" result="hardAlpha"/>
<feOffset dy="4"/>
<feGaussianBlur stdDeviation="12"/>
<feComposite in2="hardAlpha" operator="out"/>
<feColorMatrix type="matrix" values="0 0 0 0 0.215686 0 0 0 0 0.356863 0 0 0 0 0.454902 0 0 0 0.25 0"/>
<feBlend mode="normal" in2="BackgroundImageFix" result="effect1_dropShadow_24_15761"/>
<feBlend mode="normal" in="SourceGraphic" in2="effect1_dropShadow_24_15761" result="shape"/>
</filter>
<filter id="filter1_d_24_15761" x="-4" y="131" width="309" height="129" filterUnits="userSpaceOnUse" color-interpolation-filters="sRGB">
<feFlood flood-opacity="0" result="BackgroundImageFix"/>
<feColorMatrix in="SourceAlpha" type="matrix" values="0 0 0 0 0 0 0 0 0 0 0 0 0 0 0 0 0 0 127 0" result="hardAlpha"/>
<feOffset dy="4"/>
<feGaussianBlur stdDeviation="12"/>
<feComposite in2="hardAlpha" operator="out"/>
<feColorMatrix type="matrix" values="0 0 0 0 0.215686 0 0 0 0 0.356863 0 0 0 0 0.454902 0 0 0 0.25 0"/>
<feBlend mode="normal" in2="BackgroundImageFix" result="effect1_dropShadow_24_15761"/>
<feBlend mode="normal" in="SourceGraphic" in2="effect1_dropShadow_24_15761" result="shape"/>
</filter>
<filter id="filter2_d_24_15761" x="-4" y="262" width="309" height="129" filterUnits="userSpaceOnUse" color-interpolation-filters="sRGB">
<feFlood flood-opacity="0" result="BackgroundImageFix"/>
<feColorMatrix in="SourceAlpha" type="matrix" values="0 0 0 0 0 0 0 0 0 0 0 0 0 0 0 0 0 0 127 0" result="hardAlpha"/>
<feOffset dy="4"/>
<feGaussianBlur stdDeviation="12"/>
<feComposite in2="hardAlpha" operator="out"/>
<feColorMatrix type="matrix" values="0 0 0 0 0.215686 0 0 0 0 0.356863 0 0 0 0 0.454902 0 0 0 0.25 0"/>
<feBlend mode="normal" in2="BackgroundImageFix" result="effect1_dropShadow_24_15761"/>
<feBlend mode="normal" in="SourceGraphic" in2="effect1_dropShadow_24_15761" result="shape"/>
</filter>
<clipPath id="clip0_24_15761">
<rect width="301" height="424" rx="5" fill="white"/>
</clipPath>
</defs>
</svg>
