<svg width="256" height="251" viewBox="0 0 256 251" fill="none" xmlns="http://www.w3.org/2000/svg">
<rect x="20" y="20" width="216" height="57" rx="5" fill="#E96D5A"/>
<path d="M79.1201 60V46.5088C79.1201 45.6592 79.0469 44.9756 78.9004 44.458C78.7637 43.9404 78.5098 43.5498 78.1387 43.2861C77.8359 43.0518 77.4844 42.9004 77.084 42.832C76.6836 42.7539 76.2393 42.7148 75.751 42.7148C75.3701 42.7148 74.833 42.7441 74.1396 42.8027C73.4561 42.8613 72.4697 42.959 71.1807 43.0957V41.2207C71.4639 41.1719 71.7617 41.1279 72.0742 41.0889C72.3965 41.0498 72.7285 41.0107 73.0703 40.9717C73.6758 40.9131 74.1982 40.874 74.6377 40.8545C75.0869 40.8252 75.4727 40.8105 75.7949 40.8105C76.4492 40.8105 77.0107 40.8447 77.4795 40.9131C77.958 40.9717 78.3975 41.0791 78.7979 41.2354C79.0127 41.3135 79.2129 41.4062 79.3984 41.5137C79.584 41.6113 79.7646 41.7285 79.9404 41.8652C80.4873 42.2949 80.8584 42.8906 81.0537 43.6523C81.2588 44.4043 81.3613 45.3613 81.3613 46.5234V60H79.1201ZM71.1807 60V48.0322H73.4219V60H71.1807ZM84.5986 60V58.125H90.8975V46.5088C90.8975 45.3076 90.7461 44.4189 90.4434 43.8428C90.1406 43.2666 89.6182 42.9199 88.876 42.8027C88.71 42.7734 88.5293 42.7539 88.334 42.7441C88.1484 42.7246 87.958 42.7148 87.7627 42.7148C87.1865 42.7148 86.6836 42.7295 86.2539 42.7588C85.834 42.7783 85.2773 42.8271 84.584 42.9053V40.9863C85.1113 40.9277 85.6191 40.8838 86.1074 40.8545C86.5957 40.8252 87.0742 40.8105 87.543 40.8105C88.1973 40.8105 88.7441 40.835 89.1836 40.8838C89.623 40.9326 90.0088 41.0107 90.3408 41.1182C90.7998 41.2646 91.2002 41.4697 91.542 41.7334C91.8936 41.9873 92.1816 42.2949 92.4062 42.6562C92.5723 42.9102 92.709 43.2422 92.8164 43.6523C92.9238 44.0527 93.002 44.502 93.0508 45C93.0996 45.4883 93.124 45.9961 93.124 46.5234V58.125H94.6182V60H84.5986ZM101.957 60.3076C101.273 60.3076 100.658 60.1855 100.111 59.9414C99.5645 59.6973 99.0811 59.3359 98.6611 58.8574C98.3291 58.4863 98.0312 58.042 97.7676 57.5244C97.5137 57.0068 97.2988 56.4209 97.123 55.7666C96.918 55.0635 96.7666 54.2773 96.6689 53.4082C96.5713 52.5293 96.5225 51.5771 96.5225 50.5518V41.1182H98.7783V50.5518C98.7783 52.0654 98.8564 53.3398 99.0127 54.375C99.1787 55.4004 99.4229 56.2061 99.7451 56.792C100.058 57.3682 100.395 57.7734 100.756 58.0078C101.127 58.2422 101.547 58.3594 102.016 58.3594C102.494 58.3594 102.914 58.2373 103.275 57.9932C103.637 57.749 103.969 57.3486 104.271 56.792C104.584 56.2256 104.818 55.4297 104.975 54.4043C105.141 53.3691 105.224 52.085 105.224 50.5518C105.224 49.0674 105.146 47.8027 104.989 46.7578C104.833 45.7031 104.594 44.8828 104.271 44.2969C103.969 43.7305 103.632 43.3301 103.261 43.0957C102.89 42.8516 102.494 42.7246 102.074 42.7148C101.859 42.7148 101.649 42.7246 101.444 42.7441C101.239 42.7637 101.015 42.793 100.771 42.832V40.9277C100.995 40.8887 101.234 40.8594 101.488 40.8398C101.742 40.8203 101.977 40.8105 102.191 40.8105C102.807 40.8105 103.378 40.9229 103.905 41.1475C104.433 41.3623 104.901 41.6943 105.312 42.1436C105.702 42.5537 106.044 43.0713 106.337 43.6963C106.64 44.3213 106.879 45.0342 107.055 45.835C107.211 46.499 107.328 47.2314 107.406 48.0322C107.484 48.833 107.523 49.6826 107.523 50.5811C107.523 51.665 107.46 52.6709 107.333 53.5986C107.216 54.5264 107.05 55.3418 106.835 56.0449C106.63 56.7383 106.371 57.3486 106.059 57.876C105.756 58.4033 105.414 58.833 105.033 59.165C104.594 59.5654 104.11 59.8535 103.583 60.0293C103.065 60.2148 102.523 60.3076 101.957 60.3076ZM118.759 60V46.5088C118.759 45.6592 118.686 44.9756 118.539 44.458C118.402 43.9404 118.148 43.5498 117.777 43.2861C117.475 43.0518 117.123 42.9004 116.723 42.832C116.322 42.7539 115.878 42.7148 115.39 42.7148C115.009 42.7148 114.472 42.7441 113.778 42.8027C113.095 42.8613 112.108 42.959 110.819 43.0957V41.2207C111.103 41.1719 111.4 41.1279 111.713 41.0889C112.035 41.0498 112.367 41.0107 112.709 40.9717C113.314 40.9131 113.837 40.874 114.276 40.8545C114.726 40.8252 115.111 40.8105 115.434 40.8105C116.088 40.8105 116.649 40.8447 117.118 40.9131C117.597 40.9717 118.036 41.0791 118.437 41.2354C118.651 41.3135 118.852 41.4062 119.037 41.5137C119.223 41.6113 119.403 41.7285 119.579 41.8652C120.126 42.2949 120.497 42.8906 120.692 43.6523C120.897 44.4043 121 45.3613 121 46.5234V60H118.759ZM110.819 60V48.0322H113.061V60H110.819ZM130.419 60V41.1035H132.66V60H130.419ZM140.849 60.293C140.487 60.293 140.111 60.2783 139.721 60.249C139.34 60.2295 138.974 60.2002 138.622 60.1611C138.271 60.1318 137.968 60.0928 137.714 60.0439L137.26 59.9561V57.9932C137.914 58.1201 138.539 58.2129 139.135 58.2715C139.74 58.3301 140.36 58.3594 140.995 58.3594C141.356 58.3594 141.698 58.2715 142.021 58.0957C142.353 57.9102 142.665 57.6172 142.958 57.2168C143.104 57.0215 143.236 56.7969 143.354 56.543C143.471 56.2891 143.578 56.0156 143.676 55.7227C143.881 55.0977 144.032 54.3555 144.13 53.4961C144.237 52.627 144.291 51.6602 144.291 50.5957C144.291 49.6582 144.262 48.8135 144.203 48.0615C144.145 47.2998 144.057 46.6357 143.939 46.0693C143.861 45.6982 143.773 45.3662 143.676 45.0732C143.578 44.7803 143.471 44.5215 143.354 44.2969C143.041 43.7207 142.699 43.3203 142.328 43.0957C141.957 42.8613 141.532 42.7441 141.054 42.7441C140.556 42.7441 140.102 42.8857 139.691 43.1689C139.291 43.4521 138.974 43.8232 138.739 44.2822C138.485 44.7607 138.3 45.2588 138.183 45.7764C138.065 46.2939 138.007 46.8311 138.007 47.3877C138.007 48.1396 138.07 48.8086 138.197 49.3945C138.324 49.9805 138.52 50.4443 138.783 50.7861C138.998 51.0791 139.271 51.3184 139.604 51.5039C139.945 51.6895 140.351 51.7969 140.819 51.8262L141.142 51.8555L140.731 53.6133L140.424 53.584C139.896 53.5742 139.398 53.4863 138.93 53.3203C138.461 53.1445 138.056 52.915 137.714 52.6318C137.509 52.4756 137.313 52.29 137.128 52.0752C136.942 51.8506 136.781 51.6113 136.645 51.3574C136.4 50.8887 136.2 50.3223 136.044 49.6582C135.897 48.9941 135.824 48.2471 135.824 47.417C135.824 46.4404 135.946 45.5469 136.19 44.7363C136.444 43.9258 136.815 43.2227 137.304 42.627C137.772 42.041 138.329 41.5918 138.974 41.2793C139.618 40.9668 140.312 40.8105 141.054 40.8105C141.64 40.8105 142.167 40.8936 142.636 41.0596C143.104 41.2256 143.52 41.4453 143.881 41.7188C144.252 42.0117 144.599 42.3926 144.921 42.8613C145.243 43.3301 145.517 43.877 145.741 44.502C146.015 45.2441 146.225 46.123 146.371 47.1387C146.518 48.1543 146.591 49.292 146.591 50.5518C146.591 51.8213 146.508 52.9688 146.342 53.9941C146.186 55.0098 145.961 55.8936 145.668 56.6455C145.424 57.2607 145.136 57.7979 144.804 58.2568C144.472 58.7061 144.115 59.082 143.734 59.3848C143.373 59.6484 142.958 59.8633 142.489 60.0293C142.021 60.2051 141.474 60.293 140.849 60.293ZM149.799 53.1592V41.1035H152.025V50.8301L150.385 53.1592H149.799ZM160.741 60.293C159.833 60.293 159.042 60.0781 158.368 59.6484C157.792 59.3066 157.299 58.833 156.889 58.2275C156.488 57.6123 156.156 56.8799 155.893 56.0303C155.668 55.2783 155.497 54.4336 155.38 53.4961C155.272 52.5586 155.219 51.5479 155.219 50.4639C155.219 49.292 155.292 48.2471 155.438 47.3291C155.595 46.4111 155.829 45.5957 156.142 44.8828C156.454 44.1699 156.85 43.5303 157.328 42.9639L157.372 42.8613L155.497 42.9785V41.0889C156.171 41.0303 156.806 40.9814 157.401 40.9424C157.997 40.8936 158.578 40.8594 159.145 40.8398C159.711 40.8203 160.292 40.8105 160.888 40.8105C161.366 40.8105 161.815 40.8838 162.235 41.0303C162.655 41.167 163.046 41.3623 163.407 41.6162C163.798 41.8994 164.159 42.2754 164.491 42.7441C164.823 43.2031 165.106 43.7549 165.341 44.3994C165.634 45.1514 165.854 46.0449 166 47.0801C166.156 48.1055 166.234 49.2627 166.234 50.5518C166.234 51.6357 166.176 52.6416 166.059 53.5693C165.951 54.4873 165.785 55.3174 165.561 56.0596C165.355 56.7236 165.102 57.3145 164.799 57.832C164.506 58.3496 164.164 58.7891 163.773 59.1504C162.963 59.9121 161.952 60.293 160.741 60.293ZM160.712 58.3594C161.19 58.3594 161.61 58.2422 161.972 58.0078C162.343 57.7637 162.685 57.3584 162.997 56.792C163.202 56.4014 163.373 55.9033 163.51 55.2979C163.656 54.6826 163.764 53.9795 163.832 53.1885C163.9 52.3975 163.935 51.5283 163.935 50.5811C163.935 49.0967 163.852 47.8271 163.686 46.7725C163.529 45.708 163.295 44.8877 162.982 44.3115C162.689 43.7646 162.362 43.3691 162.001 43.125C161.64 42.8711 161.239 42.7441 160.8 42.7441C160.565 42.7539 160.341 42.7637 160.126 42.7734C159.911 42.7832 159.691 42.7979 159.467 42.8174C158.725 43.6279 158.212 44.6387 157.929 45.8496C157.655 47.0605 157.519 48.5156 157.519 50.2148C157.519 51.9238 157.597 53.3105 157.753 54.375C157.919 55.4297 158.153 56.2402 158.456 56.8066C158.749 57.3535 159.076 57.749 159.438 57.9932C159.809 58.2373 160.233 58.3594 160.712 58.3594ZM169.53 60V41.1035H171.771V60H169.53ZM183.651 60V46.5088C183.651 45.6592 183.578 44.9756 183.432 44.458C183.295 43.9404 183.041 43.5498 182.67 43.2861C182.367 43.0518 182.016 42.9004 181.615 42.832C181.215 42.7539 180.771 42.7148 180.282 42.7148C179.901 42.7148 179.364 42.7441 178.671 42.8027C177.987 42.8613 177.001 42.959 175.712 43.0957V41.2207C175.995 41.1719 176.293 41.1279 176.605 41.0889C176.928 41.0498 177.26 41.0107 177.602 40.9717C178.207 40.9131 178.729 40.874 179.169 40.8545C179.618 40.8252 180.004 40.8105 180.326 40.8105C180.98 40.8105 181.542 40.8447 182.011 40.9131C182.489 40.9717 182.929 41.0791 183.329 41.2354C183.544 41.3135 183.744 41.4062 183.93 41.5137C184.115 41.6113 184.296 41.7285 184.472 41.8652C185.019 42.2949 185.39 42.8906 185.585 43.6523C185.79 44.4043 185.893 45.3613 185.893 46.5234V60H183.651ZM175.712 60V48.0322H177.953V60H175.712Z" fill="white"/>
<g opacity="0.75">
<rect x="20" y="174" width="216" height="57" rx="5" fill="#E96D5A"/>
<path d="M79.1201 214V200.509C79.1201 199.659 79.0469 198.976 78.9004 198.458C78.7637 197.94 78.5098 197.55 78.1387 197.286C77.8359 197.052 77.4844 196.9 77.084 196.832C76.6836 196.754 76.2393 196.715 75.751 196.715C75.3701 196.715 74.833 196.744 74.1396 196.803C73.4561 196.861 72.4697 196.959 71.1807 197.096V195.221C71.4639 195.172 71.7617 195.128 72.0742 195.089C72.3965 195.05 72.7285 195.011 73.0703 194.972C73.6758 194.913 74.1982 194.874 74.6377 194.854C75.0869 194.825 75.4727 194.811 75.7949 194.811C76.4492 194.811 77.0107 194.845 77.4795 194.913C77.958 194.972 78.3975 195.079 78.7979 195.235C79.0127 195.313 79.2129 195.406 79.3984 195.514C79.584 195.611 79.7646 195.729 79.9404 195.865C80.4873 196.295 80.8584 196.891 81.0537 197.652C81.2588 198.404 81.3613 199.361 81.3613 200.523V214H79.1201ZM71.1807 214V202.032H73.4219V214H71.1807ZM84.5986 214V212.125H90.8975V200.509C90.8975 199.308 90.7461 198.419 90.4434 197.843C90.1406 197.267 89.6182 196.92 88.876 196.803C88.71 196.773 88.5293 196.754 88.334 196.744C88.1484 196.725 87.958 196.715 87.7627 196.715C87.1865 196.715 86.6836 196.729 86.2539 196.759C85.834 196.778 85.2773 196.827 84.584 196.905V194.986C85.1113 194.928 85.6191 194.884 86.1074 194.854C86.5957 194.825 87.0742 194.811 87.543 194.811C88.1973 194.811 88.7441 194.835 89.1836 194.884C89.623 194.933 90.0088 195.011 90.3408 195.118C90.7998 195.265 91.2002 195.47 91.542 195.733C91.8936 195.987 92.1816 196.295 92.4062 196.656C92.5723 196.91 92.709 197.242 92.8164 197.652C92.9238 198.053 93.002 198.502 93.0508 199C93.0996 199.488 93.124 199.996 93.124 200.523V212.125H94.6182V214H84.5986ZM101.957 214.308C101.273 214.308 100.658 214.186 100.111 213.941C99.5645 213.697 99.0811 213.336 98.6611 212.857C98.3291 212.486 98.0312 212.042 97.7676 211.524C97.5137 211.007 97.2988 210.421 97.123 209.767C96.918 209.063 96.7666 208.277 96.6689 207.408C96.5713 206.529 96.5225 205.577 96.5225 204.552V195.118H98.7783V204.552C98.7783 206.065 98.8564 207.34 99.0127 208.375C99.1787 209.4 99.4229 210.206 99.7451 210.792C100.058 211.368 100.395 211.773 100.756 212.008C101.127 212.242 101.547 212.359 102.016 212.359C102.494 212.359 102.914 212.237 103.275 211.993C103.637 211.749 103.969 211.349 104.271 210.792C104.584 210.226 104.818 209.43 104.975 208.404C105.141 207.369 105.224 206.085 105.224 204.552C105.224 203.067 105.146 201.803 104.989 200.758C104.833 199.703 104.594 198.883 104.271 198.297C103.969 197.73 103.632 197.33 103.261 197.096C102.89 196.852 102.494 196.725 102.074 196.715C101.859 196.715 101.649 196.725 101.444 196.744C101.239 196.764 101.015 196.793 100.771 196.832V194.928C100.995 194.889 101.234 194.859 101.488 194.84C101.742 194.82 101.977 194.811 102.191 194.811C102.807 194.811 103.378 194.923 103.905 195.147C104.433 195.362 104.901 195.694 105.312 196.144C105.702 196.554 106.044 197.071 106.337 197.696C106.64 198.321 106.879 199.034 107.055 199.835C107.211 200.499 107.328 201.231 107.406 202.032C107.484 202.833 107.523 203.683 107.523 204.581C107.523 205.665 107.46 206.671 107.333 207.599C107.216 208.526 107.05 209.342 106.835 210.045C106.63 210.738 106.371 211.349 106.059 211.876C105.756 212.403 105.414 212.833 105.033 213.165C104.594 213.565 104.11 213.854 103.583 214.029C103.065 214.215 102.523 214.308 101.957 214.308ZM118.759 214V200.509C118.759 199.659 118.686 198.976 118.539 198.458C118.402 197.94 118.148 197.55 117.777 197.286C117.475 197.052 117.123 196.9 116.723 196.832C116.322 196.754 115.878 196.715 115.39 196.715C115.009 196.715 114.472 196.744 113.778 196.803C113.095 196.861 112.108 196.959 110.819 197.096V195.221C111.103 195.172 111.4 195.128 111.713 195.089C112.035 195.05 112.367 195.011 112.709 194.972C113.314 194.913 113.837 194.874 114.276 194.854C114.726 194.825 115.111 194.811 115.434 194.811C116.088 194.811 116.649 194.845 117.118 194.913C117.597 194.972 118.036 195.079 118.437 195.235C118.651 195.313 118.852 195.406 119.037 195.514C119.223 195.611 119.403 195.729 119.579 195.865C120.126 196.295 120.497 196.891 120.692 197.652C120.897 198.404 121 199.361 121 200.523V214H118.759ZM110.819 214V202.032H113.061V214H110.819ZM130.419 214V195.104H132.66V214H130.419ZM140.849 214.293C140.487 214.293 140.111 214.278 139.721 214.249C139.34 214.229 138.974 214.2 138.622 214.161C138.271 214.132 137.968 214.093 137.714 214.044L137.26 213.956V211.993C137.914 212.12 138.539 212.213 139.135 212.271C139.74 212.33 140.36 212.359 140.995 212.359C141.356 212.359 141.698 212.271 142.021 212.096C142.353 211.91 142.665 211.617 142.958 211.217C143.104 211.021 143.236 210.797 143.354 210.543C143.471 210.289 143.578 210.016 143.676 209.723C143.881 209.098 144.032 208.355 144.13 207.496C144.237 206.627 144.291 205.66 144.291 204.596C144.291 203.658 144.262 202.813 144.203 202.062C144.145 201.3 144.057 200.636 143.939 200.069C143.861 199.698 143.773 199.366 143.676 199.073C143.578 198.78 143.471 198.521 143.354 198.297C143.041 197.721 142.699 197.32 142.328 197.096C141.957 196.861 141.532 196.744 141.054 196.744C140.556 196.744 140.102 196.886 139.691 197.169C139.291 197.452 138.974 197.823 138.739 198.282C138.485 198.761 138.3 199.259 138.183 199.776C138.065 200.294 138.007 200.831 138.007 201.388C138.007 202.14 138.07 202.809 138.197 203.395C138.324 203.98 138.52 204.444 138.783 204.786C138.998 205.079 139.271 205.318 139.604 205.504C139.945 205.689 140.351 205.797 140.819 205.826L141.142 205.855L140.731 207.613L140.424 207.584C139.896 207.574 139.398 207.486 138.93 207.32C138.461 207.145 138.056 206.915 137.714 206.632C137.509 206.476 137.313 206.29 137.128 206.075C136.942 205.851 136.781 205.611 136.645 205.357C136.4 204.889 136.2 204.322 136.044 203.658C135.897 202.994 135.824 202.247 135.824 201.417C135.824 200.44 135.946 199.547 136.19 198.736C136.444 197.926 136.815 197.223 137.304 196.627C137.772 196.041 138.329 195.592 138.974 195.279C139.618 194.967 140.312 194.811 141.054 194.811C141.64 194.811 142.167 194.894 142.636 195.06C143.104 195.226 143.52 195.445 143.881 195.719C144.252 196.012 144.599 196.393 144.921 196.861C145.243 197.33 145.517 197.877 145.741 198.502C146.015 199.244 146.225 200.123 146.371 201.139C146.518 202.154 146.591 203.292 146.591 204.552C146.591 205.821 146.508 206.969 146.342 207.994C146.186 209.01 145.961 209.894 145.668 210.646C145.424 211.261 145.136 211.798 144.804 212.257C144.472 212.706 144.115 213.082 143.734 213.385C143.373 213.648 142.958 213.863 142.489 214.029C142.021 214.205 141.474 214.293 140.849 214.293ZM149.799 207.159V195.104H152.025V204.83L150.385 207.159H149.799ZM160.741 214.293C159.833 214.293 159.042 214.078 158.368 213.648C157.792 213.307 157.299 212.833 156.889 212.228C156.488 211.612 156.156 210.88 155.893 210.03C155.668 209.278 155.497 208.434 155.38 207.496C155.272 206.559 155.219 205.548 155.219 204.464C155.219 203.292 155.292 202.247 155.438 201.329C155.595 200.411 155.829 199.596 156.142 198.883C156.454 198.17 156.85 197.53 157.328 196.964L157.372 196.861L155.497 196.979V195.089C156.171 195.03 156.806 194.981 157.401 194.942C157.997 194.894 158.578 194.859 159.145 194.84C159.711 194.82 160.292 194.811 160.888 194.811C161.366 194.811 161.815 194.884 162.235 195.03C162.655 195.167 163.046 195.362 163.407 195.616C163.798 195.899 164.159 196.275 164.491 196.744C164.823 197.203 165.106 197.755 165.341 198.399C165.634 199.151 165.854 200.045 166 201.08C166.156 202.105 166.234 203.263 166.234 204.552C166.234 205.636 166.176 206.642 166.059 207.569C165.951 208.487 165.785 209.317 165.561 210.06C165.355 210.724 165.102 211.314 164.799 211.832C164.506 212.35 164.164 212.789 163.773 213.15C162.963 213.912 161.952 214.293 160.741 214.293ZM160.712 212.359C161.19 212.359 161.61 212.242 161.972 212.008C162.343 211.764 162.685 211.358 162.997 210.792C163.202 210.401 163.373 209.903 163.51 209.298C163.656 208.683 163.764 207.979 163.832 207.188C163.9 206.397 163.935 205.528 163.935 204.581C163.935 203.097 163.852 201.827 163.686 200.772C163.529 199.708 163.295 198.888 162.982 198.312C162.689 197.765 162.362 197.369 162.001 197.125C161.64 196.871 161.239 196.744 160.8 196.744C160.565 196.754 160.341 196.764 160.126 196.773C159.911 196.783 159.691 196.798 159.467 196.817C158.725 197.628 158.212 198.639 157.929 199.85C157.655 201.061 157.519 202.516 157.519 204.215C157.519 205.924 157.597 207.311 157.753 208.375C157.919 209.43 158.153 210.24 158.456 210.807C158.749 211.354 159.076 211.749 159.438 211.993C159.809 212.237 160.233 212.359 160.712 212.359ZM169.53 214V195.104H171.771V214H169.53ZM183.651 214V200.509C183.651 199.659 183.578 198.976 183.432 198.458C183.295 197.94 183.041 197.55 182.67 197.286C182.367 197.052 182.016 196.9 181.615 196.832C181.215 196.754 180.771 196.715 180.282 196.715C179.901 196.715 179.364 196.744 178.671 196.803C177.987 196.861 177.001 196.959 175.712 197.096V195.221C175.995 195.172 176.293 195.128 176.605 195.089C176.928 195.05 177.26 195.011 177.602 194.972C178.207 194.913 178.729 194.874 179.169 194.854C179.618 194.825 180.004 194.811 180.326 194.811C180.98 194.811 181.542 194.845 182.011 194.913C182.489 194.972 182.929 195.079 183.329 195.235C183.544 195.313 183.744 195.406 183.93 195.514C184.115 195.611 184.296 195.729 184.472 195.865C185.019 196.295 185.39 196.891 185.585 197.652C185.79 198.404 185.893 199.361 185.893 200.523V214H183.651ZM175.712 214V202.032H177.953V214H175.712Z" fill="white"/>
</g>
<rect x="20.5" y="97.5" width="215" height="56" rx="4.5" fill="white" stroke="#E96D5A"/>
<path d="M79.1201 137V123.509C79.1201 122.659 79.0469 121.976 78.9004 121.458C78.7637 120.94 78.5098 120.55 78.1387 120.286C77.8359 120.052 77.4844 119.9 77.084 119.832C76.6836 119.754 76.2393 119.715 75.751 119.715C75.3701 119.715 74.833 119.744 74.1396 119.803C73.4561 119.861 72.4697 119.959 71.1807 120.096V118.221C71.4639 118.172 71.7617 118.128 72.0742 118.089C72.3965 118.05 72.7285 118.011 73.0703 117.972C73.6758 117.913 74.1982 117.874 74.6377 117.854C75.0869 117.825 75.4727 117.811 75.7949 117.811C76.4492 117.811 77.0107 117.845 77.4795 117.913C77.958 117.972 78.3975 118.079 78.7979 118.235C79.0127 118.313 79.2129 118.406 79.3984 118.514C79.584 118.611 79.7646 118.729 79.9404 118.865C80.4873 119.295 80.8584 119.891 81.0537 120.652C81.2588 121.404 81.3613 122.361 81.3613 123.523V137H79.1201ZM71.1807 137V125.032H73.4219V137H71.1807ZM84.5986 137V135.125H90.8975V123.509C90.8975 122.308 90.7461 121.419 90.4434 120.843C90.1406 120.267 89.6182 119.92 88.876 119.803C88.71 119.773 88.5293 119.754 88.334 119.744C88.1484 119.725 87.958 119.715 87.7627 119.715C87.1865 119.715 86.6836 119.729 86.2539 119.759C85.834 119.778 85.2773 119.827 84.584 119.905V117.986C85.1113 117.928 85.6191 117.884 86.1074 117.854C86.5957 117.825 87.0742 117.811 87.543 117.811C88.1973 117.811 88.7441 117.835 89.1836 117.884C89.623 117.933 90.0088 118.011 90.3408 118.118C90.7998 118.265 91.2002 118.47 91.542 118.733C91.8936 118.987 92.1816 119.295 92.4062 119.656C92.5723 119.91 92.709 120.242 92.8164 120.652C92.9238 121.053 93.002 121.502 93.0508 122C93.0996 122.488 93.124 122.996 93.124 123.523V135.125H94.6182V137H84.5986ZM101.957 137.308C101.273 137.308 100.658 137.186 100.111 136.941C99.5645 136.697 99.0811 136.336 98.6611 135.857C98.3291 135.486 98.0312 135.042 97.7676 134.524C97.5137 134.007 97.2988 133.421 97.123 132.767C96.918 132.063 96.7666 131.277 96.6689 130.408C96.5713 129.529 96.5225 128.577 96.5225 127.552V118.118H98.7783V127.552C98.7783 129.065 98.8564 130.34 99.0127 131.375C99.1787 132.4 99.4229 133.206 99.7451 133.792C100.058 134.368 100.395 134.773 100.756 135.008C101.127 135.242 101.547 135.359 102.016 135.359C102.494 135.359 102.914 135.237 103.275 134.993C103.637 134.749 103.969 134.349 104.271 133.792C104.584 133.226 104.818 132.43 104.975 131.404C105.141 130.369 105.224 129.085 105.224 127.552C105.224 126.067 105.146 124.803 104.989 123.758C104.833 122.703 104.594 121.883 104.271 121.297C103.969 120.73 103.632 120.33 103.261 120.096C102.89 119.852 102.494 119.725 102.074 119.715C101.859 119.715 101.649 119.725 101.444 119.744C101.239 119.764 101.015 119.793 100.771 119.832V117.928C100.995 117.889 101.234 117.859 101.488 117.84C101.742 117.82 101.977 117.811 102.191 117.811C102.807 117.811 103.378 117.923 103.905 118.147C104.433 118.362 104.901 118.694 105.312 119.144C105.702 119.554 106.044 120.071 106.337 120.696C106.64 121.321 106.879 122.034 107.055 122.835C107.211 123.499 107.328 124.231 107.406 125.032C107.484 125.833 107.523 126.683 107.523 127.581C107.523 128.665 107.46 129.671 107.333 130.599C107.216 131.526 107.05 132.342 106.835 133.045C106.63 133.738 106.371 134.349 106.059 134.876C105.756 135.403 105.414 135.833 105.033 136.165C104.594 136.565 104.11 136.854 103.583 137.029C103.065 137.215 102.523 137.308 101.957 137.308ZM118.759 137V123.509C118.759 122.659 118.686 121.976 118.539 121.458C118.402 120.94 118.148 120.55 117.777 120.286C117.475 120.052 117.123 119.9 116.723 119.832C116.322 119.754 115.878 119.715 115.39 119.715C115.009 119.715 114.472 119.744 113.778 119.803C113.095 119.861 112.108 119.959 110.819 120.096V118.221C111.103 118.172 111.4 118.128 111.713 118.089C112.035 118.05 112.367 118.011 112.709 117.972C113.314 117.913 113.837 117.874 114.276 117.854C114.726 117.825 115.111 117.811 115.434 117.811C116.088 117.811 116.649 117.845 117.118 117.913C117.597 117.972 118.036 118.079 118.437 118.235C118.651 118.313 118.852 118.406 119.037 118.514C119.223 118.611 119.403 118.729 119.579 118.865C120.126 119.295 120.497 119.891 120.692 120.652C120.897 121.404 121 122.361 121 123.523V137H118.759ZM110.819 137V125.032H113.061V137H110.819ZM130.419 137V118.104H132.66V137H130.419ZM140.849 137.293C140.487 137.293 140.111 137.278 139.721 137.249C139.34 137.229 138.974 137.2 138.622 137.161C138.271 137.132 137.968 137.093 137.714 137.044L137.26 136.956V134.993C137.914 135.12 138.539 135.213 139.135 135.271C139.74 135.33 140.36 135.359 140.995 135.359C141.356 135.359 141.698 135.271 142.021 135.096C142.353 134.91 142.665 134.617 142.958 134.217C143.104 134.021 143.236 133.797 143.354 133.543C143.471 133.289 143.578 133.016 143.676 132.723C143.881 132.098 144.032 131.355 144.13 130.496C144.237 129.627 144.291 128.66 144.291 127.596C144.291 126.658 144.262 125.813 144.203 125.062C144.145 124.3 144.057 123.636 143.939 123.069C143.861 122.698 143.773 122.366 143.676 122.073C143.578 121.78 143.471 121.521 143.354 121.297C143.041 120.721 142.699 120.32 142.328 120.096C141.957 119.861 141.532 119.744 141.054 119.744C140.556 119.744 140.102 119.886 139.691 120.169C139.291 120.452 138.974 120.823 138.739 121.282C138.485 121.761 138.3 122.259 138.183 122.776C138.065 123.294 138.007 123.831 138.007 124.388C138.007 125.14 138.07 125.809 138.197 126.395C138.324 126.98 138.52 127.444 138.783 127.786C138.998 128.079 139.271 128.318 139.604 128.504C139.945 128.689 140.351 128.797 140.819 128.826L141.142 128.855L140.731 130.613L140.424 130.584C139.896 130.574 139.398 130.486 138.93 130.32C138.461 130.145 138.056 129.915 137.714 129.632C137.509 129.476 137.313 129.29 137.128 129.075C136.942 128.851 136.781 128.611 136.645 128.357C136.4 127.889 136.2 127.322 136.044 126.658C135.897 125.994 135.824 125.247 135.824 124.417C135.824 123.44 135.946 122.547 136.19 121.736C136.444 120.926 136.815 120.223 137.304 119.627C137.772 119.041 138.329 118.592 138.974 118.279C139.618 117.967 140.312 117.811 141.054 117.811C141.64 117.811 142.167 117.894 142.636 118.06C143.104 118.226 143.52 118.445 143.881 118.719C144.252 119.012 144.599 119.393 144.921 119.861C145.243 120.33 145.517 120.877 145.741 121.502C146.015 122.244 146.225 123.123 146.371 124.139C146.518 125.154 146.591 126.292 146.591 127.552C146.591 128.821 146.508 129.969 146.342 130.994C146.186 132.01 145.961 132.894 145.668 133.646C145.424 134.261 145.136 134.798 144.804 135.257C144.472 135.706 144.115 136.082 143.734 136.385C143.373 136.648 142.958 136.863 142.489 137.029C142.021 137.205 141.474 137.293 140.849 137.293ZM149.799 130.159V118.104H152.025V127.83L150.385 130.159H149.799ZM160.741 137.293C159.833 137.293 159.042 137.078 158.368 136.648C157.792 136.307 157.299 135.833 156.889 135.228C156.488 134.612 156.156 133.88 155.893 133.03C155.668 132.278 155.497 131.434 155.38 130.496C155.272 129.559 155.219 128.548 155.219 127.464C155.219 126.292 155.292 125.247 155.438 124.329C155.595 123.411 155.829 122.596 156.142 121.883C156.454 121.17 156.85 120.53 157.328 119.964L157.372 119.861L155.497 119.979V118.089C156.171 118.03 156.806 117.981 157.401 117.942C157.997 117.894 158.578 117.859 159.145 117.84C159.711 117.82 160.292 117.811 160.888 117.811C161.366 117.811 161.815 117.884 162.235 118.03C162.655 118.167 163.046 118.362 163.407 118.616C163.798 118.899 164.159 119.275 164.491 119.744C164.823 120.203 165.106 120.755 165.341 121.399C165.634 122.151 165.854 123.045 166 124.08C166.156 125.105 166.234 126.263 166.234 127.552C166.234 128.636 166.176 129.642 166.059 130.569C165.951 131.487 165.785 132.317 165.561 133.06C165.355 133.724 165.102 134.314 164.799 134.832C164.506 135.35 164.164 135.789 163.773 136.15C162.963 136.912 161.952 137.293 160.741 137.293ZM160.712 135.359C161.19 135.359 161.61 135.242 161.972 135.008C162.343 134.764 162.685 134.358 162.997 133.792C163.202 133.401 163.373 132.903 163.51 132.298C163.656 131.683 163.764 130.979 163.832 130.188C163.9 129.397 163.935 128.528 163.935 127.581C163.935 126.097 163.852 124.827 163.686 123.772C163.529 122.708 163.295 121.888 162.982 121.312C162.689 120.765 162.362 120.369 162.001 120.125C161.64 119.871 161.239 119.744 160.8 119.744C160.565 119.754 160.341 119.764 160.126 119.773C159.911 119.783 159.691 119.798 159.467 119.817C158.725 120.628 158.212 121.639 157.929 122.85C157.655 124.061 157.519 125.516 157.519 127.215C157.519 128.924 157.597 130.311 157.753 131.375C157.919 132.43 158.153 133.24 158.456 133.807C158.749 134.354 159.076 134.749 159.438 134.993C159.809 135.237 160.233 135.359 160.712 135.359ZM169.53 137V118.104H171.771V137H169.53ZM183.651 137V123.509C183.651 122.659 183.578 121.976 183.432 121.458C183.295 120.94 183.041 120.55 182.67 120.286C182.367 120.052 182.016 119.9 181.615 119.832C181.215 119.754 180.771 119.715 180.282 119.715C179.901 119.715 179.364 119.744 178.671 119.803C177.987 119.861 177.001 119.959 175.712 120.096V118.221C175.995 118.172 176.293 118.128 176.605 118.089C176.928 118.05 177.26 118.011 177.602 117.972C178.207 117.913 178.729 117.874 179.169 117.854C179.618 117.825 180.004 117.811 180.326 117.811C180.98 117.811 181.542 117.845 182.011 117.913C182.489 117.972 182.929 118.079 183.329 118.235C183.544 118.313 183.744 118.406 183.93 118.514C184.115 118.611 184.296 118.729 184.472 118.865C185.019 119.295 185.39 119.891 185.585 120.652C185.79 121.404 185.893 122.361 185.893 123.523V137H183.651ZM175.712 137V125.032H177.953V137H175.712Z" fill="#E96D5A"/>
<rect x="0.5" y="0.5" width="255" height="250" rx="4.5" stroke="#9747FF" stroke-dasharray="10 5"/>
</svg>
