<svg width="302" height="772" viewBox="0 0 302 772" fill="none" xmlns="http://www.w3.org/2000/svg">
<g clip-path="url(#clip0_24_15909)">
<g clip-path="url(#clip1_24_15909)" filter="url(#filter0_d_24_15909)">
<g filter="url(#filter1_d_24_15909)">
<rect x="20" y="20" width="262" height="250" rx="10" fill="white"/>
<rect x="20.5" y="20.5" width="261" height="249" rx="9.5" stroke="#DBB65D"/>
</g>
<line x1="20" y1="89.5" x2="282" y2="89.5" stroke="#DBB65D"/>
<path d="M117.135 43.584L117.281 43.9062C117.135 45.0098 116.964 46.0498 116.769 47.0264C116.583 48.0029 116.368 48.916 116.124 49.7656C115.89 50.6055 115.626 51.3916 115.333 52.124H111.319C111.427 51.5967 111.534 50.957 111.642 50.2051C111.759 49.4434 111.866 48.6475 111.964 47.8174C112.071 46.9873 112.164 46.2012 112.242 45.459C112.32 44.707 112.369 44.082 112.389 43.584H117.135ZM119.698 65V58.1885C119.698 57.7197 119.713 57.3486 119.742 57.0752C119.771 56.8018 119.825 56.5479 119.903 56.3135C119.981 56.0791 120.094 55.7861 120.24 55.4346C120.455 54.917 120.807 54.4824 121.295 54.1309C121.783 53.7695 122.33 53.4668 122.936 53.2227L119.171 46.1035H124.942L128.81 54.4238C128.878 54.3652 128.941 54.2773 129 54.1602C129.059 54.0332 129.112 53.9014 129.161 53.7646C129.21 53.6182 129.244 53.4717 129.264 53.3252C129.293 53.1689 129.308 53.0273 129.308 52.9004V46.1035H134.288V52.8271C134.288 53.7549 134.19 54.541 133.995 55.1855C133.8 55.8203 133.526 56.3086 133.175 56.6504C132.97 56.8555 132.628 57.1045 132.149 57.3975C131.681 57.6904 131.158 57.9199 130.582 58.0859L134.01 65H128.209L124.811 57.0312C124.801 57.0996 124.786 57.1777 124.767 57.2656C124.747 57.3535 124.728 57.4463 124.708 57.5439C124.679 57.7295 124.664 57.9248 124.664 58.1299V65H119.698ZM149.903 65V52.9297C149.903 52.1777 149.825 51.5527 149.669 51.0547C149.513 50.5469 149.229 50.1953 148.819 50C148.683 49.9316 148.502 49.8828 148.277 49.8535C148.053 49.8242 147.76 49.8096 147.398 49.8096C146.598 49.8096 145.782 49.8584 144.952 49.9561C144.122 50.0537 143.014 50.2295 141.627 50.4834V46.5869C141.9 46.4795 142.276 46.3818 142.755 46.2939C143.243 46.2061 143.829 46.1133 144.513 46.0156C145.177 45.918 145.768 45.8594 146.285 45.8398C146.812 45.8203 147.325 45.8105 147.823 45.8105C149.073 45.8105 150.011 45.8643 150.636 45.9717C151.271 46.0693 151.817 46.2305 152.276 46.4551C152.501 46.5527 152.701 46.6602 152.877 46.7773C153.062 46.8848 153.233 47.002 153.39 47.1289C154.142 47.7344 154.576 48.501 154.693 49.4287C154.82 50.3467 154.884 51.5186 154.884 52.9443V65H149.903ZM141.627 65V52.8711H146.622V65H141.627ZM158.312 65.4248C158.097 65.4248 157.818 65.376 157.477 65.2783C157.145 65.1807 156.837 65.0586 156.554 64.9121V61.001C156.798 61.2158 157.11 61.3232 157.491 61.3232C158.126 61.3232 158.517 61.0938 158.663 60.6348C158.81 60.166 158.883 59.5117 158.883 58.6719V50.2344C158.639 50.2539 158.39 50.2979 158.136 50.3662C157.892 50.4248 157.643 50.498 157.389 50.5859V46.6748C157.701 46.5967 158.199 46.4893 158.883 46.3525C159.576 46.2158 160.396 46.0938 161.344 45.9863C162.291 45.8691 163.302 45.8105 164.376 45.8105C165.128 45.8105 165.758 45.8301 166.266 45.8691C166.783 45.9082 167.223 45.9717 167.584 46.0596C167.945 46.1377 168.272 46.2354 168.565 46.3525C168.849 46.46 169.103 46.582 169.327 46.7188C169.552 46.8457 169.757 46.9824 169.942 47.1289C170.665 47.7344 171.095 48.5156 171.231 49.4727C171.378 50.4199 171.451 51.5771 171.451 52.9443V65H166.456V52.9297C166.456 52.3242 166.417 51.8164 166.339 51.4062C166.271 50.9961 166.139 50.6738 165.943 50.4395C165.748 50.1855 165.46 50.0146 165.079 49.9268C164.952 49.8975 164.786 49.8682 164.581 49.8389C164.386 49.8096 164.151 49.79 163.878 49.7803V58.6719C163.878 59.5605 163.829 60.3906 163.731 61.1621C163.634 61.9238 163.468 62.5928 163.233 63.1689C162.911 64.0381 162.389 64.6289 161.666 64.9414C161.168 65.1758 160.611 65.3125 159.996 65.3516C159.391 65.4004 158.829 65.4248 158.312 65.4248ZM174.059 58.9062V46.1035H179.024V54.2041L176.124 58.9062H174.059ZM185.514 65.293C184.508 65.293 183.639 65.249 182.906 65.1611C182.184 65.083 181.554 64.9609 181.017 64.7949V60.5762C181.427 60.6738 181.842 60.7617 182.262 60.8398C182.691 60.9082 183.121 60.9619 183.551 61.001C183.99 61.04 184.43 61.0596 184.869 61.0596C185.221 61.0596 185.523 61.001 185.777 60.8838C186.031 60.7666 186.212 60.6055 186.319 60.4004C186.407 60.2441 186.476 60.0684 186.524 59.873C186.583 59.6777 186.627 59.4678 186.656 59.2432C186.686 58.9697 186.705 58.6816 186.715 58.3789C186.725 58.0664 186.729 57.749 186.729 57.4268V54.0869C186.729 53.3936 186.686 52.7832 186.598 52.2559C186.51 51.7188 186.383 51.2793 186.217 50.9375C186.08 50.6445 185.87 50.4199 185.587 50.2637C185.304 50.1074 184.947 50.0293 184.518 50.0293C184.068 50.0293 183.668 50.0439 183.316 50.0732C182.965 50.0928 182.516 50.1318 181.969 50.1904C181.832 50.2002 181.686 50.2197 181.529 50.249C181.373 50.2783 181.212 50.3027 181.046 50.3223V46.1328C181.192 46.1133 181.339 46.0938 181.485 46.0742C181.632 46.0449 181.778 46.0254 181.925 46.0156C182.442 45.9473 182.955 45.8984 183.463 45.8691C183.98 45.8301 184.503 45.8105 185.03 45.8105C185.958 45.8105 186.754 45.9082 187.418 46.1035C188.092 46.2891 188.663 46.5381 189.132 46.8506C189.679 47.1924 190.123 47.6172 190.465 48.125C190.816 48.623 191.1 49.1943 191.314 49.8389C191.451 50.2393 191.554 50.6641 191.622 51.1133C191.7 51.5625 191.749 52.0361 191.769 52.5342C191.798 53.0322 191.812 53.5498 191.812 54.0869V57.4268C191.812 58.2178 191.744 58.9697 191.607 59.6826C191.471 60.3955 191.266 61.0645 190.992 61.6895C190.689 62.3926 190.299 63.0029 189.82 63.5205C189.352 64.0283 188.727 64.458 187.945 64.8096C187.574 64.9756 187.164 65.0977 186.715 65.1758C186.266 65.2539 185.865 65.293 185.514 65.293Z" fill="#062841"/>
<path d="M111.351 163.207V143.139C111.351 142.494 111.316 141.83 111.248 141.146C111.189 140.463 111.116 139.833 111.028 139.257C110.95 138.681 110.867 138.227 110.779 137.895C110.75 137.758 110.716 137.626 110.677 137.499C110.647 137.372 110.618 137.24 110.589 137.104H112.815C112.864 137.27 112.908 137.445 112.947 137.631C112.996 137.807 113.035 137.987 113.064 138.173C113.182 138.729 113.274 139.286 113.343 139.843C113.421 140.39 113.479 140.941 113.519 141.498C113.558 142.045 113.577 142.592 113.577 143.139V163.207H111.351ZM117.459 156V137.104H119.7V156H117.459ZM123.025 156V154.125H129.324V142.509C129.324 141.308 129.173 140.419 128.87 139.843C128.567 139.267 128.045 138.92 127.303 138.803C127.137 138.773 126.956 138.754 126.761 138.744C126.575 138.725 126.385 138.715 126.189 138.715C125.613 138.715 125.11 138.729 124.681 138.759C124.261 138.778 123.704 138.827 123.011 138.905V136.986C123.538 136.928 124.046 136.884 124.534 136.854C125.022 136.825 125.501 136.811 125.97 136.811C126.624 136.811 127.171 136.835 127.61 136.884C128.05 136.933 128.436 137.011 128.768 137.118C129.227 137.265 129.627 137.47 129.969 137.733C130.32 137.987 130.608 138.295 130.833 138.656C130.999 138.91 131.136 139.242 131.243 139.652C131.351 140.053 131.429 140.502 131.478 141C131.526 141.488 131.551 141.996 131.551 142.523V154.125H133.045V156H123.025ZM136.019 156L134.451 137.104H136.604L137.469 147.504C137.947 147.318 138.357 147.089 138.699 146.815C139.041 146.532 139.334 146.181 139.578 145.761C139.861 145.272 140.081 144.682 140.237 143.988C140.403 143.295 140.535 142.465 140.633 141.498L141.028 137.104H143.123L142.698 141.938C142.601 143.002 142.459 143.9 142.273 144.633C142.088 145.355 141.829 146.034 141.497 146.669C141.106 147.343 140.613 147.895 140.018 148.324C139.422 148.754 138.675 149.091 137.776 149.335C137.757 149.335 137.732 149.34 137.703 149.35C137.674 149.35 137.645 149.35 137.615 149.35L138.025 154.096H138.816C139.891 154.096 140.872 153.876 141.761 153.437C142.659 152.987 143.421 152.362 144.046 151.562C145.286 149.979 146.028 147.909 146.272 145.351L147.034 137.104H149.158L148.382 145.351C148.274 146.571 148.064 147.719 147.752 148.793C147.449 149.867 147.034 150.824 146.507 151.664C146.087 152.426 145.564 153.119 144.939 153.744C144.324 154.359 143.572 154.857 142.684 155.238C142.127 155.492 141.521 155.683 140.867 155.81C140.213 155.937 139.529 156 138.816 156H136.019ZM152.029 156V137.221C152.469 137.162 152.884 137.113 153.274 137.074C153.665 137.025 154.031 136.981 154.373 136.942C154.842 136.903 155.271 136.874 155.662 136.854C156.062 136.825 156.414 136.811 156.717 136.811C157.615 136.811 158.392 136.889 159.046 137.045C159.71 137.201 160.286 137.479 160.774 137.88C160.921 137.997 161.048 138.124 161.155 138.261C161.272 138.397 161.38 138.544 161.478 138.7C161.741 139.149 161.927 139.691 162.034 140.326C162.151 140.951 162.21 141.684 162.21 142.523V156H159.969V142.509C159.969 141.708 159.905 141.059 159.778 140.561C159.661 140.062 159.446 139.677 159.134 139.403C158.831 139.13 158.47 138.949 158.05 138.861C157.64 138.764 157.137 138.715 156.541 138.715C156.258 138.715 155.926 138.729 155.545 138.759C155.174 138.778 154.749 138.817 154.271 138.876V156H152.029ZM171.263 156.103C171.077 156.103 170.872 156.083 170.647 156.044C170.423 156.005 170.198 155.951 169.974 155.883V153.949C170.374 154.066 170.677 154.125 170.882 154.125C171.331 154.125 171.624 153.949 171.761 153.598C171.897 153.236 171.966 152.782 171.966 152.235V138.993C171.761 139.003 171.551 139.022 171.336 139.052C171.131 139.081 170.926 139.115 170.721 139.154V137.265C171.102 137.196 171.58 137.128 172.156 137.06C172.742 136.991 173.348 136.933 173.973 136.884C174.598 136.835 175.174 136.811 175.701 136.811C176.404 136.811 176.98 136.83 177.43 136.869C177.879 136.898 178.26 136.957 178.572 137.045C178.895 137.133 179.202 137.245 179.495 137.382C179.72 137.499 179.925 137.631 180.11 137.777C180.296 137.924 180.467 138.09 180.623 138.275C181.014 138.734 181.282 139.315 181.429 140.019C181.575 140.722 181.648 141.557 181.648 142.523V156H179.407V142.509C179.407 141.356 179.261 140.512 178.968 139.975C178.675 139.428 178.182 139.076 177.488 138.92C177.195 138.822 176.844 138.759 176.434 138.729C176.258 138.729 175.984 138.734 175.613 138.744C175.242 138.744 174.773 138.759 174.207 138.788V152.235C174.207 152.724 174.178 153.173 174.119 153.583C174.061 153.983 173.978 154.335 173.87 154.638C173.665 155.204 173.333 155.6 172.874 155.824C172.64 155.932 172.381 156.005 172.098 156.044C171.824 156.083 171.546 156.103 171.263 156.103ZM189.998 156V142.509C189.998 141.679 189.944 141.015 189.837 140.517C189.739 140.009 189.544 139.618 189.251 139.345C188.987 139.091 188.66 138.925 188.27 138.847C187.889 138.759 187.449 138.715 186.951 138.715C186.688 138.715 186.375 138.725 186.014 138.744C185.652 138.754 185.291 138.773 184.93 138.803C184.568 138.832 184.256 138.861 183.992 138.891V136.986C184.48 136.928 184.954 136.884 185.413 136.854C185.872 136.825 186.312 136.811 186.731 136.811C187.513 136.811 188.157 136.845 188.665 136.913C189.173 136.981 189.632 137.099 190.042 137.265C190.433 137.421 190.755 137.631 191.009 137.895C191.272 138.148 191.497 138.471 191.683 138.861C191.888 139.281 192.029 139.799 192.107 140.414C192.186 141.02 192.225 141.723 192.225 142.523V156H189.998ZM195.696 156.103C195.511 156.103 195.306 156.083 195.081 156.044C194.856 156.005 194.632 155.951 194.407 155.883V153.949C194.808 154.066 195.11 154.125 195.315 154.125C195.765 154.125 196.058 153.949 196.194 153.598C196.331 153.236 196.399 152.782 196.399 152.235V138.993C196.194 139.003 195.984 139.022 195.77 139.052C195.564 139.081 195.359 139.115 195.154 139.154V137.265C195.535 137.196 196.014 137.128 196.59 137.06C197.176 136.991 197.781 136.933 198.406 136.884C199.031 136.835 199.607 136.811 200.135 136.811C200.838 136.811 201.414 136.83 201.863 136.869C202.312 136.898 202.693 136.957 203.006 137.045C203.328 137.133 203.636 137.245 203.929 137.382C204.153 137.499 204.358 137.631 204.544 137.777C204.729 137.924 204.9 138.09 205.057 138.275C205.447 138.734 205.716 139.315 205.862 140.019C206.009 140.722 206.082 141.557 206.082 142.523V156H203.841V142.509C203.841 141.356 203.694 140.512 203.401 139.975C203.108 139.428 202.615 139.076 201.922 138.92C201.629 138.822 201.277 138.759 200.867 138.729C200.691 138.729 200.418 138.734 200.047 138.744C199.676 138.744 199.207 138.759 198.641 138.788V152.235C198.641 152.724 198.611 153.173 198.553 153.583C198.494 153.983 198.411 154.335 198.304 154.638C198.099 155.204 197.767 155.6 197.308 155.824C197.073 155.932 196.814 156.005 196.531 156.044C196.258 156.083 195.979 156.103 195.696 156.103ZM209.905 149.159V137.104H212.132V146.83L210.491 149.159H209.905Z" fill="#062841"/>
<path d="M135.169 188.867C137.38 188.867 139.264 189.399 140.824 190.465C142.383 191.531 143.577 193.011 144.406 194.906C145.235 196.801 145.649 199.001 145.649 201.508C145.649 204.369 145.175 206.886 144.228 209.057C143.301 211.228 141.929 212.925 140.113 214.149C138.297 215.372 136.047 215.984 133.363 215.984C131.725 215.984 130.255 215.826 128.952 215.511C127.65 215.214 126.505 214.77 125.518 214.178V209.501C126.623 210.231 127.817 210.813 129.1 211.247C130.403 211.682 131.706 211.899 133.008 211.899C134.804 211.899 136.274 211.435 137.419 210.507C138.584 209.56 139.452 208.317 140.024 206.777C140.597 205.218 140.883 203.511 140.883 201.656C140.883 198.794 140.251 196.613 138.988 195.113C137.745 193.613 135.949 192.863 133.6 192.863C132.613 192.863 131.636 192.962 130.669 193.159C129.702 193.337 128.735 193.574 127.768 193.87L125.903 192.064L127.206 172.11H143.34V176.374H131.113L130.225 189.459C131.054 189.261 131.883 189.113 132.712 189.015C133.561 188.916 134.38 188.867 135.169 188.867ZM171.287 215.392H150.445V211.928L159.001 199.317C160.678 196.85 162.001 194.718 162.968 192.922C163.955 191.126 164.655 189.429 165.07 187.83C165.504 186.212 165.721 184.456 165.721 182.561C165.721 180.449 165.208 178.781 164.182 177.558C163.175 176.334 161.724 175.722 159.83 175.722C158.567 175.722 157.412 175.949 156.366 176.403C155.34 176.857 154.284 177.607 153.198 178.653L150.8 175.397C151.787 174.469 152.764 173.719 153.731 173.147C154.698 172.574 155.705 172.16 156.751 171.903C157.817 171.627 158.971 171.489 160.215 171.489C162.346 171.489 164.172 171.943 165.691 172.851C167.231 173.758 168.405 175.031 169.214 176.67C170.023 178.308 170.428 180.212 170.428 182.383C170.428 184.692 170.162 186.814 169.629 188.748C169.096 190.682 168.287 192.607 167.201 194.521C166.135 196.416 164.783 198.488 163.145 200.738L155.951 210.951V211.159H171.287V215.392ZM197.398 193.751C197.398 197.225 197.2 200.333 196.806 203.077C196.431 205.82 195.829 208.149 195 210.063C194.171 211.978 193.095 213.438 191.773 214.445C190.47 215.451 188.901 215.955 187.066 215.955C184.875 215.955 183.01 215.284 181.47 213.941C179.931 212.58 178.747 210.29 177.918 207.073C177.109 203.837 176.704 199.396 176.704 193.751C176.704 188.817 177.079 184.702 177.829 181.406C178.599 178.11 179.744 175.633 181.263 173.976C182.803 172.318 184.737 171.489 187.066 171.489C189.434 171.489 191.378 172.328 192.898 174.005C194.417 175.663 195.542 178.14 196.273 181.436C197.023 184.732 197.398 188.837 197.398 193.751ZM181.47 193.751C181.47 197.718 181.658 201.034 182.033 203.698C182.408 206.343 183.01 208.336 183.839 209.678C184.668 211.021 185.743 211.692 187.066 211.692C188.388 211.692 189.464 211.021 190.293 209.678C191.121 208.317 191.723 206.304 192.098 203.639C192.493 200.975 192.691 197.679 192.691 193.751C192.691 189.824 192.493 186.528 192.098 183.863C191.704 181.199 191.092 179.186 190.263 177.824C189.454 176.462 188.388 175.781 187.066 175.781C185.743 175.781 184.668 176.452 183.839 177.795C183.01 179.137 182.408 181.14 182.033 183.804C181.658 186.449 181.47 189.765 181.47 193.751Z" fill="#062841"/>
<path d="M107.062 215.286L107.285 215.283L108.868 215.275L116.084 215.24L108.837 208.654L116.019 202L108.804 202.034L107.223 202.043H106.997L99.8125 208.697L107.062 215.286Z" fill="#DBB65D"/>
<path d="M95.2498 215.286L95.4728 215.283L97.0531 215.277L104.272 215.24L97.0221 208.654L104.207 202L96.991 202.034L95.4079 202.043L95.1849 202.046L88 208.7L95.2498 215.286Z" fill="#DBB65D"/>
</g>
<g clip-path="url(#clip2_24_15909)" filter="url(#filter2_d_24_15909)">
<g filter="url(#filter3_d_24_15909)">
<rect x="20" y="302" width="262" height="250" rx="10" fill="#375B74"/>
</g>
<line x1="20" y1="371.5" x2="282" y2="371.5" stroke="white"/>
<path d="M90.4893 354.207V335.413C90.4893 334.378 90.4502 333.401 90.3721 332.483C90.2939 331.565 90.2012 330.779 90.0938 330.125C89.9961 329.471 89.9033 329.026 89.8154 328.792C89.7764 328.675 89.7373 328.562 89.6982 328.455C89.6592 328.338 89.6201 328.221 89.5811 328.104H94.5469C94.6445 328.396 94.7324 328.714 94.8105 329.056C94.8887 329.388 94.957 329.739 95.0156 330.11C95.1133 330.657 95.1914 331.233 95.25 331.839C95.3184 332.444 95.3672 333.05 95.3965 333.655C95.4355 334.261 95.4551 334.847 95.4551 335.413V354.207H90.4893ZM98.0625 347V328.104H103.043V347H98.0625ZM105.255 347V343.03H111.041V334.93C111.041 334.09 110.938 333.406 110.733 332.879C110.538 332.352 110.138 332.024 109.532 331.897C109.396 331.868 109.239 331.849 109.063 331.839C108.897 331.819 108.775 331.81 108.697 331.81C107.877 331.81 107.242 331.829 106.793 331.868C106.354 331.897 105.841 331.971 105.255 332.088V328.089C105.88 327.991 106.49 327.923 107.086 327.884C107.682 327.835 108.307 327.811 108.961 327.811C110.123 327.811 111.065 327.874 111.788 328.001C112.511 328.128 113.116 328.304 113.604 328.528C114.229 328.802 114.693 329.119 114.996 329.48C115.309 329.842 115.572 330.247 115.787 330.696C115.875 330.872 115.934 331.219 115.963 331.736C116.002 332.254 116.026 332.811 116.036 333.406C116.046 334.002 116.051 334.515 116.051 334.944V343.03H118.307V347H105.255ZM120.401 347L118.907 328.104H123.902L124.679 337.391C125.021 337.4 125.284 337.347 125.47 337.229C125.655 337.103 125.792 336.922 125.88 336.688C125.968 336.463 126.021 336.189 126.041 335.867C126.07 335.535 126.104 335.149 126.144 334.71L126.642 328.104H131.607L130.992 336.57C130.953 337.088 130.86 337.532 130.714 337.903C130.567 338.274 130.343 338.641 130.04 339.002C129.542 339.568 128.941 340.013 128.238 340.335C127.535 340.657 126.622 340.818 125.499 340.818C125.401 340.818 125.309 340.818 125.221 340.818C125.133 340.809 125.04 340.804 124.942 340.804L125.118 343.045H127.33C128.248 343.045 129.063 342.879 129.776 342.547C130.489 342.215 131.09 341.731 131.578 341.097C132.35 340.091 132.809 338.646 132.955 336.761L133.6 328.104H138.609L137.95 336.731C137.843 338.196 137.584 339.588 137.174 340.906C136.764 342.215 136.168 343.25 135.387 344.012C135.201 344.197 134.874 344.476 134.405 344.847C133.946 345.208 133.463 345.525 132.955 345.799C132.213 346.189 131.349 346.487 130.362 346.692C129.386 346.897 128.375 347 127.33 347H120.401ZM140.25 347V328.587C140.65 328.479 141.061 328.387 141.48 328.309C141.9 328.23 142.32 328.162 142.74 328.104C143.434 328.006 144.122 327.933 144.806 327.884C145.499 327.835 146.158 327.811 146.783 327.811C148.16 327.811 149.249 327.928 150.05 328.162C150.86 328.396 151.505 328.743 151.983 329.202C152.149 329.358 152.301 329.529 152.438 329.715C152.574 329.891 152.691 330.076 152.789 330.271C153.102 330.867 153.297 331.551 153.375 332.322C153.463 333.094 153.507 333.968 153.507 334.944V347H148.526V334.93C148.526 334.383 148.487 333.904 148.409 333.494C148.341 333.074 148.224 332.742 148.058 332.498C147.901 332.273 147.682 332.103 147.398 331.985C147.125 331.868 146.759 331.81 146.3 331.81C146.114 331.81 145.938 331.819 145.772 331.839C145.616 331.858 145.44 331.888 145.245 331.927V347H140.25ZM162.208 347.425C161.993 347.425 161.715 347.376 161.373 347.278C161.041 347.181 160.733 347.059 160.45 346.912V343.001C160.694 343.216 161.007 343.323 161.388 343.323C162.022 343.323 162.413 343.094 162.56 342.635C162.706 342.166 162.779 341.512 162.779 340.672V332.234C162.535 332.254 162.286 332.298 162.032 332.366C161.788 332.425 161.539 332.498 161.285 332.586V328.675C161.598 328.597 162.096 328.489 162.779 328.353C163.473 328.216 164.293 328.094 165.24 327.986C166.188 327.869 167.198 327.811 168.272 327.811C169.024 327.811 169.654 327.83 170.162 327.869C170.68 327.908 171.119 327.972 171.48 328.06C171.842 328.138 172.169 328.235 172.462 328.353C172.745 328.46 172.999 328.582 173.224 328.719C173.448 328.846 173.653 328.982 173.839 329.129C174.562 329.734 174.991 330.516 175.128 331.473C175.274 332.42 175.348 333.577 175.348 334.944V347H170.353V334.93C170.353 334.324 170.313 333.816 170.235 333.406C170.167 332.996 170.035 332.674 169.84 332.439C169.645 332.186 169.356 332.015 168.976 331.927C168.849 331.897 168.683 331.868 168.478 331.839C168.282 331.81 168.048 331.79 167.774 331.78V340.672C167.774 341.561 167.726 342.391 167.628 343.162C167.53 343.924 167.364 344.593 167.13 345.169C166.808 346.038 166.285 346.629 165.562 346.941C165.064 347.176 164.508 347.312 163.893 347.352C163.287 347.4 162.726 347.425 162.208 347.425ZM183.141 347V334.93C183.141 334.305 183.082 333.758 182.965 333.289C182.848 332.82 182.628 332.474 182.306 332.249C182.13 332.122 181.896 332.02 181.603 331.941C181.319 331.854 181.026 331.81 180.724 331.81C180.489 331.81 180.143 331.824 179.684 331.854C179.234 331.883 178.775 331.917 178.307 331.956C177.838 331.995 177.447 332.029 177.135 332.059V328.074C178.004 327.986 178.805 327.923 179.537 327.884C180.27 327.835 180.895 327.811 181.412 327.811C182.281 327.811 183.058 327.869 183.741 327.986C184.425 328.104 185.016 328.274 185.514 328.499C185.924 328.685 186.28 328.914 186.583 329.188C186.896 329.461 187.164 329.788 187.389 330.169C187.76 330.794 187.975 331.512 188.033 332.322C188.092 333.123 188.121 333.997 188.121 334.944V347H183.141ZM191.563 347.425C191.349 347.425 191.07 347.376 190.729 347.278C190.396 347.181 190.089 347.059 189.806 346.912V343.001C190.05 343.216 190.362 343.323 190.743 343.323C191.378 343.323 191.769 343.094 191.915 342.635C192.062 342.166 192.135 341.512 192.135 340.672V332.234C191.891 332.254 191.642 332.298 191.388 332.366C191.144 332.425 190.895 332.498 190.641 332.586V328.675C190.953 328.597 191.451 328.489 192.135 328.353C192.828 328.216 193.648 328.094 194.596 327.986C195.543 327.869 196.554 327.811 197.628 327.811C198.38 327.811 199.01 327.83 199.518 327.869C200.035 327.908 200.475 327.972 200.836 328.06C201.197 328.138 201.524 328.235 201.817 328.353C202.101 328.46 202.354 328.582 202.579 328.719C202.804 328.846 203.009 328.982 203.194 329.129C203.917 329.734 204.347 330.516 204.483 331.473C204.63 332.42 204.703 333.577 204.703 334.944V347H199.708V334.93C199.708 334.324 199.669 333.816 199.591 333.406C199.522 332.996 199.391 332.674 199.195 332.439C199 332.186 198.712 332.015 198.331 331.927C198.204 331.897 198.038 331.868 197.833 331.839C197.638 331.81 197.403 331.79 197.13 331.78V340.672C197.13 341.561 197.081 342.391 196.983 343.162C196.886 343.924 196.72 344.593 196.485 345.169C196.163 346.038 195.641 346.629 194.918 346.941C194.42 347.176 193.863 347.312 193.248 347.352C192.643 347.4 192.081 347.425 191.563 347.425ZM207.311 340.906V328.104H212.276V336.204L209.376 340.906H207.311Z" fill="white"/>
<path d="M163.743 518.76L164.359 518.752L168.74 518.728L188.705 518.634L168.654 500.412L188.525 482L168.56 482.095L164.188 482.118H163.563L143.684 500.53L163.743 518.76Z" fill="white"/>
<path d="M131.059 518.76L131.676 518.752L136.048 518.736L156.021 518.634L135.962 500.412L155.842 482L135.876 482.095L131.496 482.118L130.879 482.126L111 500.538L131.059 518.76Z" fill="white"/>
<path d="M118.146 426.625C120.928 426.625 123.299 427.295 125.261 428.636C127.223 429.977 128.725 431.84 129.768 434.224C130.811 436.608 131.333 439.377 131.333 442.53C131.333 446.131 130.737 449.297 129.545 452.029C128.377 454.76 126.652 456.896 124.367 458.436C122.082 459.975 119.251 460.745 115.874 460.745C113.813 460.745 111.963 460.546 110.324 460.149C108.685 459.777 107.245 459.218 106.003 458.473V452.587C107.394 453.506 108.896 454.239 110.51 454.785C112.149 455.331 113.788 455.605 115.427 455.605C117.687 455.605 119.537 455.021 120.977 453.854C122.442 452.662 123.535 451.098 124.255 449.161C124.975 447.199 125.335 445.051 125.335 442.716C125.335 439.116 124.541 436.372 122.952 434.484C121.387 432.597 119.127 431.654 116.172 431.654C114.931 431.654 113.701 431.778 112.485 432.026C111.268 432.25 110.051 432.548 108.834 432.92L106.488 430.648L108.126 405.542H128.427V410.906H113.043L111.926 427.37C112.969 427.122 114.012 426.935 115.055 426.811C116.123 426.687 117.153 426.625 118.146 426.625ZM163.59 460H137.367V455.642L148.132 439.774C150.243 436.67 151.906 433.988 153.123 431.728C154.365 429.468 155.246 427.333 155.768 425.321C156.314 423.285 156.587 421.075 156.587 418.691C156.587 416.034 155.942 413.935 154.65 412.396C153.384 410.856 151.559 410.086 149.175 410.086C147.586 410.086 146.133 410.372 144.817 410.943C143.525 411.514 142.197 412.458 140.831 413.774L137.814 409.677C139.056 408.51 140.285 407.566 141.502 406.846C142.718 406.126 143.985 405.604 145.301 405.281C146.642 404.934 148.095 404.76 149.659 404.76C152.341 404.76 154.638 405.331 156.55 406.473C158.487 407.616 159.965 409.217 160.983 411.278C162.001 413.34 162.51 415.736 162.51 418.467C162.51 421.373 162.175 424.042 161.504 426.476C160.834 428.91 159.816 431.331 158.45 433.74C157.109 436.123 155.408 438.731 153.347 441.562L144.295 454.413V454.673H163.59V460ZM196.444 432.771C196.444 437.142 196.195 441.053 195.699 444.504C195.227 447.956 194.469 450.886 193.427 453.295C192.384 455.704 191.03 457.542 189.366 458.808C187.727 460.074 185.753 460.708 183.444 460.708C180.687 460.708 178.341 459.863 176.404 458.175C174.467 456.461 172.977 453.581 171.934 449.533C170.916 445.461 170.407 439.873 170.407 432.771C170.407 426.563 170.879 421.385 171.822 417.238C172.791 413.091 174.231 409.975 176.143 407.889C178.08 405.803 180.514 404.76 183.444 404.76C186.424 404.76 188.87 405.815 190.782 407.926C192.694 410.012 194.109 413.128 195.028 417.275C195.972 421.423 196.444 426.588 196.444 432.771ZM176.404 432.771C176.404 437.762 176.64 441.934 177.111 445.287C177.583 448.614 178.341 451.122 179.384 452.811C180.427 454.5 181.78 455.344 183.444 455.344C185.108 455.344 186.461 454.5 187.504 452.811C188.547 451.098 189.304 448.565 189.776 445.212C190.273 441.86 190.521 437.713 190.521 432.771C190.521 427.829 190.273 423.682 189.776 420.33C189.279 416.977 188.51 414.445 187.467 412.731C186.449 411.018 185.108 410.161 183.444 410.161C181.78 410.161 180.427 411.005 179.384 412.694C178.341 414.382 177.583 416.903 177.111 420.255C176.64 423.583 176.404 427.755 176.404 432.771Z" fill="white"/>
</g>
</g>
<rect x="0.5" y="0.5" width="301" height="771" rx="4.5" stroke="#9747FF" stroke-dasharray="10 5"/>
<defs>
<filter id="filter0_d_24_15909" x="-4" y="0" width="310" height="298" filterUnits="userSpaceOnUse" color-interpolation-filters="sRGB">
<feFlood flood-opacity="0" result="BackgroundImageFix"/>
<feColorMatrix in="SourceAlpha" type="matrix" values="0 0 0 0 0 0 0 0 0 0 0 0 0 0 0 0 0 0 127 0" result="hardAlpha"/>
<feOffset dy="4"/>
<feGaussianBlur stdDeviation="12"/>
<feComposite in2="hardAlpha" operator="out"/>
<feColorMatrix type="matrix" values="0 0 0 0 0.245573 0 0 0 0 0.594951 0 0 0 0 0.854167 0 0 0 0.15 0"/>
<feBlend mode="normal" in2="BackgroundImageFix" result="effect1_dropShadow_24_15909"/>
<feBlend mode="normal" in="SourceGraphic" in2="effect1_dropShadow_24_15909" result="shape"/>
</filter>
<filter id="filter1_d_24_15909" x="-4" y="0" width="310" height="298" filterUnits="userSpaceOnUse" color-interpolation-filters="sRGB">
<feFlood flood-opacity="0" result="BackgroundImageFix"/>
<feColorMatrix in="SourceAlpha" type="matrix" values="0 0 0 0 0 0 0 0 0 0 0 0 0 0 0 0 0 0 127 0" result="hardAlpha"/>
<feOffset dy="4"/>
<feGaussianBlur stdDeviation="12"/>
<feComposite in2="hardAlpha" operator="out"/>
<feColorMatrix type="matrix" values="0 0 0 0 0.245573 0 0 0 0 0.594951 0 0 0 0 0.854167 0 0 0 0.15 0"/>
<feBlend mode="normal" in2="BackgroundImageFix" result="effect1_dropShadow_24_15909"/>
<feBlend mode="normal" in="SourceGraphic" in2="effect1_dropShadow_24_15909" result="shape"/>
</filter>
<filter id="filter2_d_24_15909" x="-4" y="282" width="310" height="298" filterUnits="userSpaceOnUse" color-interpolation-filters="sRGB">
<feFlood flood-opacity="0" result="BackgroundImageFix"/>
<feColorMatrix in="SourceAlpha" type="matrix" values="0 0 0 0 0 0 0 0 0 0 0 0 0 0 0 0 0 0 127 0" result="hardAlpha"/>
<feOffset dy="4"/>
<feGaussianBlur stdDeviation="12"/>
<feComposite in2="hardAlpha" operator="out"/>
<feColorMatrix type="matrix" values="0 0 0 0 0.245573 0 0 0 0 0.594951 0 0 0 0 0.854167 0 0 0 0.15 0"/>
<feBlend mode="normal" in2="BackgroundImageFix" result="effect1_dropShadow_24_15909"/>
<feBlend mode="normal" in="SourceGraphic" in2="effect1_dropShadow_24_15909" result="shape"/>
</filter>
<filter id="filter3_d_24_15909" x="-4" y="282" width="310" height="298" filterUnits="userSpaceOnUse" color-interpolation-filters="sRGB">
<feFlood flood-opacity="0" result="BackgroundImageFix"/>
<feColorMatrix in="SourceAlpha" type="matrix" values="0 0 0 0 0 0 0 0 0 0 0 0 0 0 0 0 0 0 127 0" result="hardAlpha"/>
<feOffset dy="4"/>
<feGaussianBlur stdDeviation="12"/>
<feComposite in2="hardAlpha" operator="out"/>
<feColorMatrix type="matrix" values="0 0 0 0 0.245573 0 0 0 0 0.594951 0 0 0 0 0.854167 0 0 0 0.15 0"/>
<feBlend mode="normal" in2="BackgroundImageFix" result="effect1_dropShadow_24_15909"/>
<feBlend mode="normal" in="SourceGraphic" in2="effect1_dropShadow_24_15909" result="shape"/>
</filter>
<clipPath id="clip0_24_15909">
<rect width="302" height="772" rx="5" fill="white"/>
</clipPath>
<clipPath id="clip1_24_15909">
<rect width="262" height="250" fill="white" transform="translate(20 20)"/>
</clipPath>
<clipPath id="clip2_24_15909">
<rect width="262" height="250" fill="white" transform="translate(20 302)"/>
</clipPath>
</defs>
</svg>
