<svg width="1768" height="638" viewBox="0 0 1768 638" fill="none" xmlns="http://www.w3.org/2000/svg">
<g filter="url(#filter0_d_228_5472)">
<rect x="24" y="19" width="1720" height="590" rx="5" fill="white"/>
<rect x="24.5" y="19.5" width="1719" height="589" rx="4.5" stroke="#DBB65D"/>
</g>
<line x1="24" y1="103" x2="1744" y2="103" stroke="#DBB65D" stroke-width="2"/>
<path d="M1318.97 73V53.0625C1319.48 52.9583 1320.43 52.8438 1321.83 52.7188C1323.23 52.5938 1324.49 52.5312 1325.61 52.5312C1326.72 52.5312 1327.65 52.599 1328.39 52.7344C1329.14 52.8594 1329.77 53.0677 1330.28 53.3594C1330.79 53.651 1331.21 53.9844 1331.53 54.3594C1331.86 54.7344 1332.12 55.2083 1332.3 55.7812C1332.62 56.7604 1332.78 58.0573 1332.78 59.6719V73H1318.97ZM1327.39 69.0781V59.6562C1327.39 58.4479 1327.25 57.6198 1326.97 57.1719C1326.69 56.7135 1326.17 56.4844 1325.42 56.4844C1325.27 56.4844 1324.91 56.526 1324.34 56.6094V69.0781H1327.39ZM1335.56 66.3906V52.8438H1340.92V62.1562L1338.23 66.3906H1335.56ZM1349.7 73H1344.02L1342.72 52.8438H1348.05L1348.55 62.9844C1348.56 62.974 1348.6 62.9427 1348.67 62.8906C1348.74 62.8385 1348.79 62.8073 1348.8 62.7969C1348.82 62.776 1348.86 62.7396 1348.92 62.6875C1348.98 62.625 1349.02 62.5833 1349.03 62.5625C1349.05 62.5312 1349.09 62.4844 1349.14 62.4219C1349.19 62.349 1349.22 62.2812 1349.23 62.2188C1349.26 62.1562 1349.28 62.0781 1349.31 61.9844C1349.35 61.8906 1349.38 61.7917 1349.39 61.6875C1349.41 61.5833 1349.43 61.4635 1349.45 61.3281C1349.47 61.1927 1349.49 61.0469 1349.5 60.8906L1349.83 52.8438H1355L1354.66 60.8906C1354.52 62.7865 1353.88 64.1719 1352.72 65.0469C1351.79 65.7552 1350.49 66.1875 1348.81 66.3438L1349.03 69.0781H1349.7C1350.76 69.0781 1351.69 68.9167 1352.5 68.5938C1353.32 68.2604 1353.98 67.8125 1354.48 67.25C1355.46 66.1354 1355.99 64.7812 1356.08 63.1875L1356.69 52.8438H1361.84L1361.33 63.5C1361.29 64.4896 1361.12 65.4115 1360.83 66.2656C1360.55 67.1094 1360.23 67.8125 1359.89 68.375C1359.56 68.9375 1359.09 69.5104 1358.48 70.0938C1357.89 70.6771 1357.2 71.1771 1356.42 71.5938C1355.65 72.0104 1354.69 72.349 1353.53 72.6094C1352.38 72.8698 1351.1 73 1349.7 73ZM1376.27 52.8438V56.4062C1374.72 56.9688 1373.95 58.276 1373.95 60.3281V73H1368.59V60.2188C1368.59 58.7396 1369.17 57.5885 1370.31 56.7656H1362.81V52.8438H1376.27ZM1383.33 73H1377.97V52.8438H1383.33V73ZM1386.19 73V53.1094C1386.78 52.9844 1387.71 52.8594 1388.98 52.7344C1390.26 52.599 1391.49 52.5312 1392.69 52.5312C1393.9 52.5312 1394.87 52.599 1395.61 52.7344C1396.36 52.8594 1396.99 53.0677 1397.5 53.3594C1398.01 53.651 1398.43 53.9844 1398.75 54.3594C1399.08 54.7344 1399.34 55.2083 1399.52 55.7812C1399.84 56.7604 1400 58.0573 1400 59.6719V73H1394.61V59.6562C1394.61 58.4479 1394.45 57.6198 1394.14 57.1719C1393.83 56.7135 1393.26 56.4844 1392.42 56.4844C1392.34 56.4844 1392.05 56.5104 1391.56 56.5625V73H1386.19ZM1410.41 66.3906V52.8438H1415.77V62.1562L1413.08 66.3906H1410.41ZM1419.48 64.3281C1419.11 63.8698 1418.8 63.2865 1418.56 62.5781C1418.32 61.8594 1418.2 60.9792 1418.2 59.9375C1418.2 58.8958 1418.39 57.8854 1418.77 56.9062C1419.14 55.9167 1419.65 55.1094 1420.28 54.4844C1420.93 53.8594 1421.66 53.3802 1422.47 53.0469C1423.29 52.7031 1424.15 52.5312 1425.05 52.5312C1425.86 52.5312 1426.59 52.6562 1427.23 52.9062C1427.89 53.1562 1428.43 53.4323 1428.86 53.7344C1429.29 54.0365 1429.71 54.4583 1430.14 55C1430.57 55.5312 1430.93 56.1458 1431.23 56.8438C1431.91 58.4271 1432.25 60.4479 1432.25 62.9062C1432.25 66.4062 1431.55 69.0469 1430.14 70.8281C1429.71 71.3698 1429.29 71.7969 1428.86 72.1094C1428.43 72.4115 1427.97 72.6562 1427.48 72.8438C1426.67 73.1562 1425.81 73.3125 1424.91 73.3125C1424 73.3125 1423.1 73.2656 1422.2 73.1719C1421.32 73.0885 1420.68 73 1420.3 72.9062L1419.7 72.7656V68.8906C1421.42 69.2031 1423.2 69.3594 1425.05 69.3594C1425.67 69.3594 1426.13 68.8438 1426.42 67.8125C1426.71 66.7708 1426.86 65.1354 1426.86 62.9062C1426.86 60.4062 1426.68 58.6875 1426.33 57.75C1426.01 56.9062 1425.58 56.4844 1425.05 56.4844C1424.7 56.4844 1424.41 56.6198 1424.17 56.8906C1423.93 57.1615 1423.76 57.4948 1423.66 57.8906C1423.47 58.599 1423.38 59.1771 1423.38 59.625C1423.38 60.5521 1423.51 61.2708 1423.78 61.7812C1424.05 62.2812 1424.4 62.5677 1424.83 62.6406L1425.3 62.7344L1424.61 66.5312L1423.88 66.4531C1422.75 66.3385 1421.73 66.0104 1420.83 65.4688C1420.32 65.1562 1419.87 64.776 1419.48 64.3281ZM1439.08 52.8438H1446.22V55.8906L1443.64 65.2656L1442.11 73H1436.88L1438.42 65.125L1440.73 56.7656H1433.7V48.8125H1439.08V52.8438ZM1456.45 53.1719C1456.9 53.0677 1457.79 52.9375 1459.12 52.7812C1460.46 52.6146 1461.69 52.5312 1462.83 52.5312C1463.96 52.5312 1464.9 52.599 1465.64 52.7344C1466.39 52.8594 1467.02 53.0677 1467.53 53.3594C1468.04 53.651 1468.46 53.9844 1468.78 54.3594C1469.11 54.7344 1469.37 55.2083 1469.55 55.7812C1469.87 56.7604 1470.03 58.0573 1470.03 59.6719V73H1464.64V59.6562C1464.64 58.4479 1464.48 57.6198 1464.17 57.1719C1463.86 56.7135 1463.28 56.4844 1462.44 56.4844H1462.25V67.1406C1462.25 68.9219 1462.14 70.1042 1461.92 70.6875C1461.64 71.4792 1461.3 72.0208 1460.89 72.3125C1460.27 72.7708 1459.55 73.0625 1458.73 73.1875C1458.26 73.2604 1457.77 73.2969 1457.28 73.2969C1456.4 73.2969 1455.61 73.1458 1454.92 72.8438L1454.58 72.6875V68.9844C1455.28 69.1615 1455.73 69.25 1455.95 69.25C1456.17 69.25 1456.34 69.1979 1456.47 69.0938C1456.6 68.9792 1456.7 68.8021 1456.75 68.5625C1456.82 68.2188 1456.86 67.7448 1456.86 67.1406V57.0156L1455.41 57.2969V53.4062C1455.66 53.3438 1456.01 53.2656 1456.45 53.1719ZM1478.17 73H1472.81V52.8438H1478.17V73ZM1487.83 52.5312C1488.64 52.5312 1489.37 52.6562 1490.02 52.9062C1490.67 53.1562 1491.21 53.4323 1491.64 53.7344C1492.07 54.0365 1492.49 54.4583 1492.92 55C1493.35 55.5312 1493.71 56.1458 1494.02 56.8438C1494.69 58.4271 1495.03 60.4479 1495.03 62.9062C1495.03 66.4167 1494.33 69.0521 1492.92 70.8125C1492.49 71.3542 1492.07 71.7812 1491.64 72.0938C1491.21 72.3958 1490.76 72.6458 1490.27 72.8438C1489.46 73.1562 1488.65 73.3125 1487.83 73.3125C1486.98 73.3125 1486.15 73.1458 1485.31 72.8125C1484.82 72.625 1484.36 72.375 1483.94 72.0625C1483.51 71.75 1483.09 71.3229 1482.67 70.7812C1482.26 70.2396 1481.9 69.6146 1481.61 68.9062C1480.94 67.3438 1480.61 65.3438 1480.61 62.9062C1480.61 61.8646 1480.78 60.7552 1481.12 59.5781C1481.47 58.3906 1481.9 57.4583 1482.41 56.7812L1480.81 56.8906V53.0469C1482.98 52.7031 1485.32 52.5312 1487.83 52.5312ZM1486 62.9062C1486 67.2083 1486.6 69.3594 1487.81 69.3594C1489.03 69.3594 1489.64 67.2083 1489.64 62.9062C1489.64 60.4062 1489.46 58.6875 1489.11 57.75C1488.79 56.9062 1488.36 56.4844 1487.83 56.4844L1487.17 56.5312C1486.71 57.1875 1486.4 58.0052 1486.23 58.9844C1486.08 59.9531 1486 61.2604 1486 62.9062ZM1497.45 52.8906C1498.72 52.651 1499.76 52.5312 1500.55 52.5312C1501.34 52.5312 1502.03 52.5833 1502.61 52.6875C1503.2 52.7917 1503.71 52.9323 1504.12 53.1094C1504.54 53.2865 1504.9 53.526 1505.19 53.8281C1505.49 54.1198 1505.72 54.4219 1505.89 54.7344C1506.07 55.0469 1506.2 55.4271 1506.3 55.875C1506.46 56.6146 1506.55 57.5521 1506.55 58.6875V67.125C1506.55 68.0729 1506.47 69.0365 1506.33 70.0156C1506.18 70.9948 1506.04 71.7396 1505.89 72.25L1505.67 73H1496.56V69.0781H1500.95C1501.1 68.3177 1501.17 67.2656 1501.17 65.9219V58.6875C1501.17 58.1042 1501.04 57.6094 1500.77 57.2031C1500.51 56.7865 1500.07 56.5781 1499.45 56.5781C1499.04 56.5781 1498.48 56.6667 1497.8 56.8438L1497.45 56.9219V52.8906ZM1508.48 53.0156C1509.87 52.6927 1511.24 52.5312 1512.61 52.5312C1513.98 52.5312 1515.08 52.6719 1515.91 52.9531C1516.74 53.224 1517.41 53.5885 1517.91 54.0469C1518.41 54.5052 1518.81 55.0885 1519.11 55.7969C1519.41 56.5052 1519.61 57.2396 1519.72 58C1519.83 58.7604 1519.89 59.6302 1519.89 60.6094V64.75C1519.89 66.5729 1519.6 68.1667 1519.02 69.5312C1518.68 70.2812 1518.26 70.9323 1517.75 71.4844C1517.25 72.026 1516.59 72.4635 1515.78 72.7969C1514.97 73.1302 1514.04 73.2969 1513 73.2969C1511.23 73.2969 1509.72 73.1146 1508.48 72.75V68.625C1509.7 68.9896 1510.94 69.1719 1512.19 69.1719C1513.28 69.1719 1513.95 68.5833 1514.2 67.4062C1514.35 66.7708 1514.42 65.8854 1514.42 64.75V60.6094C1514.42 59.3073 1514.23 58.3229 1513.84 57.6562C1513.46 56.9896 1512.82 56.6562 1511.94 56.6562C1510.75 56.6562 1509.73 56.75 1508.89 56.9375L1508.48 57.0156V53.0156ZM1525.3 52.7656C1526.62 52.6094 1527.84 52.5312 1528.95 52.5312C1530.07 52.5312 1530.99 52.599 1531.73 52.7344C1532.48 52.8594 1533.11 53.0677 1533.62 53.3594C1534.14 53.651 1534.55 53.9844 1534.88 54.3594C1535.21 54.7344 1535.46 55.2083 1535.64 55.7812C1535.96 56.7604 1536.12 58.0573 1536.12 59.6719V73H1530.73V59.6562C1530.73 58.4583 1530.53 57.6302 1530.12 57.1719C1529.72 56.7135 1529.01 56.4844 1527.98 56.4844C1527.28 56.4844 1526.45 56.5417 1525.5 56.6562C1524.56 56.7604 1523.8 56.8698 1523.2 56.9844L1522.31 57.1562V53.25C1522.99 53.0729 1523.98 52.9115 1525.3 52.7656ZM1527.69 73H1522.31V59.9062H1527.69V73ZM1547.42 53.1719C1547.87 53.0677 1548.76 52.9375 1550.09 52.7812C1551.43 52.6146 1552.66 52.5312 1553.8 52.5312C1554.93 52.5312 1555.87 52.599 1556.61 52.7344C1557.36 52.8594 1557.99 53.0677 1558.5 53.3594C1559.01 53.651 1559.43 53.9844 1559.75 54.3594C1560.08 54.7344 1560.34 55.2083 1560.52 55.7812C1560.84 56.7604 1561 58.0573 1561 59.6719V73H1555.61V59.6562C1555.61 58.4479 1555.45 57.6198 1555.14 57.1719C1554.83 56.7135 1554.25 56.4844 1553.41 56.4844H1553.22V67.1406C1553.22 68.9219 1553.11 70.1042 1552.89 70.6875C1552.61 71.4792 1552.27 72.0208 1551.86 72.3125C1551.23 72.7708 1550.52 73.0625 1549.7 73.1875C1549.22 73.2604 1548.74 73.2969 1548.25 73.2969C1547.36 73.2969 1546.58 73.1458 1545.89 72.8438L1545.55 72.6875V68.9844C1546.24 69.1615 1546.7 69.25 1546.92 69.25C1547.14 69.25 1547.31 69.1979 1547.44 69.0938C1547.57 68.9792 1547.67 68.8021 1547.72 68.5625C1547.79 68.2188 1547.83 67.7448 1547.83 67.1406V57.0156L1546.38 57.2969V53.4062C1546.62 53.3438 1546.97 53.2656 1547.42 53.1719ZM1569.14 73H1563.78V52.8438H1569.14V73ZM1586.5 52.8438V60.2969C1586.5 61.9115 1586.21 63.1458 1585.64 64C1585.4 64.3542 1585.06 64.7083 1584.62 65.0625C1584.2 65.4167 1583.68 65.7188 1583.08 65.9688L1586.34 73H1580.47L1577.14 64.4688C1577.13 64.5938 1577.12 64.8854 1577.12 65.3438V73H1571.77V65.7031C1571.77 65.0052 1571.85 64.3438 1572.02 63.7188C1572.19 63.0938 1572.53 62.4583 1573.03 61.8125C1573.54 61.1562 1574.2 60.6146 1575.02 60.1875C1574.62 59.3646 1574 58.1146 1573.16 56.4375C1572.31 54.75 1571.71 53.5521 1571.36 52.8438H1577.23L1580.23 60.0156L1581.03 62.0156C1581.1 61.7135 1581.14 61.2083 1581.14 60.5V52.8438H1586.5ZM1601.89 73H1587.95V69.0781H1593.88L1595.81 69.2969C1595.52 68.849 1595.1 68.2292 1594.55 67.4375C1594.01 66.6458 1593.65 66.1146 1593.47 65.8438L1587.66 52.8438H1593.22L1596.38 60.7969C1596.81 59.7865 1597.07 58.7708 1597.14 57.75L1597.53 52.8594H1602.84L1602.5 56.8281C1602.42 57.9219 1602.13 59.1875 1601.64 60.625C1601.36 61.4271 1600.95 62.2448 1600.42 63.0781C1599.9 63.9115 1599.29 64.6562 1598.58 65.3125L1601.89 70.25V73ZM1609.95 73H1604.59V52.8438H1609.95V73ZM1615.8 52.7656C1617.12 52.6094 1618.34 52.5312 1619.45 52.5312C1620.57 52.5312 1621.49 52.599 1622.23 52.7344C1622.98 52.8594 1623.61 53.0677 1624.12 53.3594C1624.64 53.651 1625.05 53.9844 1625.38 54.3594C1625.71 54.7344 1625.96 55.2083 1626.14 55.7812C1626.46 56.7604 1626.62 58.0573 1626.62 59.6719V73H1621.23V59.6562C1621.23 58.4583 1621.03 57.6302 1620.62 57.1719C1620.22 56.7135 1619.51 56.4844 1618.48 56.4844C1617.78 56.4844 1616.95 56.5417 1616 56.6562C1615.06 56.7604 1614.3 56.8698 1613.7 56.9844L1612.81 57.1562V53.25C1613.49 53.0729 1614.48 52.9115 1615.8 52.7656ZM1618.19 73H1612.81V59.9062H1618.19V73ZM1637.03 73V53.0625C1637.54 52.9583 1638.49 52.8438 1639.89 52.7188C1641.3 52.5938 1642.56 52.5312 1643.67 52.5312C1644.79 52.5312 1645.71 52.599 1646.45 52.7344C1647.2 52.8594 1647.83 53.0677 1648.34 53.3594C1648.85 53.651 1649.27 53.9844 1649.59 54.3594C1649.93 54.7344 1650.18 55.2083 1650.36 55.7812C1650.68 56.7604 1650.84 58.0573 1650.84 59.6719V73H1637.03ZM1645.45 69.0781V59.6562C1645.45 58.4479 1645.31 57.6198 1645.03 57.1719C1644.75 56.7135 1644.23 56.4844 1643.48 56.4844C1643.33 56.4844 1642.97 56.526 1642.41 56.6094V69.0781H1645.45ZM1658.98 73H1653.62V52.8438H1658.98V73ZM1661.11 53.0156C1662.49 52.6927 1663.87 52.5312 1665.23 52.5312C1666.61 52.5312 1667.71 52.6719 1668.53 52.9531C1669.36 53.224 1670.03 53.5885 1670.53 54.0469C1671.03 54.5052 1671.43 55.0885 1671.73 55.7969C1672.04 56.5052 1672.24 57.2396 1672.34 58C1672.46 58.7604 1672.52 59.6302 1672.52 60.6094V64.75C1672.52 66.5729 1672.22 68.1667 1671.64 69.5312C1671.31 70.2812 1670.89 70.9323 1670.38 71.4844C1669.88 72.026 1669.22 72.4635 1668.41 72.7969C1667.59 73.1302 1666.67 73.2969 1665.62 73.2969C1663.85 73.2969 1662.35 73.1146 1661.11 72.75V68.625C1662.33 68.9896 1663.56 69.1719 1664.81 69.1719C1665.91 69.1719 1666.58 68.5833 1666.83 67.4062C1666.97 66.7708 1667.05 65.8854 1667.05 64.75V60.6094C1667.05 59.3073 1666.85 58.3229 1666.47 57.6562C1666.08 56.9896 1665.45 56.6562 1664.56 56.6562C1663.38 56.6562 1662.36 56.75 1661.52 56.9375L1661.11 57.0156V53.0156ZM1674.94 66.3906V52.8438H1680.3V62.1562L1677.61 66.3906H1674.94ZM1689.95 52.5312C1690.77 52.5312 1691.49 52.6562 1692.14 52.9062C1692.8 53.1562 1693.34 53.4323 1693.77 53.7344C1694.19 54.0365 1694.62 54.4583 1695.05 55C1695.47 55.5312 1695.84 56.1458 1696.14 56.8438C1696.82 58.4271 1697.16 60.4479 1697.16 62.9062C1697.16 66.4167 1696.45 69.0521 1695.05 70.8125C1694.62 71.3542 1694.19 71.7812 1693.77 72.0938C1693.34 72.3958 1692.88 72.6458 1692.39 72.8438C1691.59 73.1562 1690.78 73.3125 1689.95 73.3125C1689.11 73.3125 1688.27 73.1458 1687.44 72.8125C1686.95 72.625 1686.49 72.375 1686.06 72.0625C1685.64 71.75 1685.21 71.3229 1684.8 70.7812C1684.38 70.2396 1684.03 69.6146 1683.73 68.9062C1683.07 67.3438 1682.73 65.3438 1682.73 62.9062C1682.73 61.8646 1682.91 60.7552 1683.25 59.5781C1683.59 58.3906 1684.02 57.4583 1684.53 56.7812L1682.94 56.8906V53.0469C1685.1 52.7031 1687.44 52.5312 1689.95 52.5312ZM1688.12 62.9062C1688.12 67.2083 1688.73 69.3594 1689.94 69.3594C1691.16 69.3594 1691.77 67.2083 1691.77 62.9062C1691.77 60.4062 1691.59 58.6875 1691.23 57.75C1690.91 56.9062 1690.48 56.4844 1689.95 56.4844L1689.3 56.5312C1688.84 57.1875 1688.53 58.0052 1688.36 58.9844C1688.2 59.9531 1688.12 61.2604 1688.12 62.9062Z" fill="#335269"/>
<line x1="158" y1="153.5" x2="1308" y2="153.5" stroke="#E0E0E0"/>
<line x1="158" y1="244.5" x2="1308" y2="244.5" stroke="#E0E0E0"/>
<line x1="158" y1="198.5" x2="1308" y2="198.5" stroke="#E0E0E0"/>
<line x1="158" y1="289.5" x2="1308" y2="289.5" stroke="#E0E0E0"/>
<line x1="158" y1="380.5" x2="1308" y2="380.5" stroke="#E0E0E0"/>
<line x1="158" y1="471.5" x2="1308" y2="471.5" stroke="#E0E0E0"/>
<line x1="158" y1="335.5" x2="1308" y2="335.5" stroke="#E0E0E0"/>
<line x1="158" y1="426.5" x2="1308" y2="426.5" stroke="#E0E0E0"/>
<line x1="158" y1="517.5" x2="1308" y2="517.5" stroke="#E0E0E0"/>
<line x1="158.666" y1="153.925" x2="158.666" y2="518.076" stroke="#E0E0E0"/>
<line x1="1308.5" y1="153" x2="1308.5" y2="518" stroke="#E0E0E0"/>
<path d="M88.8409 154.614V153.455L93.9546 145.364H94.7955V147.159H94.2273L90.3636 153.273V153.364H97.25V154.614H88.8409ZM94.3182 157V154.261V153.722V145.364H95.6591V157H94.3182ZM103.175 157.159C102.319 157.159 101.589 156.926 100.987 156.46C100.385 155.991 99.9247 155.311 99.6065 154.42C99.2884 153.527 99.1293 152.447 99.1293 151.182C99.1293 149.924 99.2884 148.85 99.6065 147.96C99.9285 147.066 100.391 146.384 100.993 145.915C101.599 145.441 102.326 145.205 103.175 145.205C104.023 145.205 104.749 145.441 105.351 145.915C105.957 146.384 106.419 147.066 106.737 147.96C107.059 148.85 107.22 149.924 107.22 151.182C107.22 152.447 107.061 153.527 106.743 154.42C106.425 155.311 105.964 155.991 105.362 156.46C104.76 156.926 104.031 157.159 103.175 157.159ZM103.175 155.909C104.023 155.909 104.682 155.5 105.152 154.682C105.622 153.864 105.857 152.697 105.857 151.182C105.857 150.174 105.749 149.316 105.533 148.608C105.321 147.9 105.014 147.36 104.612 146.989C104.214 146.617 103.735 146.432 103.175 146.432C102.334 146.432 101.677 146.847 101.203 147.676C100.73 148.502 100.493 149.67 100.493 151.182C100.493 152.189 100.599 153.045 100.811 153.75C101.023 154.455 101.328 154.991 101.726 155.358C102.127 155.725 102.61 155.909 103.175 155.909Z" fill="#335269"/>
<path d="M93.1236 248.159C92.3736 248.159 91.705 248.03 91.1179 247.773C90.5346 247.515 90.0706 247.157 89.7259 246.699C89.385 246.237 89.1993 245.701 89.169 245.091H90.6009C90.6312 245.466 90.76 245.79 90.9872 246.062C91.2145 246.331 91.5118 246.54 91.8793 246.688C92.2467 246.835 92.6539 246.909 93.1009 246.909C93.6009 246.909 94.044 246.822 94.4304 246.648C94.8168 246.473 95.1198 246.231 95.3395 245.92C95.5592 245.61 95.669 245.25 95.669 244.841C95.669 244.413 95.563 244.036 95.3509 243.71C95.1387 243.381 94.8281 243.123 94.419 242.938C94.01 242.752 93.51 242.659 92.919 242.659H91.9872V241.409H92.919C93.3812 241.409 93.7865 241.326 94.135 241.159C94.4872 240.992 94.7618 240.758 94.9588 240.455C95.1596 240.152 95.26 239.795 95.26 239.386C95.26 238.992 95.1728 238.65 94.9986 238.358C94.8243 238.066 94.5781 237.839 94.26 237.676C93.9456 237.513 93.5743 237.432 93.1463 237.432C92.7448 237.432 92.366 237.506 92.01 237.653C91.6577 237.797 91.3698 238.008 91.1463 238.284C90.9228 238.557 90.8016 238.886 90.7827 239.273H89.419C89.4418 238.663 89.6255 238.129 89.9702 237.67C90.3149 237.208 90.7656 236.848 91.3225 236.591C91.8831 236.333 92.4986 236.205 93.169 236.205C93.8887 236.205 94.5062 236.35 95.0213 236.642C95.5365 236.93 95.9323 237.311 96.2088 237.784C96.4853 238.258 96.6236 238.769 96.6236 239.318C96.6236 239.973 96.4512 240.532 96.1065 240.994C95.7656 241.456 95.3016 241.777 94.7145 241.955V242.045C95.4493 242.167 96.0232 242.479 96.4361 242.983C96.849 243.483 97.0554 244.102 97.0554 244.841C97.0554 245.473 96.8831 246.042 96.5384 246.545C96.1975 247.045 95.7315 247.439 95.1406 247.727C94.5497 248.015 93.8774 248.159 93.1236 248.159ZM103.175 248.159C102.319 248.159 101.589 247.926 100.987 247.46C100.385 246.991 99.9247 246.311 99.6065 245.42C99.2884 244.527 99.1293 243.447 99.1293 242.182C99.1293 240.924 99.2884 239.85 99.6065 238.96C99.9285 238.066 100.391 237.384 100.993 236.915C101.599 236.441 102.326 236.205 103.175 236.205C104.023 236.205 104.749 236.441 105.351 236.915C105.957 237.384 106.419 238.066 106.737 238.96C107.059 239.85 107.22 240.924 107.22 242.182C107.22 243.447 107.061 244.527 106.743 245.42C106.425 246.311 105.964 246.991 105.362 247.46C104.76 247.926 104.031 248.159 103.175 248.159ZM103.175 246.909C104.023 246.909 104.682 246.5 105.152 245.682C105.622 244.864 105.857 243.697 105.857 242.182C105.857 241.174 105.749 240.316 105.533 239.608C105.321 238.9 105.014 238.36 104.612 237.989C104.214 237.617 103.735 237.432 103.175 237.432C102.334 237.432 101.677 237.847 101.203 238.676C100.73 239.502 100.493 240.67 100.493 242.182C100.493 243.189 100.599 244.045 100.811 244.75C101.023 245.455 101.328 245.991 101.726 246.358C102.127 246.725 102.61 246.909 103.175 246.909Z" fill="#335269"/>
<path d="M89.6919 339V337.977L93.5328 333.773C93.9836 333.28 94.3548 332.852 94.6465 332.489C94.9381 332.121 95.154 331.777 95.2942 331.455C95.4381 331.129 95.5101 330.788 95.5101 330.432C95.5101 330.023 95.4116 329.669 95.2146 329.369C95.0215 329.07 94.7563 328.839 94.4192 328.676C94.0821 328.513 93.7033 328.432 93.2828 328.432C92.8359 328.432 92.4457 328.525 92.1124 328.71C91.7828 328.892 91.5271 329.148 91.3453 329.477C91.1673 329.807 91.0783 330.193 91.0783 330.636H89.7374C89.7374 329.955 89.8946 329.356 90.209 328.841C90.5234 328.326 90.9514 327.924 91.4931 327.636C92.0385 327.348 92.6502 327.205 93.3283 327.205C94.0101 327.205 94.6143 327.348 95.1408 327.636C95.6673 327.924 96.0802 328.312 96.3794 328.801C96.6787 329.29 96.8283 329.833 96.8283 330.432C96.8283 330.86 96.7506 331.278 96.5953 331.688C96.4438 332.093 96.1787 332.545 95.7999 333.045C95.4249 333.542 94.904 334.148 94.2374 334.864L91.6237 337.659V337.75H97.0328V339H89.6919ZM103.175 339.159C102.319 339.159 101.59 338.926 100.987 338.46C100.385 337.991 99.9249 337.311 99.6067 336.42C99.2885 335.527 99.1294 334.447 99.1294 333.182C99.1294 331.924 99.2885 330.85 99.6067 329.96C99.9287 329.066 100.391 328.384 100.993 327.915C101.599 327.441 102.326 327.205 103.175 327.205C104.023 327.205 104.749 327.441 105.351 327.915C105.957 328.384 106.419 329.066 106.737 329.96C107.059 330.85 107.22 331.924 107.22 333.182C107.22 334.447 107.061 335.527 106.743 336.42C106.425 337.311 105.965 337.991 105.362 338.46C104.76 338.926 104.031 339.159 103.175 339.159ZM103.175 337.909C104.023 337.909 104.682 337.5 105.152 336.682C105.622 335.864 105.857 334.697 105.857 333.182C105.857 332.174 105.749 331.316 105.533 330.608C105.321 329.9 105.014 329.36 104.612 328.989C104.215 328.617 103.735 328.432 103.175 328.432C102.334 328.432 101.677 328.847 101.203 329.676C100.73 330.502 100.493 331.67 100.493 333.182C100.493 334.189 100.599 335.045 100.811 335.75C101.023 336.455 101.328 336.991 101.726 337.358C102.128 337.725 102.61 337.909 103.175 337.909Z" fill="#335269"/>
<path d="M94.6913 418.364V430H93.2822V419.841H93.214L90.3731 421.727V420.295L93.2822 418.364H94.6913ZM101.833 430.159C100.977 430.159 100.248 429.926 99.6459 429.46C99.0436 428.991 98.5834 428.311 98.2652 427.42C97.947 426.527 97.7879 425.447 97.7879 424.182C97.7879 422.924 97.947 421.85 98.2652 420.96C98.5871 420.066 99.0493 419.384 99.6515 418.915C100.258 418.441 100.985 418.205 101.833 418.205C102.682 418.205 103.407 418.441 104.009 418.915C104.616 419.384 105.078 420.066 105.396 420.96C105.718 421.85 105.879 422.924 105.879 424.182C105.879 425.447 105.72 426.527 105.402 427.42C105.083 428.311 104.623 428.991 104.021 429.46C103.419 429.926 102.689 430.159 101.833 430.159ZM101.833 428.909C102.682 428.909 103.341 428.5 103.811 427.682C104.28 426.864 104.515 425.697 104.515 424.182C104.515 423.174 104.407 422.316 104.191 421.608C103.979 420.9 103.672 420.36 103.271 419.989C102.873 419.617 102.394 419.432 101.833 419.432C100.992 419.432 100.335 419.847 99.8618 420.676C99.3883 421.502 99.1515 422.67 99.1515 424.182C99.1515 425.189 99.2576 426.045 99.4697 426.75C99.6818 427.455 99.9868 427.991 100.384 428.358C100.786 428.725 101.269 428.909 101.833 428.909Z" fill="#335269"/>
<path d="M96.4663 523.159C95.6103 523.159 94.8811 522.926 94.2788 522.46C93.6766 521.991 93.2163 521.311 92.8982 520.42C92.58 519.527 92.4209 518.447 92.4209 517.182C92.4209 515.924 92.58 514.85 92.8982 513.96C93.2201 513.066 93.6823 512.384 94.2845 511.915C94.8906 511.441 95.6179 511.205 96.4663 511.205C97.3148 511.205 98.0402 511.441 98.6425 511.915C99.2485 512.384 99.7107 513.066 100.029 513.96C100.351 514.85 100.512 515.924 100.512 517.182C100.512 518.447 100.353 519.527 100.035 520.42C99.7163 521.311 99.2561 521.991 98.6538 522.46C98.0516 522.926 97.3224 523.159 96.4663 523.159ZM96.4663 521.909C97.3148 521.909 97.9739 521.5 98.4436 520.682C98.9133 519.864 99.1482 518.697 99.1482 517.182C99.1482 516.174 99.0402 515.316 98.8243 514.608C98.6122 513.9 98.3054 513.36 97.9038 512.989C97.5061 512.617 97.0269 512.432 96.4663 512.432C95.6254 512.432 94.9682 512.847 94.4948 513.676C94.0213 514.502 93.7845 515.67 93.7845 517.182C93.7845 518.189 93.8906 519.045 94.1027 519.75C94.3148 520.455 94.6198 520.991 95.0175 521.358C95.419 521.725 95.9019 521.909 96.4663 521.909Z" fill="#335269"/>
<line x1="159.157" y1="517.5" x2="118.908" y2="517.5" stroke="#335269"/>
<line x1="139.032" y1="471.5" x2="159.157" y2="471.5" stroke="#335269"/>
<line x1="139.032" y1="380.5" x2="159.157" y2="380.5" stroke="#335269"/>
<line x1="139.032" y1="289.5" x2="159.157" y2="289.5" stroke="#335269"/>
<line x1="139.032" y1="198.5" x2="159.157" y2="198.5" stroke="#335269"/>
<line x1="159.157" y1="153.5" x2="118.908" y2="153.5" stroke="#335269"/>
<line x1="159.157" y1="245.5" x2="118.908" y2="245.5" stroke="#335269"/>
<line x1="159.157" y1="335.5" x2="118.908" y2="335.5" stroke="#335269"/>
<line x1="159.157" y1="427.5" x2="118.908" y2="427.5" stroke="#335269"/>
<path d="M323.008 560.979V568H320.361V560.959C320.361 559.95 320.143 559.247 319.707 558.85C319.277 558.446 318.551 558.244 317.529 558.244H313.467V555.881H317.686C318.968 555.881 319.997 556.053 320.771 556.398C321.553 556.737 322.119 557.281 322.471 558.029C322.829 558.771 323.008 559.755 323.008 560.979ZM336.709 565.637V568H325.41V565.637H332.773V561.32C332.773 560.181 332.559 559.383 332.129 558.928C331.706 558.472 330.98 558.244 329.951 558.244H325.869V555.881H329.99C331.891 555.881 333.268 556.278 334.121 557.072C334.98 557.867 335.41 559.169 335.41 560.979V565.637H336.709ZM341.758 555.881V568H339.121V555.881H341.758ZM350.293 568.195C348.496 568.195 347.174 567.779 346.328 566.945C345.482 566.105 345.059 564.816 345.059 563.078V555.881H347.695V563.02C347.695 563.99 347.904 564.699 348.32 565.148C348.737 565.598 349.401 565.822 350.312 565.822C350.977 565.822 351.54 565.695 352.002 565.441C352.464 565.181 352.816 564.732 353.057 564.094C353.298 563.449 353.418 562.557 353.418 561.418C353.418 560.292 353.291 559.452 353.037 558.898C352.783 558.339 352.363 558.059 351.777 558.059C351.211 558.059 350.618 558.244 350 558.615V556.223C350.612 555.858 351.351 555.676 352.217 555.676C353.61 555.676 354.609 556.132 355.215 557.043C355.827 557.948 356.133 559.4 356.133 561.398C356.133 563.755 355.664 565.477 354.727 566.564C353.796 567.652 352.318 568.195 350.293 568.195ZM369.209 559.904C369.209 561.141 368.958 562.297 368.457 563.371C367.956 564.445 367.22 565.409 366.25 566.262C365.286 567.115 364.105 567.827 362.705 568.4V565.598C363.929 565.025 364.873 564.263 365.537 563.312C366.208 562.355 366.543 561.324 366.543 560.217C366.543 559.488 366.361 558.977 365.996 558.684C365.632 558.391 364.993 558.244 364.082 558.244H358.428V555.881H364.463C366.117 555.881 367.321 556.197 368.076 556.828C368.831 557.453 369.209 558.479 369.209 559.904ZM361.562 560.559V571.76H358.926V560.559H361.562ZM374.648 555.881V568H372.012V555.881H374.648ZM380.332 564.465L379.727 568H376.992L377.812 563.957C378.047 562.837 378.262 562.04 378.457 561.564C378.652 561.083 378.893 560.702 379.18 560.422C379.473 560.135 379.876 559.882 380.391 559.66L377.568 555.881H380.771L384.727 561.359C385.137 560.988 385.449 560.552 385.664 560.051C385.879 559.549 386.032 558.872 386.123 558.02L386.328 555.881H389.023L388.789 558.195C388.717 558.853 388.587 559.436 388.398 559.943C388.268 560.288 388.109 560.614 387.92 560.92C387.731 561.219 387.484 561.538 387.178 561.877C386.878 562.209 386.481 562.596 385.986 563.039L389.629 568H386.445L381.572 561.242C381.227 561.444 380.98 561.737 380.83 562.121C380.758 562.316 380.68 562.609 380.596 563C380.511 563.391 380.423 563.879 380.332 564.465Z" fill="#335269"/>
<rect x="322" y="388" width="26.0574" height="129" fill="#FF6B6B"/>
<rect x="356.743" y="310" width="25.1888" height="207" fill="#3CB371"/>
<path d="M449.574 560.979V568H446.928V560.959C446.928 559.95 446.71 559.247 446.273 558.85C445.844 558.446 445.118 558.244 444.096 558.244H440.033V555.881H444.252C445.535 555.881 446.563 556.053 447.338 556.398C448.119 556.737 448.686 557.281 449.037 558.029C449.395 558.771 449.574 559.755 449.574 560.979ZM463.275 565.637V568H451.977V565.637H459.34V561.32C459.34 560.181 459.125 559.383 458.695 558.928C458.272 558.472 457.546 558.244 456.518 558.244H452.436V555.881H456.557C458.458 555.881 459.835 556.278 460.688 557.072C461.547 557.867 461.977 559.169 461.977 560.979V565.637H463.275ZM472.152 555.822C473.812 555.822 475.02 556.311 475.775 557.287C476.531 558.257 476.908 559.774 476.908 561.838V568H470.609V565.637H474.252V562.043C474.252 560.669 474.086 559.686 473.754 559.094C473.428 558.495 472.852 558.195 472.025 558.195C471.264 558.195 470.622 558.576 470.102 559.338C469.581 560.119 469.096 561.421 468.646 563.244L467.465 568H464.652L465.971 562.941C466.133 562.329 466.29 561.783 466.439 561.301C466.596 560.819 466.745 560.406 466.889 560.061L464.467 556.018H467.387L468.305 557.736C468.695 557.137 469.229 556.669 469.906 556.33C470.59 555.992 471.339 555.822 472.152 555.822ZM490.619 565.637V568H479.32V565.637H486.684V561.32C486.684 560.181 486.469 559.383 486.039 558.928C485.616 558.472 484.89 558.244 483.861 558.244H479.779V555.881H483.9C485.801 555.881 487.178 556.278 488.031 557.072C488.891 557.867 489.32 559.169 489.32 560.979V565.637H490.619ZM495.668 555.881V568H493.031V555.881H495.668ZM504.389 560.656V568H498.07V565.637H501.752V561.164C501.752 560.285 501.693 559.657 501.576 559.279C501.459 558.908 501.264 558.645 500.99 558.488C500.717 558.326 500.316 558.244 499.789 558.244H498.627V555.881H500.287C501.407 555.881 502.243 556.031 502.797 556.33C503.35 556.63 503.754 557.121 504.008 557.805C504.262 558.488 504.389 559.439 504.389 560.656Z" fill="#335269"/>
<rect x="442" y="478" width="26.0574" height="39" fill="#FF6B6B"/>
<rect x="476.743" y="443" width="25.1888" height="74" fill="#3CB371"/>
<path d="M684.043 560.979V568H681.396V560.959C681.396 559.95 681.178 559.247 680.742 558.85C680.312 558.446 679.587 558.244 678.564 558.244H674.502V555.881H678.721C680.003 555.881 681.032 556.053 681.807 556.398C682.588 556.737 683.154 557.281 683.506 558.029C683.864 558.771 684.043 559.755 684.043 560.979ZM689.629 564.465L689.023 568H686.289L687.109 563.957C687.344 562.837 687.559 562.04 687.754 561.564C687.949 561.083 688.19 560.702 688.477 560.422C688.77 560.135 689.173 559.882 689.688 559.66L686.865 555.881H690.068L694.023 561.359C694.434 560.988 694.746 560.552 694.961 560.051C695.176 559.549 695.329 558.872 695.42 558.02L695.625 555.881H698.32L698.086 558.195C698.014 558.853 697.884 559.436 697.695 559.943C697.565 560.288 697.406 560.614 697.217 560.92C697.028 561.219 696.781 561.538 696.475 561.877C696.175 562.209 695.778 562.596 695.283 563.039L698.926 568H695.742L690.869 561.242C690.524 561.444 690.277 561.737 690.127 562.121C690.055 562.316 689.977 562.609 689.893 563C689.808 563.391 689.72 563.879 689.629 564.465ZM703.633 555.881V568H700.996V555.881H703.633ZM712.354 560.656V568H706.035V565.637H709.717V561.164C709.717 560.285 709.658 559.657 709.541 559.279C709.424 558.908 709.229 558.645 708.955 558.488C708.682 558.326 708.281 558.244 707.754 558.244H706.592V555.881H708.252C709.372 555.881 710.208 556.031 710.762 556.33C711.315 556.63 711.719 557.121 711.973 557.805C712.227 558.488 712.354 559.439 712.354 560.656ZM718.301 555.881V562.316H715.664V555.881H718.301Z" fill="#335269"/>
<rect x="667" y="341" width="26.0574" height="176" fill="#FF6B6B"/>
<rect x="702.496" y="310" width="25.1888" height="207" fill="#3CB371"/>
<path d="M787.328 560.979V568H784.682V560.959C784.682 559.95 784.464 559.247 784.027 558.85C783.598 558.446 782.872 558.244 781.85 558.244H777.787V555.881H782.006C783.288 555.881 784.317 556.053 785.092 556.398C785.873 556.737 786.439 557.281 786.791 558.029C787.149 558.771 787.328 559.755 787.328 560.979ZM792.914 564.465L792.309 568H789.574L790.395 563.957C790.629 562.837 790.844 562.04 791.039 561.564C791.234 561.083 791.475 560.702 791.762 560.422C792.055 560.135 792.458 559.882 792.973 559.66L790.15 555.881H793.354L797.309 561.359C797.719 560.988 798.031 560.552 798.246 560.051C798.461 559.549 798.614 558.872 798.705 558.02L798.91 555.881H801.605L801.371 558.195C801.299 558.853 801.169 559.436 800.98 559.943C800.85 560.288 800.691 560.614 800.502 560.92C800.313 561.219 800.066 561.538 799.76 561.877C799.46 562.209 799.063 562.596 798.568 563.039L802.211 568H799.027L794.154 561.242C793.809 561.444 793.562 561.737 793.412 562.121C793.34 562.316 793.262 562.609 793.178 563C793.093 563.391 793.005 563.879 792.914 564.465ZM806.918 555.881V568H804.281V555.881H806.918ZM818.539 560.979V568H815.893V560.959C815.893 559.95 815.674 559.247 815.238 558.85C814.809 558.446 814.083 558.244 813.061 558.244H808.998V555.881H813.217C814.499 555.881 815.528 556.053 816.303 556.398C817.084 556.737 817.65 557.281 818.002 558.029C818.36 558.771 818.539 559.755 818.539 560.979ZM832.24 565.637V568H820.941V565.637H828.305V561.32C828.305 560.181 828.09 559.383 827.66 558.928C827.237 558.472 826.511 558.244 825.482 558.244H821.4V555.881H825.521C827.423 555.881 828.799 556.278 829.652 557.072C830.512 557.867 830.941 559.169 830.941 560.979V565.637H832.24ZM842.23 561.34C842.23 560.298 841.993 559.523 841.518 559.016C841.042 558.501 840.294 558.244 839.271 558.244H837.016V560.861H839.389V563.225H834.35V555.881H839.291C841.205 555.881 842.618 556.327 843.529 557.219C844.441 558.111 844.896 559.497 844.896 561.379V562.18C844.896 566.06 842.901 568 838.91 568H834.457V565.637H838.852C839.978 565.637 840.821 565.347 841.381 564.768C841.947 564.188 842.23 563.319 842.23 562.16V561.34Z" fill="#335269"/>
<rect x="781" y="354" width="26.0574" height="163" fill="#FF6B6B"/>
<rect x="815.743" y="245" width="25.1888" height="272" fill="#3CB371"/>
<path d="M1117.18 565.744C1118.77 565.223 1120.05 564.566 1121.03 563.771C1121.71 563.231 1122.22 562.642 1122.58 562.004C1122.94 561.359 1123.12 560.686 1123.12 559.982C1123.12 558.824 1122.39 558.244 1120.94 558.244H1115.98V551.74H1118.68V555.881H1121.38C1124.31 555.881 1125.78 557.16 1125.78 559.719C1125.78 560.943 1125.49 562.089 1124.91 563.156C1124.33 564.217 1123.51 565.165 1122.45 565.998C1121.04 567.092 1119.28 567.951 1117.18 568.576V565.744ZM1131.08 555.881V562.316H1128.44V555.881H1131.08ZM1142.7 560.979V568H1140.05V560.959C1140.05 559.95 1139.83 559.247 1139.4 558.85C1138.97 558.446 1138.24 558.244 1137.22 558.244H1133.16V555.881H1137.38C1138.66 555.881 1139.69 556.053 1140.46 556.398C1141.24 556.737 1141.81 557.281 1142.16 558.029C1142.52 558.771 1142.7 559.755 1142.7 560.979ZM1153.58 561.34C1153.58 560.298 1153.34 559.523 1152.87 559.016C1152.39 558.501 1151.64 558.244 1150.62 558.244H1148.36V560.861H1150.74V563.225H1145.7V555.881H1150.64C1152.55 555.881 1153.97 556.327 1154.88 557.219C1155.79 558.111 1156.24 559.497 1156.24 561.379V562.18C1156.24 566.06 1154.25 568 1150.26 568H1145.8V565.637H1150.2C1151.33 565.637 1152.17 565.347 1152.73 564.768C1153.29 564.188 1153.58 563.319 1153.58 562.16V561.34ZM1161.33 564.465L1160.73 568H1157.99L1158.81 563.957C1159.05 562.837 1159.26 562.04 1159.46 561.564C1159.65 561.083 1159.89 560.702 1160.18 560.422C1160.47 560.135 1160.88 559.882 1161.39 559.66L1158.57 555.881H1161.77L1165.73 561.359C1166.14 560.988 1166.45 560.552 1166.66 560.051C1166.88 559.549 1167.03 558.872 1167.12 558.02L1167.33 555.881H1170.02L1169.79 558.195C1169.72 558.853 1169.59 559.436 1169.4 559.943C1169.27 560.288 1169.11 560.614 1168.92 560.92C1168.73 561.219 1168.48 561.538 1168.18 561.877C1167.88 562.209 1167.48 562.596 1166.99 563.039L1170.63 568H1167.45L1162.57 561.242C1162.23 561.444 1161.98 561.737 1161.83 562.121C1161.76 562.316 1161.68 562.609 1161.6 563C1161.51 563.391 1161.42 563.879 1161.33 564.465Z" fill="#335269"/>
<rect x="1113" y="274" width="26" height="243" fill="#FF6B6B"/>
<rect x="1147.74" y="395" width="25.1888" height="122" fill="#3CB371"/>
<path d="M194.273 560.979V568H191.627V560.959C191.627 559.95 191.409 559.247 190.973 558.85C190.543 558.446 189.817 558.244 188.795 558.244H184.732V555.881H188.951C190.234 555.881 191.262 556.053 192.037 556.398C192.818 556.737 193.385 557.281 193.736 558.029C194.094 558.771 194.273 559.755 194.273 560.979ZM207.975 565.637V568H196.676V565.637H204.039V561.32C204.039 560.181 203.824 559.383 203.395 558.928C202.971 558.472 202.245 558.244 201.217 558.244H197.135V555.881H201.256C203.157 555.881 204.534 556.278 205.387 557.072C206.246 557.867 206.676 559.169 206.676 560.979V565.637H207.975ZM216.852 555.822C218.512 555.822 219.719 556.311 220.475 557.287C221.23 558.257 221.607 559.774 221.607 561.838V568H215.309V565.637H218.951V562.043C218.951 560.669 218.785 559.686 218.453 559.094C218.128 558.495 217.551 558.195 216.725 558.195C215.963 558.195 215.322 558.576 214.801 559.338C214.28 560.119 213.795 561.421 213.346 563.244L212.164 568H209.352L210.67 562.941C210.833 562.329 210.989 561.783 211.139 561.301C211.295 560.819 211.445 560.406 211.588 560.061L209.166 556.018H212.086L213.004 557.736C213.395 557.137 213.928 556.669 214.605 556.33C215.289 555.992 216.038 555.822 216.852 555.822ZM230.055 568.195C228.258 568.195 226.936 567.779 226.09 566.945C225.243 566.105 224.82 564.816 224.82 563.078V555.881H227.457V563.02C227.457 563.99 227.665 564.699 228.082 565.148C228.499 565.598 229.163 565.822 230.074 565.822C230.738 565.822 231.301 565.695 231.764 565.441C232.226 565.181 232.577 564.732 232.818 564.094C233.059 563.449 233.18 562.557 233.18 561.418C233.18 560.292 233.053 559.452 232.799 558.898C232.545 558.339 232.125 558.059 231.539 558.059C230.973 558.059 230.38 558.244 229.762 558.615V556.223C230.374 555.858 231.113 555.676 231.979 555.676C233.372 555.676 234.371 556.132 234.977 557.043C235.589 557.948 235.895 559.4 235.895 561.398C235.895 563.755 235.426 565.477 234.488 566.564C233.557 567.652 232.079 568.195 230.055 568.195ZM246.266 561.34C246.266 560.298 246.028 559.523 245.553 559.016C245.077 558.501 244.329 558.244 243.307 558.244H241.051V560.861H243.424V563.225H238.385V555.881H243.326C245.24 555.881 246.653 556.327 247.564 557.219C248.476 558.111 248.932 559.497 248.932 561.379V562.18C248.932 566.06 246.936 568 242.945 568H238.492V565.637H242.887C244.013 565.637 244.856 565.347 245.416 564.768C245.982 564.188 246.266 563.319 246.266 562.16V561.34ZM251.139 561.877C251.139 561.447 251.181 561.001 251.266 560.539C251.357 560.07 251.48 559.634 251.637 559.23C251.793 558.82 251.975 558.492 252.184 558.244H250.338V555.881H257.115C259.075 555.881 260.494 556.294 261.373 557.121C262.258 557.948 262.701 559.279 262.701 561.115V561.896C262.701 563.973 262.2 565.542 261.197 566.604C260.195 567.665 258.717 568.195 256.764 568.195C254.85 568.195 253.434 567.697 252.516 566.701C251.598 565.699 251.139 564.191 251.139 562.18V561.877ZM254.479 558.244C254.081 558.934 253.883 560.093 253.883 561.721V562.16C253.883 563.384 254.127 564.305 254.615 564.924C255.104 565.536 255.839 565.842 256.822 565.842C257.916 565.842 258.707 565.526 259.195 564.895C259.69 564.263 259.938 563.238 259.938 561.818V561.096C259.938 560.08 259.7 559.351 259.225 558.908C258.756 558.465 257.988 558.244 256.92 558.244H254.479Z" fill="#335269"/>
<rect x="194" y="366" width="26.0574" height="151" fill="#FF6B6B"/>
<rect x="228.743" y="339" width="25.1888" height="178" fill="#3CB371"/>
<path d="M1243.6 555.881V562.316H1240.96V555.881H1243.6ZM1252.32 560.656V568H1246V565.637H1249.68V561.164C1249.68 560.285 1249.62 559.657 1249.51 559.279C1249.39 558.908 1249.19 558.645 1248.92 558.488C1248.65 558.326 1248.25 558.244 1247.72 558.244H1246.56V555.881H1248.22C1249.34 555.881 1250.17 556.031 1250.73 556.33C1251.28 556.63 1251.68 557.121 1251.94 557.805C1252.19 558.488 1252.32 559.439 1252.32 560.656ZM1258.27 555.881V568H1255.63V555.881H1258.27ZM1264.3 555.881V562.316H1261.66V555.881H1264.3Z" fill="#335269"/>
<rect x="1222" y="449" width="26.0574" height="68" fill="#FF6B6B"/>
<rect x="1256.74" y="374" width="25.1888" height="143" fill="#3CB371"/>
<rect x="556" y="374" width="26.0574" height="143" fill="#FF6B6B"/>
<rect x="590.743" y="395" width="25.1888" height="122" fill="#3CB371"/>
<path d="M565.227 560.979V568H562.58V560.959C562.58 559.95 562.362 559.247 561.926 558.85C561.496 558.446 560.77 558.244 559.748 558.244H555.686V555.881H559.904C561.187 555.881 562.215 556.053 562.99 556.398C563.771 556.737 564.338 557.281 564.689 558.029C565.048 558.771 565.227 559.755 565.227 560.979ZM578.928 565.637V568H567.629V565.637H574.992V561.32C574.992 560.181 574.777 559.383 574.348 558.928C573.924 558.472 573.199 558.244 572.17 558.244H568.088V555.881H572.209C574.11 555.881 575.487 556.278 576.34 557.072C577.199 557.867 577.629 559.169 577.629 560.979V565.637H578.928ZM587.805 555.822C589.465 555.822 590.673 556.311 591.428 557.287C592.183 558.257 592.561 559.774 592.561 561.838V568H586.262V565.637H589.904V562.043C589.904 560.669 589.738 559.686 589.406 559.094C589.081 558.495 588.505 558.195 587.678 558.195C586.916 558.195 586.275 558.576 585.754 559.338C585.233 560.119 584.748 561.421 584.299 563.244L583.117 568H580.305L581.623 562.941C581.786 562.329 581.942 561.783 582.092 561.301C582.248 560.819 582.398 560.406 582.541 560.061L580.119 556.018H583.039L583.957 557.736C584.348 557.137 584.882 556.669 585.559 556.33C586.242 555.992 586.991 555.822 587.805 555.822ZM605.295 566.301V568H595.051V565.637H601.613L594.27 555.881H597.434L601.135 560.9C601.564 560.692 601.874 560.38 602.062 559.963C602.258 559.546 602.395 558.938 602.473 558.137L602.688 555.881H605.393L605.188 558.156C605.103 559.055 604.96 559.758 604.758 560.266C604.556 560.76 604.266 561.18 603.889 561.525C603.511 561.87 602.993 562.176 602.336 562.443L605.295 566.301ZM615.959 558.244V568H613.322V558.244H606.76V555.881H617.463V558.244H615.959Z" fill="#335269"/>
<rect x="895" y="368" width="26.0574" height="149" fill="#FF6B6B"/>
<rect x="929.743" y="315" width="25.1888" height="202" fill="#3CB371"/>
<path d="M912.848 563.645L912.867 571.76H910.23V562.717C910.23 562.268 910.201 561.877 910.143 561.545C910.084 561.206 909.99 560.878 909.859 560.559C909.729 560.233 909.553 559.875 909.332 559.484C909.163 559.191 908.886 558.745 908.502 558.146C908.118 557.541 907.626 556.786 907.027 555.881H910.045L910.807 557.023C911.132 557.525 911.406 557.967 911.627 558.352C911.848 558.736 912.031 559.09 912.174 559.416C912.35 559.807 912.483 560.174 912.574 560.52C912.672 560.865 912.743 561.239 912.789 561.643C913.108 561.532 913.375 561.385 913.59 561.203C913.805 561.021 913.98 560.76 914.117 560.422C914.221 560.174 914.306 559.878 914.371 559.533C914.436 559.188 914.488 558.778 914.527 558.303L914.732 555.881H917.447L917.213 558.645C917.141 559.465 916.998 560.168 916.783 560.754C916.575 561.34 916.272 561.835 915.875 562.238C915.217 562.902 914.208 563.371 912.848 563.645ZM927.867 560.979V568H925.221V560.959C925.221 559.95 925.003 559.247 924.566 558.85C924.137 558.446 923.411 558.244 922.389 558.244H918.326V555.881H922.545C923.827 555.881 924.856 556.053 925.631 556.398C926.412 556.737 926.979 557.281 927.33 558.029C927.688 558.771 927.867 559.755 927.867 560.979ZM937.633 555.822C939.293 555.822 940.501 556.311 941.256 557.287C942.011 558.257 942.389 559.774 942.389 561.838V568H936.09V565.637H939.732V562.043C939.732 560.669 939.566 559.686 939.234 559.094C938.909 558.495 938.333 558.195 937.506 558.195C936.744 558.195 936.103 558.576 935.582 559.338C935.061 560.119 934.576 561.421 934.127 563.244L932.945 568H930.133L931.451 562.941C931.614 562.329 931.77 561.783 931.92 561.301C932.076 560.819 932.226 560.406 932.369 560.061L929.947 556.018H932.867L933.785 557.736C934.176 557.137 934.71 556.669 935.387 556.33C936.07 555.992 936.819 555.822 937.633 555.822Z" fill="#335269"/>
<rect x="1004" y="411" width="26.0574" height="106" fill="#FF6B6B"/>
<rect x="1038.74" y="374" width="25.1888" height="143" fill="#3CB371"/>
<path d="M1021.12 555.881V562.316H1018.48V555.881H1021.12ZM1026.8 564.465L1026.2 568H1023.46L1024.28 563.957C1024.52 562.837 1024.73 562.04 1024.93 561.564C1025.12 561.083 1025.36 560.702 1025.65 560.422C1025.94 560.135 1026.35 559.882 1026.86 559.66L1024.04 555.881H1027.24L1031.2 561.359C1031.61 560.988 1031.92 560.552 1032.13 560.051C1032.35 559.549 1032.5 558.872 1032.59 558.02L1032.8 555.881H1035.49L1035.26 558.195C1035.19 558.853 1035.06 559.436 1034.87 559.943C1034.74 560.288 1034.58 560.614 1034.39 560.92C1034.2 561.219 1033.95 561.538 1033.65 561.877C1033.35 562.209 1032.95 562.596 1032.46 563.039L1036.1 568H1032.91L1028.04 561.242C1027.7 561.444 1027.45 561.737 1027.3 562.121C1027.23 562.316 1027.15 562.609 1027.06 563C1026.98 563.391 1026.89 563.879 1026.8 564.465ZM1044.63 555.822C1046.29 555.822 1047.5 556.311 1048.26 557.287C1049.01 558.257 1049.39 559.774 1049.39 561.838V568H1043.09V565.637H1046.73V562.043C1046.73 560.669 1046.57 559.686 1046.23 559.094C1045.91 558.495 1045.33 558.195 1044.51 558.195C1043.74 558.195 1043.1 558.576 1042.58 559.338C1042.06 560.119 1041.58 561.421 1041.13 563.244L1039.95 568H1037.13L1038.45 562.941C1038.61 562.329 1038.77 561.783 1038.92 561.301C1039.08 560.819 1039.23 560.406 1039.37 560.061L1036.95 556.018H1039.87L1040.79 557.736C1041.18 557.137 1041.71 556.669 1042.39 556.33C1043.07 555.992 1043.82 555.822 1044.63 555.822Z" fill="#335269"/>
<line x1="159.15" y1="532" x2="159.15" y2="517" stroke="#335269"/>
<path d="M1391.02 237.411C1391.44 237.313 1392.28 237.191 1393.53 237.045C1394.78 236.889 1395.94 236.811 1397 236.811C1398.06 236.811 1398.94 236.874 1399.64 237.001C1400.34 237.118 1400.93 237.313 1401.41 237.587C1401.89 237.86 1402.28 238.173 1402.58 238.524C1402.89 238.876 1403.13 239.32 1403.3 239.857C1403.6 240.775 1403.75 241.991 1403.75 243.505V256H1398.7V243.49C1398.7 242.357 1398.55 241.581 1398.26 241.161C1397.97 240.731 1397.42 240.517 1396.63 240.517H1396.46V250.507C1396.46 252.177 1396.36 253.285 1396.15 253.832C1395.89 254.574 1395.56 255.082 1395.18 255.355C1394.6 255.785 1393.92 256.059 1393.16 256.176C1392.71 256.244 1392.26 256.278 1391.8 256.278C1390.97 256.278 1390.23 256.137 1389.59 255.854L1389.27 255.707V252.235C1389.92 252.401 1390.35 252.484 1390.55 252.484C1390.76 252.484 1390.92 252.436 1391.04 252.338C1391.17 252.23 1391.25 252.064 1391.3 251.84C1391.37 251.518 1391.4 251.073 1391.4 250.507V241.015L1390.04 241.278V237.631C1390.28 237.572 1390.6 237.499 1391.02 237.411ZM1411.38 256H1406.36V237.104H1411.38V256ZM1420.44 236.811C1421.2 236.811 1421.88 236.928 1422.49 237.162C1423.1 237.396 1423.61 237.655 1424.01 237.938C1424.41 238.222 1424.81 238.617 1425.21 239.125C1425.61 239.623 1425.96 240.199 1426.24 240.854C1426.87 242.338 1427.19 244.232 1427.19 246.537C1427.19 249.828 1426.53 252.299 1425.21 253.949C1424.81 254.457 1424.41 254.857 1424.01 255.15C1423.61 255.434 1423.18 255.668 1422.72 255.854C1421.97 256.146 1421.21 256.293 1420.44 256.293C1419.65 256.293 1418.86 256.137 1418.08 255.824C1417.62 255.648 1417.19 255.414 1416.79 255.121C1416.39 254.828 1415.99 254.428 1415.6 253.92C1415.21 253.412 1414.88 252.826 1414.61 252.162C1413.98 250.697 1413.67 248.822 1413.67 246.537C1413.67 245.561 1413.83 244.521 1414.15 243.417C1414.48 242.304 1414.88 241.43 1415.35 240.795L1413.86 240.897V237.294C1415.89 236.972 1418.08 236.811 1420.44 236.811ZM1418.72 246.537C1418.72 250.57 1419.29 252.587 1420.42 252.587C1421.57 252.587 1422.14 250.57 1422.14 246.537C1422.14 244.193 1421.97 242.582 1421.64 241.703C1421.34 240.912 1420.94 240.517 1420.44 240.517L1419.82 240.561C1419.39 241.176 1419.1 241.942 1418.94 242.86C1418.8 243.769 1418.72 244.994 1418.72 246.537ZM1429.46 237.147C1430.65 236.923 1431.62 236.811 1432.36 236.811C1433.1 236.811 1433.75 236.859 1434.29 236.957C1434.85 237.055 1435.33 237.187 1435.72 237.353C1436.11 237.519 1436.44 237.743 1436.71 238.026C1437 238.3 1437.21 238.583 1437.37 238.876C1437.54 239.169 1437.66 239.525 1437.75 239.945C1437.91 240.639 1437.99 241.518 1437.99 242.582V250.492C1437.99 251.381 1437.92 252.284 1437.78 253.202C1437.64 254.12 1437.51 254.818 1437.37 255.297L1437.17 256H1428.63V252.323H1432.74C1432.88 251.61 1432.95 250.624 1432.95 249.364V242.582C1432.95 242.035 1432.82 241.571 1432.57 241.19C1432.32 240.8 1431.91 240.604 1431.34 240.604C1430.95 240.604 1430.43 240.688 1429.78 240.854L1429.46 240.927V237.147ZM1439.8 237.265C1441.1 236.962 1442.39 236.811 1443.67 236.811C1444.96 236.811 1445.99 236.942 1446.76 237.206C1447.54 237.46 1448.17 237.802 1448.64 238.231C1449.1 238.661 1449.48 239.208 1449.76 239.872C1450.05 240.536 1450.24 241.225 1450.33 241.938C1450.44 242.65 1450.5 243.466 1450.5 244.384V248.266C1450.5 249.975 1450.22 251.469 1449.68 252.748C1449.36 253.451 1448.97 254.062 1448.49 254.579C1448.02 255.087 1447.41 255.497 1446.64 255.81C1445.88 256.122 1445.01 256.278 1444.04 256.278C1442.38 256.278 1440.96 256.107 1439.8 255.766V251.898C1440.95 252.24 1442.1 252.411 1443.27 252.411C1444.3 252.411 1444.93 251.859 1445.16 250.756C1445.3 250.16 1445.37 249.33 1445.37 248.266V244.384C1445.37 243.163 1445.19 242.24 1444.83 241.615C1444.47 240.99 1443.87 240.678 1443.04 240.678C1441.93 240.678 1440.97 240.766 1440.18 240.941L1439.8 241.015V237.265ZM1455.56 237.03C1456.8 236.884 1457.95 236.811 1458.99 236.811C1460.04 236.811 1460.91 236.874 1461.6 237.001C1462.3 237.118 1462.89 237.313 1463.37 237.587C1463.85 237.86 1464.24 238.173 1464.54 238.524C1464.86 238.876 1465.1 239.32 1465.26 239.857C1465.56 240.775 1465.72 241.991 1465.72 243.505V256H1460.66V243.49C1460.66 242.367 1460.47 241.591 1460.09 241.161C1459.71 240.731 1459.04 240.517 1458.08 240.517C1457.42 240.517 1456.64 240.57 1455.75 240.678C1454.88 240.775 1454.16 240.878 1453.6 240.985L1452.77 241.146V237.484C1453.4 237.318 1454.33 237.167 1455.56 237.03ZM1457.81 256H1452.77V243.725H1457.81V256ZM1474.62 237.323C1476.1 236.981 1477.43 236.811 1478.62 236.811C1479.81 236.811 1480.8 236.972 1481.58 237.294C1482.36 237.606 1482.99 238.021 1483.46 238.539C1483.92 239.057 1484.3 239.696 1484.58 240.458C1484.87 241.21 1485.06 241.967 1485.15 242.729C1485.26 243.49 1485.32 244.335 1485.32 245.263V263.002H1480.29V245.263C1480.29 243.085 1479.86 241.698 1479 241.103C1478.64 240.858 1478.2 240.736 1477.67 240.736C1476.66 240.736 1475.77 240.824 1474.99 241L1474.62 241.073V237.323ZM1494.29 236.811C1495.06 236.811 1495.74 236.928 1496.35 237.162C1496.96 237.396 1497.47 237.655 1497.87 237.938C1498.27 238.222 1498.67 238.617 1499.07 239.125C1499.47 239.623 1499.81 240.199 1500.1 240.854C1500.73 242.338 1501.05 244.232 1501.05 246.537C1501.05 249.828 1500.39 252.299 1499.07 253.949C1498.67 254.457 1498.27 254.857 1497.87 255.15C1497.47 255.434 1497.04 255.668 1496.58 255.854C1495.83 256.146 1495.07 256.293 1494.29 256.293C1493.5 256.293 1492.72 256.137 1491.94 255.824C1491.48 255.648 1491.05 255.414 1490.65 255.121C1490.25 254.828 1489.85 254.428 1489.46 253.92C1489.07 253.412 1488.74 252.826 1488.46 252.162C1487.84 250.697 1487.53 248.822 1487.53 246.537C1487.53 245.561 1487.69 244.521 1488.01 243.417C1488.33 242.304 1488.73 241.43 1489.21 240.795L1487.72 240.897V237.294C1489.75 236.972 1491.94 236.811 1494.29 236.811ZM1492.58 246.537C1492.58 250.57 1493.15 252.587 1494.28 252.587C1495.42 252.587 1495.99 250.57 1495.99 246.537C1495.99 244.193 1495.83 242.582 1495.5 241.703C1495.19 240.912 1494.79 240.517 1494.29 240.517L1493.68 240.561C1493.25 241.176 1492.96 241.942 1492.8 242.86C1492.65 243.769 1492.58 244.994 1492.58 246.537Z" fill="#335269"/>
<rect x="1534" y="225" width="114" height="40" rx="5" fill="#3CB371"/>
<path d="M1572.52 249.443V240.068H1574.11V249.443H1572.52ZM1568.63 245.551V243.96H1578V245.551H1568.63ZM1580.73 252V250.722L1585.53 245.466C1586.09 244.85 1586.56 244.315 1586.92 243.861C1587.29 243.402 1587.56 242.971 1587.73 242.568C1587.91 242.161 1588 241.735 1588 241.29C1588 240.778 1587.88 240.336 1587.63 239.962C1587.39 239.588 1587.06 239.299 1586.64 239.095C1586.22 238.892 1585.74 238.79 1585.22 238.79C1584.66 238.79 1584.17 238.906 1583.75 239.138C1583.34 239.365 1583.02 239.685 1582.8 240.097C1582.57 240.509 1582.46 240.991 1582.46 241.545H1580.79C1580.79 240.693 1580.98 239.945 1581.37 239.301C1581.77 238.657 1582.3 238.155 1582.98 237.795C1583.66 237.436 1584.43 237.256 1585.27 237.256C1586.13 237.256 1586.88 237.436 1587.54 237.795C1588.2 238.155 1588.71 238.641 1589.09 239.251C1589.46 239.862 1589.65 240.542 1589.65 241.29C1589.65 241.825 1589.55 242.348 1589.36 242.859C1589.17 243.366 1588.84 243.932 1588.36 244.557C1587.89 245.177 1587.24 245.935 1586.41 246.83L1583.14 250.324V250.438H1589.9V252H1580.73ZM1597.38 252.199C1596.55 252.199 1595.8 252.033 1595.13 251.702C1594.46 251.37 1593.93 250.916 1593.53 250.338C1593.12 249.76 1592.9 249.102 1592.87 248.364H1594.57C1594.64 249.022 1594.94 249.566 1595.47 249.997C1596 250.423 1596.64 250.636 1597.38 250.636C1597.98 250.636 1598.51 250.497 1598.97 250.217C1599.44 249.938 1599.81 249.554 1600.07 249.067C1600.34 248.574 1600.48 248.018 1600.48 247.398C1600.48 246.763 1600.34 246.197 1600.06 245.7C1599.79 245.198 1599.41 244.803 1598.92 244.514C1598.44 244.225 1597.89 244.079 1597.27 244.074C1596.82 244.069 1596.37 244.138 1595.9 244.28C1595.43 244.417 1595.04 244.595 1594.74 244.812L1593.09 244.614L1593.97 237.455H1601.53V239.017H1595.45L1594.94 243.307H1595.03C1595.32 243.07 1595.7 242.874 1596.15 242.717C1596.6 242.561 1597.07 242.483 1597.55 242.483C1598.44 242.483 1599.24 242.696 1599.93 243.122C1600.63 243.544 1601.18 244.121 1601.58 244.855C1601.98 245.589 1602.18 246.427 1602.18 247.369C1602.18 248.297 1601.98 249.126 1601.56 249.855C1601.15 250.58 1600.58 251.152 1599.85 251.574C1599.13 251.991 1598.31 252.199 1597.38 252.199ZM1609.75 252.199C1608.68 252.199 1607.77 251.908 1607.02 251.325C1606.26 250.738 1605.69 249.888 1605.29 248.776C1604.89 247.658 1604.69 246.309 1604.69 244.727C1604.69 243.155 1604.89 241.813 1605.29 240.7C1605.69 239.583 1606.27 238.731 1607.02 238.143C1607.78 237.552 1608.69 237.256 1609.75 237.256C1610.81 237.256 1611.72 237.552 1612.47 238.143C1613.23 238.731 1613.81 239.583 1614.2 240.7C1614.61 241.813 1614.81 243.155 1614.81 244.727C1614.81 246.309 1614.61 247.658 1614.21 248.776C1613.81 249.888 1613.24 250.738 1612.48 251.325C1611.73 251.908 1610.82 252.199 1609.75 252.199ZM1609.75 250.636C1610.81 250.636 1611.63 250.125 1612.22 249.102C1612.81 248.08 1613.1 246.621 1613.1 244.727C1613.1 243.468 1612.97 242.395 1612.7 241.51C1612.43 240.625 1612.05 239.95 1611.55 239.486C1611.05 239.022 1610.45 238.79 1609.75 238.79C1608.7 238.79 1607.88 239.308 1607.29 240.345C1606.69 241.377 1606.4 242.838 1606.4 244.727C1606.4 245.987 1606.53 247.057 1606.8 247.938C1607.06 248.818 1607.44 249.488 1607.94 249.947C1608.44 250.407 1609.04 250.636 1609.75 250.636Z" fill="white"/>
<path d="M1390.46 419.411C1390.88 419.313 1391.72 419.191 1392.97 419.045C1394.22 418.889 1395.38 418.811 1396.44 418.811C1397.5 418.811 1398.38 418.874 1399.08 419.001C1399.78 419.118 1400.37 419.313 1400.85 419.587C1401.33 419.86 1401.72 420.173 1402.02 420.524C1402.33 420.876 1402.57 421.32 1402.74 421.857C1403.04 422.775 1403.19 423.991 1403.19 425.505V438H1398.14V425.49C1398.14 424.357 1397.99 423.581 1397.7 423.161C1397.41 422.731 1396.86 422.517 1396.07 422.517H1395.9V432.507C1395.9 434.177 1395.79 435.285 1395.59 435.832C1395.33 436.574 1395 437.082 1394.62 437.355C1394.04 437.785 1393.36 438.059 1392.6 438.176C1392.15 438.244 1391.7 438.278 1391.24 438.278C1390.41 438.278 1389.67 438.137 1389.03 437.854L1388.71 437.707V434.235C1389.36 434.401 1389.79 434.484 1389.99 434.484C1390.2 434.484 1390.36 434.436 1390.48 434.338C1390.6 434.23 1390.69 434.064 1390.74 433.84C1390.81 433.518 1390.84 433.073 1390.84 432.507V423.015L1389.48 423.278V419.631C1389.72 419.572 1390.04 419.499 1390.46 419.411ZM1410.82 438H1405.8V419.104H1410.82V438ZM1427.1 419.104V426.091C1427.1 427.604 1426.83 428.762 1426.29 429.562C1426.07 429.895 1425.75 430.227 1425.34 430.559C1424.94 430.891 1424.46 431.174 1423.89 431.408L1426.95 438H1421.44L1418.32 430.002C1418.31 430.119 1418.31 430.393 1418.31 430.822V438H1413.29V431.159C1413.29 430.505 1413.36 429.885 1413.52 429.299C1413.69 428.713 1414 428.117 1414.47 427.512C1414.95 426.896 1415.57 426.389 1416.33 425.988C1415.96 425.217 1415.38 424.045 1414.59 422.473C1413.8 420.891 1413.24 419.768 1412.9 419.104H1418.41L1421.22 425.827L1421.97 427.702C1422.04 427.419 1422.07 426.945 1422.07 426.281V419.104H1427.1ZM1441.53 438H1428.46V434.323H1434.01L1435.83 434.528C1435.56 434.108 1435.16 433.527 1434.64 432.785C1434.13 432.043 1433.8 431.545 1433.63 431.291L1428.18 419.104H1433.4L1436.36 426.56C1436.77 425.612 1437.01 424.66 1437.07 423.703L1437.44 419.118H1442.42L1442.1 422.839C1442.02 423.864 1441.75 425.051 1441.29 426.398C1441.03 427.15 1440.65 427.917 1440.15 428.698C1439.66 429.479 1439.09 430.178 1438.42 430.793L1441.53 435.422V438ZM1449.09 438H1444.06V419.104H1449.09V438ZM1454.56 419.03C1455.8 418.884 1456.95 418.811 1457.99 418.811C1459.04 418.811 1459.91 418.874 1460.6 419.001C1461.3 419.118 1461.89 419.313 1462.37 419.587C1462.85 419.86 1463.24 420.173 1463.54 420.524C1463.86 420.876 1464.1 421.32 1464.26 421.857C1464.56 422.775 1464.72 423.991 1464.72 425.505V438H1459.66V425.49C1459.66 424.367 1459.47 423.591 1459.09 423.161C1458.71 422.731 1458.04 422.517 1457.08 422.517C1456.42 422.517 1455.64 422.57 1454.75 422.678C1453.88 422.775 1453.16 422.878 1452.6 422.985L1451.77 423.146V419.484C1452.4 419.318 1453.33 419.167 1454.56 419.03ZM1456.81 438H1451.77V425.725H1456.81V438ZM1473.62 419.323C1475.1 418.981 1476.43 418.811 1477.62 418.811C1478.81 418.811 1479.8 418.972 1480.58 419.294C1481.36 419.606 1481.99 420.021 1482.46 420.539C1482.92 421.057 1483.3 421.696 1483.58 422.458C1483.87 423.21 1484.06 423.967 1484.15 424.729C1484.26 425.49 1484.32 426.335 1484.32 427.263V445.002H1479.29V427.263C1479.29 425.085 1478.86 423.698 1478 423.103C1477.64 422.858 1477.2 422.736 1476.67 422.736C1475.66 422.736 1474.77 422.824 1473.99 423L1473.62 423.073V419.323ZM1493.29 418.811C1494.06 418.811 1494.74 418.928 1495.35 419.162C1495.96 419.396 1496.47 419.655 1496.87 419.938C1497.27 420.222 1497.67 420.617 1498.07 421.125C1498.47 421.623 1498.81 422.199 1499.1 422.854C1499.73 424.338 1500.05 426.232 1500.05 428.537C1500.05 431.828 1499.39 434.299 1498.07 435.949C1497.67 436.457 1497.27 436.857 1496.87 437.15C1496.47 437.434 1496.04 437.668 1495.58 437.854C1494.83 438.146 1494.07 438.293 1493.29 438.293C1492.5 438.293 1491.72 438.137 1490.94 437.824C1490.48 437.648 1490.05 437.414 1489.65 437.121C1489.25 436.828 1488.85 436.428 1488.46 435.92C1488.07 435.412 1487.74 434.826 1487.46 434.162C1486.84 432.697 1486.53 430.822 1486.53 428.537C1486.53 427.561 1486.69 426.521 1487.01 425.417C1487.33 424.304 1487.73 423.43 1488.21 422.795L1486.72 422.897V419.294C1488.75 418.972 1490.94 418.811 1493.29 418.811ZM1491.58 428.537C1491.58 432.57 1492.15 434.587 1493.28 434.587C1494.42 434.587 1494.99 432.57 1494.99 428.537C1494.99 426.193 1494.83 424.582 1494.5 423.703C1494.19 422.912 1493.79 422.517 1493.29 422.517L1492.68 422.561C1492.25 423.176 1491.96 423.942 1491.8 424.86C1491.65 425.769 1491.58 426.994 1491.58 428.537Z" fill="#335269"/>
<rect x="1533" y="406" width="114" height="40" rx="5" fill="#FF6B6B"/>
<path d="M1576.62 424.946V426.509H1570.26V424.946H1576.62ZM1584.65 418.455V433H1582.89V420.301H1582.81L1579.26 422.659V420.869L1582.89 418.455H1584.65ZM1593.38 433.199C1592.55 433.199 1591.8 433.033 1591.13 432.702C1590.46 432.37 1589.93 431.916 1589.53 431.338C1589.12 430.76 1588.9 430.102 1588.87 429.364H1590.57C1590.64 430.022 1590.94 430.566 1591.47 430.997C1592 431.423 1592.64 431.636 1593.38 431.636C1593.98 431.636 1594.51 431.497 1594.97 431.217C1595.44 430.938 1595.81 430.554 1596.07 430.067C1596.34 429.574 1596.48 429.018 1596.48 428.398C1596.48 427.763 1596.34 427.197 1596.06 426.7C1595.79 426.198 1595.41 425.803 1594.92 425.514C1594.44 425.225 1593.89 425.079 1593.27 425.074C1592.82 425.069 1592.37 425.138 1591.9 425.28C1591.43 425.417 1591.04 425.595 1590.74 425.812L1589.09 425.614L1589.97 418.455H1597.53V420.017H1591.45L1590.94 424.307H1591.03C1591.32 424.07 1591.7 423.874 1592.15 423.717C1592.6 423.561 1593.07 423.483 1593.55 423.483C1594.44 423.483 1595.24 423.696 1595.93 424.122C1596.63 424.544 1597.18 425.121 1597.58 425.855C1597.98 426.589 1598.18 427.427 1598.18 428.369C1598.18 429.297 1597.98 430.126 1597.56 430.855C1597.15 431.58 1596.58 432.152 1595.85 432.574C1595.13 432.991 1594.31 433.199 1593.38 433.199ZM1605.75 433.199C1604.68 433.199 1603.77 432.908 1603.02 432.325C1602.26 431.738 1601.69 430.888 1601.29 429.776C1600.89 428.658 1600.69 427.309 1600.69 425.727C1600.69 424.155 1600.89 422.813 1601.29 421.7C1601.69 420.583 1602.27 419.731 1603.02 419.143C1603.78 418.552 1604.69 418.256 1605.75 418.256C1606.81 418.256 1607.72 418.552 1608.47 419.143C1609.23 419.731 1609.81 420.583 1610.2 421.7C1610.61 422.813 1610.81 424.155 1610.81 425.727C1610.81 427.309 1610.61 428.658 1610.21 429.776C1609.81 430.888 1609.24 431.738 1608.48 432.325C1607.73 432.908 1606.82 433.199 1605.75 433.199ZM1605.75 431.636C1606.81 431.636 1607.63 431.125 1608.22 430.102C1608.81 429.08 1609.1 427.621 1609.1 425.727C1609.1 424.468 1608.97 423.395 1608.7 422.51C1608.43 421.625 1608.05 420.95 1607.55 420.486C1607.05 420.022 1606.45 419.79 1605.75 419.79C1604.7 419.79 1603.88 420.308 1603.29 421.345C1602.69 422.377 1602.4 423.838 1602.4 425.727C1602.4 426.987 1602.53 428.057 1602.8 428.938C1603.06 429.818 1603.44 430.488 1603.94 430.947C1604.44 431.407 1605.04 431.636 1605.75 431.636Z" fill="white"/>
<defs>
<filter id="filter0_d_228_5472" x="0" y="0" width="1768" height="638" filterUnits="userSpaceOnUse" color-interpolation-filters="sRGB">
<feFlood flood-opacity="0" result="BackgroundImageFix"/>
<feColorMatrix in="SourceAlpha" type="matrix" values="0 0 0 0 0 0 0 0 0 0 0 0 0 0 0 0 0 0 127 0" result="hardAlpha"/>
<feOffset dy="5"/>
<feGaussianBlur stdDeviation="12"/>
<feComposite in2="hardAlpha" operator="out"/>
<feColorMatrix type="matrix" values="0 0 0 0 0.172986 0 0 0 0 0.380504 0 0 0 0 0.783333 0 0 0 0.15 0"/>
<feBlend mode="normal" in2="BackgroundImageFix" result="effect1_dropShadow_228_5472"/>
<feBlend mode="normal" in="SourceGraphic" in2="effect1_dropShadow_228_5472" result="shape"/>
</filter>
</defs>
</svg>
