<svg width="145" height="145" viewBox="0 0 145 145" fill="none" xmlns="http://www.w3.org/2000/svg">
<path d="M0 131.913H13.0837L0 145V131.913Z" fill="black"/>
<path d="M131.913 -9.91821e-05H144.998V0.00167656L131.913 13.0854V-9.91821e-05Z" fill="black"/>
<path d="M145 60.1981L60.1979 145H0L30.0945 114.902L114.9 30.0947L145 0.000213623V60.1981Z" fill="#335269"/>
<path d="M40.0894 118.893C40.9749 117.77 41.8407 116.786 42.6867 115.94C43.5327 115.094 44.2878 114.442 44.9519 113.983C45.6161 113.509 46.2526 113.189 46.8614 113.023C47.4702 112.857 48.0394 112.793 48.5692 112.833C49.1068 112.864 49.6603 113.03 50.2295 113.331C51.2179 113.829 52.3248 114.691 53.5503 115.916L63.6667 126.033L59.5751 130.124L49.4468 119.996C48.5375 119.087 47.7548 118.612 47.0986 118.573C46.4423 118.533 45.7268 118.901 44.9519 119.676C44.4143 120.214 43.8292 120.886 43.1967 121.692C42.5642 122.483 42.0661 123.147 41.7023 123.684L41.1568 124.491L38.1918 121.526C38.5714 120.878 39.2039 120 40.0894 118.893ZM57.2624 132.437L53.1826 136.517L43.2441 126.578L47.3239 122.499L57.2624 132.437ZM76.7077 112.992L61.6102 97.8942C61.966 97.3486 62.5788 96.5461 63.4485 95.4866C64.3103 94.4193 65.1958 93.4309 66.1051 92.5217C67.0222 91.6045 67.8129 90.9167 68.477 90.4581C69.1412 89.9837 69.7777 89.6635 70.3865 89.4974C70.9953 89.3314 71.5645 89.2682 72.0943 89.3077C72.6319 89.3393 73.1854 89.5053 73.7546 89.8058C74.743 90.3039 75.8499 91.1657 77.0754 92.3912L87.1918 102.508L83.1002 106.599L72.9719 96.471C72.0547 95.5538 71.3076 95.0439 70.7304 94.9411C70.1453 94.8304 69.5365 95.0913 68.904 95.7238C68.8407 95.7871 68.6431 96.0243 68.311 96.4354L80.7875 108.912L76.7077 112.992ZM84.9574 74.2149C85.7402 73.0685 86.432 72.1948 87.0329 71.5939C87.6338 70.993 88.1951 70.5107 88.717 70.147C89.2467 69.7754 89.7369 69.4987 90.1876 69.3168C90.6383 69.135 91.0889 69.048 91.5396 69.0559C91.9903 69.048 92.3975 69.0994 92.7612 69.2101C93.1328 69.3129 93.5241 69.4987 93.9353 69.7675C94.6231 70.2023 95.398 70.8507 96.2598 71.7125L102.664 78.1168C103.384 78.8363 104.06 79.623 104.692 80.4769C105.325 81.3308 105.779 82.0068 106.056 82.5049L106.459 83.2402L99.545 90.1545L96.5682 87.1777L99.9008 83.8451C99.4343 83.1572 98.6911 82.3033 97.6711 81.2833L92.18 75.7923C91.7373 75.3495 91.2589 75.0767 90.745 74.9739C90.2311 74.8553 89.7409 75.0293 89.2744 75.4958C88.9581 75.812 88.6063 76.2983 88.2189 76.9545L88.0172 77.2747L84.9574 74.2149ZM106.988 51.9944C107.874 50.8717 108.739 49.8873 109.585 49.0413C110.431 48.1953 111.187 47.543 111.851 47.0844C112.515 46.61 113.151 46.2898 113.76 46.1238C114.369 45.9578 114.938 45.8945 115.468 45.934C116.006 45.9657 116.559 46.1317 117.128 46.4321C118.117 46.9303 119.224 47.7921 120.449 49.0176L130.565 59.134L126.474 63.2256L116.346 53.0973C115.436 52.1881 114.654 51.7137 113.997 51.6742C113.341 51.6346 112.626 52.0023 111.851 52.7771C111.313 53.3148 110.728 53.9868 110.095 54.7933C109.463 55.584 108.965 56.2481 108.601 56.7857L108.056 57.5922L105.091 54.6273C105.47 53.9789 106.103 53.1013 106.988 51.9944ZM124.161 65.5383L120.081 69.618L110.143 59.6795L114.223 55.5998L124.161 65.5383Z" fill="white"/>
</svg>
