<svg width="397" height="330" viewBox="0 0 397 330" fill="none" xmlns="http://www.w3.org/2000/svg">
<g filter="url(#filter0_d_44_16348)">
<rect x="73" y="20" width="228" height="51" rx="5" fill="#E96D5A"/>
<path d="M136.052 53V40.4023H139.372V53H136.052ZM141.149 48.9375V40.4023H144.46V45.8027L142.526 48.9375H141.149ZM146.647 53L145.651 40.4023H148.981L149.499 46.5938C149.727 46.6003 149.903 46.5645 150.026 46.4863C150.15 46.4017 150.241 46.2812 150.3 46.125C150.358 45.9753 150.394 45.793 150.407 45.5781C150.427 45.3568 150.45 45.0996 150.476 44.8066L150.808 40.4023H154.118L153.708 46.0469C153.682 46.3919 153.62 46.6882 153.522 46.9355C153.425 47.1829 153.275 47.4271 153.073 47.668C152.741 48.0456 152.341 48.3418 151.872 48.5566C151.403 48.7715 150.795 48.8789 150.046 48.8789C149.981 48.8789 149.919 48.8789 149.86 48.8789C149.802 48.8724 149.74 48.8691 149.675 48.8691L149.792 50.3633H151.267C151.879 50.3633 152.422 50.2526 152.897 50.0312C153.373 49.8099 153.773 49.4876 154.099 49.0645C154.613 48.3939 154.919 47.4303 155.017 46.1738L155.446 40.4023H158.786L158.347 46.1543C158.275 47.1309 158.103 48.0586 157.829 48.9375C157.556 49.8099 157.159 50.5 156.638 51.0078C156.514 51.1315 156.296 51.3171 155.983 51.5645C155.677 51.8053 155.355 52.0169 155.017 52.1992C154.522 52.4596 153.946 52.6582 153.288 52.7949C152.637 52.9316 151.963 53 151.267 53H146.647ZM162.419 53.1953C161.748 53.1953 161.169 53.166 160.681 53.1074C160.199 53.0553 159.779 52.974 159.421 52.8633V50.0508C159.694 50.1159 159.971 50.1745 160.251 50.2266C160.537 50.2721 160.824 50.3079 161.11 50.334C161.403 50.36 161.696 50.373 161.989 50.373C162.224 50.373 162.425 50.334 162.595 50.2559C162.764 50.1777 162.884 50.0703 162.956 49.9336C163.015 49.8294 163.06 49.7122 163.093 49.582C163.132 49.4518 163.161 49.3118 163.181 49.1621C163.2 48.9798 163.213 48.7878 163.22 48.5859C163.226 48.3776 163.229 48.166 163.229 47.9512V45.7246C163.229 45.2624 163.2 44.8555 163.142 44.5039C163.083 44.1458 162.998 43.8529 162.888 43.625C162.797 43.4297 162.657 43.2799 162.468 43.1758C162.279 43.0716 162.041 43.0195 161.755 43.0195C161.455 43.0195 161.188 43.0293 160.954 43.0488C160.72 43.0618 160.42 43.0879 160.056 43.127C159.965 43.1335 159.867 43.1465 159.763 43.166C159.659 43.1855 159.551 43.2018 159.44 43.2148V40.4219C159.538 40.4089 159.636 40.3958 159.733 40.3828C159.831 40.3633 159.929 40.3503 160.026 40.3438C160.371 40.2982 160.713 40.2656 161.052 40.2461C161.397 40.2201 161.745 40.207 162.097 40.207C162.715 40.207 163.246 40.2721 163.688 40.4023C164.138 40.526 164.519 40.6921 164.831 40.9004C165.196 41.1283 165.492 41.4115 165.72 41.75C165.954 42.082 166.143 42.4629 166.286 42.8926C166.377 43.1595 166.446 43.4427 166.491 43.7422C166.543 44.0417 166.576 44.3574 166.589 44.6895C166.608 45.0215 166.618 45.3665 166.618 45.7246V47.9512C166.618 48.4785 166.573 48.9798 166.481 49.4551C166.39 49.9303 166.254 50.3763 166.071 50.793C165.869 51.2617 165.609 51.6686 165.29 52.0137C164.978 52.3522 164.561 52.6387 164.04 52.873C163.793 52.9837 163.519 53.0651 163.22 53.1172C162.92 53.1693 162.653 53.1953 162.419 53.1953ZM167.722 53.6348V50.9492L168.845 50.7051C168.949 50.679 169.053 50.6562 169.157 50.6367C169.261 50.6172 169.366 50.5944 169.47 50.5684L167.565 40.4023H170.866L171.823 46.0762L172.038 49.1426C172.233 48.8496 172.403 48.5632 172.546 48.2832C172.689 47.9967 172.803 47.7233 172.888 47.4629C172.972 47.2025 173.024 46.9583 173.044 46.7305L173.542 40.4219H176.862L176.423 46.1152C176.416 46.2454 176.384 46.4961 176.325 46.8672C176.273 47.2383 176.182 47.668 176.052 48.1562C175.928 48.6445 175.749 49.1296 175.515 49.6113C175.091 50.4967 174.493 51.2227 173.718 51.7891C172.943 52.3555 171.905 52.7721 170.603 53.0391C170.127 53.1367 169.649 53.2344 169.167 53.332C168.685 53.4362 168.203 53.5371 167.722 53.6348ZM181.853 53V40.4023H185.173V53H181.853ZM186.384 53V50.3535H189.245C189.297 50.1712 189.333 49.901 189.353 49.543C189.372 49.1784 189.382 48.7227 189.382 48.1758V44.3379C189.382 44.123 189.349 43.8919 189.284 43.6445C189.226 43.3906 189.125 43.2148 188.981 43.1172C188.89 43.0521 188.77 43.0098 188.62 42.9902C188.47 42.9642 188.34 42.9512 188.229 42.9512C188.099 42.9512 187.927 42.9674 187.712 43C187.504 43.0326 187.263 43.0846 186.989 43.1562V40.4316C187.438 40.3405 187.8 40.2819 188.073 40.2559C188.347 40.2233 188.61 40.207 188.864 40.207C189.287 40.207 189.704 40.2396 190.114 40.3047C190.531 40.3633 190.86 40.4382 191.101 40.5293C191.485 40.6725 191.807 40.9232 192.067 41.2812C192.328 41.6328 192.5 42.056 192.585 42.5508C192.618 42.7266 192.644 42.9707 192.663 43.2832C192.683 43.5892 192.692 43.9408 192.692 44.3379V49.2891C192.692 49.7383 192.67 50.1777 192.624 50.6074C192.585 51.0306 192.533 51.418 192.468 51.7695C192.409 52.1146 192.347 52.3913 192.282 52.5996L192.155 53H186.384ZM198.503 53C198.477 52.9479 198.444 52.86 198.405 52.7363C198.373 52.6126 198.356 52.4076 198.356 52.1211C198.356 51.9323 198.369 51.7044 198.396 51.4375C198.422 51.1706 198.467 50.8581 198.532 50.5C198.571 50.3177 198.61 50.1224 198.649 49.9141C198.695 49.6992 198.747 49.4681 198.806 49.2207C198.864 48.9733 198.929 48.7129 199.001 48.4395L200.378 43.0488H194.372V40.4023H203.991V42.3652L202.644 47.7852C202.565 48.1172 202.491 48.4264 202.419 48.7129C202.347 48.9928 202.282 49.2533 202.224 49.4941C202.165 49.735 202.113 49.9661 202.067 50.1875C202.022 50.4089 201.983 50.6204 201.95 50.8223C201.918 51.0176 201.888 51.2129 201.862 51.4082C201.843 51.597 201.826 51.7891 201.813 51.9844C201.807 52.1797 201.804 52.3815 201.804 52.5898V53H198.503ZM194.372 57.8242V45.4023H197.683V57.8242H194.372Z" fill="white"/>
<path d="M221.427 38.625H235.24L236.42 36.5096C236.553 36.2721 236.803 36.125 237.075 36.125H238.575C238.989 36.125 239.325 36.4608 239.325 36.875C239.325 37.2892 238.989 37.625 238.575 37.625H237.516L236.351 39.7126L233.665 45.6559L233.662 45.6619L233.425 46.1854L236.122 49.062C236.316 49.2689 236.377 49.5674 236.279 49.8335C236.181 50.0997 235.942 50.288 235.66 50.3202L233.202 50.6011C230.127 50.9525 227.023 50.9525 223.948 50.6011L221.49 50.3202C221.078 50.2731 220.783 49.9014 220.83 49.4898C220.877 49.0783 221.249 48.7828 221.66 48.8299L224.118 49.1108C227.08 49.4492 230.07 49.4492 233.032 49.1108L234.007 48.9993L232.028 46.888C232.009 46.8675 231.991 46.8463 231.975 46.8244L231.222 46.9224C230.167 47.0597 229.101 47.0866 228.04 47.0027C225.567 46.8071 223.274 45.6301 221.674 43.7341L221.096 43.0492C221.076 43.0262 221.058 43.0021 221.042 42.9769L219.964 41.3351C219.201 40.1713 220.035 38.625 221.427 38.625Z" fill="white"/>
<path d="M234.075 51.875C234.904 51.875 235.575 52.5466 235.575 53.375C235.575 54.2034 234.904 54.875 234.075 54.875C233.247 54.875 232.575 54.2034 232.575 53.375C232.575 52.5466 233.247 51.875 234.075 51.875Z" fill="white"/>
<path d="M224.575 53.375C224.575 52.5466 223.904 51.875 223.075 51.875C222.247 51.875 221.575 52.5466 221.575 53.375C221.575 54.2034 222.247 54.875 223.075 54.875C223.904 54.875 224.575 54.2034 224.575 53.375Z" fill="white"/>
<rect x="73.125" y="20.125" width="227.75" height="50.75" rx="4.875" stroke="#A8A8A8" stroke-width="0.25"/>
</g>
<g filter="url(#filter1_d_44_16348)">
<rect x="73" y="240" width="228" height="51" rx="5" fill="#E96D5A" fill-opacity="0.75" shape-rendering="crispEdges"/>
<path d="M136.052 273V260.402H139.372V273H136.052ZM141.149 268.938V260.402H144.46V265.803L142.526 268.938H141.149ZM146.647 273L145.651 260.402H148.981L149.499 266.594C149.727 266.6 149.903 266.564 150.026 266.486C150.15 266.402 150.241 266.281 150.3 266.125C150.358 265.975 150.394 265.793 150.407 265.578C150.427 265.357 150.45 265.1 150.476 264.807L150.808 260.402H154.118L153.708 266.047C153.682 266.392 153.62 266.688 153.522 266.936C153.425 267.183 153.275 267.427 153.073 267.668C152.741 268.046 152.341 268.342 151.872 268.557C151.403 268.771 150.795 268.879 150.046 268.879C149.981 268.879 149.919 268.879 149.86 268.879C149.802 268.872 149.74 268.869 149.675 268.869L149.792 270.363H151.267C151.879 270.363 152.422 270.253 152.897 270.031C153.373 269.81 153.773 269.488 154.099 269.064C154.613 268.394 154.919 267.43 155.017 266.174L155.446 260.402H158.786L158.347 266.154C158.275 267.131 158.103 268.059 157.829 268.938C157.556 269.81 157.159 270.5 156.638 271.008C156.514 271.132 156.296 271.317 155.983 271.564C155.677 271.805 155.355 272.017 155.017 272.199C154.522 272.46 153.946 272.658 153.288 272.795C152.637 272.932 151.963 273 151.267 273H146.647ZM162.419 273.195C161.748 273.195 161.169 273.166 160.681 273.107C160.199 273.055 159.779 272.974 159.421 272.863V270.051C159.694 270.116 159.971 270.174 160.251 270.227C160.537 270.272 160.824 270.308 161.11 270.334C161.403 270.36 161.696 270.373 161.989 270.373C162.224 270.373 162.425 270.334 162.595 270.256C162.764 270.178 162.884 270.07 162.956 269.934C163.015 269.829 163.06 269.712 163.093 269.582C163.132 269.452 163.161 269.312 163.181 269.162C163.2 268.98 163.213 268.788 163.22 268.586C163.226 268.378 163.229 268.166 163.229 267.951V265.725C163.229 265.262 163.2 264.855 163.142 264.504C163.083 264.146 162.998 263.853 162.888 263.625C162.797 263.43 162.657 263.28 162.468 263.176C162.279 263.072 162.041 263.02 161.755 263.02C161.455 263.02 161.188 263.029 160.954 263.049C160.72 263.062 160.42 263.088 160.056 263.127C159.965 263.133 159.867 263.146 159.763 263.166C159.659 263.186 159.551 263.202 159.44 263.215V260.422C159.538 260.409 159.636 260.396 159.733 260.383C159.831 260.363 159.929 260.35 160.026 260.344C160.371 260.298 160.713 260.266 161.052 260.246C161.397 260.22 161.745 260.207 162.097 260.207C162.715 260.207 163.246 260.272 163.688 260.402C164.138 260.526 164.519 260.692 164.831 260.9C165.196 261.128 165.492 261.411 165.72 261.75C165.954 262.082 166.143 262.463 166.286 262.893C166.377 263.16 166.446 263.443 166.491 263.742C166.543 264.042 166.576 264.357 166.589 264.689C166.608 265.021 166.618 265.367 166.618 265.725V267.951C166.618 268.479 166.573 268.98 166.481 269.455C166.39 269.93 166.254 270.376 166.071 270.793C165.869 271.262 165.609 271.669 165.29 272.014C164.978 272.352 164.561 272.639 164.04 272.873C163.793 272.984 163.519 273.065 163.22 273.117C162.92 273.169 162.653 273.195 162.419 273.195ZM167.722 273.635V270.949L168.845 270.705C168.949 270.679 169.053 270.656 169.157 270.637C169.261 270.617 169.366 270.594 169.47 270.568L167.565 260.402H170.866L171.823 266.076L172.038 269.143C172.233 268.85 172.403 268.563 172.546 268.283C172.689 267.997 172.803 267.723 172.888 267.463C172.972 267.202 173.024 266.958 173.044 266.73L173.542 260.422H176.862L176.423 266.115C176.416 266.245 176.384 266.496 176.325 266.867C176.273 267.238 176.182 267.668 176.052 268.156C175.928 268.645 175.749 269.13 175.515 269.611C175.091 270.497 174.493 271.223 173.718 271.789C172.943 272.355 171.905 272.772 170.603 273.039C170.127 273.137 169.649 273.234 169.167 273.332C168.685 273.436 168.203 273.537 167.722 273.635ZM181.853 273V260.402H185.173V273H181.853ZM186.384 273V270.354H189.245C189.297 270.171 189.333 269.901 189.353 269.543C189.372 269.178 189.382 268.723 189.382 268.176V264.338C189.382 264.123 189.349 263.892 189.284 263.645C189.226 263.391 189.125 263.215 188.981 263.117C188.89 263.052 188.77 263.01 188.62 262.99C188.47 262.964 188.34 262.951 188.229 262.951C188.099 262.951 187.927 262.967 187.712 263C187.504 263.033 187.263 263.085 186.989 263.156V260.432C187.438 260.34 187.8 260.282 188.073 260.256C188.347 260.223 188.61 260.207 188.864 260.207C189.287 260.207 189.704 260.24 190.114 260.305C190.531 260.363 190.86 260.438 191.101 260.529C191.485 260.673 191.807 260.923 192.067 261.281C192.328 261.633 192.5 262.056 192.585 262.551C192.618 262.727 192.644 262.971 192.663 263.283C192.683 263.589 192.692 263.941 192.692 264.338V269.289C192.692 269.738 192.67 270.178 192.624 270.607C192.585 271.031 192.533 271.418 192.468 271.77C192.409 272.115 192.347 272.391 192.282 272.6L192.155 273H186.384ZM198.503 273C198.477 272.948 198.444 272.86 198.405 272.736C198.373 272.613 198.356 272.408 198.356 272.121C198.356 271.932 198.369 271.704 198.396 271.438C198.422 271.171 198.467 270.858 198.532 270.5C198.571 270.318 198.61 270.122 198.649 269.914C198.695 269.699 198.747 269.468 198.806 269.221C198.864 268.973 198.929 268.713 199.001 268.439L200.378 263.049H194.372V260.402H203.991V262.365L202.644 267.785C202.565 268.117 202.491 268.426 202.419 268.713C202.347 268.993 202.282 269.253 202.224 269.494C202.165 269.735 202.113 269.966 202.067 270.188C202.022 270.409 201.983 270.62 201.95 270.822C201.918 271.018 201.888 271.213 201.862 271.408C201.843 271.597 201.826 271.789 201.813 271.984C201.807 272.18 201.804 272.382 201.804 272.59V273H198.503ZM194.372 277.824V265.402H197.683V277.824H194.372Z" fill="white"/>
<path d="M221.427 258.625H235.24L236.42 256.51C236.553 256.272 236.803 256.125 237.075 256.125H238.575C238.989 256.125 239.325 256.461 239.325 256.875C239.325 257.289 238.989 257.625 238.575 257.625H237.516L236.351 259.713L233.665 265.656L233.662 265.662L233.425 266.185L236.122 269.062C236.316 269.269 236.377 269.567 236.279 269.833C236.181 270.1 235.942 270.288 235.66 270.32L233.202 270.601C230.127 270.953 227.023 270.953 223.948 270.601L221.49 270.32C221.078 270.273 220.783 269.901 220.83 269.49C220.877 269.078 221.249 268.783 221.66 268.83L224.118 269.111C227.08 269.449 230.07 269.449 233.032 269.111L234.007 268.999L232.028 266.888C232.009 266.867 231.991 266.846 231.975 266.824L231.222 266.922C230.167 267.06 229.101 267.087 228.04 267.003C225.567 266.807 223.274 265.63 221.674 263.734L221.096 263.049C221.076 263.026 221.058 263.002 221.042 262.977L219.964 261.335C219.201 260.171 220.035 258.625 221.427 258.625Z" fill="white"/>
<path d="M234.075 271.875C234.904 271.875 235.575 272.547 235.575 273.375C235.575 274.203 234.904 274.875 234.075 274.875C233.247 274.875 232.575 274.203 232.575 273.375C232.575 272.547 233.247 271.875 234.075 271.875Z" fill="white"/>
<path d="M224.575 273.375C224.575 272.547 223.904 271.875 223.075 271.875C222.247 271.875 221.575 272.547 221.575 273.375C221.575 274.203 222.247 274.875 223.075 274.875C223.904 274.875 224.575 274.203 224.575 273.375Z" fill="white"/>
<rect x="73.125" y="240.125" width="227.75" height="50.75" rx="4.875" stroke="#A8A8A8" stroke-width="0.25" shape-rendering="crispEdges"/>
</g>
<g filter="url(#filter2_d_44_16348)">
<rect x="73" y="130" width="228" height="51" rx="5" fill="white"/>
<path d="M136.052 163V150.402H139.372V163H136.052ZM141.149 158.938V150.402H144.46V155.803L142.526 158.938H141.149ZM146.647 163L145.651 150.402H148.981L149.499 156.594C149.727 156.6 149.903 156.564 150.026 156.486C150.15 156.402 150.241 156.281 150.3 156.125C150.358 155.975 150.394 155.793 150.407 155.578C150.427 155.357 150.45 155.1 150.476 154.807L150.808 150.402H154.118L153.708 156.047C153.682 156.392 153.62 156.688 153.522 156.936C153.425 157.183 153.275 157.427 153.073 157.668C152.741 158.046 152.341 158.342 151.872 158.557C151.403 158.771 150.795 158.879 150.046 158.879C149.981 158.879 149.919 158.879 149.86 158.879C149.802 158.872 149.74 158.869 149.675 158.869L149.792 160.363H151.267C151.879 160.363 152.422 160.253 152.897 160.031C153.373 159.81 153.773 159.488 154.099 159.064C154.613 158.394 154.919 157.43 155.017 156.174L155.446 150.402H158.786L158.347 156.154C158.275 157.131 158.103 158.059 157.829 158.938C157.556 159.81 157.159 160.5 156.638 161.008C156.514 161.132 156.296 161.317 155.983 161.564C155.677 161.805 155.355 162.017 155.017 162.199C154.522 162.46 153.946 162.658 153.288 162.795C152.637 162.932 151.963 163 151.267 163H146.647ZM162.419 163.195C161.748 163.195 161.169 163.166 160.681 163.107C160.199 163.055 159.779 162.974 159.421 162.863V160.051C159.694 160.116 159.971 160.174 160.251 160.227C160.537 160.272 160.824 160.308 161.11 160.334C161.403 160.36 161.696 160.373 161.989 160.373C162.224 160.373 162.425 160.334 162.595 160.256C162.764 160.178 162.884 160.07 162.956 159.934C163.015 159.829 163.06 159.712 163.093 159.582C163.132 159.452 163.161 159.312 163.181 159.162C163.2 158.98 163.213 158.788 163.22 158.586C163.226 158.378 163.229 158.166 163.229 157.951V155.725C163.229 155.262 163.2 154.855 163.142 154.504C163.083 154.146 162.998 153.853 162.888 153.625C162.797 153.43 162.657 153.28 162.468 153.176C162.279 153.072 162.041 153.02 161.755 153.02C161.455 153.02 161.188 153.029 160.954 153.049C160.72 153.062 160.42 153.088 160.056 153.127C159.965 153.133 159.867 153.146 159.763 153.166C159.659 153.186 159.551 153.202 159.44 153.215V150.422C159.538 150.409 159.636 150.396 159.733 150.383C159.831 150.363 159.929 150.35 160.026 150.344C160.371 150.298 160.713 150.266 161.052 150.246C161.397 150.22 161.745 150.207 162.097 150.207C162.715 150.207 163.246 150.272 163.688 150.402C164.138 150.526 164.519 150.692 164.831 150.9C165.196 151.128 165.492 151.411 165.72 151.75C165.954 152.082 166.143 152.463 166.286 152.893C166.377 153.16 166.446 153.443 166.491 153.742C166.543 154.042 166.576 154.357 166.589 154.689C166.608 155.021 166.618 155.367 166.618 155.725V157.951C166.618 158.479 166.573 158.98 166.481 159.455C166.39 159.93 166.254 160.376 166.071 160.793C165.869 161.262 165.609 161.669 165.29 162.014C164.978 162.352 164.561 162.639 164.04 162.873C163.793 162.984 163.519 163.065 163.22 163.117C162.92 163.169 162.653 163.195 162.419 163.195ZM167.722 163.635V160.949L168.845 160.705C168.949 160.679 169.053 160.656 169.157 160.637C169.261 160.617 169.366 160.594 169.47 160.568L167.565 150.402H170.866L171.823 156.076L172.038 159.143C172.233 158.85 172.403 158.563 172.546 158.283C172.689 157.997 172.803 157.723 172.888 157.463C172.972 157.202 173.024 156.958 173.044 156.73L173.542 150.422H176.862L176.423 156.115C176.416 156.245 176.384 156.496 176.325 156.867C176.273 157.238 176.182 157.668 176.052 158.156C175.928 158.645 175.749 159.13 175.515 159.611C175.091 160.497 174.493 161.223 173.718 161.789C172.943 162.355 171.905 162.772 170.603 163.039C170.127 163.137 169.649 163.234 169.167 163.332C168.685 163.436 168.203 163.537 167.722 163.635ZM181.853 163V150.402H185.173V163H181.853ZM186.384 163V160.354H189.245C189.297 160.171 189.333 159.901 189.353 159.543C189.372 159.178 189.382 158.723 189.382 158.176V154.338C189.382 154.123 189.349 153.892 189.284 153.645C189.226 153.391 189.125 153.215 188.981 153.117C188.89 153.052 188.77 153.01 188.62 152.99C188.47 152.964 188.34 152.951 188.229 152.951C188.099 152.951 187.927 152.967 187.712 153C187.504 153.033 187.263 153.085 186.989 153.156V150.432C187.438 150.34 187.8 150.282 188.073 150.256C188.347 150.223 188.61 150.207 188.864 150.207C189.287 150.207 189.704 150.24 190.114 150.305C190.531 150.363 190.86 150.438 191.101 150.529C191.485 150.673 191.807 150.923 192.067 151.281C192.328 151.633 192.5 152.056 192.585 152.551C192.618 152.727 192.644 152.971 192.663 153.283C192.683 153.589 192.692 153.941 192.692 154.338V159.289C192.692 159.738 192.67 160.178 192.624 160.607C192.585 161.031 192.533 161.418 192.468 161.77C192.409 162.115 192.347 162.391 192.282 162.6L192.155 163H186.384ZM198.503 163C198.477 162.948 198.444 162.86 198.405 162.736C198.373 162.613 198.356 162.408 198.356 162.121C198.356 161.932 198.369 161.704 198.396 161.438C198.422 161.171 198.467 160.858 198.532 160.5C198.571 160.318 198.61 160.122 198.649 159.914C198.695 159.699 198.747 159.468 198.806 159.221C198.864 158.973 198.929 158.713 199.001 158.439L200.378 153.049H194.372V150.402H203.991V152.365L202.644 157.785C202.565 158.117 202.491 158.426 202.419 158.713C202.347 158.993 202.282 159.253 202.224 159.494C202.165 159.735 202.113 159.966 202.067 160.188C202.022 160.409 201.983 160.62 201.95 160.822C201.918 161.018 201.888 161.213 201.862 161.408C201.843 161.597 201.826 161.789 201.813 161.984C201.807 162.18 201.804 162.382 201.804 162.59V163H198.503ZM194.372 167.824V155.402H197.683V167.824H194.372Z" fill="#E96D5A"/>
<path d="M221.427 148.625H235.24L236.42 146.51C236.553 146.272 236.803 146.125 237.075 146.125H238.575C238.989 146.125 239.325 146.461 239.325 146.875C239.325 147.289 238.989 147.625 238.575 147.625H237.516L236.351 149.713L233.665 155.656L233.662 155.662L233.425 156.185L236.122 159.062C236.316 159.269 236.377 159.567 236.279 159.833C236.181 160.1 235.942 160.288 235.66 160.32L233.202 160.601C230.127 160.953 227.023 160.953 223.948 160.601L221.49 160.32C221.078 160.273 220.783 159.901 220.83 159.49C220.877 159.078 221.249 158.783 221.66 158.83L224.118 159.111C227.08 159.449 230.07 159.449 233.032 159.111L234.007 158.999L232.028 156.888C232.009 156.867 231.991 156.846 231.975 156.824L231.222 156.922C230.167 157.06 229.101 157.087 228.04 157.003C225.567 156.807 223.274 155.63 221.674 153.734L221.096 153.049C221.076 153.026 221.058 153.002 221.042 152.977L219.964 151.335C219.201 150.171 220.035 148.625 221.427 148.625Z" fill="#E96D5A"/>
<path d="M234.075 161.875C234.904 161.875 235.575 162.547 235.575 163.375C235.575 164.203 234.904 164.875 234.075 164.875C233.247 164.875 232.575 164.203 232.575 163.375C232.575 162.547 233.247 161.875 234.075 161.875Z" fill="#E96D5A"/>
<path d="M224.575 163.375C224.575 162.547 223.904 161.875 223.075 161.875C222.247 161.875 221.575 162.547 221.575 163.375C221.575 164.203 222.247 164.875 223.075 164.875C223.904 164.875 224.575 164.203 224.575 163.375Z" fill="#E96D5A"/>
<rect x="73.5" y="130.5" width="227" height="50" rx="4.5" stroke="#E96D5A"/>
</g>
<rect x="0.5" y="0.5" width="396" height="329" rx="4.5" stroke="#9747FF" stroke-dasharray="10 5"/>
<defs>
<filter id="filter0_d_44_16348" x="68" y="19" width="238" height="61" filterUnits="userSpaceOnUse" color-interpolation-filters="sRGB">
<feFlood flood-opacity="0" result="BackgroundImageFix"/>
<feColorMatrix in="SourceAlpha" type="matrix" values="0 0 0 0 0 0 0 0 0 0 0 0 0 0 0 0 0 0 127 0" result="hardAlpha"/>
<feOffset dy="4"/>
<feGaussianBlur stdDeviation="2.5"/>
<feComposite in2="hardAlpha" operator="out"/>
<feColorMatrix type="matrix" values="0 0 0 0 0 0 0 0 0 0 0 0 0 0 0 0 0 0 0.05 0"/>
<feBlend mode="normal" in2="BackgroundImageFix" result="effect1_dropShadow_44_16348"/>
<feBlend mode="normal" in="SourceGraphic" in2="effect1_dropShadow_44_16348" result="shape"/>
</filter>
<filter id="filter1_d_44_16348" x="68" y="239" width="238" height="61" filterUnits="userSpaceOnUse" color-interpolation-filters="sRGB">
<feFlood flood-opacity="0" result="BackgroundImageFix"/>
<feColorMatrix in="SourceAlpha" type="matrix" values="0 0 0 0 0 0 0 0 0 0 0 0 0 0 0 0 0 0 127 0" result="hardAlpha"/>
<feOffset dy="4"/>
<feGaussianBlur stdDeviation="2.5"/>
<feComposite in2="hardAlpha" operator="out"/>
<feColorMatrix type="matrix" values="0 0 0 0 0 0 0 0 0 0 0 0 0 0 0 0 0 0 0.05 0"/>
<feBlend mode="normal" in2="BackgroundImageFix" result="effect1_dropShadow_44_16348"/>
<feBlend mode="normal" in="SourceGraphic" in2="effect1_dropShadow_44_16348" result="shape"/>
</filter>
<filter id="filter2_d_44_16348" x="68" y="129" width="238" height="61" filterUnits="userSpaceOnUse" color-interpolation-filters="sRGB">
<feFlood flood-opacity="0" result="BackgroundImageFix"/>
<feColorMatrix in="SourceAlpha" type="matrix" values="0 0 0 0 0 0 0 0 0 0 0 0 0 0 0 0 0 0 127 0" result="hardAlpha"/>
<feOffset dy="4"/>
<feGaussianBlur stdDeviation="2.5"/>
<feComposite in2="hardAlpha" operator="out"/>
<feColorMatrix type="matrix" values="0 0 0 0 0 0 0 0 0 0 0 0 0 0 0 0 0 0 0.05 0"/>
<feBlend mode="normal" in2="BackgroundImageFix" result="effect1_dropShadow_44_16348"/>
<feBlend mode="normal" in="SourceGraphic" in2="effect1_dropShadow_44_16348" result="shape"/>
</filter>
</defs>
</svg>
