<svg width="241" height="162" viewBox="0 0 241 162" fill="none" xmlns="http://www.w3.org/2000/svg">
<g filter="url(#filter0_d_228_5477)">
<rect x="24" y="20" width="193" height="113.952" rx="5" fill="white"/>
<path d="M123.207 47.9564L115.669 40.4517L105.84 50.2372L113.378 57.7419C116.408 54.6517 120.103 51.0465 123.207 47.9564Z" fill="#335269"/>
<path d="M117.738 40.4519L123.133 45.8229C123.502 46.1907 124.389 47.0736 124.759 47.4415C125.645 48.3244 127.123 48.2508 127.936 47.3679C128.749 46.485 128.749 45.0871 127.936 44.2778L119.364 35.6695C117.295 33.6093 114.117 36.7731 116.186 38.8332C116.482 39.2011 117.369 40.084 117.738 40.4519Z" fill="#CDD6DC"/>
<path d="M109.756 62.5241C110.643 63.407 112.121 63.3334 113.008 62.4505C113.377 62.0091 113.599 61.494 113.599 60.9054C113.673 59.5075 112.121 58.6246 111.308 57.7417L105.913 52.3707C105.544 52.0028 104.657 51.1199 104.287 50.752C103.401 49.8691 101.923 49.9427 101.11 50.8256C100.297 51.7085 100.297 53.1064 101.11 53.9158L109.756 62.5241Z" fill="#CDD6DC"/>
<path d="M139.39 68.5574L130.153 59.3605C129.709 58.919 129.192 59.2133 128.822 59.6548L121.211 52.0029L120.176 53.1066L117.516 55.7553L125.127 63.3335L124.832 63.6278C124.536 63.9221 124.536 64.3636 124.832 64.6579L134.069 73.8548C136.36 76.2092 140.573 74.3699 140.499 71.1325C140.499 70.1761 140.055 69.2196 139.39 68.5574Z" fill="#335269"/>
<path d="M123.865 73.4803H123.126V71.7881C123.126 70.0958 121.796 68.7715 120.096 68.7715H106.277C104.577 68.7715 103.247 70.0958 103.247 71.7881V73.4803H102.508C102.064 73.4803 101.769 73.8482 101.769 74.2161C101.769 74.5839 102.064 74.9518 102.508 74.9518H123.865C124.308 74.9518 124.604 74.5839 124.604 74.2161C124.604 73.7746 124.234 73.4803 123.865 73.4803Z" fill="#DBB65D"/>
<path d="M85.1484 97.6001C86.1328 97.6001 86.9805 97.9556 87.6914 98.6665C88.4727 99.4478 89.0156 100.674 89.3203 102.346C89.4766 103.245 89.5547 104.26 89.5547 105.393C89.5547 106.526 89.4727 107.542 89.3086 108.44C89.1523 109.338 88.9375 110.081 88.6641 110.667C88.3984 111.252 88.0742 111.737 87.6914 112.12C86.9805 112.831 86.1328 113.186 85.1484 113.186C83.9219 113.186 82.9062 112.624 82.1016 111.499C81.6797 110.913 81.3477 110.1 81.1055 109.061C80.8711 108.022 80.7539 106.799 80.7539 105.393C80.7539 102.792 81.3242 100.745 82.4648 99.2524L80.9648 99.3345V97.8228C82.5352 97.6743 83.9297 97.6001 85.1484 97.6001ZM84.1406 99.2056C83.5469 99.8462 83.1367 100.655 82.9102 101.631C82.6914 102.608 82.582 103.78 82.582 105.147C82.582 106.514 82.6445 107.62 82.7695 108.463C82.9023 109.299 83.0898 109.944 83.332 110.397C83.582 110.85 83.8516 111.174 84.1406 111.37C84.4375 111.557 84.7734 111.651 85.1484 111.651C85.5234 111.651 85.8555 111.557 86.1445 111.37C86.4414 111.174 86.7109 110.85 86.9531 110.397C87.4688 109.452 87.7266 107.784 87.7266 105.393C87.7266 102.659 87.375 100.834 86.6719 99.9204C86.4453 99.6313 86.207 99.4321 85.957 99.3228C85.7148 99.2056 85.4453 99.147 85.1484 99.147L84.1406 99.2056ZM91.6523 97.7993C92.2305 97.6665 92.7227 97.6001 93.1289 97.6001C93.5352 97.6001 93.9023 97.6431 94.2305 97.729C94.5586 97.8071 94.832 97.9126 95.0508 98.0454C95.2773 98.1782 95.4688 98.3618 95.625 98.5962C95.7812 98.8228 95.9023 99.0493 95.9883 99.2759C96.082 99.5024 96.1562 99.7876 96.2109 100.131C96.2812 100.631 96.3164 101.307 96.3164 102.159V108.967C96.3164 109.561 96.2734 110.19 96.1875 110.854C96.1094 111.518 96.0312 112.034 95.9531 112.401L95.8242 112.952H91.0547V111.463H94.2656C94.4531 110.815 94.5469 109.983 94.5469 108.967V101.374C94.5469 100.725 94.4531 100.209 94.2656 99.8267C94.0391 99.3735 93.5859 99.147 92.9062 99.147C92.625 99.147 92.207 99.2134 91.6523 99.3462V97.7993ZM104.484 112.694V112.952H102.738V112.694C102.738 112.366 102.766 112.049 102.82 111.745C102.875 111.44 102.918 111.194 102.949 111.006C102.988 110.811 103.039 110.573 103.102 110.292C103.172 110.002 103.23 109.764 103.277 109.577C103.324 109.381 103.391 109.116 103.477 108.78C103.57 108.436 103.641 108.17 103.688 107.983C103.898 107.249 104.238 105.983 104.707 104.186C105.184 102.389 105.621 100.772 106.02 99.3345H99.4805V97.8345H107.871V99.147L105.914 106.307C105.891 106.393 105.824 106.639 105.715 107.045C105.605 107.452 105.531 107.725 105.492 107.866C105.453 108.006 105.383 108.264 105.281 108.639C105.18 109.014 105.105 109.292 105.059 109.471C105.02 109.643 104.961 109.889 104.883 110.209C104.812 110.53 104.758 110.784 104.719 110.971C104.68 111.159 104.641 111.374 104.602 111.616C104.523 112.022 104.484 112.381 104.484 112.694ZM101.262 118.717H99.4922V104.01H101.262V118.717ZM115.172 112.952V97.8696C116.43 97.6899 117.578 97.6001 118.617 97.6001C119.664 97.6001 120.469 97.6665 121.031 97.7993C121.594 97.9321 122.051 98.1782 122.402 98.5376C122.754 98.8892 122.992 99.3423 123.117 99.897C123.242 100.444 123.305 101.167 123.305 102.065V112.952H115.172ZM121.523 111.463V102.065C121.523 101.401 121.484 100.885 121.406 100.518C121.336 100.143 121.184 99.8462 120.949 99.6274C120.715 99.4087 120.426 99.2681 120.082 99.2056C119.746 99.1431 119.297 99.1118 118.734 99.1118C118.172 99.1118 117.578 99.1509 116.953 99.229V111.463H121.523ZM128.145 112.952H126.375V97.8345H128.145V112.952ZM132.012 97.7876H137.238V99.3579C137.012 100.272 136.688 101.592 136.266 103.319C135.844 105.045 135.539 106.292 135.352 107.057C135.156 108.12 134.785 110.084 134.238 112.952H132.48C132.551 112.545 132.73 111.588 133.02 110.081C133.309 108.573 133.492 107.592 133.57 107.139L135.516 99.3462H130.242V94.6235H132.012V97.7876ZM141.902 112.952H139.676L138.422 97.8345H140.133L140.824 106.155C141.621 105.866 142.207 105.389 142.582 104.725C142.965 104.053 143.215 103.045 143.332 101.702L143.672 97.8345H145.348L145.008 101.69C144.883 103.057 144.648 104.139 144.305 104.936C143.719 106.327 142.602 107.221 140.953 107.62L141.27 111.44H141.902C143.027 111.44 144.023 111.139 144.891 110.538C145.758 109.928 146.438 109.104 146.93 108.065C147.43 107.018 147.742 105.807 147.867 104.432L148.477 97.8345H150.164L149.555 104.432C149.32 107.073 148.547 109.155 147.234 110.678C146.836 111.147 146.391 111.545 145.898 111.874C145.406 112.194 144.816 112.456 144.129 112.659C143.449 112.854 142.707 112.952 141.902 112.952ZM151.723 97.9634C151.746 97.9634 151.922 97.9399 152.25 97.8931C152.586 97.8462 152.914 97.8032 153.234 97.7642C154.133 97.6548 155.023 97.6001 155.906 97.6001C156.789 97.6001 157.496 97.686 158.027 97.8579C158.559 98.0298 158.977 98.2524 159.281 98.5259C159.594 98.7915 159.84 99.1353 160.02 99.5571C160.199 99.9712 160.316 100.381 160.371 100.788C160.426 101.194 160.453 101.663 160.453 102.194V112.952H158.684V102.194C158.684 100.616 158.301 99.6704 157.535 99.3579C157.168 99.2017 156.73 99.1235 156.223 99.1235C155.715 99.1235 155.145 99.1431 154.512 99.1821V108.815C154.512 110.401 154.355 111.499 154.043 112.108C153.738 112.717 153.133 113.022 152.227 113.022C151.938 113.022 151.574 112.971 151.137 112.87V111.323C151.512 111.393 151.719 111.428 151.758 111.428C152.109 111.428 152.359 111.307 152.508 111.065C152.656 110.815 152.73 110.444 152.73 109.952V99.3462C152.535 99.3696 152.199 99.4126 151.723 99.4751V97.9634Z" fill="black"/>
<rect x="24.5" y="20.5" width="192" height="112.952" rx="4.5" stroke="#DBB65D"/>
</g>
<defs>
<filter id="filter0_d_228_5477" x="0" y="0" width="241" height="161.952" filterUnits="userSpaceOnUse" color-interpolation-filters="sRGB">
<feFlood flood-opacity="0" result="BackgroundImageFix"/>
<feColorMatrix in="SourceAlpha" type="matrix" values="0 0 0 0 0 0 0 0 0 0 0 0 0 0 0 0 0 0 127 0" result="hardAlpha"/>
<feOffset dy="4"/>
<feGaussianBlur stdDeviation="12"/>
<feComposite in2="hardAlpha" operator="out"/>
<feColorMatrix type="matrix" values="0 0 0 0 0.245573 0 0 0 0 0.594951 0 0 0 0 0.854167 0 0 0 0.15 0"/>
<feBlend mode="normal" in2="BackgroundImageFix" result="effect1_dropShadow_228_5477"/>
<feBlend mode="normal" in="SourceGraphic" in2="effect1_dropShadow_228_5477" result="shape"/>
</filter>
</defs>
</svg>
