<svg width="285" height="274" viewBox="0 0 285 274" fill="none" xmlns="http://www.w3.org/2000/svg">
<path fill-rule="evenodd" clip-rule="evenodd" d="M192.787 73.5166C198.379 75.0133 203.039 78.5738 205.906 83.5425C211.441 93.1303 208.757 105.243 200.065 111.679L178.614 74.5324C183.056 72.6058 188.001 72.2348 192.787 73.5166ZM59.0666 213.808L89.0013 196.527L49.5643 128.315L19.6723 145.576C10.6052 150.811 4.10534 159.311 1.37488 169.509C-1.36152 179.709 0.0152891 190.322 5.25 199.386C12.5425 212.011 25.8113 219.078 39.4374 219.078C46.1149 219.078 52.8784 217.38 59.0666 213.808ZM121.517 252.939L96.3793 209.404L72.916 222.95L98.0482 266.488C101.789 272.956 110.089 275.18 116.561 271.445C119.672 269.648 121.904 266.723 122.849 263.214C123.787 259.703 123.315 256.055 121.517 252.939ZM214.996 167.228L137.975 33.8285C136.372 31.0463 133.736 29.5211 130.548 29.5211C130.488 29.5211 130.425 29.5241 130.365 29.5241C127.094 29.584 124.446 31.2096 122.912 34.1033C120.205 39.2122 117.594 44.6642 114.832 50.4374C103.209 74.7135 90.1412 102.004 62.2957 120.673L101.979 189.326C132.039 174.569 162.2 176.893 189.021 178.965C195.412 179.461 201.442 179.924 207.227 180.136C210.504 180.262 213.229 178.78 214.915 175.975C216.606 173.17 216.63 170.061 214.996 167.228ZM195.634 30.2567C193.588 33.8059 194.804 38.3448 198.353 40.3943C199.518 41.0699 200.795 41.3905 202.054 41.3905C204.618 41.3905 207.117 40.0594 208.488 37.6786L223.82 11.1328C225.867 7.58363 224.65 3.04474 221.101 0.995267C217.549 -1.05362 213.013 0.162296 210.967 3.71148L195.634 30.2567ZM285 111.655C285 107.559 281.68 104.233 277.558 104.233L246.914 104.236C242.819 104.236 239.493 107.559 239.493 111.658C239.493 115.756 242.819 119.079 246.914 119.079L277.558 119.076C281.68 119.076 285 115.756 285 111.655ZM267.255 48.1219C265.194 44.5728 260.672 43.3569 257.123 45.4057L229.928 61.1016C226.376 63.154 225.16 67.6899 227.209 71.2421C228.585 73.6235 231.078 74.9545 233.643 74.9545C234.902 74.9545 236.178 74.631 237.349 73.9583L264.536 58.2595C268.085 56.21 269.315 51.6711 267.255 48.1219Z" fill="#DBB65D" fill-opacity="0.55"/>
</svg>
