<svg width="58" height="56" viewBox="0 0 58 56" fill="none" xmlns="http://www.w3.org/2000/svg">
<path d="M5.17395 7.37889H45.9425L49.4258 1.13517C49.8168 0.434321 50.5565 0 51.359 0H55.7863C57.0089 0 58 0.991103 58 2.21367C58 3.43623 57.0089 4.42733 55.7863 4.42733H52.6589L49.2212 10.5891L41.2931 28.131L41.285 28.1487L40.5867 29.6938L48.5466 38.1843C49.1189 38.7949 49.2981 39.676 49.0096 40.4614C48.7211 41.2471 48.0144 41.8029 47.183 41.8979L39.9277 42.727C30.8525 43.7642 21.6888 43.7642 12.6139 42.727L5.35843 41.8979C4.14386 41.7589 3.27168 40.6618 3.4104 39.4469C3.54942 38.2324 4.64651 37.3602 5.86107 37.4992L13.1166 38.3283C21.8576 39.3271 30.6839 39.3271 39.4249 38.3283L42.3042 37.9992L36.462 31.7676C36.4055 31.7071 36.353 31.6445 36.3045 31.5799L34.0825 31.8691C30.9688 32.2744 27.8215 32.3538 24.6914 32.1061C17.3907 31.5288 10.6246 28.0548 5.90062 22.4587L4.19463 20.4373C4.13707 20.3694 4.08394 20.2982 4.03524 20.2239L0.855232 15.3779C-1.39857 11.943 1.06539 7.37889 5.17395 7.37889Z" fill="#335269"/>
<path d="M42.5043 46.4873C44.9495 46.4873 46.9316 48.4696 46.9316 50.9146C46.9316 53.3597 44.9495 55.342 42.5043 55.342C40.0592 55.342 38.077 53.3597 38.077 50.9146C38.077 48.4696 40.0592 46.4873 42.5043 46.4873Z" fill="#335269"/>
<path d="M14.4644 50.9146C14.4644 48.4696 12.4821 46.4873 10.037 46.4873C7.59195 46.4873 5.60969 48.4696 5.60969 50.9146C5.60969 53.3597 7.59195 55.342 10.037 55.342C12.4821 55.342 14.4644 53.3597 14.4644 50.9146Z" fill="#335269"/>
</svg>
