<svg width="64" height="68" viewBox="0 0 64 68" fill="none" xmlns="http://www.w3.org/2000/svg">
<circle cx="13.1857" cy="13.1857" r="13.1857" transform="matrix(-0.995396 -0.0958442 -0.0958442 0.995396 63.7773 36.5273)" fill="#335269"/>
<path d="M52.1331 52.7338L52.2719 52.732L53.2573 52.7267L57.7487 52.7054L53.2379 48.6003L57.7083 44.4526L53.2169 44.474L52.2332 44.4793H52.0927L47.6206 48.627L52.1331 52.7338Z" fill="#DBB65D"/>
<path d="M44.7801 52.7338L44.9188 52.732L45.9025 52.7285L50.3956 52.7054L45.8832 48.6003L50.3552 44.4526L45.8638 44.474L44.8784 44.4793L44.7397 44.4811L40.2676 48.6288L44.7801 52.7338Z" fill="#DBB65D"/>
<path d="M23.9321 20.7037H26.3295L25.1378 17.5303L23.9321 20.7037Z" fill="black"/>
<path d="M5.91726 0.0138577C2.64683 0.0138577 0 2.66069 0 5.91726V68H48.7793V65.0483C39.7995 65.0483 32.5242 57.773 32.5242 48.7932C32.5242 39.8133 39.7995 32.5242 48.7793 32.5242V5.91726C48.7793 2.64683 51.4261 0 54.6966 0H5.91726V0.0138577ZM8.86896 11.8345H17.7379C18.5555 11.8345 19.2207 12.4997 19.2207 13.3173C19.2207 14.1349 18.5555 14.8001 17.7379 14.8001H14.7862V25.138C14.7862 25.9556 14.1211 26.6207 13.3034 26.6207C12.4858 26.6207 11.8207 25.9556 11.8207 25.138V14.7862H8.86896C8.05136 14.7862 7.38618 14.1211 7.38618 13.3034C7.38618 12.4858 8.05136 11.8345 8.86896 11.8345ZM7.38618 35.4897H19.2069C20.0245 35.4897 20.6896 36.1549 20.6896 36.9725C20.6896 37.7901 20.0245 38.4553 19.2069 38.4553H7.38618C6.56858 38.4553 5.9034 37.7901 5.9034 36.9725C5.91726 36.141 6.56858 35.4897 7.38618 35.4897ZM28.0897 60.6138H7.38618C6.56858 60.6138 5.9034 59.9486 5.9034 59.131C5.9034 58.3134 6.56858 57.6483 7.38618 57.6483H28.0758C28.8934 57.6483 29.5586 58.3134 29.5586 59.131C29.5586 59.9486 28.9073 60.6138 28.0897 60.6138ZM28.0897 53.2276H7.38618C6.56858 53.2276 5.9034 52.5625 5.9034 51.7449C5.9034 50.9272 6.56858 50.2621 7.38618 50.2621H28.0758C28.8934 50.2621 29.5586 50.9272 29.5586 51.7449C29.5586 52.5625 28.9073 53.2276 28.0897 53.2276ZM28.0897 45.8276H7.38618C6.56858 45.8276 5.9034 45.1624 5.9034 44.3448C5.9034 43.5272 6.56858 42.862 7.38618 42.862H28.0758C28.8934 42.862 29.5586 43.5272 29.5586 44.3448C29.5586 45.1763 28.9073 45.8276 28.0897 45.8276ZM30.0852 26.5237C29.323 26.8148 28.4638 26.4129 28.1728 25.6507L27.4384 23.6552H22.8237L22.0893 25.6507C21.7982 26.4129 20.9529 26.8148 20.1769 26.5237C19.4147 26.2327 19.0128 25.3874 19.3039 24.6114L23.7383 12.7907C24.0155 12.0285 24.8608 11.6267 25.6368 11.9038C26.0526 12.0562 26.3713 12.375 26.5237 12.7907L30.9582 24.6114C31.2354 25.3874 30.8474 26.2466 30.0852 26.5237ZM40.5755 26.4545C40.3676 26.5515 40.1459 26.6069 39.9103 26.6069C38.7463 26.6069 38.6354 25.9001 36.9586 22.5327C35.2126 26.0387 35.1571 26.6069 34.0069 26.6069C33.1893 26.6069 32.5242 25.9417 32.538 25.1241C32.538 24.8885 32.5934 24.6668 32.6904 24.4589L35.3096 19.2068L32.6904 13.9548C32.3717 13.2064 32.732 12.3334 33.4803 12.0285C34.1594 11.7514 34.9354 12.0008 35.3096 12.6244L36.9448 15.8948L38.58 12.6244C38.9957 11.9315 39.9103 11.6959 40.6032 12.1255C41.2268 12.4997 41.4901 13.2896 41.1991 13.9548L38.58 19.2068L41.1991 24.4589C41.5871 25.2073 41.2961 26.0942 40.5755 26.4545Z" fill="#335269"/>
<path d="M51.731 7.39981V11.8343H60.5999V7.39981C60.5999 4.94699 58.6183 2.96533 56.1654 2.96533C53.7126 2.96533 51.731 4.94699 51.731 7.39981Z" fill="#375B74" fill-opacity="0.25"/>
</svg>
