<svg width="65" height="65" viewBox="0 0 65 65" fill="none" xmlns="http://www.w3.org/2000/svg">
<circle cx="32.5" cy="32.5" r="32.5" fill="#375B74" fill-opacity="0.15"/>
<mask id="mask0_319_4976" style="mask-type:alpha" maskUnits="userSpaceOnUse" x="0" y="0" width="65" height="65">
<circle cx="32.5" cy="32.5" r="32.5" fill="#D9D9D9"/>
</mask>
<g mask="url(#mask0_319_4976)">
<path d="M32.6282 34.0411C39.6872 34.0411 45.4097 28.3186 45.4097 21.2596C45.4097 14.2005 39.6872 8.47803 32.6282 8.47803C25.5692 8.47803 19.8467 14.2005 19.8467 21.2596C19.8467 28.3186 25.5692 34.0411 32.6282 34.0411Z" fill="#335269"/>
<path d="M37.3835 53.776L32.6287 39.563L27.874 53.776V53.8016L32.6287 58.5563L37.3835 53.8016V53.776Z" fill="#DBB65D"/>
<path d="M37.7416 36.5977H37.0258L42.6753 53.5204C42.8595 53.9897 42.9044 54.5022 42.8046 54.9964C42.7049 55.4907 42.4647 55.9456 42.1129 56.3068L33.7026 64.717H55.6357C56.3131 64.7151 56.9622 64.4451 57.4412 63.9661C57.9201 63.4871 58.1901 62.8381 58.192 62.1607V57.0481C58.1849 51.6265 56.028 46.429 52.1943 42.5954C48.3607 38.7617 43.1632 36.6048 37.7416 36.5977Z" fill="#335269"/>
<path d="M23.1446 56.3068C22.7928 55.9456 22.5526 55.4907 22.4528 54.9965C22.3531 54.5022 22.398 53.9897 22.5822 53.5204L28.2316 36.5977H27.5159C22.0943 36.6048 16.8968 38.7617 13.0631 42.5954C9.2295 46.429 7.0726 51.6265 7.06543 57.0481V62.1607C7.06739 62.8381 7.33734 63.4871 7.81631 63.9661C8.29529 64.4451 8.94436 64.7151 9.62173 64.717H31.5804C31.5804 64.717 29.9467 63.1088 23.1446 56.3068Z" fill="#335269"/>
</g>
</svg>
