<svg width="111" height="106" viewBox="0 0 111 106" fill="none" xmlns="http://www.w3.org/2000/svg">
<g opacity="0.25">
<path fill-rule="evenodd" clip-rule="evenodd" d="M35.7706 28.518C33.6014 29.0986 31.7937 30.4797 30.6813 32.4072C28.5342 36.1264 29.5754 40.8251 32.9473 43.3218L41.2685 28.912C39.5454 28.1647 37.6269 28.0208 35.7706 28.518ZM87.6423 82.9389L76.0302 76.2351L91.3283 49.7748L102.924 56.4707C106.441 58.5013 108.962 61.7988 110.022 65.7546C111.083 69.7115 110.549 73.8282 108.518 77.3443C105.69 82.2415 100.542 84.9829 95.2567 84.9829C92.6664 84.9829 90.0428 84.3244 87.6423 82.9389ZM63.4168 98.1181L73.1682 81.2302L82.2699 86.4849L72.5208 103.374C71.0697 105.883 67.85 106.746 65.3397 105.297C64.1328 104.6 63.2669 103.465 62.9005 102.104C62.5364 100.742 62.7195 99.327 63.4168 98.1181ZM27.1553 64.8698L57.0327 13.1225C57.6546 12.0433 58.6771 11.4516 59.9139 11.4516C59.9371 11.4516 59.9615 11.4528 59.9848 11.4528C61.2538 11.476 62.2807 12.1066 62.8758 13.2291C63.926 15.2109 64.9387 17.3258 66.0101 19.5653C70.5188 28.9823 75.5881 39.5685 86.3896 46.8105L70.9962 73.442C59.3353 67.7175 47.6355 68.6191 37.2315 69.4229C34.7522 69.615 32.413 69.7949 30.1691 69.8771C28.8978 69.9259 27.841 69.3508 27.1869 68.2629C26.5307 67.1747 26.5215 65.9688 27.1553 64.8698ZM34.6661 11.7369C35.46 13.1137 34.988 14.8744 33.6113 15.6694C33.1594 15.9315 32.6643 16.0559 32.1758 16.0559C31.1811 16.0559 30.2117 15.5395 29.6799 14.616L23.7323 4.31856C22.9384 2.94178 23.4103 1.18109 24.7871 0.386076C26.165 -0.408711 27.9246 0.0629566 28.7184 1.43973L34.6661 11.7369ZM-6.86646e-05 43.3122C-6.86646e-05 41.7235 1.2878 40.4333 2.88658 40.4333L14.7738 40.4345C16.3625 40.4345 17.6527 41.7235 17.6527 43.3133C17.6527 44.9031 16.3625 46.1921 14.7738 46.1921L2.88658 46.191C1.2878 46.191 -6.86646e-05 44.9031 -6.86646e-05 43.3122ZM6.88354 18.6671C7.68294 17.2903 9.43718 16.8187 10.8137 17.6134L21.3631 23.702C22.7411 24.4982 23.2127 26.2578 22.4179 27.6357C21.8839 28.5594 20.9168 29.0758 19.9221 29.0758C19.4336 29.0758 18.9385 28.9503 18.4843 28.6893L7.93812 22.5996C6.56135 21.8046 6.08415 20.0439 6.88354 18.6671Z" fill="#335269"/>
</g>
</svg>
