<svg width="455" height="430" viewBox="0 0 455 430" fill="none" xmlns="http://www.w3.org/2000/svg">
<g filter="url(#filter0_d_14_4832)">
<rect x="24" y="20" width="407" height="381.39" rx="5" fill="white"/>
<path d="M177.461 74.6948V62.6245C177.461 61.8726 177.383 61.2476 177.227 60.7495C177.07 60.2417 176.787 59.8901 176.377 59.6948C176.24 59.6265 176.06 59.5776 175.835 59.5483C175.61 59.519 175.317 59.5044 174.956 59.5044C174.155 59.5044 173.34 59.5532 172.51 59.6509C171.68 59.7485 170.571 59.9243 169.185 60.1782V56.2817C169.458 56.1743 169.834 56.0767 170.312 55.9888C170.801 55.9009 171.387 55.8081 172.07 55.7104C172.734 55.6128 173.325 55.5542 173.843 55.5347C174.37 55.5151 174.883 55.5054 175.381 55.5054C176.631 55.5054 177.568 55.5591 178.193 55.6665C178.828 55.7642 179.375 55.9253 179.834 56.1499C180.059 56.2476 180.259 56.355 180.435 56.4722C180.62 56.5796 180.791 56.6968 180.947 56.8237C181.699 57.4292 182.134 58.1958 182.251 59.1235C182.378 60.0415 182.441 61.2134 182.441 62.6392V74.6948H177.461ZM169.185 74.6948V62.5659H174.18V74.6948H169.185ZM184.58 74.6948V70.7251H190.366V62.6245C190.366 61.7847 190.264 61.1011 190.059 60.5737C189.863 60.0464 189.463 59.7192 188.857 59.5923C188.721 59.563 188.564 59.5435 188.389 59.5337C188.223 59.5142 188.101 59.5044 188.022 59.5044C187.202 59.5044 186.567 59.5239 186.118 59.563C185.679 59.5923 185.166 59.6655 184.58 59.7827V55.7837C185.205 55.686 185.815 55.6177 186.411 55.5786C187.007 55.5298 187.632 55.5054 188.286 55.5054C189.448 55.5054 190.391 55.5688 191.113 55.6958C191.836 55.8228 192.441 55.9985 192.93 56.2231C193.555 56.4966 194.019 56.814 194.321 57.1753C194.634 57.5366 194.897 57.9419 195.112 58.3911C195.2 58.5669 195.259 58.9136 195.288 59.4312C195.327 59.9487 195.352 60.5054 195.361 61.1011C195.371 61.6968 195.376 62.2095 195.376 62.6392V70.7251H197.632V74.6948H184.58ZM205.615 75.0317C204.951 75.0317 204.321 74.9585 203.726 74.812C203.13 74.6655 202.603 74.4263 202.144 74.0942C201.704 73.772 201.299 73.3813 200.928 72.9224C200.557 72.4634 200.239 71.9019 199.976 71.2378C199.673 70.4663 199.443 69.5581 199.287 68.5132C199.131 67.4585 199.053 66.2476 199.053 64.8804V55.8423H204.121V65.2173C204.121 66.3989 204.16 67.3608 204.238 68.103C204.316 68.8354 204.438 69.4409 204.604 69.9194C204.771 70.3784 204.966 70.6763 205.19 70.813C205.425 70.9399 205.649 71.0034 205.864 71.0034C206.157 71.0034 206.411 70.9106 206.626 70.7251C206.841 70.5396 207.021 70.2515 207.168 69.8608C207.324 69.4507 207.441 68.8892 207.52 68.1763C207.607 67.4634 207.651 66.4819 207.651 65.2319C207.651 64.2065 207.617 63.2983 207.549 62.5073C207.48 61.7065 207.354 61.0718 207.168 60.603C207.012 60.2026 206.821 59.9194 206.597 59.7534C206.382 59.5874 206.162 59.5044 205.938 59.5044C205.84 59.5044 205.732 59.5093 205.615 59.519C205.508 59.519 205.317 59.5386 205.044 59.5776V55.6519C205.269 55.603 205.547 55.5688 205.879 55.5493C206.221 55.52 206.484 55.5054 206.67 55.5054C207.344 55.5054 208.003 55.6519 208.647 55.9448C209.302 56.228 209.888 56.687 210.405 57.3218C210.767 57.7612 211.113 58.3228 211.445 59.0063C211.777 59.6802 212.041 60.4077 212.236 61.189C212.402 61.8237 212.524 62.5073 212.603 63.2397C212.681 63.9722 212.72 64.6753 212.72 65.3491C212.72 66.4526 212.622 67.5073 212.427 68.5132C212.231 69.519 211.987 70.3491 211.694 71.0034C211.411 71.6382 211.06 72.1899 210.64 72.6587C210.22 73.1274 209.824 73.5034 209.453 73.7866C208.809 74.2651 208.149 74.5923 207.476 74.7681C206.802 74.9438 206.182 75.0317 205.615 75.0317ZM223.486 74.6948V62.6245C223.486 61.8726 223.408 61.2476 223.252 60.7495C223.096 60.2417 222.812 59.8901 222.402 59.6948C222.266 59.6265 222.085 59.5776 221.86 59.5483C221.636 59.519 221.343 59.5044 220.981 59.5044C220.181 59.5044 219.365 59.5532 218.535 59.6509C217.705 59.7485 216.597 59.9243 215.21 60.1782V56.2817C215.483 56.1743 215.859 56.0767 216.338 55.9888C216.826 55.9009 217.412 55.8081 218.096 55.7104C218.76 55.6128 219.351 55.5542 219.868 55.5347C220.396 55.5151 220.908 55.5054 221.406 55.5054C222.656 55.5054 223.594 55.5591 224.219 55.6665C224.854 55.7642 225.4 55.9253 225.859 56.1499C226.084 56.2476 226.284 56.355 226.46 56.4722C226.646 56.5796 226.816 56.6968 226.973 56.8237C227.725 57.4292 228.159 58.1958 228.276 59.1235C228.403 60.0415 228.467 61.2134 228.467 62.6392V74.6948H223.486ZM215.21 74.6948V62.5659H220.205V74.6948H215.21ZM239.336 74.6948V62.6245C239.336 61.8726 239.258 61.2476 239.102 60.7495C238.945 60.2417 238.662 59.8901 238.252 59.6948C238.115 59.6265 237.935 59.5776 237.71 59.5483C237.485 59.519 237.192 59.5044 236.831 59.5044C236.03 59.5044 235.215 59.5532 234.385 59.6509C233.555 59.7485 232.446 59.9243 231.06 60.1782V56.2817C231.333 56.1743 231.709 56.0767 232.188 55.9888C232.676 55.9009 233.262 55.8081 233.945 55.7104C234.609 55.6128 235.2 55.5542 235.718 55.5347C236.245 55.5151 236.758 55.5054 237.256 55.5054C238.506 55.5054 239.443 55.5591 240.068 55.6665C240.703 55.7642 241.25 55.9253 241.709 56.1499C241.934 56.2476 242.134 56.355 242.31 56.4722C242.495 56.5796 242.666 56.6968 242.822 56.8237C243.574 57.4292 244.009 58.1958 244.126 59.1235C244.253 60.0415 244.316 61.2134 244.316 62.6392V74.6948H239.336ZM231.06 74.6948V62.5659H236.055V74.6948H231.06ZM252.183 74.6948V55.9741C252.261 55.9351 252.451 55.896 252.754 55.8569C253.066 55.8081 253.447 55.7642 253.896 55.7251C254.502 55.6665 255.195 55.6177 255.977 55.5786C256.758 55.5298 257.52 55.5054 258.262 55.5054C259.346 55.5054 260.21 55.5542 260.854 55.6519C261.509 55.7495 262.051 55.8911 262.48 56.0767C263.193 56.3794 263.784 56.8237 264.253 57.4097C264.731 57.9858 265.044 58.6597 265.19 59.4312C265.269 59.8218 265.327 60.2808 265.366 60.8081C265.415 61.3257 265.439 61.9604 265.439 62.7124V74.6948H252.183ZM257.178 70.7251H260.459V62.6978C260.459 62.3853 260.439 62.0435 260.4 61.6724C260.361 61.3013 260.293 60.9888 260.195 60.7349C260.098 60.481 259.966 60.2759 259.8 60.1196C259.634 59.9536 259.453 59.8218 259.258 59.7241C259.072 59.6265 258.887 59.5679 258.701 59.5483C258.516 59.519 258.35 59.5044 258.203 59.5044C257.812 59.5044 257.568 59.5044 257.471 59.5044C257.373 59.5044 257.275 59.5093 257.178 59.519V70.7251ZM268.633 74.6948L267.139 55.7983H272.134L272.91 65.0854C273.252 65.0952 273.516 65.0415 273.701 64.9243C273.887 64.7974 274.023 64.6167 274.111 64.3823C274.199 64.1577 274.253 63.8843 274.272 63.562C274.302 63.23 274.336 62.8442 274.375 62.4048L274.873 55.7983H279.839L279.224 64.2651C279.185 64.7827 279.092 65.2271 278.945 65.5981C278.799 65.9692 278.574 66.3354 278.271 66.6968C277.773 67.2632 277.173 67.7075 276.47 68.0298C275.767 68.3521 274.854 68.5132 273.73 68.5132C273.633 68.5132 273.54 68.5132 273.452 68.5132C273.364 68.5034 273.271 68.4985 273.174 68.4985L273.35 70.7397H275.562C276.479 70.7397 277.295 70.5737 278.008 70.2417C278.721 69.9097 279.321 69.4263 279.81 68.7915C280.581 67.7856 281.04 66.3403 281.187 64.4556L281.831 55.7983H286.841L286.182 64.4263C286.074 65.8911 285.815 67.2827 285.405 68.6011C284.995 69.9097 284.399 70.9448 283.618 71.7065C283.433 71.8921 283.105 72.1704 282.637 72.5415C282.178 72.9028 281.694 73.2202 281.187 73.4937C280.444 73.8843 279.58 74.1821 278.594 74.3872C277.617 74.5923 276.606 74.6948 275.562 74.6948H268.633Z" fill="black"/>
<path d="M152 115.695V104.452C152 103.744 151.938 103.174 151.816 102.743C151.702 102.312 151.491 101.986 151.182 101.767C150.929 101.571 150.636 101.445 150.303 101.388C149.969 101.323 149.599 101.291 149.192 101.291C148.875 101.291 148.427 101.315 147.849 101.364C147.279 101.413 146.458 101.494 145.383 101.608V100.045C145.619 100.005 145.868 99.9681 146.128 99.9355C146.396 99.903 146.673 99.8704 146.958 99.8379C147.463 99.7891 147.898 99.7565 148.264 99.7402C148.639 99.7158 148.96 99.7036 149.229 99.7036C149.774 99.7036 150.242 99.7321 150.632 99.7891C151.031 99.8379 151.397 99.9274 151.731 100.058C151.91 100.123 152.077 100.2 152.231 100.29C152.386 100.371 152.537 100.469 152.683 100.583C153.139 100.941 153.448 101.437 153.611 102.072C153.782 102.698 153.867 103.496 153.867 104.464V115.695H152ZM145.383 115.695V105.722H147.251V115.695H145.383ZM160.557 115.695C160.557 115.679 160.549 115.65 160.532 115.609C160.524 115.561 160.52 115.491 160.52 115.402C160.52 115.15 160.528 114.918 160.544 114.706C160.569 114.494 160.605 114.267 160.654 114.022C160.809 113.249 160.955 112.582 161.094 112.021C161.24 111.459 161.387 110.93 161.533 110.434C161.68 109.929 161.826 109.388 161.973 108.81L163.987 101.51H157.163V99.9478H165.928V101.303L163.608 109.762C163.511 110.128 163.417 110.474 163.328 110.8C163.246 111.125 163.165 111.435 163.083 111.728C163.01 112.021 162.945 112.297 162.888 112.558C162.807 112.883 162.734 113.188 162.668 113.473C162.611 113.758 162.563 114.018 162.522 114.254C162.481 114.49 162.449 114.706 162.424 114.901C162.408 115.097 162.4 115.268 162.4 115.414V115.695H160.557ZM157.175 121.701V106.381H159.031V121.701H157.175ZM172.361 115.939C171.604 115.939 170.945 115.76 170.383 115.402C169.903 115.117 169.492 114.722 169.15 114.218C168.817 113.705 168.54 113.095 168.32 112.387C168.133 111.76 167.991 111.056 167.893 110.275C167.804 109.494 167.759 108.651 167.759 107.748C167.759 106.771 167.82 105.901 167.942 105.136C168.072 104.371 168.267 103.691 168.528 103.097C168.788 102.503 169.118 101.97 169.517 101.498L169.553 101.413L167.991 101.51V99.9355C168.552 99.8867 169.081 99.846 169.578 99.8135C170.074 99.7728 170.558 99.7443 171.03 99.728C171.502 99.7118 171.986 99.7036 172.483 99.7036C172.882 99.7036 173.256 99.7646 173.606 99.8867C173.956 100.001 174.281 100.163 174.583 100.375C174.908 100.611 175.209 100.924 175.486 101.315C175.763 101.697 175.999 102.157 176.194 102.694C176.438 103.321 176.621 104.066 176.743 104.928C176.873 105.783 176.938 106.747 176.938 107.821C176.938 108.725 176.89 109.563 176.792 110.336C176.702 111.101 176.564 111.793 176.377 112.411C176.206 112.965 175.994 113.457 175.742 113.888C175.498 114.319 175.213 114.686 174.888 114.987C174.212 115.622 173.37 115.939 172.361 115.939ZM172.336 114.328C172.735 114.328 173.085 114.23 173.386 114.035C173.695 113.831 173.98 113.493 174.241 113.021C174.412 112.696 174.554 112.281 174.668 111.776C174.79 111.264 174.88 110.678 174.937 110.019C174.993 109.359 175.022 108.635 175.022 107.846C175.022 106.609 174.953 105.551 174.814 104.672C174.684 103.785 174.489 103.101 174.229 102.621C173.984 102.165 173.712 101.836 173.411 101.632C173.11 101.421 172.776 101.315 172.41 101.315C172.214 101.323 172.027 101.331 171.848 101.339C171.669 101.347 171.486 101.36 171.299 101.376C170.68 102.051 170.253 102.894 170.017 103.903C169.789 104.912 169.675 106.125 169.675 107.541C169.675 108.965 169.74 110.12 169.871 111.007C170.009 111.886 170.204 112.562 170.457 113.034C170.701 113.489 170.973 113.819 171.274 114.022C171.584 114.226 171.938 114.328 172.336 114.328ZM183.225 115.939C182.924 115.939 182.611 115.927 182.285 115.902C181.968 115.886 181.663 115.862 181.37 115.829C181.077 115.805 180.824 115.772 180.613 115.731L180.234 115.658V114.022C180.78 114.128 181.3 114.206 181.797 114.254C182.301 114.303 182.818 114.328 183.347 114.328C183.648 114.328 183.933 114.254 184.202 114.108C184.478 113.953 184.739 113.709 184.983 113.375C185.105 113.213 185.215 113.026 185.312 112.814C185.41 112.602 185.5 112.375 185.581 112.13C185.752 111.61 185.878 110.991 185.959 110.275C186.049 109.551 186.094 108.745 186.094 107.858C186.094 107.077 186.069 106.373 186.021 105.746C185.972 105.111 185.898 104.558 185.801 104.086C185.736 103.777 185.662 103.5 185.581 103.256C185.5 103.012 185.41 102.796 185.312 102.609C185.052 102.129 184.767 101.795 184.458 101.608C184.149 101.413 183.795 101.315 183.396 101.315C182.981 101.315 182.603 101.433 182.261 101.669C181.927 101.905 181.663 102.214 181.467 102.597C181.256 102.995 181.101 103.41 181.003 103.842C180.906 104.273 180.857 104.721 180.857 105.185C180.857 105.811 180.91 106.369 181.016 106.857C181.121 107.345 181.284 107.732 181.504 108.017C181.683 108.261 181.911 108.46 182.188 108.615C182.472 108.769 182.81 108.859 183.201 108.883L183.469 108.908L183.127 110.373L182.871 110.348C182.432 110.34 182.017 110.267 181.626 110.128C181.235 109.982 180.898 109.791 180.613 109.555C180.442 109.424 180.279 109.27 180.125 109.091C179.97 108.904 179.836 108.704 179.722 108.493C179.518 108.102 179.351 107.63 179.221 107.077C179.099 106.523 179.038 105.901 179.038 105.209C179.038 104.395 179.14 103.651 179.343 102.975C179.555 102.3 179.864 101.714 180.271 101.217C180.662 100.729 181.125 100.355 181.663 100.094C182.2 99.8338 182.778 99.7036 183.396 99.7036C183.884 99.7036 184.324 99.7728 184.714 99.9111C185.105 100.049 185.451 100.233 185.752 100.46C186.061 100.705 186.35 101.022 186.619 101.413C186.887 101.803 187.115 102.259 187.302 102.78C187.53 103.398 187.705 104.131 187.827 104.977C187.949 105.823 188.01 106.771 188.01 107.821C188.01 108.879 187.941 109.835 187.803 110.69C187.673 111.536 187.485 112.273 187.241 112.899C187.038 113.412 186.798 113.86 186.521 114.242C186.244 114.617 185.947 114.93 185.63 115.182C185.329 115.402 184.983 115.581 184.592 115.719C184.202 115.866 183.746 115.939 183.225 115.939ZM197.336 115.695V104.452C197.336 103.744 197.275 103.174 197.153 102.743C197.039 102.312 196.828 101.986 196.519 101.767C196.266 101.571 195.973 101.445 195.64 101.388C195.306 101.323 194.936 101.291 194.529 101.291C194.211 101.291 193.764 101.315 193.186 101.364C192.616 101.413 191.794 101.494 190.72 101.608V100.045C190.956 100.005 191.204 99.9681 191.465 99.9355C191.733 99.903 192.01 99.8704 192.295 99.8379C192.799 99.7891 193.235 99.7565 193.601 99.7402C193.975 99.7158 194.297 99.7036 194.565 99.7036C195.111 99.7036 195.579 99.7321 195.969 99.7891C196.368 99.8379 196.734 99.9274 197.068 100.058C197.247 100.123 197.414 100.2 197.568 100.29C197.723 100.371 197.874 100.469 198.02 100.583C198.476 100.941 198.785 101.437 198.948 102.072C199.119 102.698 199.204 103.496 199.204 104.464V115.695H197.336ZM190.72 115.695V105.722H192.588V115.695H190.72ZM201.902 115.695V114.132H207.151V104.452C207.151 103.451 207.025 102.711 206.772 102.23C206.52 101.75 206.085 101.461 205.466 101.364C205.328 101.339 205.177 101.323 205.015 101.315C204.86 101.299 204.701 101.291 204.539 101.291C204.058 101.291 203.639 101.303 203.281 101.327C202.931 101.343 202.467 101.384 201.89 101.449V99.8501C202.329 99.8013 202.752 99.7646 203.159 99.7402C203.566 99.7158 203.965 99.7036 204.355 99.7036C204.901 99.7036 205.356 99.724 205.723 99.7646C206.089 99.8053 206.41 99.8704 206.687 99.96C207.069 100.082 207.403 100.253 207.688 100.473C207.981 100.684 208.221 100.941 208.408 101.242C208.547 101.453 208.66 101.73 208.75 102.072C208.84 102.405 208.905 102.78 208.945 103.195C208.986 103.602 209.006 104.025 209.006 104.464V114.132H210.251V115.695H201.902ZM216.917 115.695V99.9844C217.087 99.96 217.271 99.9396 217.466 99.9233C217.669 99.8989 217.877 99.8786 218.088 99.8623C218.617 99.8135 219.106 99.7769 219.553 99.7524C220.001 99.7199 220.383 99.7036 220.701 99.7036C221.376 99.7036 221.954 99.7362 222.434 99.8013C222.922 99.8664 223.354 99.9803 223.728 100.143C224.119 100.314 224.42 100.542 224.631 100.827C224.843 101.111 225.006 101.457 225.12 101.864C225.209 102.174 225.278 102.536 225.327 102.951C225.376 103.366 225.4 103.838 225.4 104.367V115.695H216.917ZM218.784 114.132H223.533V104.354C223.533 103.907 223.512 103.512 223.472 103.17C223.439 102.829 223.378 102.556 223.289 102.353C223.191 102.108 223.073 101.921 222.935 101.791C222.796 101.653 222.601 101.547 222.349 101.474C222.096 101.392 221.836 101.343 221.567 101.327C221.299 101.303 220.977 101.291 220.603 101.291C220.351 101.291 220.078 101.299 219.785 101.315C219.492 101.331 219.159 101.36 218.784 101.4V114.132ZM228.55 109.994V99.9478H230.405V108.053L229.038 109.994H228.55ZM237.375 115.695V104.452C237.375 103.76 237.331 103.207 237.241 102.792C237.16 102.369 236.997 102.043 236.753 101.815C236.533 101.604 236.261 101.465 235.935 101.4C235.618 101.327 235.251 101.291 234.836 101.291C234.617 101.291 234.356 101.299 234.055 101.315C233.754 101.323 233.453 101.339 233.152 101.364C232.851 101.388 232.59 101.413 232.371 101.437V99.8501C232.778 99.8013 233.172 99.7646 233.555 99.7402C233.937 99.7158 234.303 99.7036 234.653 99.7036C235.304 99.7036 235.841 99.7321 236.265 99.7891C236.688 99.846 237.07 99.9437 237.412 100.082C237.738 100.212 238.006 100.387 238.218 100.607C238.438 100.819 238.625 101.087 238.779 101.413C238.95 101.763 239.068 102.194 239.133 102.707C239.198 103.211 239.231 103.797 239.231 104.464V115.695H237.375ZM242.393 109.994V99.9478H244.248V108.053L242.881 109.994H242.393ZM247.935 115.695L246.628 99.9478H248.423L249.143 108.615C249.542 108.46 249.884 108.269 250.168 108.041C250.453 107.805 250.697 107.512 250.901 107.162C251.137 106.755 251.32 106.263 251.45 105.685C251.589 105.107 251.698 104.416 251.78 103.61L252.109 99.9478H253.855L253.501 103.976C253.42 104.863 253.302 105.612 253.147 106.222C252.992 106.824 252.777 107.39 252.5 107.919C252.174 108.48 251.764 108.94 251.267 109.298C250.771 109.656 250.148 109.937 249.399 110.141C249.383 110.141 249.363 110.145 249.338 110.153C249.314 110.153 249.29 110.153 249.265 110.153L249.607 114.108H250.266C251.161 114.108 251.979 113.925 252.72 113.559C253.468 113.184 254.103 112.663 254.624 111.996C255.658 110.678 256.276 108.952 256.479 106.82L257.114 99.9478H258.884L258.237 106.82C258.148 107.838 257.973 108.794 257.712 109.689C257.46 110.584 257.114 111.382 256.675 112.082C256.325 112.716 255.889 113.294 255.369 113.815C254.856 114.328 254.229 114.743 253.489 115.06C253.025 115.272 252.52 115.43 251.975 115.536C251.43 115.642 250.86 115.695 250.266 115.695H247.935ZM265.61 115.78C265.456 115.78 265.285 115.764 265.098 115.731C264.91 115.699 264.723 115.654 264.536 115.597V113.986C264.87 114.083 265.122 114.132 265.293 114.132C265.667 114.132 265.911 113.986 266.025 113.693C266.139 113.392 266.196 113.013 266.196 112.558V101.522C266.025 101.531 265.85 101.547 265.671 101.571C265.5 101.596 265.33 101.624 265.159 101.657V100.082C265.476 100.025 265.875 99.9681 266.355 99.9111C266.843 99.8542 267.348 99.8053 267.869 99.7646C268.389 99.724 268.87 99.7036 269.309 99.7036C269.895 99.7036 270.375 99.7199 270.75 99.7524C271.124 99.7769 271.441 99.8257 271.702 99.8989C271.97 99.9722 272.227 100.066 272.471 100.18C272.658 100.277 272.829 100.387 272.983 100.509C273.138 100.631 273.28 100.77 273.411 100.924C273.736 101.307 273.96 101.791 274.082 102.377C274.204 102.963 274.265 103.659 274.265 104.464V115.695H272.397V104.452C272.397 103.492 272.275 102.788 272.031 102.34C271.787 101.885 271.376 101.592 270.798 101.461C270.554 101.38 270.261 101.327 269.919 101.303C269.773 101.303 269.545 101.307 269.236 101.315C268.927 101.315 268.536 101.327 268.064 101.352V112.558C268.064 112.965 268.04 113.339 267.991 113.681C267.942 114.014 267.873 114.307 267.783 114.56C267.612 115.032 267.336 115.361 266.953 115.548C266.758 115.638 266.542 115.699 266.306 115.731C266.078 115.764 265.846 115.78 265.61 115.78ZM281.223 115.695V104.452C281.223 103.76 281.178 103.207 281.089 102.792C281.007 102.369 280.845 102.043 280.601 101.815C280.381 101.604 280.108 101.465 279.783 101.4C279.465 101.327 279.099 101.291 278.684 101.291C278.464 101.291 278.204 101.299 277.903 101.315C277.602 101.323 277.301 101.339 277 101.364C276.698 101.388 276.438 101.413 276.218 101.437V99.8501C276.625 99.8013 277.02 99.7646 277.402 99.7402C277.785 99.7158 278.151 99.7036 278.501 99.7036C279.152 99.7036 279.689 99.7321 280.112 99.7891C280.535 99.846 280.918 99.9437 281.26 100.082C281.585 100.212 281.854 100.387 282.065 100.607C282.285 100.819 282.472 101.087 282.627 101.413C282.798 101.763 282.916 102.194 282.981 102.707C283.046 103.211 283.079 103.797 283.079 104.464V115.695H281.223ZM286.24 109.994V99.9478H288.096V108.053L286.729 109.994H286.24ZM291.331 115.695V100.045C291.697 99.9966 292.043 99.9559 292.368 99.9233C292.694 99.8826 292.999 99.846 293.284 99.8135C293.674 99.7809 294.032 99.7565 294.358 99.7402C294.692 99.7158 294.985 99.7036 295.237 99.7036C295.986 99.7036 296.632 99.7687 297.178 99.8989C297.731 100.029 298.211 100.261 298.618 100.595C298.74 100.692 298.846 100.798 298.936 100.912C299.033 101.026 299.123 101.148 299.204 101.278C299.424 101.653 299.578 102.104 299.668 102.633C299.766 103.154 299.814 103.764 299.814 104.464V115.695H297.947V104.452C297.947 103.785 297.894 103.244 297.788 102.829C297.69 102.414 297.511 102.092 297.251 101.864C296.999 101.636 296.698 101.486 296.348 101.413C296.006 101.331 295.587 101.291 295.09 101.291C294.854 101.291 294.578 101.303 294.26 101.327C293.951 101.343 293.597 101.376 293.198 101.425V115.695H291.331ZM302.512 115.695V114.132H307.761V104.452C307.761 103.451 307.635 102.711 307.383 102.23C307.131 101.75 306.695 101.461 306.077 101.364C305.938 101.339 305.788 101.323 305.625 101.315C305.47 101.299 305.312 101.291 305.149 101.291C304.669 101.291 304.25 101.303 303.892 101.327C303.542 101.343 303.078 101.384 302.5 101.449V99.8501C302.939 99.8013 303.363 99.7646 303.77 99.7402C304.176 99.7158 304.575 99.7036 304.966 99.7036C305.511 99.7036 305.967 99.724 306.333 99.7646C306.699 99.8053 307.021 99.8704 307.297 99.96C307.68 100.082 308.014 100.253 308.298 100.473C308.591 100.684 308.831 100.941 309.019 101.242C309.157 101.453 309.271 101.73 309.36 102.072C309.45 102.405 309.515 102.78 309.556 103.195C309.596 103.602 309.617 104.025 309.617 104.464V114.132H310.862V115.695H302.512Z" fill="black"/>
<g opacity="0.25">
<path fill-rule="evenodd" clip-rule="evenodd" d="M255.403 167.158C255.096 165.257 253.813 163.65 252.027 162.937L250.939 162.49C248.568 161.54 247.159 159.094 247.522 156.564L247.675 155.39C248.08 152.315 245.932 149.492 242.863 149.087C242.054 148.975 241.217 149.045 240.436 149.296L239.306 149.66C236.879 150.456 234.228 149.478 232.889 147.312L232.247 146.305C230.56 143.678 227.1 142.909 224.492 144.572C223.794 145.02 223.208 145.607 222.762 146.305L222.12 147.312C220.767 149.478 218.117 150.442 215.69 149.66L214.56 149.296C211.603 148.36 208.464 149.995 207.53 152.958C207.279 153.741 207.209 154.579 207.32 155.39L207.474 156.564C207.837 159.094 206.428 161.54 204.056 162.49L202.968 162.937C200.109 164.125 198.742 167.41 199.927 170.275C200.248 171.044 200.722 171.714 201.322 172.273L202.201 173.07C204.098 174.775 204.586 177.557 203.387 179.821L202.843 180.869C201.406 183.622 202.466 187.019 205.214 188.444C205.939 188.821 206.748 189.045 207.571 189.073L208.757 189.129C211.31 189.213 213.472 191.03 213.988 193.531L214.239 194.692C214.909 197.724 217.894 199.639 220.921 198.968C221.73 198.787 222.483 198.437 223.139 197.934L224.073 197.207C226.082 195.628 228.9 195.628 230.908 197.207L231.843 197.934C234.298 199.821 237.813 199.36 239.71 196.914C240.212 196.257 240.561 195.502 240.742 194.692L240.994 193.531C241.524 191.03 243.686 189.213 246.224 189.129L247.41 189.073C250.507 188.947 252.906 186.32 252.767 183.217C252.739 182.392 252.515 181.582 252.139 180.855L251.595 179.807C250.395 177.557 250.883 174.775 252.781 173.056L253.659 172.259C255.096 170.988 255.766 169.045 255.403 167.158Z" fill="#DBB65D"/>
<path fill-rule="evenodd" clip-rule="evenodd" d="M227.5 193.135C216.065 193.135 206.779 183.963 206.779 172.633C206.779 161.319 216.065 152.131 227.5 152.131C238.935 152.131 248.221 161.302 248.221 172.633C248.221 183.947 238.935 193.135 227.5 193.135Z" fill="white"/>
<path fill-rule="evenodd" clip-rule="evenodd" d="M227.5 154.566C217.41 154.566 209.24 162.65 209.24 172.633C209.24 182.616 217.41 190.7 227.5 190.7C237.59 190.7 245.76 182.616 245.76 172.633C245.76 162.65 237.59 154.566 227.5 154.566ZM238.197 168.185L227.385 180.668C226.417 181.902 224.612 182.129 223.349 181.171C223.218 181.074 223.087 180.96 222.972 180.83L216.836 174.045C215.769 172.876 215.868 171.091 217.049 170.036C218.23 168.981 220.035 169.078 221.101 170.247L225.072 174.629L233.849 164.5C234.883 163.315 236.687 163.169 237.885 164.192C239.099 165.198 239.23 167 238.197 168.185Z" fill="#335269"/>
<path fill-rule="evenodd" clip-rule="evenodd" d="M237.698 200.635C236.052 201.229 234.252 201.256 232.591 200.703L237.405 211.695L241.871 202.674L251.682 205.834L245.416 191.547C244.118 191.844 243.113 192.843 242.848 194.113L242.597 195.234C242.039 197.745 240.196 199.798 237.698 200.635Z" fill="#335269"/>
<path fill-rule="evenodd" clip-rule="evenodd" d="M209.584 191.547L203.318 205.834L213.129 202.674L217.595 211.695L222.409 200.703C218.362 202.013 213.98 199.906 212.627 196.003C212.543 195.747 212.473 195.504 212.403 195.247L212.152 194.126C211.887 192.857 210.882 191.857 209.584 191.547Z" fill="#335269"/>
</g>
<line x1="49.5" y1="232.195" x2="405.5" y2="232.195" stroke="#DBB65D" stroke-dasharray="5 5"/>
<path d="M115.482 285.695H113.168V270.988C113.168 270.558 113.173 270.128 113.183 269.699C113.192 269.259 113.207 268.815 113.227 268.366C113.246 267.917 113.266 267.467 113.285 267.018C113.158 267.204 112.987 267.414 112.772 267.648C112.558 267.882 112.289 268.156 111.967 268.468L110.062 270.314L108.744 268.878L113.49 264.279H115.482V285.695ZM125.854 272.57C126.947 272.57 127.88 272.833 128.651 273.361C129.423 273.888 130.014 274.621 130.424 275.558C130.834 276.496 131.039 277.584 131.039 278.825C131.039 280.241 130.805 281.486 130.336 282.56C129.877 283.634 129.198 284.474 128.3 285.08C127.401 285.685 126.288 285.988 124.96 285.988C124.149 285.988 123.422 285.91 122.777 285.753C122.133 285.607 121.566 285.387 121.078 285.094V282.78C121.625 283.141 122.216 283.429 122.851 283.644C123.495 283.859 124.14 283.966 124.784 283.966C125.673 283.966 126.4 283.737 126.967 283.278C127.543 282.809 127.973 282.194 128.256 281.432C128.539 280.661 128.681 279.816 128.681 278.898C128.681 277.482 128.368 276.403 127.743 275.661C127.128 274.918 126.239 274.547 125.077 274.547C124.589 274.547 124.105 274.596 123.627 274.694C123.148 274.782 122.67 274.899 122.191 275.045L121.269 274.152L121.913 264.279H129.896V266.388H123.847L123.407 272.863C123.817 272.765 124.228 272.692 124.638 272.643C125.058 272.594 125.463 272.57 125.854 272.57ZM143.871 274.987C143.871 276.706 143.773 278.244 143.578 279.601C143.393 280.958 143.095 282.111 142.685 283.058C142.274 284.005 141.742 284.728 141.088 285.226C140.443 285.724 139.667 285.973 138.759 285.973C137.675 285.973 136.752 285.641 135.99 284.977C135.229 284.303 134.643 283.17 134.232 281.579C133.832 279.977 133.632 277.78 133.632 274.987C133.632 272.545 133.817 270.509 134.188 268.878C134.569 267.248 135.136 266.022 135.888 265.202C136.649 264.381 137.606 263.971 138.759 263.971C139.931 263.971 140.893 264.386 141.645 265.216C142.396 266.037 142.953 267.262 143.314 268.893C143.686 270.524 143.871 272.555 143.871 274.987ZM135.99 274.987C135.99 276.95 136.083 278.59 136.269 279.909C136.454 281.217 136.752 282.204 137.162 282.868C137.572 283.532 138.104 283.864 138.759 283.864C139.413 283.864 139.945 283.532 140.355 282.868C140.766 282.194 141.063 281.198 141.249 279.879C141.444 278.561 141.542 276.93 141.542 274.987C141.542 273.043 141.444 271.413 141.249 270.094C141.054 268.776 140.751 267.78 140.341 267.106C139.94 266.432 139.413 266.095 138.759 266.095C138.104 266.095 137.572 266.427 137.162 267.091C136.752 267.755 136.454 268.747 136.269 270.065C136.083 271.374 135.99 273.014 135.99 274.987Z" fill="#062841"/>
<path d="M76.8732 283.267L77.1933 283.263L79.4667 283.251L89.8284 283.203L79.4221 273.997L89.7352 264.695L79.3735 264.743L77.1042 264.755H76.78L66.4629 274.057L76.8732 283.267Z" fill="#DBB65D"/>
<path d="M59.9103 283.267L60.2305 283.263L62.4997 283.255L72.8655 283.203L62.4552 273.997L72.7723 264.695L62.4106 264.743L60.1373 264.755L59.8171 264.759L49.5 274.061L59.9103 283.267Z" fill="#DBB65D"/>
<path d="M284.357 284.113C284.357 283.527 284.484 283.078 284.738 282.765C284.992 282.453 285.373 282.296 285.881 282.296C286.359 282.296 286.73 282.443 286.994 282.736C287.268 283.019 287.404 283.478 287.404 284.113C287.404 284.738 287.263 285.202 286.979 285.504C286.706 285.797 286.34 285.944 285.881 285.944C285.373 285.944 284.992 285.788 284.738 285.475C284.484 285.163 284.357 284.708 284.357 284.113ZM284.357 271.354C284.357 270.749 284.484 270.294 284.738 269.992C284.992 269.679 285.373 269.523 285.881 269.523C286.379 269.523 286.755 269.674 287.009 269.977C287.272 270.28 287.404 270.734 287.404 271.339C287.404 271.964 287.263 272.433 286.979 272.746C286.696 273.048 286.33 273.2 285.881 273.2C285.383 273.2 285.002 273.043 284.738 272.731C284.484 272.409 284.357 271.95 284.357 271.354ZM299.123 285.695V272.204C299.123 271.354 299.05 270.67 298.903 270.153C298.767 269.635 298.513 269.245 298.142 268.981C297.839 268.747 297.487 268.595 297.087 268.527C296.687 268.449 296.242 268.41 295.754 268.41C295.373 268.41 294.836 268.439 294.143 268.498C293.459 268.556 292.473 268.654 291.184 268.791V266.916C291.467 266.867 291.765 266.823 292.077 266.784C292.399 266.745 292.731 266.706 293.073 266.667C293.679 266.608 294.201 266.569 294.641 266.549C295.09 266.52 295.476 266.505 295.798 266.505C296.452 266.505 297.014 266.54 297.482 266.608C297.961 266.667 298.4 266.774 298.801 266.93C299.016 267.008 299.216 267.101 299.401 267.208C299.587 267.306 299.768 267.423 299.943 267.56C300.49 267.99 300.861 268.585 301.057 269.347C301.262 270.099 301.364 271.056 301.364 272.218V285.695H299.123ZM291.184 285.695V273.727H293.425V285.695H291.184ZM304.602 285.695V283.82H310.9V272.204C310.9 271.002 310.749 270.114 310.446 269.538C310.144 268.961 309.621 268.615 308.879 268.498C308.713 268.468 308.532 268.449 308.337 268.439C308.151 268.419 307.961 268.41 307.766 268.41C307.189 268.41 306.687 268.424 306.257 268.454C305.837 268.473 305.28 268.522 304.587 268.6V266.681C305.114 266.623 305.622 266.579 306.11 266.549C306.599 266.52 307.077 266.505 307.546 266.505C308.2 266.505 308.747 266.53 309.187 266.579C309.626 266.627 310.012 266.706 310.344 266.813C310.803 266.959 311.203 267.165 311.545 267.428C311.896 267.682 312.185 267.99 312.409 268.351C312.575 268.605 312.712 268.937 312.819 269.347C312.927 269.748 313.005 270.197 313.054 270.695C313.103 271.183 313.127 271.691 313.127 272.218V283.82H314.621V285.695H304.602ZM321.96 286.002C321.276 286.002 320.661 285.88 320.114 285.636C319.567 285.392 319.084 285.031 318.664 284.552C318.332 284.181 318.034 283.737 317.771 283.219C317.517 282.702 317.302 282.116 317.126 281.461C316.921 280.758 316.77 279.972 316.672 279.103C316.574 278.224 316.525 277.272 316.525 276.247V266.813H318.781V276.247C318.781 277.76 318.859 279.035 319.016 280.07C319.182 281.095 319.426 281.901 319.748 282.487C320.061 283.063 320.397 283.468 320.759 283.703C321.13 283.937 321.55 284.054 322.019 284.054C322.497 284.054 322.917 283.932 323.278 283.688C323.64 283.444 323.972 283.043 324.274 282.487C324.587 281.92 324.821 281.125 324.978 280.099C325.144 279.064 325.227 277.78 325.227 276.247C325.227 274.762 325.148 273.498 324.992 272.453C324.836 271.398 324.597 270.578 324.274 269.992C323.972 269.425 323.635 269.025 323.264 268.791C322.893 268.546 322.497 268.419 322.077 268.41C321.862 268.41 321.652 268.419 321.447 268.439C321.242 268.458 321.018 268.488 320.773 268.527V266.623C320.998 266.583 321.237 266.554 321.491 266.535C321.745 266.515 321.979 266.505 322.194 266.505C322.81 266.505 323.381 266.618 323.908 266.842C324.436 267.057 324.904 267.389 325.314 267.838C325.705 268.249 326.047 268.766 326.34 269.391C326.643 270.016 326.882 270.729 327.058 271.53C327.214 272.194 327.331 272.926 327.409 273.727C327.487 274.528 327.526 275.377 327.526 276.276C327.526 277.36 327.463 278.366 327.336 279.293C327.219 280.221 327.053 281.037 326.838 281.74C326.633 282.433 326.374 283.043 326.062 283.571C325.759 284.098 325.417 284.528 325.036 284.86C324.597 285.26 324.113 285.548 323.586 285.724C323.068 285.91 322.526 286.002 321.96 286.002ZM338.762 285.695V272.204C338.762 271.354 338.688 270.67 338.542 270.153C338.405 269.635 338.151 269.245 337.78 268.981C337.478 268.747 337.126 268.595 336.726 268.527C336.325 268.449 335.881 268.41 335.393 268.41C335.012 268.41 334.475 268.439 333.781 268.498C333.098 268.556 332.111 268.654 330.822 268.791V266.916C331.105 266.867 331.403 266.823 331.716 266.784C332.038 266.745 332.37 266.706 332.712 266.667C333.317 266.608 333.84 266.569 334.279 266.549C334.729 266.52 335.114 266.505 335.437 266.505C336.091 266.505 336.652 266.54 337.121 266.608C337.6 266.667 338.039 266.774 338.439 266.93C338.654 267.008 338.854 267.101 339.04 267.208C339.226 267.306 339.406 267.423 339.582 267.56C340.129 267.99 340.5 268.585 340.695 269.347C340.9 270.099 341.003 271.056 341.003 272.218V285.695H338.762ZM330.822 285.695V273.727H333.063V285.695H330.822ZM352.795 285.695V272.204C352.795 271.354 352.722 270.67 352.575 270.153C352.438 269.635 352.185 269.245 351.813 268.981C351.511 268.747 351.159 268.595 350.759 268.527C350.358 268.449 349.914 268.41 349.426 268.41C349.045 268.41 348.508 268.439 347.814 268.498C347.131 268.556 346.145 268.654 344.855 268.791V266.916C345.139 266.867 345.437 266.823 345.749 266.784C346.071 266.745 346.403 266.706 346.745 266.667C347.351 266.608 347.873 266.569 348.312 266.549C348.762 266.52 349.147 266.505 349.47 266.505C350.124 266.505 350.686 266.54 351.154 266.608C351.633 266.667 352.072 266.774 352.473 266.93C352.688 267.008 352.888 267.101 353.073 267.208C353.259 267.306 353.439 267.423 353.615 267.56C354.162 267.99 354.533 268.585 354.729 269.347C354.934 270.099 355.036 271.056 355.036 272.218V285.695H352.795ZM344.855 285.695V273.727H347.097V285.695H344.855ZM364.089 285.797C363.903 285.797 363.698 285.778 363.474 285.739C363.249 285.7 363.024 285.646 362.8 285.578V283.644C363.2 283.761 363.503 283.82 363.708 283.82C364.157 283.82 364.45 283.644 364.587 283.292C364.724 282.931 364.792 282.477 364.792 281.93V268.688C364.587 268.698 364.377 268.717 364.162 268.747C363.957 268.776 363.752 268.81 363.547 268.849V266.959C363.928 266.891 364.406 266.823 364.982 266.754C365.568 266.686 366.174 266.627 366.799 266.579C367.424 266.53 368 266.505 368.527 266.505C369.23 266.505 369.807 266.525 370.256 266.564C370.705 266.593 371.086 266.652 371.398 266.74C371.721 266.828 372.028 266.94 372.321 267.077C372.546 267.194 372.751 267.326 372.937 267.472C373.122 267.619 373.293 267.785 373.449 267.97C373.84 268.429 374.108 269.01 374.255 269.713C374.401 270.417 374.475 271.251 374.475 272.218V285.695H372.233V272.204C372.233 271.051 372.087 270.207 371.794 269.669C371.501 269.123 371.008 268.771 370.314 268.615C370.021 268.517 369.67 268.454 369.26 268.424C369.084 268.424 368.811 268.429 368.439 268.439C368.068 268.439 367.6 268.454 367.033 268.483V281.93C367.033 282.418 367.004 282.868 366.945 283.278C366.887 283.678 366.804 284.03 366.696 284.333C366.491 284.899 366.159 285.294 365.7 285.519C365.466 285.626 365.207 285.7 364.924 285.739C364.65 285.778 364.372 285.797 364.089 285.797ZM378.342 285.695V266.798H380.583V285.695H378.342ZM386.018 285.695L387.38 278.429L389.812 268.688H383.205V262.77H385.432V266.74H391.965V268.688L389.606 278.327L388.215 285.695H386.018ZM393.444 286.471V284.567L395.92 284.127C396.135 284.088 396.35 284.049 396.564 284.01C396.779 283.971 396.999 283.937 397.224 283.908L393.488 266.798H395.715L397.561 275.338L399.04 283.058C399.763 282.599 400.31 281.974 400.681 281.183C401.062 280.392 401.34 279.494 401.516 278.488C401.691 277.482 401.838 276.437 401.955 275.353L402.761 266.798H404.987L404.182 275.148C404.055 276.417 403.913 277.58 403.757 278.634C403.601 279.679 403.347 280.622 402.995 281.461C402.653 282.292 402.131 283.024 401.428 283.659C400.969 284.206 400.407 284.655 399.743 285.006C399.079 285.348 398.278 285.607 397.341 285.783C396.696 285.89 396.047 286.002 395.393 286.12C394.748 286.237 394.099 286.354 393.444 286.471Z" fill="#062841"/>
<g filter="url(#filter1_d_14_4832)">
<rect x="113.5" y="315.695" width="228" height="51" rx="5" fill="#E96D5A"/>
<path d="M176.552 348.695V336.097H179.872V348.695H176.552ZM181.649 344.632V336.097H184.96V341.498L183.026 344.632H181.649ZM187.147 348.695L186.151 336.097H189.481L189.999 342.289C190.227 342.295 190.403 342.259 190.526 342.181C190.65 342.097 190.741 341.976 190.8 341.82C190.858 341.67 190.894 341.488 190.907 341.273C190.927 341.052 190.95 340.794 190.976 340.501L191.308 336.097H194.618L194.208 341.742C194.182 342.087 194.12 342.383 194.022 342.63C193.925 342.878 193.775 343.122 193.573 343.363C193.241 343.74 192.841 344.037 192.372 344.251C191.903 344.466 191.295 344.574 190.546 344.574C190.481 344.574 190.419 344.574 190.36 344.574C190.302 344.567 190.24 344.564 190.175 344.564L190.292 346.058H191.767C192.379 346.058 192.922 345.947 193.397 345.726C193.873 345.505 194.273 345.182 194.599 344.759C195.113 344.089 195.419 343.125 195.517 341.869L195.946 336.097H199.286L198.847 341.849C198.775 342.826 198.603 343.753 198.329 344.632C198.056 345.505 197.659 346.195 197.138 346.703C197.014 346.826 196.796 347.012 196.483 347.259C196.177 347.5 195.855 347.712 195.517 347.894C195.022 348.154 194.446 348.353 193.788 348.49C193.137 348.626 192.463 348.695 191.767 348.695H187.147ZM202.919 348.89C202.248 348.89 201.669 348.861 201.181 348.802C200.699 348.75 200.279 348.669 199.921 348.558V345.746C200.194 345.811 200.471 345.869 200.751 345.921C201.037 345.967 201.324 346.003 201.61 346.029C201.903 346.055 202.196 346.068 202.489 346.068C202.724 346.068 202.925 346.029 203.095 345.951C203.264 345.873 203.384 345.765 203.456 345.628C203.515 345.524 203.56 345.407 203.593 345.277C203.632 345.147 203.661 345.007 203.681 344.857C203.7 344.675 203.713 344.483 203.72 344.281C203.726 344.072 203.729 343.861 203.729 343.646V341.419C203.729 340.957 203.7 340.55 203.642 340.199C203.583 339.841 203.498 339.548 203.388 339.32C203.297 339.125 203.157 338.975 202.968 338.871C202.779 338.766 202.541 338.714 202.255 338.714C201.955 338.714 201.688 338.724 201.454 338.744C201.22 338.757 200.92 338.783 200.556 338.822C200.465 338.828 200.367 338.841 200.263 338.861C200.159 338.88 200.051 338.897 199.94 338.91V336.117C200.038 336.104 200.136 336.091 200.233 336.078C200.331 336.058 200.429 336.045 200.526 336.039C200.871 335.993 201.213 335.96 201.552 335.941C201.897 335.915 202.245 335.902 202.597 335.902C203.215 335.902 203.746 335.967 204.188 336.097C204.638 336.221 205.019 336.387 205.331 336.595C205.696 336.823 205.992 337.106 206.22 337.445C206.454 337.777 206.643 338.158 206.786 338.587C206.877 338.854 206.946 339.138 206.991 339.437C207.043 339.736 207.076 340.052 207.089 340.384C207.108 340.716 207.118 341.061 207.118 341.419V343.646C207.118 344.173 207.073 344.675 206.981 345.15C206.89 345.625 206.754 346.071 206.571 346.488C206.369 346.957 206.109 347.363 205.79 347.708C205.478 348.047 205.061 348.333 204.54 348.568C204.293 348.679 204.019 348.76 203.72 348.812C203.42 348.864 203.153 348.89 202.919 348.89ZM208.222 349.33V346.644L209.345 346.4C209.449 346.374 209.553 346.351 209.657 346.332C209.761 346.312 209.866 346.289 209.97 346.263L208.065 336.097H211.366L212.323 341.771L212.538 344.837C212.733 344.544 212.903 344.258 213.046 343.978C213.189 343.692 213.303 343.418 213.388 343.158C213.472 342.897 213.524 342.653 213.544 342.425L214.042 336.117H217.362L216.923 341.81C216.916 341.94 216.884 342.191 216.825 342.562C216.773 342.933 216.682 343.363 216.552 343.851C216.428 344.339 216.249 344.824 216.015 345.306C215.591 346.192 214.993 346.917 214.218 347.484C213.443 348.05 212.405 348.467 211.103 348.734C210.627 348.832 210.149 348.929 209.667 349.027C209.185 349.131 208.703 349.232 208.222 349.33ZM222.353 348.695V336.097H225.673V348.695H222.353ZM226.884 348.695V346.048H229.745C229.797 345.866 229.833 345.596 229.853 345.238C229.872 344.873 229.882 344.417 229.882 343.871V340.033C229.882 339.818 229.849 339.587 229.784 339.339C229.726 339.085 229.625 338.91 229.481 338.812C229.39 338.747 229.27 338.705 229.12 338.685C228.97 338.659 228.84 338.646 228.729 338.646C228.599 338.646 228.427 338.662 228.212 338.695C228.004 338.727 227.763 338.779 227.489 338.851V336.126C227.938 336.035 228.3 335.977 228.573 335.951C228.847 335.918 229.11 335.902 229.364 335.902C229.787 335.902 230.204 335.934 230.614 336C231.031 336.058 231.36 336.133 231.601 336.224C231.985 336.367 232.307 336.618 232.567 336.976C232.828 337.328 233 337.751 233.085 338.246C233.118 338.421 233.144 338.666 233.163 338.978C233.183 339.284 233.192 339.636 233.192 340.033V344.984C233.192 345.433 233.17 345.873 233.124 346.302C233.085 346.725 233.033 347.113 232.968 347.464C232.909 347.809 232.847 348.086 232.782 348.294L232.655 348.695H226.884ZM239.003 348.695C238.977 348.643 238.944 348.555 238.905 348.431C238.873 348.307 238.856 348.102 238.856 347.816C238.856 347.627 238.869 347.399 238.896 347.132C238.922 346.865 238.967 346.553 239.032 346.195C239.071 346.013 239.11 345.817 239.149 345.609C239.195 345.394 239.247 345.163 239.306 344.916C239.364 344.668 239.429 344.408 239.501 344.134L240.878 338.744H234.872V336.097H244.491V338.06L243.144 343.48C243.065 343.812 242.991 344.121 242.919 344.408C242.847 344.688 242.782 344.948 242.724 345.189C242.665 345.43 242.613 345.661 242.567 345.882C242.522 346.104 242.483 346.315 242.45 346.517C242.418 346.712 242.388 346.908 242.362 347.103C242.343 347.292 242.326 347.484 242.313 347.679C242.307 347.875 242.304 348.076 242.304 348.285V348.695H239.003ZM234.872 353.519V341.097H238.183V353.519H234.872Z" fill="white"/>
<path d="M261.928 334.32H275.741L276.921 332.204C277.053 331.967 277.304 331.82 277.576 331.82H279.076C279.49 331.82 279.826 332.156 279.826 332.57C279.826 332.984 279.49 333.32 279.076 333.32H278.016L276.851 335.407L274.165 341.351L274.163 341.357L273.926 341.88L276.623 344.757C276.817 344.964 276.877 345.262 276.78 345.528C276.682 345.795 276.443 345.983 276.161 346.015L273.703 346.296C270.628 346.647 267.523 346.647 264.449 346.296L261.99 346.015C261.579 345.968 261.283 345.596 261.33 345.185C261.378 344.773 261.749 344.478 262.161 344.525L264.619 344.806C267.58 345.144 270.571 345.144 273.532 344.806L274.508 344.694L272.529 342.583C272.509 342.562 272.492 342.541 272.475 342.519L271.722 342.617C270.667 342.755 269.601 342.781 268.541 342.698C266.067 342.502 263.775 341.325 262.174 339.429L261.596 338.744C261.577 338.721 261.559 338.697 261.542 338.672L260.465 337.03C259.701 335.866 260.536 334.32 261.928 334.32Z" fill="white"/>
<path d="M274.576 347.57C275.404 347.57 276.076 348.241 276.076 349.07C276.076 349.898 275.404 350.57 274.576 350.57C273.747 350.57 273.076 349.898 273.076 349.07C273.076 348.241 273.747 347.57 274.576 347.57Z" fill="white"/>
<path d="M265.076 349.07C265.076 348.241 264.404 347.57 263.576 347.57C262.747 347.57 262.076 348.241 262.076 349.07C262.076 349.898 262.747 350.57 263.576 350.57C264.404 350.57 265.076 349.898 265.076 349.07Z" fill="white"/>
<rect x="113.625" y="315.82" width="227.75" height="50.75" rx="4.875" stroke="#A8A8A8" stroke-width="0.25"/>
</g>
<rect x="24.5" y="20.5" width="406" height="380.39" rx="4.5" stroke="#DBB65D"/>
</g>
<defs>
<filter id="filter0_d_14_4832" x="0" y="0" width="455" height="429.39" filterUnits="userSpaceOnUse" color-interpolation-filters="sRGB">
<feFlood flood-opacity="0" result="BackgroundImageFix"/>
<feColorMatrix in="SourceAlpha" type="matrix" values="0 0 0 0 0 0 0 0 0 0 0 0 0 0 0 0 0 0 127 0" result="hardAlpha"/>
<feOffset dy="4"/>
<feGaussianBlur stdDeviation="12"/>
<feComposite in2="hardAlpha" operator="out"/>
<feColorMatrix type="matrix" values="0 0 0 0 0.245573 0 0 0 0 0.594951 0 0 0 0 0.854167 0 0 0 0.15 0"/>
<feBlend mode="normal" in2="BackgroundImageFix" result="effect1_dropShadow_14_4832"/>
<feBlend mode="normal" in="SourceGraphic" in2="effect1_dropShadow_14_4832" result="shape"/>
</filter>
<filter id="filter1_d_14_4832" x="108.5" y="314.695" width="238" height="61" filterUnits="userSpaceOnUse" color-interpolation-filters="sRGB">
<feFlood flood-opacity="0" result="BackgroundImageFix"/>
<feColorMatrix in="SourceAlpha" type="matrix" values="0 0 0 0 0 0 0 0 0 0 0 0 0 0 0 0 0 0 127 0" result="hardAlpha"/>
<feOffset dy="4"/>
<feGaussianBlur stdDeviation="2.5"/>
<feComposite in2="hardAlpha" operator="out"/>
<feColorMatrix type="matrix" values="0 0 0 0 0 0 0 0 0 0 0 0 0 0 0 0 0 0 0.05 0"/>
<feBlend mode="normal" in2="BackgroundImageFix" result="effect1_dropShadow_14_4832"/>
<feBlend mode="normal" in="SourceGraphic" in2="effect1_dropShadow_14_4832" result="shape"/>
</filter>
</defs>
</svg>
