<svg width="309" height="221" viewBox="0 0 309 221" fill="none" xmlns="http://www.w3.org/2000/svg">
<g filter="url(#filter0_d_205_4513)">
<rect x="24" y="20" width="261" height="173" rx="5" fill="white"/>
<path d="M82.0195 60V49.207C82.0195 48.5273 81.9609 47.9805 81.8438 47.5664C81.7344 47.1523 81.5312 46.8398 81.2344 46.6289C80.9922 46.4414 80.7109 46.3203 80.3906 46.2656C80.0703 46.2031 79.7148 46.1719 79.3242 46.1719C79.0195 46.1719 78.5898 46.1953 78.0352 46.2422C77.4883 46.2891 76.6992 46.3672 75.668 46.4766V44.9766C75.8945 44.9375 76.1328 44.9023 76.3828 44.8711C76.6406 44.8398 76.9062 44.8086 77.1797 44.7773C77.6641 44.7305 78.082 44.6992 78.4336 44.6836C78.793 44.6602 79.1016 44.6484 79.3594 44.6484C79.8828 44.6484 80.332 44.6758 80.707 44.7305C81.0898 44.7773 81.4414 44.8633 81.7617 44.9883C81.9336 45.0508 82.0938 45.125 82.2422 45.2109C82.3906 45.2891 82.5352 45.3828 82.6758 45.4922C83.1133 45.8359 83.4102 46.3125 83.5664 46.9219C83.7305 47.5234 83.8125 48.2891 83.8125 49.2188V60H82.0195ZM75.668 60V50.4258H77.4609V60H75.668ZM90.2344 60C90.2344 59.9844 90.2266 59.957 90.2109 59.918C90.2031 59.8711 90.1992 59.8047 90.1992 59.7188C90.1992 59.4766 90.207 59.2539 90.2227 59.0508C90.2461 58.8477 90.2812 58.6289 90.3281 58.3945C90.4766 57.6523 90.6172 57.0117 90.75 56.4727C90.8906 55.9336 91.0312 55.4258 91.1719 54.9492C91.3125 54.4648 91.4531 53.9453 91.5938 53.3906L93.5273 46.3828H86.9766V44.8828H95.3906V46.1836L93.1641 54.3047C93.0703 54.6562 92.9805 54.9883 92.8945 55.3008C92.8164 55.6133 92.7383 55.9102 92.6602 56.1914C92.5898 56.4727 92.5273 56.7383 92.4727 56.9883C92.3945 57.3008 92.3242 57.5938 92.2617 57.8672C92.207 58.1406 92.1602 58.3906 92.1211 58.6172C92.082 58.8438 92.0508 59.0508 92.0273 59.2383C92.0117 59.4258 92.0039 59.5898 92.0039 59.7305V60H90.2344ZM86.9883 65.7656V51.0586H88.7695V65.7656H86.9883ZM101.566 60.2344C100.84 60.2344 100.207 60.0625 99.668 59.7188C99.207 59.4453 98.8125 59.0664 98.4844 58.582C98.1641 58.0898 97.8984 57.5039 97.6875 56.8242C97.5078 56.2227 97.3711 55.5469 97.2773 54.7969C97.1914 54.0469 97.1484 53.2383 97.1484 52.3711C97.1484 51.4336 97.207 50.5977 97.3242 49.8633C97.4492 49.1289 97.6367 48.4766 97.8867 47.9062C98.1367 47.3359 98.4531 46.8242 98.8359 46.3711L98.8711 46.2891L97.3711 46.3828V44.8711C97.9102 44.8242 98.418 44.7852 98.8945 44.7539C99.3711 44.7148 99.8359 44.6875 100.289 44.6719C100.742 44.6562 101.207 44.6484 101.684 44.6484C102.066 44.6484 102.426 44.707 102.762 44.8242C103.098 44.9336 103.41 45.0898 103.699 45.293C104.012 45.5195 104.301 45.8203 104.566 46.1953C104.832 46.5625 105.059 47.0039 105.246 47.5195C105.48 48.1211 105.656 48.8359 105.773 49.6641C105.898 50.4844 105.961 51.4102 105.961 52.4414C105.961 53.3086 105.914 54.1133 105.82 54.8555C105.734 55.5898 105.602 56.2539 105.422 56.8477C105.258 57.3789 105.055 57.8516 104.812 58.2656C104.578 58.6797 104.305 59.0312 103.992 59.3203C103.344 59.9297 102.535 60.2344 101.566 60.2344ZM101.543 58.6875C101.926 58.6875 102.262 58.5938 102.551 58.4062C102.848 58.2109 103.121 57.8867 103.371 57.4336C103.535 57.1211 103.672 56.7227 103.781 56.2383C103.898 55.7461 103.984 55.1836 104.039 54.5508C104.094 53.918 104.121 53.2227 104.121 52.4648C104.121 51.2773 104.055 50.2617 103.922 49.418C103.797 48.5664 103.609 47.9102 103.359 47.4492C103.125 47.0117 102.863 46.6953 102.574 46.5C102.285 46.2969 101.965 46.1953 101.613 46.1953C101.426 46.2031 101.246 46.2109 101.074 46.2188C100.902 46.2266 100.727 46.2383 100.547 46.2539C99.9531 46.9023 99.543 47.7109 99.3164 48.6797C99.0977 49.6484 98.9883 50.8125 98.9883 52.1719C98.9883 53.5391 99.0508 54.6484 99.1758 55.5C99.3086 56.3438 99.4961 56.9922 99.7383 57.4453C99.9727 57.8828 100.234 58.1992 100.523 58.3945C100.82 58.5898 101.16 58.6875 101.543 58.6875ZM111.996 60.2344C111.707 60.2344 111.406 60.2227 111.094 60.1992C110.789 60.1836 110.496 60.1602 110.215 60.1289C109.934 60.1055 109.691 60.0742 109.488 60.0352L109.125 59.9648V58.3945C109.648 58.4961 110.148 58.5703 110.625 58.6172C111.109 58.6641 111.605 58.6875 112.113 58.6875C112.402 58.6875 112.676 58.6172 112.934 58.4766C113.199 58.3281 113.449 58.0938 113.684 57.7734C113.801 57.6172 113.906 57.4375 114 57.2344C114.094 57.0312 114.18 56.8125 114.258 56.5781C114.422 56.0781 114.543 55.4844 114.621 54.7969C114.707 54.1016 114.75 53.3281 114.75 52.4766C114.75 51.7266 114.727 51.0508 114.68 50.4492C114.633 49.8398 114.562 49.3086 114.469 48.8555C114.406 48.5586 114.336 48.293 114.258 48.0586C114.18 47.8242 114.094 47.6172 114 47.4375C113.75 46.9766 113.477 46.6562 113.18 46.4766C112.883 46.2891 112.543 46.1953 112.16 46.1953C111.762 46.1953 111.398 46.3086 111.07 46.5352C110.75 46.7617 110.496 47.0586 110.309 47.4258C110.105 47.8086 109.957 48.207 109.863 48.6211C109.77 49.0352 109.723 49.4648 109.723 49.9102C109.723 50.5117 109.773 51.0469 109.875 51.5156C109.977 51.9844 110.133 52.3555 110.344 52.6289C110.516 52.8633 110.734 53.0547 111 53.2031C111.273 53.3516 111.598 53.4375 111.973 53.4609L112.23 53.4844L111.902 54.8906L111.656 54.8672C111.234 54.8594 110.836 54.7891 110.461 54.6562C110.086 54.5156 109.762 54.332 109.488 54.1055C109.324 53.9805 109.168 53.832 109.02 53.6602C108.871 53.4805 108.742 53.2891 108.633 53.0859C108.438 52.7109 108.277 52.2578 108.152 51.7266C108.035 51.1953 107.977 50.5977 107.977 49.9336C107.977 49.1523 108.074 48.4375 108.27 47.7891C108.473 47.1406 108.77 46.5781 109.16 46.1016C109.535 45.6328 109.98 45.2734 110.496 45.0234C111.012 44.7734 111.566 44.6484 112.16 44.6484C112.629 44.6484 113.051 44.7148 113.426 44.8477C113.801 44.9805 114.133 45.1562 114.422 45.375C114.719 45.6094 114.996 45.9141 115.254 46.2891C115.512 46.6641 115.73 47.1016 115.91 47.6016C116.129 48.1953 116.297 48.8984 116.414 49.7109C116.531 50.5234 116.59 51.4336 116.59 52.4414C116.59 53.457 116.523 54.375 116.391 55.1953C116.266 56.0078 116.086 56.7148 115.852 57.3164C115.656 57.8086 115.426 58.2383 115.16 58.6055C114.895 58.9648 114.609 59.2656 114.305 59.5078C114.016 59.7188 113.684 59.8906 113.309 60.0234C112.934 60.1641 112.496 60.2344 111.996 60.2344ZM125.543 60V49.207C125.543 48.5273 125.484 47.9805 125.367 47.5664C125.258 47.1523 125.055 46.8398 124.758 46.6289C124.516 46.4414 124.234 46.3203 123.914 46.2656C123.594 46.2031 123.238 46.1719 122.848 46.1719C122.543 46.1719 122.113 46.1953 121.559 46.2422C121.012 46.2891 120.223 46.3672 119.191 46.4766V44.9766C119.418 44.9375 119.656 44.9023 119.906 44.8711C120.164 44.8398 120.43 44.8086 120.703 44.7773C121.188 44.7305 121.605 44.6992 121.957 44.6836C122.316 44.6602 122.625 44.6484 122.883 44.6484C123.406 44.6484 123.855 44.6758 124.23 44.7305C124.613 44.7773 124.965 44.8633 125.285 44.9883C125.457 45.0508 125.617 45.125 125.766 45.2109C125.914 45.2891 126.059 45.3828 126.199 45.4922C126.637 45.8359 126.934 46.3125 127.09 46.9219C127.254 47.5234 127.336 48.2891 127.336 49.2188V60H125.543ZM119.191 60V50.4258H120.984V60H119.191ZM129.926 60V58.5H134.965V49.207C134.965 48.2461 134.844 47.5352 134.602 47.0742C134.359 46.6133 133.941 46.3359 133.348 46.2422C133.215 46.2188 133.07 46.2031 132.914 46.1953C132.766 46.1797 132.613 46.1719 132.457 46.1719C131.996 46.1719 131.594 46.1836 131.25 46.207C130.914 46.2227 130.469 46.2617 129.914 46.3242V44.7891C130.336 44.7422 130.742 44.707 131.133 44.6836C131.523 44.6602 131.906 44.6484 132.281 44.6484C132.805 44.6484 133.242 44.668 133.594 44.707C133.945 44.7461 134.254 44.8086 134.52 44.8945C134.887 45.0117 135.207 45.1758 135.48 45.3867C135.762 45.5898 135.992 45.8359 136.172 46.125C136.305 46.3281 136.414 46.5938 136.5 46.9219C136.586 47.2422 136.648 47.6016 136.688 48C136.727 48.3906 136.746 48.7969 136.746 49.2188V58.5H137.941V60H129.926ZM144.34 60V44.918C144.504 44.8945 144.68 44.875 144.867 44.8594C145.062 44.8359 145.262 44.8164 145.465 44.8008C145.973 44.7539 146.441 44.7188 146.871 44.6953C147.301 44.6641 147.668 44.6484 147.973 44.6484C148.621 44.6484 149.176 44.6797 149.637 44.7422C150.105 44.8047 150.52 44.9141 150.879 45.0703C151.254 45.2344 151.543 45.4531 151.746 45.7266C151.949 46 152.105 46.332 152.215 46.7227C152.301 47.0195 152.367 47.3672 152.414 47.7656C152.461 48.1641 152.484 48.6172 152.484 49.125V60H144.34ZM146.133 58.5H150.691V49.1133C150.691 48.6836 150.672 48.3047 150.633 47.9766C150.602 47.6484 150.543 47.3867 150.457 47.1914C150.363 46.957 150.25 46.7773 150.117 46.6523C149.984 46.5195 149.797 46.418 149.555 46.3477C149.312 46.2695 149.062 46.2227 148.805 46.207C148.547 46.1836 148.238 46.1719 147.879 46.1719C147.637 46.1719 147.375 46.1797 147.094 46.1953C146.812 46.2109 146.492 46.2383 146.133 46.2773V58.5ZM155.508 54.5273V44.8828H157.289V52.6641L155.977 54.5273H155.508ZM163.98 60V49.207C163.98 48.543 163.938 48.0117 163.852 47.6133C163.773 47.207 163.617 46.8945 163.383 46.6758C163.172 46.4727 162.91 46.3398 162.598 46.2773C162.293 46.207 161.941 46.1719 161.543 46.1719C161.332 46.1719 161.082 46.1797 160.793 46.1953C160.504 46.2031 160.215 46.2188 159.926 46.2422C159.637 46.2656 159.387 46.2891 159.176 46.3125V44.7891C159.566 44.7422 159.945 44.707 160.312 44.6836C160.68 44.6602 161.031 44.6484 161.367 44.6484C161.992 44.6484 162.508 44.6758 162.914 44.7305C163.32 44.7852 163.688 44.8789 164.016 45.0117C164.328 45.1367 164.586 45.3047 164.789 45.5156C165 45.7188 165.18 45.9766 165.328 46.2891C165.492 46.625 165.605 47.0391 165.668 47.5312C165.73 48.0156 165.762 48.5781 165.762 49.2188V60H163.98ZM168.797 54.5273V44.8828H170.578V52.6641L169.266 54.5273H168.797ZM174.117 60L172.863 44.8828H174.586L175.277 53.2031C175.66 53.0547 175.988 52.8711 176.262 52.6523C176.535 52.4258 176.77 52.1445 176.965 51.8086C177.191 51.418 177.367 50.9453 177.492 50.3906C177.625 49.8359 177.73 49.1719 177.809 48.3984L178.125 44.8828H179.801L179.461 48.75C179.383 49.6016 179.27 50.3203 179.121 50.9062C178.973 51.4844 178.766 52.0273 178.5 52.5352C178.188 53.0742 177.793 53.5156 177.316 53.8594C176.84 54.2031 176.242 54.4727 175.523 54.668C175.508 54.668 175.488 54.6719 175.465 54.6797C175.441 54.6797 175.418 54.6797 175.395 54.6797L175.723 58.4766H176.355C177.215 58.4766 178 58.3008 178.711 57.9492C179.43 57.5898 180.039 57.0898 180.539 56.4492C181.531 55.1836 182.125 53.5273 182.32 51.4805L182.93 44.8828H184.629L184.008 51.4805C183.922 52.457 183.754 53.375 183.504 54.2344C183.262 55.0938 182.93 55.8594 182.508 56.5312C182.172 57.1406 181.754 57.6953 181.254 58.1953C180.762 58.6875 180.16 59.0859 179.449 59.3906C179.004 59.5938 178.52 59.7461 177.996 59.8477C177.473 59.9492 176.926 60 176.355 60H174.117ZM191.086 60.082C190.938 60.082 190.773 60.0664 190.594 60.0352C190.414 60.0039 190.234 59.9609 190.055 59.9062V58.3594C190.375 58.4531 190.617 58.5 190.781 58.5C191.141 58.5 191.375 58.3594 191.484 58.0781C191.594 57.7891 191.648 57.4258 191.648 56.9883V46.3945C191.484 46.4023 191.316 46.418 191.145 46.4414C190.98 46.4648 190.816 46.4922 190.652 46.5234V45.0117C190.957 44.957 191.34 44.9023 191.801 44.8477C192.27 44.793 192.754 44.7461 193.254 44.707C193.754 44.668 194.215 44.6484 194.637 44.6484C195.199 44.6484 195.66 44.6641 196.02 44.6953C196.379 44.7188 196.684 44.7656 196.934 44.8359C197.191 44.9062 197.438 44.9961 197.672 45.1055C197.852 45.1992 198.016 45.3047 198.164 45.4219C198.312 45.5391 198.449 45.6719 198.574 45.8203C198.887 46.1875 199.102 46.6523 199.219 47.2148C199.336 47.7773 199.395 48.4453 199.395 49.2188V60H197.602V49.207C197.602 48.2852 197.484 47.6094 197.25 47.1797C197.016 46.7422 196.621 46.4609 196.066 46.3359C195.832 46.2578 195.551 46.207 195.223 46.1836C195.082 46.1836 194.863 46.1875 194.566 46.1953C194.27 46.1953 193.895 46.207 193.441 46.2305V56.9883C193.441 57.3789 193.418 57.7383 193.371 58.0664C193.324 58.3867 193.258 58.668 193.172 58.9102C193.008 59.3633 192.742 59.6797 192.375 59.8594C192.188 59.9453 191.98 60.0039 191.754 60.0352C191.535 60.0664 191.312 60.082 191.086 60.082ZM206.074 60V49.207C206.074 48.543 206.031 48.0117 205.945 47.6133C205.867 47.207 205.711 46.8945 205.477 46.6758C205.266 46.4727 205.004 46.3398 204.691 46.2773C204.387 46.207 204.035 46.1719 203.637 46.1719C203.426 46.1719 203.176 46.1797 202.887 46.1953C202.598 46.2031 202.309 46.2188 202.02 46.2422C201.73 46.2656 201.48 46.2891 201.27 46.3125V44.7891C201.66 44.7422 202.039 44.707 202.406 44.6836C202.773 44.6602 203.125 44.6484 203.461 44.6484C204.086 44.6484 204.602 44.6758 205.008 44.7305C205.414 44.7852 205.781 44.8789 206.109 45.0117C206.422 45.1367 206.68 45.3047 206.883 45.5156C207.094 45.7188 207.273 45.9766 207.422 46.2891C207.586 46.625 207.699 47.0391 207.762 47.5312C207.824 48.0156 207.855 48.5781 207.855 49.2188V60H206.074ZM210.891 54.5273V44.8828H212.672V52.6641L211.359 54.5273H210.891ZM215.777 60V44.9766C216.129 44.9297 216.461 44.8906 216.773 44.8594C217.086 44.8203 217.379 44.7852 217.652 44.7539C218.027 44.7227 218.371 44.6992 218.684 44.6836C219.004 44.6602 219.285 44.6484 219.527 44.6484C220.246 44.6484 220.867 44.7109 221.391 44.8359C221.922 44.9609 222.383 45.1836 222.773 45.5039C222.891 45.5977 222.992 45.6992 223.078 45.8086C223.172 45.918 223.258 46.0352 223.336 46.1602C223.547 46.5195 223.695 46.9531 223.781 47.4609C223.875 47.9609 223.922 48.5469 223.922 49.2188V60H222.129V49.207C222.129 48.5664 222.078 48.0469 221.977 47.6484C221.883 47.25 221.711 46.9414 221.461 46.7227C221.219 46.5039 220.93 46.3594 220.594 46.2891C220.266 46.2109 219.863 46.1719 219.387 46.1719C219.16 46.1719 218.895 46.1836 218.59 46.207C218.293 46.2227 217.953 46.2539 217.57 46.3008V60H215.777ZM226.512 60V58.5H231.551V49.207C231.551 48.2461 231.43 47.5352 231.188 47.0742C230.945 46.6133 230.527 46.3359 229.934 46.2422C229.801 46.2188 229.656 46.2031 229.5 46.1953C229.352 46.1797 229.199 46.1719 229.043 46.1719C228.582 46.1719 228.18 46.1836 227.836 46.207C227.5 46.2227 227.055 46.2617 226.5 46.3242V44.7891C226.922 44.7422 227.328 44.707 227.719 44.6836C228.109 44.6602 228.492 44.6484 228.867 44.6484C229.391 44.6484 229.828 44.668 230.18 44.707C230.531 44.7461 230.84 44.8086 231.105 44.8945C231.473 45.0117 231.793 45.1758 232.066 45.3867C232.348 45.5898 232.578 45.8359 232.758 46.125C232.891 46.3281 233 46.5938 233.086 46.9219C233.172 47.2422 233.234 47.6016 233.273 48C233.312 48.3906 233.332 48.7969 233.332 49.2188V58.5H234.527V60H226.512Z" fill="black"/>
<line x1="40.5" y1="76.5" x2="268.5" y2="76.5" stroke="#DBB65D" stroke-dasharray="5 5"/>
<path d="M90.8889 111H89.139V99.88C89.139 99.5552 89.1427 99.2303 89.1501 98.9054C89.1574 98.5731 89.1685 98.2372 89.1833 97.8975C89.1981 97.5579 89.2128 97.2182 89.2276 96.8785C89.1316 97.0188 89.0024 97.1776 88.8399 97.3548C88.6775 97.532 88.4744 97.7388 88.2308 97.975L86.7909 99.3706L85.7941 98.2852L89.3826 94.8074H90.8889V111ZM98.7305 101.076C99.5575 101.076 100.263 101.276 100.846 101.674C101.429 102.073 101.876 102.627 102.186 103.336C102.496 104.044 102.651 104.868 102.651 105.806C102.651 106.876 102.474 107.818 102.12 108.63C101.773 109.442 101.259 110.077 100.58 110.535C99.9008 110.993 99.0591 111.222 98.0549 111.222C97.442 111.222 96.8919 111.162 96.4046 111.044C95.9173 110.934 95.489 110.767 95.1198 110.546V108.796C95.5333 109.069 95.98 109.287 96.46 109.449C96.9473 109.612 97.4346 109.693 97.922 109.693C98.5939 109.693 99.144 109.52 99.5722 109.173C100.008 108.818 100.333 108.353 100.547 107.777C100.761 107.194 100.868 106.555 100.868 105.861C100.868 104.79 100.632 103.974 100.159 103.413C99.6941 102.852 99.0222 102.571 98.1435 102.571C97.7743 102.571 97.4088 102.608 97.047 102.682C96.6852 102.749 96.3234 102.837 95.9616 102.948L95.2638 102.272L95.7511 94.8074H101.787V96.4023H97.2131L96.8809 101.298C97.191 101.224 97.5011 101.169 97.8112 101.132C98.1287 101.095 98.4351 101.076 98.7305 101.076ZM112.354 102.904C112.354 104.203 112.28 105.366 112.132 106.393C111.992 107.419 111.767 108.29 111.456 109.006C111.146 109.723 110.744 110.269 110.249 110.646C109.762 111.022 109.175 111.21 108.488 111.21C107.669 111.21 106.971 110.959 106.395 110.457C105.819 109.948 105.376 109.091 105.066 107.888C104.763 106.677 104.612 105.015 104.612 102.904C104.612 101.058 104.752 99.5182 105.033 98.2852C105.321 97.0521 105.749 96.1254 106.317 95.5052C106.893 94.8849 107.617 94.5748 108.488 94.5748C109.374 94.5748 110.101 94.8886 110.67 95.5162C111.239 96.1365 111.659 97.0631 111.933 98.2962C112.213 99.5293 112.354 101.065 112.354 102.904ZM106.395 102.904C106.395 104.388 106.465 105.628 106.605 106.625C106.746 107.615 106.971 108.36 107.281 108.862C107.591 109.364 107.993 109.616 108.488 109.616C108.983 109.616 109.385 109.364 109.695 108.862C110.006 108.353 110.231 107.6 110.371 106.603C110.519 105.606 110.593 104.373 110.593 102.904C110.593 101.434 110.519 100.201 110.371 99.2044C110.223 98.2076 109.994 97.4545 109.684 96.945C109.382 96.4355 108.983 96.1808 108.488 96.1808C107.993 96.1808 107.591 96.4318 107.281 96.9339C106.971 97.436 106.746 98.1855 106.605 99.1823C106.465 100.172 106.395 101.412 106.395 102.904Z" fill="#062841"/>
<path d="M61.6969 109.359L61.939 109.356L63.6578 109.347L71.4923 109.311L63.6241 102.35L71.4218 95.3169L63.5873 95.353L61.8715 95.3621H61.6264L53.8257 102.395L61.6969 109.359Z" fill="#DBB65D"/>
<path d="M48.8712 109.359L49.1133 109.356L50.8291 109.35L58.6666 109.311L50.7954 102.35L58.5961 95.3169L50.7617 95.353L49.0428 95.3621L48.8008 95.3651L41 102.398L48.8712 109.359Z" fill="#DBB65D"/>
<path d="M176.404 109.804C176.404 109.361 176.5 109.021 176.692 108.785C176.884 108.549 177.172 108.43 177.556 108.43C177.918 108.43 178.199 108.541 178.398 108.763C178.605 108.977 178.708 109.324 178.708 109.804C178.708 110.276 178.601 110.627 178.387 110.856C178.18 111.078 177.903 111.188 177.556 111.188C177.172 111.188 176.884 111.07 176.692 110.834C176.5 110.598 176.404 110.254 176.404 109.804ZM176.404 100.157C176.404 99.6991 176.5 99.3558 176.692 99.1269C176.884 98.8906 177.172 98.7725 177.556 98.7725C177.933 98.7725 178.217 98.8869 178.409 99.1158C178.608 99.3447 178.708 99.6881 178.708 100.146C178.708 100.618 178.601 100.973 178.387 101.209C178.173 101.438 177.896 101.552 177.556 101.552C177.18 101.552 176.892 101.434 176.692 101.198C176.5 100.954 176.404 100.607 176.404 100.157ZM187.569 111V100.799C187.569 100.157 187.513 99.6401 187.403 99.2487C187.299 98.8574 187.107 98.562 186.827 98.3627C186.598 98.1855 186.332 98.071 186.029 98.0193C185.726 97.9603 185.39 97.9307 185.021 97.9307C184.733 97.9307 184.327 97.9529 183.803 97.9972C183.286 98.0415 182.54 98.1153 181.566 98.2187V96.801C181.78 96.7641 182.005 96.7309 182.241 96.7013C182.485 96.6718 182.736 96.6423 182.994 96.6127C183.452 96.5684 183.847 96.5389 184.179 96.5241C184.519 96.502 184.811 96.4909 185.054 96.4909C185.549 96.4909 185.974 96.5167 186.328 96.5684C186.69 96.6127 187.022 96.694 187.325 96.8121C187.487 96.8712 187.639 96.9413 187.779 97.0225C187.919 97.0964 188.056 97.185 188.189 97.2883C188.602 97.6132 188.883 98.0636 189.031 98.6396C189.186 99.2081 189.263 99.9317 189.263 100.81V111H187.569ZM181.566 111V101.951H183.26V111H181.566ZM191.711 111V109.582H196.473V100.799C196.473 99.8911 196.359 99.2192 196.13 98.7836C195.901 98.3479 195.506 98.0858 194.945 97.9972C194.82 97.975 194.683 97.9603 194.535 97.9529C194.395 97.9381 194.251 97.9307 194.103 97.9307C193.668 97.9307 193.287 97.9418 192.962 97.964C192.645 97.9787 192.224 98.0156 191.7 98.0747V96.6238C192.099 96.5795 192.483 96.5463 192.852 96.5241C193.221 96.502 193.583 96.4909 193.937 96.4909C194.432 96.4909 194.845 96.5094 195.178 96.5463C195.51 96.5832 195.802 96.6423 196.053 96.7235C196.4 96.8342 196.702 96.9893 196.961 97.1887C197.227 97.3806 197.444 97.6132 197.614 97.8864C197.74 98.0784 197.843 98.3295 197.924 98.6396C198.006 98.9423 198.065 99.282 198.102 99.6585C198.139 100.028 198.157 100.412 198.157 100.81V109.582H199.287V111H191.711ZM204.836 111.233C204.319 111.233 203.854 111.14 203.44 110.956C203.027 110.771 202.661 110.498 202.344 110.136C202.093 109.856 201.867 109.52 201.668 109.128C201.476 108.737 201.314 108.294 201.181 107.799C201.026 107.268 200.911 106.673 200.837 106.016C200.763 105.351 200.727 104.632 200.727 103.856V96.7235H202.432V103.856C202.432 105.001 202.491 105.964 202.609 106.747C202.735 107.522 202.919 108.131 203.163 108.574C203.399 109.01 203.654 109.317 203.927 109.494C204.208 109.671 204.525 109.76 204.88 109.76C205.242 109.76 205.559 109.667 205.832 109.483C206.106 109.298 206.357 108.995 206.586 108.574C206.822 108.146 206.999 107.544 207.117 106.769C207.243 105.986 207.305 105.015 207.305 103.856C207.305 102.734 207.246 101.778 207.128 100.988C207.01 100.19 206.829 99.5699 206.586 99.1269C206.357 98.6986 206.102 98.3959 205.821 98.2187C205.541 98.0341 205.242 97.9381 204.924 97.9307C204.762 97.9307 204.603 97.9381 204.448 97.9529C204.293 97.9677 204.123 97.9898 203.938 98.0193V96.5795C204.108 96.55 204.289 96.5278 204.481 96.5131C204.673 96.4983 204.85 96.4909 205.013 96.4909C205.478 96.4909 205.91 96.5758 206.309 96.7456C206.707 96.9081 207.062 97.1591 207.372 97.4988C207.667 97.8089 207.926 98.2002 208.147 98.6728C208.376 99.1454 208.557 99.6844 208.69 100.29C208.808 100.792 208.897 101.346 208.956 101.951C209.015 102.557 209.044 103.199 209.044 103.878C209.044 104.698 208.996 105.458 208.9 106.16C208.812 106.861 208.686 107.478 208.524 108.01C208.369 108.534 208.173 108.995 207.937 109.394C207.708 109.793 207.449 110.118 207.161 110.369C206.829 110.671 206.464 110.889 206.065 111.022C205.674 111.162 205.264 111.233 204.836 111.233ZM217.539 111V100.799C217.539 100.157 217.484 99.6401 217.373 99.2487C217.27 98.8574 217.078 98.562 216.797 98.3627C216.568 98.1855 216.303 98.071 216 98.0193C215.697 97.9603 215.361 97.9307 214.992 97.9307C214.704 97.9307 214.298 97.9529 213.774 97.9972C213.257 98.0415 212.511 98.1153 211.536 98.2187V96.801C211.75 96.7641 211.976 96.7309 212.212 96.7013C212.456 96.6718 212.707 96.6423 212.965 96.6127C213.423 96.5684 213.818 96.5389 214.15 96.5241C214.49 96.502 214.782 96.4909 215.025 96.4909C215.52 96.4909 215.944 96.5167 216.299 96.5684C216.661 96.6127 216.993 96.694 217.296 96.8121C217.458 96.8712 217.609 96.9413 217.75 97.0225C217.89 97.0964 218.027 97.185 218.16 97.2883C218.573 97.6132 218.854 98.0636 219.001 98.6396C219.156 99.2081 219.234 99.9317 219.234 100.81V111H217.539ZM211.536 111V101.951H213.231V111H211.536ZM228.15 111V100.799C228.15 100.157 228.094 99.6401 227.984 99.2487C227.88 98.8574 227.688 98.562 227.408 98.3627C227.179 98.1855 226.913 98.071 226.61 98.0193C226.308 97.9603 225.972 97.9307 225.602 97.9307C225.314 97.9307 224.908 97.9529 224.384 97.9972C223.867 98.0415 223.121 98.1153 222.147 98.2187V96.801C222.361 96.7641 222.586 96.7309 222.822 96.7013C223.066 96.6718 223.317 96.6423 223.576 96.6127C224.033 96.5684 224.428 96.5389 224.761 96.5241C225.1 96.502 225.392 96.4909 225.636 96.4909C226.13 96.4909 226.555 96.5167 226.909 96.5684C227.271 96.6127 227.603 96.694 227.906 96.8121C228.069 96.8712 228.22 96.9413 228.36 97.0225C228.501 97.0964 228.637 97.185 228.77 97.2883C229.184 97.6132 229.464 98.0636 229.612 98.6396C229.767 99.2081 229.844 99.9317 229.844 100.81V111H228.15ZM222.147 111V101.951H223.841V111H222.147ZM236.689 111.078C236.549 111.078 236.394 111.063 236.224 111.033C236.054 111.004 235.884 110.963 235.714 110.911V109.449C236.017 109.538 236.246 109.582 236.401 109.582C236.741 109.582 236.962 109.449 237.066 109.184C237.169 108.91 237.221 108.567 237.221 108.154V98.1412C237.066 98.1486 236.907 98.1633 236.745 98.1855C236.589 98.2076 236.434 98.2335 236.279 98.263V96.8342C236.567 96.7826 236.929 96.7309 237.365 96.6792C237.808 96.6275 238.266 96.5832 238.738 96.5463C239.211 96.5094 239.646 96.4909 240.045 96.4909C240.577 96.4909 241.012 96.5057 241.352 96.5352C241.692 96.5574 241.98 96.6017 242.216 96.6681C242.46 96.7346 242.692 96.8195 242.914 96.9229C243.083 97.0115 243.239 97.1111 243.379 97.2219C243.519 97.3327 243.648 97.4582 243.766 97.5985C244.062 97.9455 244.265 98.3848 244.376 98.9165C244.486 99.4481 244.542 100.079 244.542 100.81V111H242.847V100.799C242.847 99.928 242.736 99.2893 242.515 98.8832C242.293 98.4698 241.921 98.2039 241.396 98.0858C241.175 98.012 240.909 97.964 240.599 97.9418C240.466 97.9418 240.259 97.9455 239.979 97.9529C239.698 97.9529 239.344 97.964 238.915 97.9861V108.154C238.915 108.523 238.893 108.862 238.849 109.173C238.805 109.475 238.742 109.741 238.661 109.97C238.506 110.398 238.255 110.697 237.907 110.867C237.73 110.948 237.535 111.004 237.32 111.033C237.114 111.063 236.903 111.078 236.689 111.078ZM247.466 111V96.7124H249.16V111H247.466ZM253.269 111L254.299 105.506L256.138 98.1412H251.143V93.6666H252.826V96.6681H257.766V98.1412L255.983 105.429L254.931 111H253.269ZM258.885 111.587V110.147L260.757 109.815C260.919 109.785 261.081 109.756 261.244 109.726C261.406 109.697 261.572 109.671 261.742 109.649L258.918 96.7124H260.601L261.997 103.17L263.116 109.006C263.662 108.659 264.076 108.187 264.356 107.589C264.644 106.991 264.855 106.311 264.987 105.551C265.12 104.79 265.231 104 265.32 103.181L265.929 96.7124H267.612L267.003 103.026C266.907 103.985 266.8 104.864 266.682 105.662C266.564 106.452 266.372 107.164 266.106 107.799C265.848 108.427 265.453 108.981 264.921 109.46C264.574 109.874 264.149 110.214 263.647 110.479C263.145 110.738 262.54 110.934 261.831 111.066C261.344 111.148 260.853 111.233 260.358 111.321C259.87 111.41 259.379 111.498 258.885 111.587Z" fill="#062841"/>
<g filter="url(#filter1_d_205_4513)">
<rect x="40.5" y="128" width="228" height="51" rx="5" fill="#E96D5A"/>
<path d="M103.552 161V148.402H106.872V161H103.552ZM108.649 156.938V148.402H111.96V153.803L110.026 156.938H108.649ZM114.147 161L113.151 148.402H116.481L116.999 154.594C117.227 154.6 117.403 154.564 117.526 154.486C117.65 154.402 117.741 154.281 117.8 154.125C117.858 153.975 117.894 153.793 117.907 153.578C117.927 153.357 117.95 153.1 117.976 152.807L118.308 148.402H121.618L121.208 154.047C121.182 154.392 121.12 154.688 121.022 154.936C120.925 155.183 120.775 155.427 120.573 155.668C120.241 156.046 119.841 156.342 119.372 156.557C118.903 156.771 118.295 156.879 117.546 156.879C117.481 156.879 117.419 156.879 117.36 156.879C117.302 156.872 117.24 156.869 117.175 156.869L117.292 158.363H118.767C119.379 158.363 119.922 158.253 120.397 158.031C120.873 157.81 121.273 157.488 121.599 157.064C122.113 156.394 122.419 155.43 122.517 154.174L122.946 148.402H126.286L125.847 154.154C125.775 155.131 125.603 156.059 125.329 156.938C125.056 157.81 124.659 158.5 124.138 159.008C124.014 159.132 123.796 159.317 123.483 159.564C123.177 159.805 122.855 160.017 122.517 160.199C122.022 160.46 121.446 160.658 120.788 160.795C120.137 160.932 119.463 161 118.767 161H114.147ZM129.919 161.195C129.248 161.195 128.669 161.166 128.181 161.107C127.699 161.055 127.279 160.974 126.921 160.863V158.051C127.194 158.116 127.471 158.174 127.751 158.227C128.037 158.272 128.324 158.308 128.61 158.334C128.903 158.36 129.196 158.373 129.489 158.373C129.724 158.373 129.925 158.334 130.095 158.256C130.264 158.178 130.384 158.07 130.456 157.934C130.515 157.829 130.56 157.712 130.593 157.582C130.632 157.452 130.661 157.312 130.681 157.162C130.7 156.98 130.713 156.788 130.72 156.586C130.726 156.378 130.729 156.166 130.729 155.951V153.725C130.729 153.262 130.7 152.855 130.642 152.504C130.583 152.146 130.498 151.853 130.388 151.625C130.297 151.43 130.157 151.28 129.968 151.176C129.779 151.072 129.541 151.02 129.255 151.02C128.955 151.02 128.688 151.029 128.454 151.049C128.22 151.062 127.92 151.088 127.556 151.127C127.465 151.133 127.367 151.146 127.263 151.166C127.159 151.186 127.051 151.202 126.94 151.215V148.422C127.038 148.409 127.136 148.396 127.233 148.383C127.331 148.363 127.429 148.35 127.526 148.344C127.871 148.298 128.213 148.266 128.552 148.246C128.897 148.22 129.245 148.207 129.597 148.207C130.215 148.207 130.746 148.272 131.188 148.402C131.638 148.526 132.019 148.692 132.331 148.9C132.696 149.128 132.992 149.411 133.22 149.75C133.454 150.082 133.643 150.463 133.786 150.893C133.877 151.16 133.946 151.443 133.991 151.742C134.043 152.042 134.076 152.357 134.089 152.689C134.108 153.021 134.118 153.367 134.118 153.725V155.951C134.118 156.479 134.073 156.98 133.981 157.455C133.89 157.93 133.754 158.376 133.571 158.793C133.369 159.262 133.109 159.669 132.79 160.014C132.478 160.352 132.061 160.639 131.54 160.873C131.293 160.984 131.019 161.065 130.72 161.117C130.42 161.169 130.153 161.195 129.919 161.195ZM135.222 161.635V158.949L136.345 158.705C136.449 158.679 136.553 158.656 136.657 158.637C136.761 158.617 136.866 158.594 136.97 158.568L135.065 148.402H138.366L139.323 154.076L139.538 157.143C139.733 156.85 139.903 156.563 140.046 156.283C140.189 155.997 140.303 155.723 140.388 155.463C140.472 155.202 140.524 154.958 140.544 154.73L141.042 148.422H144.362L143.923 154.115C143.916 154.245 143.884 154.496 143.825 154.867C143.773 155.238 143.682 155.668 143.552 156.156C143.428 156.645 143.249 157.13 143.015 157.611C142.591 158.497 141.993 159.223 141.218 159.789C140.443 160.355 139.405 160.772 138.103 161.039C137.627 161.137 137.149 161.234 136.667 161.332C136.185 161.436 135.703 161.537 135.222 161.635ZM149.353 161V148.402H152.673V161H149.353ZM153.884 161V158.354H156.745C156.797 158.171 156.833 157.901 156.853 157.543C156.872 157.178 156.882 156.723 156.882 156.176V152.338C156.882 152.123 156.849 151.892 156.784 151.645C156.726 151.391 156.625 151.215 156.481 151.117C156.39 151.052 156.27 151.01 156.12 150.99C155.97 150.964 155.84 150.951 155.729 150.951C155.599 150.951 155.427 150.967 155.212 151C155.004 151.033 154.763 151.085 154.489 151.156V148.432C154.938 148.34 155.3 148.282 155.573 148.256C155.847 148.223 156.11 148.207 156.364 148.207C156.787 148.207 157.204 148.24 157.614 148.305C158.031 148.363 158.36 148.438 158.601 148.529C158.985 148.673 159.307 148.923 159.567 149.281C159.828 149.633 160 150.056 160.085 150.551C160.118 150.727 160.144 150.971 160.163 151.283C160.183 151.589 160.192 151.941 160.192 152.338V157.289C160.192 157.738 160.17 158.178 160.124 158.607C160.085 159.031 160.033 159.418 159.968 159.77C159.909 160.115 159.847 160.391 159.782 160.6L159.655 161H153.884ZM166.003 161C165.977 160.948 165.944 160.86 165.905 160.736C165.873 160.613 165.856 160.408 165.856 160.121C165.856 159.932 165.869 159.704 165.896 159.438C165.922 159.171 165.967 158.858 166.032 158.5C166.071 158.318 166.11 158.122 166.149 157.914C166.195 157.699 166.247 157.468 166.306 157.221C166.364 156.973 166.429 156.713 166.501 156.439L167.878 151.049H161.872V148.402H171.491V150.365L170.144 155.785C170.065 156.117 169.991 156.426 169.919 156.713C169.847 156.993 169.782 157.253 169.724 157.494C169.665 157.735 169.613 157.966 169.567 158.188C169.522 158.409 169.483 158.62 169.45 158.822C169.418 159.018 169.388 159.213 169.362 159.408C169.343 159.597 169.326 159.789 169.313 159.984C169.307 160.18 169.304 160.382 169.304 160.59V161H166.003ZM161.872 165.824V153.402H165.183V165.824H161.872Z" fill="white"/>
<path d="M188.928 146.625H202.741L203.921 144.51C204.053 144.272 204.304 144.125 204.576 144.125H206.076C206.49 144.125 206.826 144.461 206.826 144.875C206.826 145.289 206.49 145.625 206.076 145.625H205.016L203.851 147.713L201.165 153.656L201.163 153.662L200.926 154.185L203.623 157.062C203.817 157.269 203.877 157.567 203.78 157.833C203.682 158.1 203.443 158.288 203.161 158.32L200.703 158.601C197.628 158.953 194.523 158.953 191.449 158.601L188.99 158.32C188.579 158.273 188.283 157.901 188.33 157.49C188.378 157.078 188.749 156.783 189.161 156.83L191.619 157.111C194.58 157.449 197.571 157.449 200.532 157.111L201.508 156.999L199.529 154.888C199.509 154.867 199.492 154.846 199.475 154.824L198.722 154.922C197.667 155.06 196.601 155.087 195.541 155.003C193.067 154.807 190.775 153.63 189.174 151.734L188.596 151.049C188.577 151.026 188.559 151.002 188.542 150.977L187.465 149.335C186.701 148.171 187.536 146.625 188.928 146.625Z" fill="white"/>
<path d="M201.576 159.875C202.404 159.875 203.076 160.547 203.076 161.375C203.076 162.203 202.404 162.875 201.576 162.875C200.747 162.875 200.076 162.203 200.076 161.375C200.076 160.547 200.747 159.875 201.576 159.875Z" fill="white"/>
<path d="M192.076 161.375C192.076 160.547 191.404 159.875 190.576 159.875C189.747 159.875 189.076 160.547 189.076 161.375C189.076 162.203 189.747 162.875 190.576 162.875C191.404 162.875 192.076 162.203 192.076 161.375Z" fill="white"/>
<rect x="40.625" y="128.125" width="227.75" height="50.75" rx="4.875" stroke="#A8A8A8" stroke-width="0.25"/>
</g>
<rect x="24.5" y="20.5" width="260" height="172" rx="4.5" stroke="#DBB65D"/>
</g>
<g opacity="0.25">
<path fill-rule="evenodd" clip-rule="evenodd" d="M301.932 20.2173C301.719 18.9035 300.825 17.7926 299.581 17.2999L298.824 16.9908C297.172 16.3339 296.191 14.6434 296.444 12.8949L296.551 12.0835C296.832 9.95823 295.336 8.00688 293.199 7.72674C292.636 7.64946 292.053 7.69776 291.509 7.87164L290.722 8.12281C289.031 8.67343 287.186 7.99722 286.253 6.49991L285.806 5.80438C284.631 3.98827 282.222 3.45697 280.405 4.60652C279.919 4.91565 279.511 5.32137 279.2 5.80438L278.753 6.49991C277.811 7.99722 275.965 8.66377 274.275 8.12281L273.488 7.87164C271.429 7.22441 269.243 8.35465 268.592 10.4026C268.417 10.9436 268.369 11.5232 268.446 12.0835L268.553 12.8949C268.806 14.6434 267.825 16.3339 266.173 16.9908L265.415 17.2999C263.424 18.121 262.472 20.3912 263.298 22.3715C263.521 22.9028 263.851 23.3665 264.269 23.7529L264.881 24.3035C266.202 25.482 266.542 27.4044 265.707 28.9694L265.328 29.6939C264.327 31.5969 265.066 33.9443 266.979 34.9296C267.485 35.1905 268.048 35.345 268.621 35.3644L269.447 35.403C271.225 35.461 272.73 36.7168 273.09 38.4459L273.265 39.2477C273.731 41.344 275.81 42.6674 277.918 42.2037C278.481 42.0781 279.006 41.8366 279.463 41.4889L280.114 40.9865C281.512 39.8949 283.475 39.8949 284.874 40.9865L285.525 41.4889C287.234 42.793 289.682 42.4742 291.004 40.7837C291.353 40.3297 291.596 39.808 291.722 39.2477L291.897 38.4459C292.266 36.7168 293.772 35.461 295.54 35.403L296.366 35.3644C298.523 35.2774 300.194 33.4613 300.096 31.3168C300.077 30.7468 299.921 30.1865 299.659 29.6842L299.28 28.9597C298.445 27.4044 298.785 25.482 300.106 24.2939L300.718 23.7432C301.719 22.8642 302.185 21.5214 301.932 20.2173Z" fill="#DBB65D"/>
<path fill-rule="evenodd" clip-rule="evenodd" d="M282.5 38.1713C274.536 38.1713 268.069 31.8322 268.069 24.0009C268.069 16.1809 274.536 9.83057 282.5 9.83057C290.464 9.83057 296.931 16.1696 296.931 24.0009C296.931 31.821 290.464 38.1713 282.5 38.1713Z" fill="white"/>
<path fill-rule="evenodd" clip-rule="evenodd" d="M282.501 11.5137C275.474 11.5137 269.784 17.101 269.784 24.0011C269.784 30.9012 275.474 36.4885 282.501 36.4885C289.527 36.4885 295.217 30.9012 295.217 24.0011C295.217 17.101 289.527 11.5137 282.501 11.5137ZM289.95 20.9269L282.421 29.5548C281.746 30.4075 280.49 30.5646 279.61 29.9026C279.518 29.8353 279.427 29.7568 279.347 29.667L275.074 24.9772C274.331 24.1694 274.4 22.9352 275.222 22.206C276.045 21.4767 277.302 21.544 278.045 22.3518L280.81 25.3811L286.922 18.3801C287.642 17.561 288.899 17.4601 289.733 18.1669C290.579 18.8625 290.67 20.1079 289.95 20.9269Z" fill="#335269"/>
<path fill-rule="evenodd" clip-rule="evenodd" d="M289.603 43.3553C288.456 43.766 287.202 43.7847 286.045 43.402L289.398 50.9997L292.508 44.7647L299.341 46.9488L294.977 37.0737C294.073 37.2791 293.373 37.9698 293.189 38.8471L293.014 39.6218C292.625 41.3579 291.342 42.7766 289.603 43.3553Z" fill="#335269"/>
<path fill-rule="evenodd" clip-rule="evenodd" d="M270.022 37.0737L265.659 46.9488L272.491 44.7647L275.601 50.9997L278.954 43.402C276.136 44.3074 273.084 42.8513 272.141 40.1539C272.083 39.9765 272.034 39.8085 271.986 39.6312L271.811 38.8565C271.626 37.9791 270.926 37.2884 270.022 37.0737Z" fill="#335269"/>
</g>
<defs>
<filter id="filter0_d_205_4513" x="0" y="0" width="309" height="221" filterUnits="userSpaceOnUse" color-interpolation-filters="sRGB">
<feFlood flood-opacity="0" result="BackgroundImageFix"/>
<feColorMatrix in="SourceAlpha" type="matrix" values="0 0 0 0 0 0 0 0 0 0 0 0 0 0 0 0 0 0 127 0" result="hardAlpha"/>
<feOffset dy="4"/>
<feGaussianBlur stdDeviation="12"/>
<feComposite in2="hardAlpha" operator="out"/>
<feColorMatrix type="matrix" values="0 0 0 0 0.245573 0 0 0 0 0.594951 0 0 0 0 0.854167 0 0 0 0.15 0"/>
<feBlend mode="normal" in2="BackgroundImageFix" result="effect1_dropShadow_205_4513"/>
<feBlend mode="normal" in="SourceGraphic" in2="effect1_dropShadow_205_4513" result="shape"/>
</filter>
<filter id="filter1_d_205_4513" x="35.5" y="127" width="238" height="61" filterUnits="userSpaceOnUse" color-interpolation-filters="sRGB">
<feFlood flood-opacity="0" result="BackgroundImageFix"/>
<feColorMatrix in="SourceAlpha" type="matrix" values="0 0 0 0 0 0 0 0 0 0 0 0 0 0 0 0 0 0 127 0" result="hardAlpha"/>
<feOffset dy="4"/>
<feGaussianBlur stdDeviation="2.5"/>
<feComposite in2="hardAlpha" operator="out"/>
<feColorMatrix type="matrix" values="0 0 0 0 0 0 0 0 0 0 0 0 0 0 0 0 0 0 0.05 0"/>
<feBlend mode="normal" in2="BackgroundImageFix" result="effect1_dropShadow_205_4513"/>
<feBlend mode="normal" in="SourceGraphic" in2="effect1_dropShadow_205_4513" result="shape"/>
</filter>
</defs>
</svg>
