<svg width="310" height="298" viewBox="0 0 310 298" fill="none" xmlns="http://www.w3.org/2000/svg">
<g clip-path="url(#clip0_24_15899)" filter="url(#filter0_d_24_15899)">
<g filter="url(#filter1_d_24_15899)">
<rect x="24" y="20" width="262" height="250" rx="10" fill="white"/>
<rect x="24.5" y="20.5" width="261" height="249" rx="9.5" stroke="#DBB65D"/>
</g>
<line x1="24" y1="89.5" x2="286" y2="89.5" stroke="#DBB65D"/>
<path d="M121.135 43.584L121.281 43.9062C121.135 45.0098 120.964 46.0498 120.769 47.0264C120.583 48.0029 120.368 48.916 120.124 49.7656C119.89 50.6055 119.626 51.3916 119.333 52.124H115.319C115.427 51.5967 115.534 50.957 115.642 50.2051C115.759 49.4434 115.866 48.6475 115.964 47.8174C116.071 46.9873 116.164 46.2012 116.242 45.459C116.32 44.707 116.369 44.082 116.389 43.584H121.135ZM123.698 65V58.1885C123.698 57.7197 123.713 57.3486 123.742 57.0752C123.771 56.8018 123.825 56.5479 123.903 56.3135C123.981 56.0791 124.094 55.7861 124.24 55.4346C124.455 54.917 124.807 54.4824 125.295 54.1309C125.783 53.7695 126.33 53.4668 126.936 53.2227L123.171 46.1035H128.942L132.81 54.4238C132.878 54.3652 132.941 54.2773 133 54.1602C133.059 54.0332 133.112 53.9014 133.161 53.7646C133.21 53.6182 133.244 53.4717 133.264 53.3252C133.293 53.1689 133.308 53.0273 133.308 52.9004V46.1035H138.288V52.8271C138.288 53.7549 138.19 54.541 137.995 55.1855C137.8 55.8203 137.526 56.3086 137.175 56.6504C136.97 56.8555 136.628 57.1045 136.149 57.3975C135.681 57.6904 135.158 57.9199 134.582 58.0859L138.01 65H132.209L128.811 57.0312C128.801 57.0996 128.786 57.1777 128.767 57.2656C128.747 57.3535 128.728 57.4463 128.708 57.5439C128.679 57.7295 128.664 57.9248 128.664 58.1299V65H123.698ZM153.903 65V52.9297C153.903 52.1777 153.825 51.5527 153.669 51.0547C153.513 50.5469 153.229 50.1953 152.819 50C152.683 49.9316 152.502 49.8828 152.277 49.8535C152.053 49.8242 151.76 49.8096 151.398 49.8096C150.598 49.8096 149.782 49.8584 148.952 49.9561C148.122 50.0537 147.014 50.2295 145.627 50.4834V46.5869C145.9 46.4795 146.276 46.3818 146.755 46.2939C147.243 46.2061 147.829 46.1133 148.513 46.0156C149.177 45.918 149.768 45.8594 150.285 45.8398C150.812 45.8203 151.325 45.8105 151.823 45.8105C153.073 45.8105 154.011 45.8643 154.636 45.9717C155.271 46.0693 155.817 46.2305 156.276 46.4551C156.501 46.5527 156.701 46.6602 156.877 46.7773C157.062 46.8848 157.233 47.002 157.39 47.1289C158.142 47.7344 158.576 48.501 158.693 49.4287C158.82 50.3467 158.884 51.5186 158.884 52.9443V65H153.903ZM145.627 65V52.8711H150.622V65H145.627ZM162.312 65.4248C162.097 65.4248 161.818 65.376 161.477 65.2783C161.145 65.1807 160.837 65.0586 160.554 64.9121V61.001C160.798 61.2158 161.11 61.3232 161.491 61.3232C162.126 61.3232 162.517 61.0938 162.663 60.6348C162.81 60.166 162.883 59.5117 162.883 58.6719V50.2344C162.639 50.2539 162.39 50.2979 162.136 50.3662C161.892 50.4248 161.643 50.498 161.389 50.5859V46.6748C161.701 46.5967 162.199 46.4893 162.883 46.3525C163.576 46.2158 164.396 46.0938 165.344 45.9863C166.291 45.8691 167.302 45.8105 168.376 45.8105C169.128 45.8105 169.758 45.8301 170.266 45.8691C170.783 45.9082 171.223 45.9717 171.584 46.0596C171.945 46.1377 172.272 46.2354 172.565 46.3525C172.849 46.46 173.103 46.582 173.327 46.7188C173.552 46.8457 173.757 46.9824 173.942 47.1289C174.665 47.7344 175.095 48.5156 175.231 49.4727C175.378 50.4199 175.451 51.5771 175.451 52.9443V65H170.456V52.9297C170.456 52.3242 170.417 51.8164 170.339 51.4062C170.271 50.9961 170.139 50.6738 169.943 50.4395C169.748 50.1855 169.46 50.0146 169.079 49.9268C168.952 49.8975 168.786 49.8682 168.581 49.8389C168.386 49.8096 168.151 49.79 167.878 49.7803V58.6719C167.878 59.5605 167.829 60.3906 167.731 61.1621C167.634 61.9238 167.468 62.5928 167.233 63.1689C166.911 64.0381 166.389 64.6289 165.666 64.9414C165.168 65.1758 164.611 65.3125 163.996 65.3516C163.391 65.4004 162.829 65.4248 162.312 65.4248ZM178.059 58.9062V46.1035H183.024V54.2041L180.124 58.9062H178.059ZM189.514 65.293C188.508 65.293 187.639 65.249 186.906 65.1611C186.184 65.083 185.554 64.9609 185.017 64.7949V60.5762C185.427 60.6738 185.842 60.7617 186.262 60.8398C186.691 60.9082 187.121 60.9619 187.551 61.001C187.99 61.04 188.43 61.0596 188.869 61.0596C189.221 61.0596 189.523 61.001 189.777 60.8838C190.031 60.7666 190.212 60.6055 190.319 60.4004C190.407 60.2441 190.476 60.0684 190.524 59.873C190.583 59.6777 190.627 59.4678 190.656 59.2432C190.686 58.9697 190.705 58.6816 190.715 58.3789C190.725 58.0664 190.729 57.749 190.729 57.4268V54.0869C190.729 53.3936 190.686 52.7832 190.598 52.2559C190.51 51.7188 190.383 51.2793 190.217 50.9375C190.08 50.6445 189.87 50.4199 189.587 50.2637C189.304 50.1074 188.947 50.0293 188.518 50.0293C188.068 50.0293 187.668 50.0439 187.316 50.0732C186.965 50.0928 186.516 50.1318 185.969 50.1904C185.832 50.2002 185.686 50.2197 185.529 50.249C185.373 50.2783 185.212 50.3027 185.046 50.3223V46.1328C185.192 46.1133 185.339 46.0938 185.485 46.0742C185.632 46.0449 185.778 46.0254 185.925 46.0156C186.442 45.9473 186.955 45.8984 187.463 45.8691C187.98 45.8301 188.503 45.8105 189.03 45.8105C189.958 45.8105 190.754 45.9082 191.418 46.1035C192.092 46.2891 192.663 46.5381 193.132 46.8506C193.679 47.1924 194.123 47.6172 194.465 48.125C194.816 48.623 195.1 49.1943 195.314 49.8389C195.451 50.2393 195.554 50.6641 195.622 51.1133C195.7 51.5625 195.749 52.0361 195.769 52.5342C195.798 53.0322 195.812 53.5498 195.812 54.0869V57.4268C195.812 58.2178 195.744 58.9697 195.607 59.6826C195.471 60.3955 195.266 61.0645 194.992 61.6895C194.689 62.3926 194.299 63.0029 193.82 63.5205C193.352 64.0283 192.727 64.458 191.945 64.8096C191.574 64.9756 191.164 65.0977 190.715 65.1758C190.266 65.2539 189.865 65.293 189.514 65.293Z" fill="#062841"/>
<path d="M115.351 163.207V143.139C115.351 142.494 115.316 141.83 115.248 141.146C115.189 140.463 115.116 139.833 115.028 139.257C114.95 138.681 114.867 138.227 114.779 137.895C114.75 137.758 114.716 137.626 114.677 137.499C114.647 137.372 114.618 137.24 114.589 137.104H116.815C116.864 137.27 116.908 137.445 116.947 137.631C116.996 137.807 117.035 137.987 117.064 138.173C117.182 138.729 117.274 139.286 117.343 139.843C117.421 140.39 117.479 140.941 117.519 141.498C117.558 142.045 117.577 142.592 117.577 143.139V163.207H115.351ZM121.459 156V137.104H123.7V156H121.459ZM127.025 156V154.125H133.324V142.509C133.324 141.308 133.173 140.419 132.87 139.843C132.567 139.267 132.045 138.92 131.303 138.803C131.137 138.773 130.956 138.754 130.761 138.744C130.575 138.725 130.385 138.715 130.189 138.715C129.613 138.715 129.11 138.729 128.681 138.759C128.261 138.778 127.704 138.827 127.011 138.905V136.986C127.538 136.928 128.046 136.884 128.534 136.854C129.022 136.825 129.501 136.811 129.97 136.811C130.624 136.811 131.171 136.835 131.61 136.884C132.05 136.933 132.436 137.011 132.768 137.118C133.227 137.265 133.627 137.47 133.969 137.733C134.32 137.987 134.608 138.295 134.833 138.656C134.999 138.91 135.136 139.242 135.243 139.652C135.351 140.053 135.429 140.502 135.478 141C135.526 141.488 135.551 141.996 135.551 142.523V154.125H137.045V156H127.025ZM140.019 156L138.451 137.104H140.604L141.469 147.504C141.947 147.318 142.357 147.089 142.699 146.815C143.041 146.532 143.334 146.181 143.578 145.761C143.861 145.272 144.081 144.682 144.237 143.988C144.403 143.295 144.535 142.465 144.633 141.498L145.028 137.104H147.123L146.698 141.938C146.601 143.002 146.459 143.9 146.273 144.633C146.088 145.355 145.829 146.034 145.497 146.669C145.106 147.343 144.613 147.895 144.018 148.324C143.422 148.754 142.675 149.091 141.776 149.335C141.757 149.335 141.732 149.34 141.703 149.35C141.674 149.35 141.645 149.35 141.615 149.35L142.025 154.096H142.816C143.891 154.096 144.872 153.876 145.761 153.437C146.659 152.987 147.421 152.362 148.046 151.562C149.286 149.979 150.028 147.909 150.272 145.351L151.034 137.104H153.158L152.382 145.351C152.274 146.571 152.064 147.719 151.752 148.793C151.449 149.867 151.034 150.824 150.507 151.664C150.087 152.426 149.564 153.119 148.939 153.744C148.324 154.359 147.572 154.857 146.684 155.238C146.127 155.492 145.521 155.683 144.867 155.81C144.213 155.937 143.529 156 142.816 156H140.019ZM156.029 156V137.221C156.469 137.162 156.884 137.113 157.274 137.074C157.665 137.025 158.031 136.981 158.373 136.942C158.842 136.903 159.271 136.874 159.662 136.854C160.062 136.825 160.414 136.811 160.717 136.811C161.615 136.811 162.392 136.889 163.046 137.045C163.71 137.201 164.286 137.479 164.774 137.88C164.921 137.997 165.048 138.124 165.155 138.261C165.272 138.397 165.38 138.544 165.478 138.7C165.741 139.149 165.927 139.691 166.034 140.326C166.151 140.951 166.21 141.684 166.21 142.523V156H163.969V142.509C163.969 141.708 163.905 141.059 163.778 140.561C163.661 140.062 163.446 139.677 163.134 139.403C162.831 139.13 162.47 138.949 162.05 138.861C161.64 138.764 161.137 138.715 160.541 138.715C160.258 138.715 159.926 138.729 159.545 138.759C159.174 138.778 158.749 138.817 158.271 138.876V156H156.029ZM175.263 156.103C175.077 156.103 174.872 156.083 174.647 156.044C174.423 156.005 174.198 155.951 173.974 155.883V153.949C174.374 154.066 174.677 154.125 174.882 154.125C175.331 154.125 175.624 153.949 175.761 153.598C175.897 153.236 175.966 152.782 175.966 152.235V138.993C175.761 139.003 175.551 139.022 175.336 139.052C175.131 139.081 174.926 139.115 174.721 139.154V137.265C175.102 137.196 175.58 137.128 176.156 137.06C176.742 136.991 177.348 136.933 177.973 136.884C178.598 136.835 179.174 136.811 179.701 136.811C180.404 136.811 180.98 136.83 181.43 136.869C181.879 136.898 182.26 136.957 182.572 137.045C182.895 137.133 183.202 137.245 183.495 137.382C183.72 137.499 183.925 137.631 184.11 137.777C184.296 137.924 184.467 138.09 184.623 138.275C185.014 138.734 185.282 139.315 185.429 140.019C185.575 140.722 185.648 141.557 185.648 142.523V156H183.407V142.509C183.407 141.356 183.261 140.512 182.968 139.975C182.675 139.428 182.182 139.076 181.488 138.92C181.195 138.822 180.844 138.759 180.434 138.729C180.258 138.729 179.984 138.734 179.613 138.744C179.242 138.744 178.773 138.759 178.207 138.788V152.235C178.207 152.724 178.178 153.173 178.119 153.583C178.061 153.983 177.978 154.335 177.87 154.638C177.665 155.204 177.333 155.6 176.874 155.824C176.64 155.932 176.381 156.005 176.098 156.044C175.824 156.083 175.546 156.103 175.263 156.103ZM193.998 156V142.509C193.998 141.679 193.944 141.015 193.837 140.517C193.739 140.009 193.544 139.618 193.251 139.345C192.987 139.091 192.66 138.925 192.27 138.847C191.889 138.759 191.449 138.715 190.951 138.715C190.688 138.715 190.375 138.725 190.014 138.744C189.652 138.754 189.291 138.773 188.93 138.803C188.568 138.832 188.256 138.861 187.992 138.891V136.986C188.48 136.928 188.954 136.884 189.413 136.854C189.872 136.825 190.312 136.811 190.731 136.811C191.513 136.811 192.157 136.845 192.665 136.913C193.173 136.981 193.632 137.099 194.042 137.265C194.433 137.421 194.755 137.631 195.009 137.895C195.272 138.148 195.497 138.471 195.683 138.861C195.888 139.281 196.029 139.799 196.107 140.414C196.186 141.02 196.225 141.723 196.225 142.523V156H193.998ZM199.696 156.103C199.511 156.103 199.306 156.083 199.081 156.044C198.856 156.005 198.632 155.951 198.407 155.883V153.949C198.808 154.066 199.11 154.125 199.315 154.125C199.765 154.125 200.058 153.949 200.194 153.598C200.331 153.236 200.399 152.782 200.399 152.235V138.993C200.194 139.003 199.984 139.022 199.77 139.052C199.564 139.081 199.359 139.115 199.154 139.154V137.265C199.535 137.196 200.014 137.128 200.59 137.06C201.176 136.991 201.781 136.933 202.406 136.884C203.031 136.835 203.607 136.811 204.135 136.811C204.838 136.811 205.414 136.83 205.863 136.869C206.312 136.898 206.693 136.957 207.006 137.045C207.328 137.133 207.636 137.245 207.929 137.382C208.153 137.499 208.358 137.631 208.544 137.777C208.729 137.924 208.9 138.09 209.057 138.275C209.447 138.734 209.716 139.315 209.862 140.019C210.009 140.722 210.082 141.557 210.082 142.523V156H207.841V142.509C207.841 141.356 207.694 140.512 207.401 139.975C207.108 139.428 206.615 139.076 205.922 138.92C205.629 138.822 205.277 138.759 204.867 138.729C204.691 138.729 204.418 138.734 204.047 138.744C203.676 138.744 203.207 138.759 202.641 138.788V152.235C202.641 152.724 202.611 153.173 202.553 153.583C202.494 153.983 202.411 154.335 202.304 154.638C202.099 155.204 201.767 155.6 201.308 155.824C201.073 155.932 200.814 156.005 200.531 156.044C200.258 156.083 199.979 156.103 199.696 156.103ZM213.905 149.159V137.104H216.132V146.83L214.491 149.159H213.905Z" fill="#062841"/>
<path d="M139.169 188.867C141.38 188.867 143.264 189.399 144.824 190.465C146.383 191.531 147.577 193.011 148.406 194.906C149.235 196.801 149.649 199.001 149.649 201.508C149.649 204.369 149.175 206.886 148.228 209.057C147.301 211.228 145.929 212.925 144.113 214.149C142.297 215.372 140.047 215.984 137.363 215.984C135.725 215.984 134.255 215.826 132.952 215.511C131.65 215.214 130.505 214.77 129.518 214.178V209.501C130.623 210.231 131.817 210.813 133.1 211.247C134.403 211.682 135.706 211.899 137.008 211.899C138.804 211.899 140.274 211.435 141.419 210.507C142.584 209.56 143.452 208.317 144.024 206.777C144.597 205.218 144.883 203.511 144.883 201.656C144.883 198.794 144.251 196.613 142.988 195.113C141.745 193.613 139.949 192.863 137.6 192.863C136.613 192.863 135.636 192.962 134.669 193.159C133.702 193.337 132.735 193.574 131.768 193.87L129.903 192.064L131.206 172.11H147.34V176.374H135.113L134.225 189.459C135.054 189.261 135.883 189.113 136.712 189.015C137.561 188.916 138.38 188.867 139.169 188.867ZM175.287 215.392H154.445V211.928L163.001 199.317C164.678 196.85 166.001 194.718 166.968 192.922C167.955 191.126 168.655 189.429 169.07 187.83C169.504 186.212 169.721 184.456 169.721 182.561C169.721 180.449 169.208 178.781 168.182 177.558C167.175 176.334 165.724 175.722 163.83 175.722C162.567 175.722 161.412 175.949 160.366 176.403C159.34 176.857 158.284 177.607 157.198 178.653L154.8 175.397C155.787 174.469 156.764 173.719 157.731 173.147C158.698 172.574 159.705 172.16 160.751 171.903C161.817 171.627 162.971 171.489 164.215 171.489C166.346 171.489 168.172 171.943 169.691 172.851C171.231 173.758 172.405 175.031 173.214 176.67C174.023 178.308 174.428 180.212 174.428 182.383C174.428 184.692 174.162 186.814 173.629 188.748C173.096 190.682 172.287 192.607 171.201 194.521C170.135 196.416 168.783 198.488 167.145 200.738L159.951 210.951V211.159H175.287V215.392ZM201.398 193.751C201.398 197.225 201.2 200.333 200.806 203.077C200.431 205.82 199.829 208.149 199 210.063C198.171 211.978 197.095 213.438 195.773 214.445C194.47 215.451 192.901 215.955 191.066 215.955C188.875 215.955 187.01 215.284 185.47 213.941C183.931 212.58 182.747 210.29 181.918 207.073C181.109 203.837 180.704 199.396 180.704 193.751C180.704 188.817 181.079 184.702 181.829 181.406C182.599 178.11 183.744 175.633 185.263 173.976C186.803 172.318 188.737 171.489 191.066 171.489C193.434 171.489 195.378 172.328 196.898 174.005C198.417 175.663 199.542 178.14 200.273 181.436C201.023 184.732 201.398 188.837 201.398 193.751ZM185.47 193.751C185.47 197.718 185.658 201.034 186.033 203.698C186.408 206.343 187.01 208.336 187.839 209.678C188.668 211.021 189.743 211.692 191.066 211.692C192.388 211.692 193.464 211.021 194.293 209.678C195.121 208.317 195.723 206.304 196.098 203.639C196.493 200.975 196.691 197.679 196.691 193.751C196.691 189.824 196.493 186.528 196.098 183.863C195.704 181.199 195.092 179.186 194.263 177.824C193.454 176.462 192.388 175.781 191.066 175.781C189.743 175.781 188.668 176.452 187.839 177.795C187.01 179.137 186.408 181.14 186.033 183.804C185.658 186.449 185.47 189.765 185.47 193.751Z" fill="#062841"/>
<path d="M111.063 215.286L111.286 215.283L112.869 215.275L120.085 215.24L112.838 208.654L120.02 202L112.804 202.034L111.224 202.043H110.998L103.813 208.697L111.063 215.286Z" fill="#DBB65D"/>
<path d="M99.2498 215.286L99.4728 215.283L101.053 215.277L108.272 215.24L101.022 208.654L108.207 202L100.991 202.034L99.4079 202.043L99.1849 202.046L92 208.7L99.2498 215.286Z" fill="#DBB65D"/>
</g>
<defs>
<filter id="filter0_d_24_15899" x="0" y="0" width="310" height="298" filterUnits="userSpaceOnUse" color-interpolation-filters="sRGB">
<feFlood flood-opacity="0" result="BackgroundImageFix"/>
<feColorMatrix in="SourceAlpha" type="matrix" values="0 0 0 0 0 0 0 0 0 0 0 0 0 0 0 0 0 0 127 0" result="hardAlpha"/>
<feOffset dy="4"/>
<feGaussianBlur stdDeviation="12"/>
<feComposite in2="hardAlpha" operator="out"/>
<feColorMatrix type="matrix" values="0 0 0 0 0.245573 0 0 0 0 0.594951 0 0 0 0 0.854167 0 0 0 0.15 0"/>
<feBlend mode="normal" in2="BackgroundImageFix" result="effect1_dropShadow_24_15899"/>
<feBlend mode="normal" in="SourceGraphic" in2="effect1_dropShadow_24_15899" result="shape"/>
</filter>
<filter id="filter1_d_24_15899" x="0" y="0" width="310" height="298" filterUnits="userSpaceOnUse" color-interpolation-filters="sRGB">
<feFlood flood-opacity="0" result="BackgroundImageFix"/>
<feColorMatrix in="SourceAlpha" type="matrix" values="0 0 0 0 0 0 0 0 0 0 0 0 0 0 0 0 0 0 127 0" result="hardAlpha"/>
<feOffset dy="4"/>
<feGaussianBlur stdDeviation="12"/>
<feComposite in2="hardAlpha" operator="out"/>
<feColorMatrix type="matrix" values="0 0 0 0 0.245573 0 0 0 0 0.594951 0 0 0 0 0.854167 0 0 0 0.15 0"/>
<feBlend mode="normal" in2="BackgroundImageFix" result="effect1_dropShadow_24_15899"/>
<feBlend mode="normal" in="SourceGraphic" in2="effect1_dropShadow_24_15899" result="shape"/>
</filter>
<clipPath id="clip0_24_15899">
<rect width="262" height="250" fill="white" transform="translate(24 20)"/>
</clipPath>
</defs>
</svg>
