<svg width="241" height="162" viewBox="0 0 241 162" fill="none" xmlns="http://www.w3.org/2000/svg">
<g filter="url(#filter0_d_228_5476)">
<rect x="24" y="20" width="193" height="114" rx="5" fill="white"/>
<path fill-rule="evenodd" clip-rule="evenodd" d="M127.797 46.7734C126.805 49.4453 124.734 51.5781 122.078 52.6328H130.563V46.9219C130.563 46.8359 130.492 46.7734 130.414 46.7734H127.797Z" fill="#CDD6DC"/>
<path fill-rule="evenodd" clip-rule="evenodd" d="M114.664 52.6328C112.016 51.5781 109.938 49.4453 108.953 46.7734H106.703C105.086 46.7813 103.781 48.1016 103.789 49.7188C103.797 51.3281 105.102 52.625 106.703 52.6328H114.664Z" fill="#CDD6DC"/>
<path fill-rule="evenodd" clip-rule="evenodd" d="M132.359 59.9922H134.625V54.5234C134.625 54.4844 134.61 54.4453 134.578 54.4219C134.547 54.3906 134.516 54.375 134.477 54.375H106.703C105.633 54.375 104.602 54.0078 103.773 53.3359V72.0704C103.781 73.6876 105.086 74.9923 106.703 75.0001H134.477C134.516 75.0001 134.555 74.9845 134.578 74.9532C134.61 74.922 134.625 74.8907 134.625 74.8517V69.3829H132.359C129.766 69.3829 127.664 67.2813 127.664 64.6875C127.672 62.0938 129.774 59.9922 132.359 59.9922ZM117.969 71.6407H108.125C107.641 71.6329 107.258 71.2423 107.266 70.7657C107.273 70.2891 107.656 69.9063 108.125 69.9063H117.969C118.453 69.9141 118.836 70.3048 118.828 70.7813C118.828 71.2501 118.445 71.6329 117.969 71.6407Z" fill="#335269"/>
<path fill-rule="evenodd" clip-rule="evenodd" d="M137.227 61.7344H132.359C130.727 61.7422 129.414 63.0703 129.422 64.7031C129.43 66.3203 130.742 67.6328 132.359 67.6406H137.227V61.7344Z" fill="#CDD6DC"/>
<path fill-rule="evenodd" clip-rule="evenodd" d="M124.242 37.4297C122.688 35.875 120.578 35 118.375 35C116.172 35 114.063 35.875 112.508 37.4297C109.266 40.6719 109.266 45.9297 112.508 49.1641C115.75 52.4063 121.008 52.4063 124.242 49.1641C127.484 45.9297 127.484 40.6719 124.242 37.4297ZM122.773 44.9141L118.984 48.7032C118.641 49.0391 118.094 49.0391 117.758 48.7032L113.969 44.9141C113.625 44.5782 113.625 44.0235 113.961 43.6875C114.297 43.3438 114.852 43.3438 115.188 43.6797C115.188 43.6797 115.188 43.6797 115.195 43.6875L117.5 45.9922V38.5156C117.5 38.0391 117.891 37.6484 118.367 37.6484C118.844 37.6484 119.234 38.0391 119.234 38.5156V45.9922L121.539 43.6875C121.875 43.3516 122.43 43.3516 122.766 43.6875C123.117 44.0235 123.117 44.5782 122.773 44.9141Z" fill="#DBB65D"/>
<path d="M79.4844 107.891C78.2891 107.891 77.3398 107.48 76.6367 106.66C75.9414 105.832 75.5938 104.609 75.5938 102.992C75.5938 101.367 75.9883 100.07 76.7773 99.1016C77.5664 98.1328 78.5742 97.6484 79.8008 97.6484C80.7852 97.6484 81.6328 98.0039 82.3438 98.7148C83.125 99.4961 83.6641 100.723 83.9609 102.395C84.125 103.293 84.207 104.309 84.207 105.441V118.766H82.4258V105.441C82.4258 103.051 82.1641 101.383 81.6406 100.438C81.3906 99.9922 81.1172 99.6758 80.8203 99.4883C80.5234 99.293 80.168 99.1953 79.7539 99.1953C79.3477 99.1953 78.9766 99.3281 78.6406 99.5938C78.3047 99.8516 78.0469 100.18 77.8672 100.578C77.5156 101.367 77.3398 102.148 77.3398 102.922C77.3398 105.203 78.0898 106.387 79.5898 106.473C79.6367 106.473 79.7227 106.48 79.8477 106.496L79.5195 107.891C79.5117 107.891 79.5 107.891 79.4844 107.891ZM89.9492 113H87.7227L86.4688 97.8828H88.1797L88.8711 106.203C89.668 105.914 90.2539 105.438 90.6289 104.773C91.0117 104.102 91.2617 103.094 91.3789 101.75L91.7188 97.8828H93.3945L93.0547 101.738C92.9297 103.105 92.6953 104.188 92.3516 104.984C91.7656 106.375 90.6484 107.27 89 107.668L89.3164 111.488H89.9492C91.0742 111.488 92.0703 111.188 92.9375 110.586C93.8047 109.977 94.4844 109.152 94.9766 108.113C95.4766 107.066 95.7891 105.855 95.9141 104.48L96.5234 97.8828H98.2109L97.6016 104.48C97.3672 107.121 96.5938 109.203 95.2812 110.727C94.8828 111.195 94.4375 111.594 93.9453 111.922C93.4531 112.242 92.8633 112.504 92.1758 112.707C91.4961 112.902 90.7539 113 89.9492 113ZM105.594 112.742V113H103.848V112.742C103.848 112.414 103.875 112.098 103.93 111.793C103.984 111.488 104.027 111.242 104.059 111.055C104.098 110.859 104.148 110.621 104.211 110.34C104.281 110.051 104.34 109.812 104.387 109.625C104.434 109.43 104.5 109.164 104.586 108.828C104.68 108.484 104.75 108.219 104.797 108.031C105.008 107.297 105.348 106.031 105.816 104.234C106.293 102.438 106.73 100.82 107.129 99.3828H100.59V97.8828H108.98V99.1953L107.023 106.355C107 106.441 106.934 106.688 106.824 107.094C106.715 107.5 106.641 107.773 106.602 107.914C106.562 108.055 106.492 108.312 106.391 108.688C106.289 109.062 106.215 109.34 106.168 109.52C106.129 109.691 106.07 109.938 105.992 110.258C105.922 110.578 105.867 110.832 105.828 111.02C105.789 111.207 105.75 111.422 105.711 111.664C105.633 112.07 105.594 112.43 105.594 112.742ZM102.371 118.766H100.602V104.059H102.371V118.766ZM115.543 98.0117C115.566 98.0117 115.742 97.9883 116.07 97.9414C116.406 97.8945 116.734 97.8516 117.055 97.8125C117.953 97.7031 118.844 97.6484 119.727 97.6484C120.609 97.6484 121.316 97.7344 121.848 97.9062C122.379 98.0781 122.797 98.3008 123.102 98.5742C123.414 98.8398 123.66 99.1836 123.84 99.6055C124.02 100.02 124.137 100.43 124.191 100.836C124.246 101.242 124.273 101.711 124.273 102.242V113H122.504V102.242C122.504 100.664 122.121 99.7188 121.355 99.4062C120.988 99.25 120.551 99.1719 120.043 99.1719C119.535 99.1719 118.965 99.1914 118.332 99.2305V108.863C118.332 110.449 118.176 111.547 117.863 112.156C117.559 112.766 116.953 113.07 116.047 113.07C115.758 113.07 115.395 113.02 114.957 112.918V111.371C115.332 111.441 115.539 111.477 115.578 111.477C115.93 111.477 116.18 111.355 116.328 111.113C116.477 110.863 116.551 110.492 116.551 110V99.3945C116.355 99.418 116.02 99.4609 115.543 99.5234V98.0117ZM134.094 97.8828V99.2422C132.578 99.7891 131.82 100.891 131.82 102.547V113H130.051V102.523C130.051 102.07 130.105 101.656 130.215 101.281C130.332 100.898 130.469 100.594 130.625 100.367C130.953 99.9062 131.25 99.6094 131.516 99.4766L131.68 99.3828H126.055V97.8828H134.094ZM141.078 112.742V113H139.332V112.742C139.332 112.414 139.359 112.098 139.414 111.793C139.469 111.488 139.512 111.242 139.543 111.055C139.582 110.859 139.633 110.621 139.695 110.34C139.766 110.051 139.824 109.812 139.871 109.625C139.918 109.43 139.984 109.164 140.07 108.828C140.164 108.484 140.234 108.219 140.281 108.031C140.492 107.297 140.832 106.031 141.301 104.234C141.777 102.438 142.215 100.82 142.613 99.3828H136.074V97.8828H144.465V99.1953L142.508 106.355C142.484 106.441 142.418 106.688 142.309 107.094C142.199 107.5 142.125 107.773 142.086 107.914C142.047 108.055 141.977 108.312 141.875 108.688C141.773 109.062 141.699 109.34 141.652 109.52C141.613 109.691 141.555 109.938 141.477 110.258C141.406 110.578 141.352 110.832 141.312 111.02C141.273 111.207 141.234 111.422 141.195 111.664C141.117 112.07 141.078 112.43 141.078 112.742ZM137.855 118.766H136.086V104.059H137.855V118.766ZM149.832 107.867C148.691 107.828 147.793 107.395 147.137 106.566C146.48 105.73 146.152 104.52 146.152 102.934C146.152 101.34 146.547 100.062 147.336 99.1016C148.125 98.1328 149.133 97.6484 150.359 97.6484C151.344 97.6484 152.188 98.0039 152.891 98.7148C153.68 99.5039 154.219 100.73 154.508 102.395C154.672 103.293 154.754 104.309 154.754 105.441C154.754 106.574 154.668 107.59 154.496 108.488C154.332 109.387 154.105 110.129 153.816 110.715C153.535 111.293 153.195 111.773 152.797 112.156C152.07 112.875 151.211 113.234 150.219 113.234C149.297 113.234 148.445 113.164 147.664 113.023L147.289 112.965V111.406C148.328 111.594 149.305 111.688 150.219 111.688C152.023 111.688 152.926 109.605 152.926 105.441C152.926 103.027 152.672 101.359 152.164 100.438C151.922 99.9922 151.656 99.6758 151.367 99.4883C151.078 99.293 150.727 99.1953 150.312 99.1953C149.906 99.1953 149.531 99.3281 149.188 99.5938C148.852 99.8594 148.594 100.195 148.414 100.602C148.062 101.406 147.887 102.191 147.887 102.957C147.887 104.074 148.059 104.93 148.402 105.523C148.754 106.117 149.332 106.43 150.137 106.461L150.395 106.484L150.078 107.891L149.832 107.867ZM160.988 97.6484C162.652 97.6484 163.82 97.9805 164.492 98.6445C165.164 99.3008 165.5 100.492 165.5 102.219V113H163.707V102.219C163.707 101.578 163.656 101.059 163.555 100.66C163.461 100.262 163.293 99.9531 163.051 99.7344C162.809 99.5156 162.516 99.3672 162.172 99.2891C161.836 99.2109 161.32 99.1719 160.625 99.1719C159.93 99.1719 158.844 99.2773 157.367 99.4883V97.9766C158.641 97.7578 159.848 97.6484 160.988 97.6484ZM159.148 113H157.367V103.438H159.148V113Z" fill="black"/>
<rect x="24.5" y="20.5" width="192" height="113" rx="4.5" stroke="#DBB65D"/>
</g>
<defs>
<filter id="filter0_d_228_5476" x="0" y="0" width="241" height="162" filterUnits="userSpaceOnUse" color-interpolation-filters="sRGB">
<feFlood flood-opacity="0" result="BackgroundImageFix"/>
<feColorMatrix in="SourceAlpha" type="matrix" values="0 0 0 0 0 0 0 0 0 0 0 0 0 0 0 0 0 0 127 0" result="hardAlpha"/>
<feOffset dy="4"/>
<feGaussianBlur stdDeviation="12"/>
<feComposite in2="hardAlpha" operator="out"/>
<feColorMatrix type="matrix" values="0 0 0 0 0.245573 0 0 0 0 0.594951 0 0 0 0 0.854167 0 0 0 0.15 0"/>
<feBlend mode="normal" in2="BackgroundImageFix" result="effect1_dropShadow_228_5476"/>
<feBlend mode="normal" in="SourceGraphic" in2="effect1_dropShadow_228_5476" result="shape"/>
</filter>
</defs>
</svg>
