<svg width="308" height="296" viewBox="0 0 308 296" fill="none" xmlns="http://www.w3.org/2000/svg">
<g filter="url(#filter0_d_228_4890)">
<rect x="23" y="18" width="262" height="250" rx="4.72924" fill="#335269"/>
</g>
<line x1="23" y1="87.0542" x2="285" y2="87.0542" stroke="white" stroke-width="1.8917"/>
<path d="M99.5 44.4111C99.9199 44.3135 100.755 44.1914 102.005 44.0449C103.255 43.8887 104.412 43.8105 105.477 43.8105C106.541 43.8105 107.42 43.874 108.113 44.001C108.816 44.1182 109.407 44.3135 109.886 44.5869C110.364 44.8604 110.755 45.1729 111.058 45.5244C111.37 45.876 111.609 46.3203 111.775 46.8574C112.078 47.7754 112.229 48.9912 112.229 50.5049V63H107.176V50.4902C107.176 49.3574 107.029 48.5811 106.736 48.1611C106.443 47.7314 105.901 47.5166 105.11 47.5166H104.935V57.5068C104.935 59.1768 104.832 60.2852 104.627 60.832C104.363 61.5742 104.041 62.082 103.66 62.3555C103.074 62.7852 102.4 63.0586 101.639 63.1758C101.189 63.2441 100.735 63.2783 100.276 63.2783C99.4463 63.2783 98.709 63.1367 98.0645 62.8535L97.7422 62.707V59.2354C98.3965 59.4014 98.8262 59.4844 99.0312 59.4844C99.2363 59.4844 99.3975 59.4355 99.5146 59.3379C99.6416 59.2305 99.7295 59.0645 99.7783 58.8398C99.8467 58.5176 99.8809 58.0732 99.8809 57.5068V48.0146L98.5186 48.2783V44.6309C98.7529 44.5723 99.0801 44.499 99.5 44.4111ZM114.837 56.8037V44.1035H119.861V52.834L117.342 56.8037H114.837ZM122.542 63V44.3525C123.099 44.2354 123.973 44.1182 125.164 44.001C126.355 43.874 127.513 43.8105 128.636 43.8105C129.769 43.8105 130.682 43.874 131.375 44.001C132.078 44.1182 132.669 44.3135 133.147 44.5869C133.626 44.8604 134.017 45.1729 134.319 45.5244C134.632 45.876 134.871 46.3203 135.037 46.8574C135.34 47.7754 135.491 48.9912 135.491 50.5049V63H130.438V50.4902C130.438 49.3574 130.291 48.5811 129.998 48.1611C129.705 47.7314 129.168 47.5166 128.387 47.5166C128.309 47.5166 128.04 47.541 127.581 47.5898V63H122.542ZM137.41 44.2646C138.709 43.9619 139.998 43.8105 141.277 43.8105C142.566 43.8105 143.597 43.9424 144.368 44.2061C145.149 44.46 145.774 44.8018 146.243 45.2314C146.712 45.6611 147.088 46.208 147.371 46.8721C147.654 47.5361 147.845 48.2246 147.942 48.9375C148.05 49.6504 148.104 50.4658 148.104 51.3838V55.2656C148.104 56.9746 147.83 58.4688 147.283 59.748C146.971 60.4512 146.575 61.0615 146.097 61.5791C145.628 62.0869 145.013 62.4971 144.251 62.8096C143.489 63.1221 142.62 63.2783 141.644 63.2783C139.983 63.2783 138.572 63.1074 137.41 62.7656V58.8984C138.553 59.2402 139.71 59.4111 140.882 59.4111C141.907 59.4111 142.537 58.8594 142.771 57.7559C142.908 57.1602 142.977 56.3301 142.977 55.2656V51.3838C142.977 50.1631 142.796 49.2402 142.435 48.6152C142.073 47.9902 141.478 47.6777 140.647 47.6777C139.534 47.6777 138.582 47.7656 137.791 47.9414L137.41 48.0146V44.2646ZM155.398 63H150.374V44.1035H155.398V63ZM158.064 44.1475C159.256 43.9229 160.223 43.8105 160.965 43.8105C161.707 43.8105 162.352 43.8594 162.898 43.957C163.455 44.0547 163.929 44.1865 164.319 44.3525C164.71 44.5186 165.042 44.7432 165.315 45.0264C165.599 45.2998 165.818 45.583 165.975 45.876C166.141 46.1689 166.268 46.5254 166.355 46.9453C166.512 47.6387 166.59 48.5176 166.59 49.582V57.4922C166.59 58.3809 166.521 59.2842 166.385 60.2021C166.248 61.1201 166.111 61.8184 165.975 62.2969L165.77 63H157.229V59.3232H161.346C161.482 58.6104 161.551 57.624 161.551 56.3643V49.582C161.551 49.0352 161.424 48.5713 161.17 48.1904C160.926 47.7998 160.516 47.6045 159.939 47.6045C159.549 47.6045 159.031 47.6875 158.387 47.8535L158.064 47.9268V44.1475ZM179.041 44.0303C180.281 43.8838 181.424 43.8105 182.469 43.8105C183.514 43.8105 184.383 43.874 185.076 44.001C185.779 44.1182 186.37 44.3135 186.849 44.5869C187.327 44.8604 187.718 45.1729 188.021 45.5244C188.333 45.876 188.572 46.3203 188.738 46.8574C189.041 47.7754 189.192 48.9912 189.192 50.5049V63H184.139V50.4902C184.139 49.3672 183.948 48.5908 183.567 48.1611C183.187 47.7314 182.518 47.5166 181.561 47.5166C180.896 47.5166 180.12 47.5703 179.231 47.6777C178.353 47.7754 177.635 47.8779 177.078 47.9854L176.243 48.1465V44.4844C176.878 44.3184 177.811 44.167 179.041 44.0303ZM181.282 63H176.243V50.7246H181.282V63ZM190.979 44.0156C192.679 43.8398 194.1 43.752 195.242 43.752C196.395 43.752 197.361 43.8496 198.143 44.0449C198.924 44.2402 199.554 44.5088 200.032 44.8506C200.521 45.1924 200.896 45.6562 201.16 46.2422C201.434 46.8184 201.614 47.4287 201.702 48.0732C201.8 48.7178 201.849 49.5088 201.849 50.4463V63H196.81V50.4316C196.81 49.3965 196.629 48.6445 196.268 48.1758C195.906 47.6973 195.296 47.458 194.437 47.458C193.519 47.458 192.537 47.502 191.492 47.5898L190.979 47.6338V44.0156ZM205.291 44.4111C205.711 44.3135 206.546 44.1914 207.796 44.0449C209.046 43.8887 210.203 43.8105 211.268 43.8105C212.332 43.8105 213.211 43.874 213.904 44.001C214.607 44.1182 215.198 44.3135 215.677 44.5869C216.155 44.8604 216.546 45.1729 216.849 45.5244C217.161 45.876 217.4 46.3203 217.566 46.8574C217.869 47.7754 218.021 48.9912 218.021 50.5049V63H212.967V50.4902C212.967 49.3574 212.82 48.5811 212.527 48.1611C212.234 47.7314 211.692 47.5166 210.901 47.5166H210.726V57.5068C210.726 59.1768 210.623 60.2852 210.418 60.832C210.154 61.5742 209.832 62.082 209.451 62.3555C208.865 62.7852 208.191 63.0586 207.43 63.1758C206.98 63.2441 206.526 63.2783 206.067 63.2783C205.237 63.2783 204.5 63.1367 203.855 62.8535L203.533 62.707V59.2354C204.188 59.4014 204.617 59.4844 204.822 59.4844C205.027 59.4844 205.188 59.4355 205.306 59.3379C205.433 59.2305 205.521 59.0645 205.569 58.8398C205.638 58.5176 205.672 58.0732 205.672 57.5068V48.0146L204.31 48.2783V44.6309C204.544 44.5723 204.871 44.499 205.291 44.4111ZM220.628 56.8037V44.1035H225.652V52.834L223.133 56.8037H220.628Z" fill="white"/>
<path d="M117.964 184.691C120.794 184.691 123.336 185.17 125.59 186.13C127.868 187.065 129.703 188.54 131.094 190.554C132.509 192.545 133.216 194.979 133.216 197.856C133.216 200.71 132.509 203.216 131.094 205.374C129.703 207.509 127.701 209.139 125.087 210.266C128.036 211.082 130.29 212.52 131.849 214.583C133.432 216.645 134.223 219.283 134.223 222.496C134.223 227.556 132.569 231.525 129.259 234.403C125.95 237.257 121.621 238.683 116.274 238.683C110.926 238.683 106.633 237.844 103.396 236.165V225.734C105.986 227.221 108.72 228.264 111.597 228.863C112.82 229.103 113.984 229.223 115.087 229.223C117.317 229.223 118.984 228.66 120.087 227.532C121.19 226.405 121.741 224.631 121.741 222.209C121.741 217.628 119.115 215.338 113.864 215.338H111.418V206.705H113.756C116.058 206.705 117.808 206.118 119.008 204.943C120.207 203.744 120.806 201.993 120.806 199.691C120.806 197.94 120.47 196.609 119.799 195.698C119.127 194.787 118.168 194.331 116.921 194.331C114.667 194.331 112.341 195.051 109.943 196.489C109.367 196.825 108.792 197.221 108.216 197.676L103.36 190.554C103.768 190.075 104.523 189.451 105.626 188.684C106.729 187.892 107.809 187.245 108.864 186.741C109.919 186.214 111.274 185.746 112.928 185.338C114.583 184.907 116.262 184.691 117.964 184.691ZM166.705 195.446H153L152.425 204.619C153.288 204.547 154.247 204.511 155.302 204.511C157.604 204.511 159.667 204.931 161.489 205.77C163.312 206.609 164.787 207.76 165.914 209.223C168.264 212.221 169.439 215.914 169.439 220.302C169.439 225.986 167.868 230.47 164.727 233.755C161.609 237.041 157.317 238.683 151.849 238.683C146.909 238.683 142.784 237.652 139.475 235.59V225.374C141.825 226.933 144.427 228.024 147.281 228.648C148.504 228.911 149.679 229.043 150.806 229.043C154.787 229.043 156.777 226.381 156.777 221.058C156.777 216.142 154.859 213.684 151.022 213.684C149.367 213.684 147.197 214.139 144.511 215.05L140.266 211.957L141.885 185.41H166.705V195.446ZM185.086 185.374C186.597 184.871 188.288 184.619 190.158 184.619C192.029 184.619 193.719 184.871 195.23 185.374C196.741 185.854 198.024 186.513 199.079 187.353C200.158 188.192 201.094 189.271 201.885 190.59C202.676 191.885 203.312 193.264 203.791 194.727C204.271 196.166 204.655 197.856 204.942 199.799C205.23 201.717 205.422 203.6 205.518 205.446C205.638 207.293 205.698 209.367 205.698 211.669C205.698 213.971 205.638 216.046 205.518 217.892C205.422 219.739 205.23 221.633 204.942 223.576C204.655 225.494 204.271 227.185 203.791 228.648C203.312 230.086 202.676 231.465 201.885 232.784C201.094 234.079 200.158 235.146 199.079 235.986C198.024 236.825 196.741 237.496 195.23 238C193.719 238.48 192.029 238.719 190.158 238.719C188.288 238.719 186.597 238.48 185.086 238C183.576 237.496 182.281 236.825 181.202 235.986C180.146 235.146 179.223 234.079 178.432 232.784C177.64 231.465 177.005 230.086 176.525 228.648C176.046 227.185 175.662 225.494 175.374 223.576C175.086 221.633 174.883 219.739 174.763 217.892C174.667 216.046 174.619 213.971 174.619 211.669C174.619 209.367 174.667 207.293 174.763 205.446C174.883 203.6 175.086 201.717 175.374 199.799C175.662 197.856 176.046 196.166 176.525 194.727C177.005 193.264 177.64 191.885 178.432 190.59C179.223 189.271 180.146 188.192 181.202 187.353C182.281 186.513 183.576 185.854 185.086 185.374ZM193.144 211.669C193.144 200.062 192.149 194.259 190.158 194.259C188.168 194.259 187.173 200.062 187.173 211.669C187.173 223.276 188.168 229.079 190.158 229.079C192.149 229.079 193.144 223.276 193.144 211.669Z" fill="white"/>
<path d="M170.549 160.62L171.339 160.61L176.949 160.58L202.519 160.46L176.839 137.35L202.289 114L176.719 114.12L171.119 114.15H170.319L144.859 137.5L170.549 160.62Z" fill="white"/>
<path d="M128.69 160.62L129.48 160.61L135.08 160.59L160.66 160.46L134.97 137.35L160.43 114L134.86 114.12L129.25 114.15L128.46 114.16L103 137.51L128.69 160.62Z" fill="white"/>
<defs>
<filter id="filter0_d_228_4890" x="0.299641" y="0.0288825" width="307.401" height="295.401" filterUnits="userSpaceOnUse" color-interpolation-filters="sRGB">
<feFlood flood-opacity="0" result="BackgroundImageFix"/>
<feColorMatrix in="SourceAlpha" type="matrix" values="0 0 0 0 0 0 0 0 0 0 0 0 0 0 0 0 0 0 127 0" result="hardAlpha"/>
<feOffset dy="4.72924"/>
<feGaussianBlur stdDeviation="11.3502"/>
<feComposite in2="hardAlpha" operator="out"/>
<feColorMatrix type="matrix" values="0 0 0 0 0.172986 0 0 0 0 0.380504 0 0 0 0 0.783333 0 0 0 0.15 0"/>
<feBlend mode="normal" in2="BackgroundImageFix" result="effect1_dropShadow_228_4890"/>
<feBlend mode="normal" in="SourceGraphic" in2="effect1_dropShadow_228_4890" result="shape"/>
</filter>
</defs>
</svg>
