<svg width="184" height="249" viewBox="0 0 184 249" fill="none" xmlns="http://www.w3.org/2000/svg">
<rect x="20.5" y="20.5" width="143" height="56" rx="4.5" fill="white"/>
<path d="M53.5186 60V53.3203C53.5186 52.9297 53.5332 52.5586 53.5625 52.207C53.5918 51.8457 53.6357 51.5039 53.6943 51.1816C53.7627 50.8496 53.8506 50.5273 53.958 50.2148C54.1533 49.6094 54.4463 49.0967 54.8369 48.6768C55.2373 48.2568 55.7158 47.915 56.2725 47.6514L53.3867 41.1035H55.877L60.2861 51.6064C60.5498 51.4307 60.7744 51.2256 60.96 50.9912C61.1455 50.7568 61.292 50.4736 61.3994 50.1416C61.5068 49.8486 61.5801 49.5215 61.6191 49.1602C61.668 48.7891 61.6924 48.3789 61.6924 47.9297V41.1035H63.875V47.9297C63.875 48.3594 63.8359 48.877 63.7578 49.4824C63.6895 50.0879 63.5479 50.6592 63.333 51.1963C63.1572 51.6455 62.8887 52.0654 62.5273 52.4561C62.1758 52.8467 61.7021 53.1787 61.1064 53.4521L63.9336 60H61.4287L57.0928 49.4824C56.8389 49.6582 56.624 49.8633 56.4482 50.0977C56.2822 50.3223 56.1406 50.5908 56.0234 50.9033C55.7988 51.5283 55.6865 52.334 55.6865 53.3203V60H53.5186ZM68.4453 60L69.8076 52.7344L72.2393 42.9932H65.6328V37.0752H67.8594V41.0449H74.3926V42.9932L72.0342 52.6318L70.6426 60H68.4453ZM82.4492 60V41.1475C82.6543 41.1182 82.874 41.0938 83.1084 41.0742C83.3525 41.0449 83.6016 41.0205 83.8555 41.001C84.4902 40.9424 85.0762 40.8984 85.6133 40.8691C86.1504 40.8301 86.6094 40.8105 86.9902 40.8105C87.8008 40.8105 88.4941 40.8496 89.0703 40.9277C89.6562 41.0059 90.1738 41.1426 90.623 41.3379C91.0918 41.543 91.4531 41.8164 91.707 42.1582C91.9609 42.5 92.1562 42.915 92.293 43.4033C92.4004 43.7744 92.4834 44.209 92.542 44.707C92.6006 45.2051 92.6299 45.7715 92.6299 46.4062V60H82.4492ZM84.6904 58.125H90.3887V46.3916C90.3887 45.8545 90.3643 45.3809 90.3154 44.9707C90.2764 44.5605 90.2031 44.2334 90.0957 43.9893C89.9785 43.6963 89.8369 43.4717 89.6709 43.3154C89.5049 43.1494 89.2705 43.0225 88.9678 42.9346C88.665 42.8369 88.3525 42.7783 88.0303 42.7588C87.708 42.7295 87.3223 42.7148 86.873 42.7148C86.5703 42.7148 86.2432 42.7246 85.8916 42.7441C85.54 42.7637 85.1396 42.7979 84.6904 42.8467V58.125ZM95.3984 60V58.125H100.613L102.752 58.1982L99.8516 51.9727L95.3545 41.1035H97.6836L101.536 50.4932L101.653 50.8301C102.093 50.166 102.425 49.4189 102.649 48.5889C102.874 47.749 103.05 46.7188 103.177 45.498L103.616 41.1035H105.828L105.462 44.751C105.433 45.2197 105.398 45.6494 105.359 46.04C105.32 46.4209 105.271 46.7871 105.213 47.1387C105.154 47.4805 105.086 47.832 105.008 48.1934C104.92 48.5742 104.817 48.96 104.7 49.3506C104.583 49.7314 104.417 50.127 104.202 50.5371C104.017 50.9961 103.802 51.4258 103.558 51.8262C103.313 52.2168 103.006 52.5879 102.635 52.9395L105.462 58.8135V60H95.3984ZM107.718 60.7764V58.8721L110.193 58.4326C110.408 58.3936 110.623 58.3545 110.838 58.3154C111.053 58.2764 111.272 58.2422 111.497 58.2129L107.762 41.1035H109.988L111.834 49.6436L113.313 57.3633C114.036 56.9043 114.583 56.2793 114.954 55.4883C115.335 54.6973 115.613 53.7988 115.789 52.793C115.965 51.7871 116.111 50.7422 116.229 49.6582L117.034 41.1035H119.261L118.455 49.4531C118.328 50.7227 118.187 51.8848 118.03 52.9395C117.874 53.9844 117.62 54.9268 117.269 55.7666C116.927 56.5967 116.404 57.3291 115.701 57.9639C115.242 58.5107 114.681 58.96 114.017 59.3115C113.353 59.6533 112.552 59.9121 111.614 60.0879C110.97 60.1953 110.32 60.3076 109.666 60.4248C109.021 60.542 108.372 60.6592 107.718 60.7764ZM121.121 60V58.125H127.42V46.5088C127.42 45.3076 127.269 44.4189 126.966 43.8428C126.663 43.2666 126.141 42.9199 125.398 42.8027C125.232 42.7734 125.052 42.7539 124.856 42.7441C124.671 42.7246 124.48 42.7148 124.285 42.7148C123.709 42.7148 123.206 42.7295 122.776 42.7588C122.356 42.7783 121.8 42.8271 121.106 42.9053V40.9863C121.634 40.9277 122.142 40.8838 122.63 40.8545C123.118 40.8252 123.597 40.8105 124.065 40.8105C124.72 40.8105 125.267 40.835 125.706 40.8838C126.146 40.9326 126.531 41.0107 126.863 41.1182C127.322 41.2646 127.723 41.4697 128.064 41.7334C128.416 41.9873 128.704 42.2949 128.929 42.6562C129.095 42.9102 129.231 43.2422 129.339 43.6523C129.446 44.0527 129.524 44.502 129.573 45C129.622 45.4883 129.646 45.9961 129.646 46.5234V58.125H131.141V60H121.121Z" fill="#E96D5A"/>
<rect x="20.5" y="20.5" width="143" height="56" rx="4.5" stroke="#E96D5A"/>
<rect x="20" y="97" width="144" height="57" rx="5" fill="#E96D5A"/>
<path d="M53.5186 137V130.32C53.5186 129.93 53.5332 129.559 53.5625 129.207C53.5918 128.846 53.6357 128.504 53.6943 128.182C53.7627 127.85 53.8506 127.527 53.958 127.215C54.1533 126.609 54.4463 126.097 54.8369 125.677C55.2373 125.257 55.7158 124.915 56.2725 124.651L53.3867 118.104H55.877L60.2861 128.606C60.5498 128.431 60.7744 128.226 60.96 127.991C61.1455 127.757 61.292 127.474 61.3994 127.142C61.5068 126.849 61.5801 126.521 61.6191 126.16C61.668 125.789 61.6924 125.379 61.6924 124.93V118.104H63.875V124.93C63.875 125.359 63.8359 125.877 63.7578 126.482C63.6895 127.088 63.5479 127.659 63.333 128.196C63.1572 128.646 62.8887 129.065 62.5273 129.456C62.1758 129.847 61.7021 130.179 61.1064 130.452L63.9336 137H61.4287L57.0928 126.482C56.8389 126.658 56.624 126.863 56.4482 127.098C56.2822 127.322 56.1406 127.591 56.0234 127.903C55.7988 128.528 55.6865 129.334 55.6865 130.32V137H53.5186ZM68.4453 137L69.8076 129.734L72.2393 119.993H65.6328V114.075H67.8594V118.045H74.3926V119.993L72.0342 129.632L70.6426 137H68.4453ZM82.4492 137V118.147C82.6543 118.118 82.874 118.094 83.1084 118.074C83.3525 118.045 83.6016 118.021 83.8555 118.001C84.4902 117.942 85.0762 117.898 85.6133 117.869C86.1504 117.83 86.6094 117.811 86.9902 117.811C87.8008 117.811 88.4941 117.85 89.0703 117.928C89.6562 118.006 90.1738 118.143 90.623 118.338C91.0918 118.543 91.4531 118.816 91.707 119.158C91.9609 119.5 92.1562 119.915 92.293 120.403C92.4004 120.774 92.4834 121.209 92.542 121.707C92.6006 122.205 92.6299 122.771 92.6299 123.406V137H82.4492ZM84.6904 135.125H90.3887V123.392C90.3887 122.854 90.3643 122.381 90.3154 121.971C90.2764 121.561 90.2031 121.233 90.0957 120.989C89.9785 120.696 89.8369 120.472 89.6709 120.315C89.5049 120.149 89.2705 120.022 88.9678 119.935C88.665 119.837 88.3525 119.778 88.0303 119.759C87.708 119.729 87.3223 119.715 86.873 119.715C86.5703 119.715 86.2432 119.725 85.8916 119.744C85.54 119.764 85.1396 119.798 84.6904 119.847V135.125ZM95.3984 137V135.125H100.613L102.752 135.198L99.8516 128.973L95.3545 118.104H97.6836L101.536 127.493L101.653 127.83C102.093 127.166 102.425 126.419 102.649 125.589C102.874 124.749 103.05 123.719 103.177 122.498L103.616 118.104H105.828L105.462 121.751C105.433 122.22 105.398 122.649 105.359 123.04C105.32 123.421 105.271 123.787 105.213 124.139C105.154 124.48 105.086 124.832 105.008 125.193C104.92 125.574 104.817 125.96 104.7 126.351C104.583 126.731 104.417 127.127 104.202 127.537C104.017 127.996 103.802 128.426 103.558 128.826C103.313 129.217 103.006 129.588 102.635 129.939L105.462 135.813V137H95.3984ZM107.718 137.776V135.872L110.193 135.433C110.408 135.394 110.623 135.354 110.838 135.315C111.053 135.276 111.272 135.242 111.497 135.213L107.762 118.104H109.988L111.834 126.644L113.313 134.363C114.036 133.904 114.583 133.279 114.954 132.488C115.335 131.697 115.613 130.799 115.789 129.793C115.965 128.787 116.111 127.742 116.229 126.658L117.034 118.104H119.261L118.455 126.453C118.328 127.723 118.187 128.885 118.03 129.939C117.874 130.984 117.62 131.927 117.269 132.767C116.927 133.597 116.404 134.329 115.701 134.964C115.242 135.511 114.681 135.96 114.017 136.312C113.353 136.653 112.552 136.912 111.614 137.088C110.97 137.195 110.32 137.308 109.666 137.425C109.021 137.542 108.372 137.659 107.718 137.776ZM121.121 137V135.125H127.42V123.509C127.42 122.308 127.269 121.419 126.966 120.843C126.663 120.267 126.141 119.92 125.398 119.803C125.232 119.773 125.052 119.754 124.856 119.744C124.671 119.725 124.48 119.715 124.285 119.715C123.709 119.715 123.206 119.729 122.776 119.759C122.356 119.778 121.8 119.827 121.106 119.905V117.986C121.634 117.928 122.142 117.884 122.63 117.854C123.118 117.825 123.597 117.811 124.065 117.811C124.72 117.811 125.267 117.835 125.706 117.884C126.146 117.933 126.531 118.011 126.863 118.118C127.322 118.265 127.723 118.47 128.064 118.733C128.416 118.987 128.704 119.295 128.929 119.656C129.095 119.91 129.231 120.242 129.339 120.652C129.446 121.053 129.524 121.502 129.573 122C129.622 122.488 129.646 122.996 129.646 123.523V135.125H131.141V137H121.121Z" fill="white"/>
<rect x="20" y="174" width="144" height="57" rx="5" fill="#E96D5A" fill-opacity="0.75"/>
<path d="M53.5186 214V207.32C53.5186 206.93 53.5332 206.559 53.5625 206.207C53.5918 205.846 53.6357 205.504 53.6943 205.182C53.7627 204.85 53.8506 204.527 53.958 204.215C54.1533 203.609 54.4463 203.097 54.8369 202.677C55.2373 202.257 55.7158 201.915 56.2725 201.651L53.3867 195.104H55.877L60.2861 205.606C60.5498 205.431 60.7744 205.226 60.96 204.991C61.1455 204.757 61.292 204.474 61.3994 204.142C61.5068 203.849 61.5801 203.521 61.6191 203.16C61.668 202.789 61.6924 202.379 61.6924 201.93V195.104H63.875V201.93C63.875 202.359 63.8359 202.877 63.7578 203.482C63.6895 204.088 63.5479 204.659 63.333 205.196C63.1572 205.646 62.8887 206.065 62.5273 206.456C62.1758 206.847 61.7021 207.179 61.1064 207.452L63.9336 214H61.4287L57.0928 203.482C56.8389 203.658 56.624 203.863 56.4482 204.098C56.2822 204.322 56.1406 204.591 56.0234 204.903C55.7988 205.528 55.6865 206.334 55.6865 207.32V214H53.5186ZM68.4453 214L69.8076 206.734L72.2393 196.993H65.6328V191.075H67.8594V195.045H74.3926V196.993L72.0342 206.632L70.6426 214H68.4453ZM82.4492 214V195.147C82.6543 195.118 82.874 195.094 83.1084 195.074C83.3525 195.045 83.6016 195.021 83.8555 195.001C84.4902 194.942 85.0762 194.898 85.6133 194.869C86.1504 194.83 86.6094 194.811 86.9902 194.811C87.8008 194.811 88.4941 194.85 89.0703 194.928C89.6562 195.006 90.1738 195.143 90.623 195.338C91.0918 195.543 91.4531 195.816 91.707 196.158C91.9609 196.5 92.1562 196.915 92.293 197.403C92.4004 197.774 92.4834 198.209 92.542 198.707C92.6006 199.205 92.6299 199.771 92.6299 200.406V214H82.4492ZM84.6904 212.125H90.3887V200.392C90.3887 199.854 90.3643 199.381 90.3154 198.971C90.2764 198.561 90.2031 198.233 90.0957 197.989C89.9785 197.696 89.8369 197.472 89.6709 197.315C89.5049 197.149 89.2705 197.022 88.9678 196.935C88.665 196.837 88.3525 196.778 88.0303 196.759C87.708 196.729 87.3223 196.715 86.873 196.715C86.5703 196.715 86.2432 196.725 85.8916 196.744C85.54 196.764 85.1396 196.798 84.6904 196.847V212.125ZM95.3984 214V212.125H100.613L102.752 212.198L99.8516 205.973L95.3545 195.104H97.6836L101.536 204.493L101.653 204.83C102.093 204.166 102.425 203.419 102.649 202.589C102.874 201.749 103.05 200.719 103.177 199.498L103.616 195.104H105.828L105.462 198.751C105.433 199.22 105.398 199.649 105.359 200.04C105.32 200.421 105.271 200.787 105.213 201.139C105.154 201.48 105.086 201.832 105.008 202.193C104.92 202.574 104.817 202.96 104.7 203.351C104.583 203.731 104.417 204.127 104.202 204.537C104.017 204.996 103.802 205.426 103.558 205.826C103.313 206.217 103.006 206.588 102.635 206.939L105.462 212.813V214H95.3984ZM107.718 214.776V212.872L110.193 212.433C110.408 212.394 110.623 212.354 110.838 212.315C111.053 212.276 111.272 212.242 111.497 212.213L107.762 195.104H109.988L111.834 203.644L113.313 211.363C114.036 210.904 114.583 210.279 114.954 209.488C115.335 208.697 115.613 207.799 115.789 206.793C115.965 205.787 116.111 204.742 116.229 203.658L117.034 195.104H119.261L118.455 203.453C118.328 204.723 118.187 205.885 118.03 206.939C117.874 207.984 117.62 208.927 117.269 209.767C116.927 210.597 116.404 211.329 115.701 211.964C115.242 212.511 114.681 212.96 114.017 213.312C113.353 213.653 112.552 213.912 111.614 214.088C110.97 214.195 110.32 214.308 109.666 214.425C109.021 214.542 108.372 214.659 107.718 214.776ZM121.121 214V212.125H127.42V200.509C127.42 199.308 127.269 198.419 126.966 197.843C126.663 197.267 126.141 196.92 125.398 196.803C125.232 196.773 125.052 196.754 124.856 196.744C124.671 196.725 124.48 196.715 124.285 196.715C123.709 196.715 123.206 196.729 122.776 196.759C122.356 196.778 121.8 196.827 121.106 196.905V194.986C121.634 194.928 122.142 194.884 122.63 194.854C123.118 194.825 123.597 194.811 124.065 194.811C124.72 194.811 125.267 194.835 125.706 194.884C126.146 194.933 126.531 195.011 126.863 195.118C127.322 195.265 127.723 195.47 128.064 195.733C128.416 195.987 128.704 196.295 128.929 196.656C129.095 196.91 129.231 197.242 129.339 197.652C129.446 198.053 129.524 198.502 129.573 199C129.622 199.488 129.646 199.996 129.646 200.523V212.125H131.141V214H121.121Z" fill="white"/>
<rect x="0.5" y="0.5" width="183" height="248" rx="4.5" stroke="#9747FF" stroke-dasharray="10 5"/>
</svg>
