<svg width="601" height="464" viewBox="0 0 601 464" fill="none" xmlns="http://www.w3.org/2000/svg">
<g filter="url(#filter0_d_228_5473)">
<rect x="24" y="19" width="553" height="416" rx="5" fill="white"/>
<rect x="24.5" y="19.5" width="552" height="415" rx="4.5" stroke="#DBB65D"/>
</g>
<line x1="24.0018" y1="102" x2="577.002" y2="103" stroke="#DBB65D" stroke-width="2"/>
<path d="M326.023 55.4111C326.443 55.3135 327.278 55.1914 328.528 55.0449C329.778 54.8887 330.936 54.8105 332 54.8105C333.064 54.8105 333.943 54.874 334.637 55.001C335.34 55.1182 335.931 55.3135 336.409 55.5869C336.888 55.8604 337.278 56.1729 337.581 56.5244C337.894 56.876 338.133 57.3203 338.299 57.8574C338.602 58.7754 338.753 59.9912 338.753 61.5049V74H333.699V61.4902C333.699 60.3574 333.553 59.5811 333.26 59.1611C332.967 58.7314 332.425 58.5166 331.634 58.5166H331.458V68.5068C331.458 70.1768 331.355 71.2852 331.15 71.832C330.887 72.5742 330.564 73.082 330.184 73.3555C329.598 73.7852 328.924 74.0586 328.162 74.1758C327.713 74.2441 327.259 74.2783 326.8 74.2783C325.97 74.2783 325.232 74.1367 324.588 73.8535L324.266 73.707V70.2354C324.92 70.4014 325.35 70.4844 325.555 70.4844C325.76 70.4844 325.921 70.4355 326.038 70.3379C326.165 70.2305 326.253 70.0645 326.302 69.8398C326.37 69.5176 326.404 69.0732 326.404 68.5068V59.0146L325.042 59.2783V55.6309C325.276 55.5723 325.604 55.499 326.023 55.4111ZM346.385 74H341.36V55.1035H346.385V74ZM355.438 54.8105C356.199 54.8105 356.883 54.9277 357.488 55.1621C358.104 55.3965 358.611 55.6553 359.012 55.9385C359.412 56.2217 359.812 56.6172 360.213 57.125C360.613 57.623 360.955 58.1992 361.238 58.8535C361.873 60.3379 362.19 62.2324 362.19 64.5371C362.19 67.8281 361.531 70.2988 360.213 71.9492C359.812 72.457 359.412 72.8574 359.012 73.1504C358.611 73.4336 358.182 73.668 357.723 73.8535C356.971 74.1465 356.209 74.293 355.438 74.293C354.646 74.293 353.86 74.1367 353.079 73.8242C352.62 73.6484 352.19 73.4141 351.79 73.1211C351.39 72.8281 350.994 72.4277 350.604 71.9199C350.213 71.4121 349.881 70.8262 349.607 70.1621C348.982 68.6973 348.67 66.8223 348.67 64.5371C348.67 63.5605 348.831 62.5205 349.153 61.417C349.476 60.3037 349.876 59.4297 350.354 58.7949L348.86 58.8975V55.2939C350.892 54.9717 353.084 54.8105 355.438 54.8105ZM353.724 64.5371C353.724 68.5703 354.29 70.5869 355.423 70.5869C356.565 70.5869 357.137 68.5703 357.137 64.5371C357.137 62.1934 356.971 60.582 356.639 59.7031C356.336 58.9121 355.936 58.5166 355.438 58.5166L354.822 58.5605C354.393 59.1758 354.1 59.9424 353.943 60.8604C353.797 61.7686 353.724 62.9941 353.724 64.5371ZM364.461 55.1475C365.652 54.9229 366.619 54.8105 367.361 54.8105C368.104 54.8105 368.748 54.8594 369.295 54.957C369.852 55.0547 370.325 55.1865 370.716 55.3525C371.106 55.5186 371.438 55.7432 371.712 56.0264C371.995 56.2998 372.215 56.583 372.371 56.876C372.537 57.1689 372.664 57.5254 372.752 57.9453C372.908 58.6387 372.986 59.5176 372.986 60.582V68.4922C372.986 69.3809 372.918 70.2842 372.781 71.2021C372.645 72.1201 372.508 72.8184 372.371 73.2969L372.166 74H363.626V70.3232H367.742C367.879 69.6104 367.947 68.624 367.947 67.3643V60.582C367.947 60.0352 367.82 59.5713 367.566 59.1904C367.322 58.7998 366.912 58.6045 366.336 58.6045C365.945 58.6045 365.428 58.6875 364.783 58.8535L364.461 58.9268V55.1475ZM374.803 55.2646C376.102 54.9619 377.391 54.8105 378.67 54.8105C379.959 54.8105 380.989 54.9424 381.761 55.2061C382.542 55.46 383.167 55.8018 383.636 56.2314C384.104 56.6611 384.48 57.208 384.764 57.8721C385.047 58.5361 385.237 59.2246 385.335 59.9375C385.442 60.6504 385.496 61.4658 385.496 62.3838V66.2656C385.496 67.9746 385.223 69.4688 384.676 70.748C384.363 71.4512 383.968 72.0615 383.489 72.5791C383.021 73.0869 382.405 73.4971 381.644 73.8096C380.882 74.1221 380.013 74.2783 379.036 74.2783C377.376 74.2783 375.965 74.1074 374.803 73.7656V69.8984C375.945 70.2402 377.103 70.4111 378.274 70.4111C379.3 70.4111 379.93 69.8594 380.164 68.7559C380.301 68.1602 380.369 67.3301 380.369 66.2656V62.3838C380.369 61.1631 380.188 60.2402 379.827 59.6152C379.466 58.9902 378.87 58.6777 378.04 58.6777C376.927 58.6777 375.975 58.7656 375.184 58.9414L374.803 59.0146V55.2646ZM390.564 55.0303C391.805 54.8838 392.947 54.8105 393.992 54.8105C395.037 54.8105 395.906 54.874 396.6 55.001C397.303 55.1182 397.894 55.3135 398.372 55.5869C398.851 55.8604 399.241 56.1729 399.544 56.5244C399.856 56.876 400.096 57.3203 400.262 57.8574C400.564 58.7754 400.716 59.9912 400.716 61.5049V74H395.662V61.4902C395.662 60.3672 395.472 59.5908 395.091 59.1611C394.71 58.7314 394.041 58.5166 393.084 58.5166C392.42 58.5166 391.644 58.5703 390.755 58.6777C389.876 58.7754 389.158 58.8779 388.602 58.9854L387.767 59.1465V55.4844C388.401 55.3184 389.334 55.167 390.564 55.0303ZM392.806 74H387.767V61.7246H392.806V74ZM409.622 55.3232C411.097 54.9814 412.43 54.8105 413.621 54.8105C414.812 54.8105 415.799 54.9717 416.58 55.2939C417.361 55.6064 417.986 56.0215 418.455 56.5391C418.924 57.0566 419.3 57.6963 419.583 58.458C419.866 59.21 420.057 59.9668 420.154 60.7285C420.262 61.4902 420.315 62.335 420.315 63.2627V81.002H415.291V63.2627C415.291 61.085 414.861 59.6982 414.002 59.1025C413.641 58.8584 413.196 58.7363 412.669 58.7363C411.663 58.7363 410.77 58.8242 409.988 59L409.622 59.0732V55.3232ZM429.295 54.8105C430.057 54.8105 430.74 54.9277 431.346 55.1621C431.961 55.3965 432.469 55.6553 432.869 55.9385C433.27 56.2217 433.67 56.6172 434.07 57.125C434.471 57.623 434.812 58.1992 435.096 58.8535C435.73 60.3379 436.048 62.2324 436.048 64.5371C436.048 67.8281 435.389 70.2988 434.07 71.9492C433.67 72.457 433.27 72.8574 432.869 73.1504C432.469 73.4336 432.039 73.668 431.58 73.8535C430.828 74.1465 430.066 74.293 429.295 74.293C428.504 74.293 427.718 74.1367 426.937 73.8242C426.478 73.6484 426.048 73.4141 425.647 73.1211C425.247 72.8281 424.852 72.4277 424.461 71.9199C424.07 71.4121 423.738 70.8262 423.465 70.1621C422.84 68.6973 422.527 66.8223 422.527 64.5371C422.527 63.5605 422.688 62.5205 423.011 61.417C423.333 60.3037 423.733 59.4297 424.212 58.7949L422.718 58.8975V55.2939C424.749 54.9717 426.941 54.8105 429.295 54.8105ZM427.581 64.5371C427.581 68.5703 428.147 70.5869 429.28 70.5869C430.423 70.5869 430.994 68.5703 430.994 64.5371C430.994 62.1934 430.828 60.582 430.496 59.7031C430.193 58.9121 429.793 58.5166 429.295 58.5166L428.68 58.5605C428.25 59.1758 427.957 59.9424 427.801 60.8604C427.654 61.7686 427.581 62.9941 427.581 64.5371Z" fill="#335269"/>
<rect x="452" y="51" width="72" height="28" rx="5" fill="#3CB371"/>
<path d="M80.4629 55.4111C80.8828 55.3135 81.7178 55.1914 82.9678 55.0449C84.2178 54.8887 85.375 54.8105 86.4395 54.8105C87.5039 54.8105 88.3828 54.874 89.0762 55.001C89.7793 55.1182 90.3701 55.3135 90.8486 55.5869C91.3271 55.8604 91.7178 56.1729 92.0205 56.5244C92.333 56.876 92.5723 57.3203 92.7383 57.8574C93.041 58.7754 93.1924 59.9912 93.1924 61.5049V74H88.1387V61.4902C88.1387 60.3574 87.9922 59.5811 87.6992 59.1611C87.4062 58.7314 86.8643 58.5166 86.0732 58.5166H85.8975V68.5068C85.8975 70.1768 85.7949 71.2852 85.5898 71.832C85.3262 72.5742 85.0039 73.082 84.623 73.3555C84.0371 73.7852 83.3633 74.0586 82.6016 74.1758C82.1523 74.2441 81.6982 74.2783 81.2393 74.2783C80.4092 74.2783 79.6719 74.1367 79.0273 73.8535L78.7051 73.707V70.2354C79.3594 70.4014 79.7891 70.4844 79.9941 70.4844C80.1992 70.4844 80.3604 70.4355 80.4775 70.3379C80.6045 70.2305 80.6924 70.0645 80.7412 69.8398C80.8096 69.5176 80.8438 69.0732 80.8438 68.5068V59.0146L79.4814 59.2783V55.6309C79.7158 55.5723 80.043 55.499 80.4629 55.4111ZM100.824 74H95.7998V55.1035H100.824V74ZM117.099 55.1035V62.0908C117.099 63.6045 116.83 64.7617 116.293 65.5625C116.068 65.8945 115.751 66.2266 115.341 66.5586C114.94 66.8906 114.457 67.1738 113.891 67.4082L116.952 74H111.444L108.324 66.002C108.314 66.1191 108.31 66.3926 108.31 66.8223V74H103.285V67.1592C103.285 66.5049 103.363 65.8848 103.52 65.2988C103.686 64.7129 104.003 64.1172 104.472 63.5117C104.95 62.8965 105.57 62.3887 106.332 61.9883C105.961 61.2168 105.38 60.0449 104.589 58.4727C103.798 56.8906 103.236 55.7676 102.904 55.1035H108.412L111.225 61.8271L111.972 63.7021C112.04 63.4189 112.074 62.9453 112.074 62.2812V55.1035H117.099ZM131.527 74H118.461V70.3232H124.013L125.829 70.5283C125.556 70.1084 125.16 69.5273 124.643 68.7852C124.135 68.043 123.798 67.5449 123.632 67.291L118.183 55.1035H123.397L126.356 62.5596C126.767 61.6123 127.006 60.6602 127.074 59.7031L127.44 55.1182H132.421L132.099 58.8389C132.021 59.8643 131.752 61.0508 131.293 62.3984C131.029 63.1504 130.648 63.917 130.15 64.6982C129.662 65.4795 129.086 66.1777 128.422 66.793L131.527 71.4219V74ZM139.086 74H134.062V55.1035H139.086V74ZM144.564 55.0303C145.805 54.8838 146.947 54.8105 147.992 54.8105C149.037 54.8105 149.906 54.874 150.6 55.001C151.303 55.1182 151.894 55.3135 152.372 55.5869C152.851 55.8604 153.241 56.1729 153.544 56.5244C153.856 56.876 154.096 57.3203 154.262 57.8574C154.564 58.7754 154.716 59.9912 154.716 61.5049V74H149.662V61.4902C149.662 60.3672 149.472 59.5908 149.091 59.1611C148.71 58.7314 148.041 58.5166 147.084 58.5166C146.42 58.5166 145.644 58.5703 144.755 58.6777C143.876 58.7754 143.158 58.8779 142.602 58.9854L141.767 59.1465V55.4844C142.401 55.3184 143.334 55.167 144.564 55.0303ZM146.806 74H141.767V61.7246H146.806V74ZM163.622 55.3232C165.097 54.9814 166.43 54.8105 167.621 54.8105C168.812 54.8105 169.799 54.9717 170.58 55.2939C171.361 55.6064 171.986 56.0215 172.455 56.5391C172.924 57.0566 173.3 57.6963 173.583 58.458C173.866 59.21 174.057 59.9668 174.154 60.7285C174.262 61.4902 174.315 62.335 174.315 63.2627V81.002H169.291V63.2627C169.291 61.085 168.861 59.6982 168.002 59.1025C167.641 58.8584 167.196 58.7363 166.669 58.7363C165.663 58.7363 164.77 58.8242 163.988 59L163.622 59.0732V55.3232ZM183.295 54.8105C184.057 54.8105 184.74 54.9277 185.346 55.1621C185.961 55.3965 186.469 55.6553 186.869 55.9385C187.27 56.2217 187.67 56.6172 188.07 57.125C188.471 57.623 188.812 58.1992 189.096 58.8535C189.73 60.3379 190.048 62.2324 190.048 64.5371C190.048 67.8281 189.389 70.2988 188.07 71.9492C187.67 72.457 187.27 72.8574 186.869 73.1504C186.469 73.4336 186.039 73.668 185.58 73.8535C184.828 74.1465 184.066 74.293 183.295 74.293C182.504 74.293 181.718 74.1367 180.937 73.8242C180.478 73.6484 180.048 73.4141 179.647 73.1211C179.247 72.8281 178.852 72.4277 178.461 71.9199C178.07 71.4121 177.738 70.8262 177.465 70.1621C176.84 68.6973 176.527 66.8223 176.527 64.5371C176.527 63.5605 176.688 62.5205 177.011 61.417C177.333 60.3037 177.733 59.4297 178.212 58.7949L176.718 58.8975V55.2939C178.749 54.9717 180.941 54.8105 183.295 54.8105ZM181.581 64.5371C181.581 68.5703 182.147 70.5869 183.28 70.5869C184.423 70.5869 184.994 68.5703 184.994 64.5371C184.994 62.1934 184.828 60.582 184.496 59.7031C184.193 58.9121 183.793 58.5166 183.295 58.5166L182.68 58.5605C182.25 59.1758 181.957 59.9424 181.801 60.8604C181.654 61.7686 181.581 62.9941 181.581 64.5371Z" fill="#335269"/>
<rect x="206" y="51" width="72" height="28" rx="5" fill="#FF6B6B"/>
<rect x="90" y="212" width="114" height="40" rx="5" fill="#FF6B6B"/>
<path d="M131.975 230.946V232.509H125.612V230.946H131.975ZM139.577 239.199C138.639 239.199 137.804 239.038 137.07 238.716C136.34 238.394 135.76 237.946 135.33 237.374C134.903 236.796 134.671 236.126 134.634 235.364H136.423C136.461 235.832 136.622 236.237 136.906 236.578C137.19 236.914 137.562 237.175 138.021 237.359C138.481 237.544 138.99 237.636 139.548 237.636C140.173 237.636 140.727 237.527 141.21 237.31C141.693 237.092 142.072 236.789 142.347 236.401C142.621 236.012 142.759 235.562 142.759 235.051C142.759 234.516 142.626 234.045 142.361 233.638C142.096 233.226 141.707 232.904 141.196 232.672C140.685 232.44 140.06 232.324 139.321 232.324H138.156V230.761H139.321C139.899 230.761 140.405 230.657 140.841 230.449C141.281 230.241 141.625 229.947 141.871 229.568C142.122 229.189 142.247 228.744 142.247 228.233C142.247 227.741 142.138 227.312 141.92 226.947C141.703 226.583 141.395 226.299 140.997 226.095C140.604 225.892 140.14 225.79 139.605 225.79C139.103 225.79 138.63 225.882 138.185 226.067C137.744 226.247 137.384 226.509 137.105 226.855C136.826 227.196 136.674 227.608 136.651 228.091H134.946C134.974 227.329 135.204 226.661 135.635 226.088C136.066 225.51 136.629 225.061 137.325 224.739C138.026 224.417 138.795 224.256 139.634 224.256C140.533 224.256 141.305 224.438 141.949 224.803C142.593 225.162 143.088 225.638 143.433 226.23C143.779 226.822 143.952 227.461 143.952 228.148C143.952 228.967 143.736 229.665 143.305 230.243C142.879 230.821 142.299 231.221 141.565 231.443V231.557C142.484 231.708 143.201 232.099 143.717 232.729C144.233 233.354 144.491 234.128 144.491 235.051C144.491 235.842 144.276 236.552 143.845 237.182C143.419 237.807 142.837 238.299 142.098 238.659C141.359 239.019 140.519 239.199 139.577 239.199ZM147.396 239V237.722L152.197 232.466C152.761 231.85 153.225 231.315 153.589 230.861C153.954 230.402 154.224 229.971 154.399 229.568C154.579 229.161 154.669 228.735 154.669 228.29C154.669 227.778 154.546 227.336 154.3 226.962C154.058 226.588 153.727 226.299 153.305 226.095C152.884 225.892 152.411 225.79 151.885 225.79C151.326 225.79 150.839 225.906 150.422 226.138C150.01 226.365 149.69 226.685 149.463 227.097C149.241 227.509 149.129 227.991 149.129 228.545H147.453C147.453 227.693 147.65 226.945 148.043 226.301C148.436 225.657 148.971 225.155 149.648 224.795C150.33 224.436 151.094 224.256 151.942 224.256C152.794 224.256 153.549 224.436 154.207 224.795C154.866 225.155 155.382 225.641 155.756 226.251C156.13 226.862 156.317 227.542 156.317 228.29C156.317 228.825 156.22 229.348 156.026 229.859C155.836 230.366 155.505 230.932 155.031 231.557C154.562 232.177 153.911 232.935 153.078 233.83L149.811 237.324V237.438H156.572V239H147.396ZM164.25 239.199C163.18 239.199 162.268 238.908 161.516 238.325C160.763 237.738 160.188 236.888 159.79 235.776C159.392 234.658 159.193 233.309 159.193 231.727C159.193 230.155 159.392 228.813 159.79 227.7C160.192 226.583 160.77 225.731 161.523 225.143C162.28 224.552 163.189 224.256 164.25 224.256C165.311 224.256 166.217 224.552 166.97 225.143C167.728 225.731 168.305 226.583 168.703 227.7C169.106 228.813 169.307 230.155 169.307 231.727C169.307 233.309 169.108 234.658 168.71 235.776C168.312 236.888 167.737 237.738 166.984 238.325C166.232 238.908 165.32 239.199 164.25 239.199ZM164.25 237.636C165.311 237.636 166.134 237.125 166.722 236.102C167.309 235.08 167.602 233.621 167.602 231.727C167.602 230.468 167.467 229.395 167.197 228.51C166.932 227.625 166.549 226.95 166.047 226.486C165.55 226.022 164.951 225.79 164.25 225.79C163.199 225.79 162.377 226.308 161.786 227.345C161.194 228.377 160.898 229.838 160.898 231.727C160.898 232.987 161.03 234.057 161.295 234.938C161.561 235.818 161.942 236.488 162.439 236.947C162.941 237.407 163.545 237.636 164.25 237.636Z" fill="white"/>
<rect x="90" y="284" width="114" height="40" rx="5" fill="#3CB371"/>
<path d="M127.612 308.443V299.068H129.203V308.443H127.612ZM123.72 304.551V302.96H133.095V304.551H123.72ZM141.051 311.199C140.218 311.199 139.467 311.033 138.8 310.702C138.132 310.37 137.597 309.916 137.195 309.338C136.792 308.76 136.572 308.102 136.534 307.364H138.239C138.305 308.022 138.603 308.566 139.134 308.997C139.669 309.423 140.308 309.636 141.051 309.636C141.648 309.636 142.178 309.497 142.642 309.217C143.111 308.938 143.478 308.554 143.743 308.067C144.013 307.574 144.148 307.018 144.148 306.398C144.148 305.763 144.008 305.197 143.729 304.7C143.454 304.198 143.075 303.803 142.592 303.514C142.109 303.225 141.558 303.079 140.938 303.074C140.492 303.069 140.036 303.138 139.567 303.28C139.098 303.417 138.712 303.595 138.409 303.812L136.761 303.614L137.642 296.455H145.199V298.017H139.119L138.608 302.307H138.693C138.991 302.07 139.366 301.874 139.815 301.717C140.265 301.561 140.734 301.483 141.222 301.483C142.112 301.483 142.905 301.696 143.601 302.122C144.302 302.544 144.851 303.121 145.249 303.855C145.651 304.589 145.852 305.427 145.852 306.369C145.852 307.297 145.644 308.126 145.227 308.855C144.815 309.58 144.247 310.152 143.523 310.574C142.798 310.991 141.974 311.199 141.051 311.199ZM148.333 308.017V306.568L154.725 296.455H155.776V298.699H155.066L150.236 306.341V306.455H158.844V308.017H148.333ZM155.179 311V307.577V306.902V296.455H156.855V311H155.179ZM166.25 311.199C165.18 311.199 164.268 310.908 163.516 310.325C162.763 309.738 162.188 308.888 161.79 307.776C161.392 306.658 161.193 305.309 161.193 303.727C161.193 302.155 161.392 300.813 161.79 299.7C162.192 298.583 162.77 297.731 163.523 297.143C164.28 296.552 165.189 296.256 166.25 296.256C167.311 296.256 168.217 296.552 168.97 297.143C169.728 297.731 170.305 298.583 170.703 299.7C171.106 300.813 171.307 302.155 171.307 303.727C171.307 305.309 171.108 306.658 170.71 307.776C170.312 308.888 169.737 309.738 168.984 310.325C168.232 310.908 167.32 311.199 166.25 311.199ZM166.25 309.636C167.311 309.636 168.134 309.125 168.722 308.102C169.309 307.08 169.602 305.621 169.602 303.727C169.602 302.468 169.467 301.395 169.197 300.51C168.932 299.625 168.549 298.95 168.047 298.486C167.55 298.022 166.951 297.79 166.25 297.79C165.199 297.79 164.377 298.308 163.786 299.345C163.194 300.377 162.898 301.838 162.898 303.727C162.898 304.987 163.03 306.057 163.295 306.938C163.561 307.818 163.942 308.488 164.439 308.947C164.941 309.407 165.545 309.636 166.25 309.636Z" fill="white"/>
<path d="M276 268C276 333.17 328.83 386 394 386C459.17 386 512 333.17 512 268C512 202.83 459.17 150 394 150C328.83 150 276 202.83 276 268ZM488.4 268C488.4 320.136 446.136 362.4 394 362.4C341.864 362.4 299.6 320.136 299.6 268C299.6 215.864 341.864 173.6 394 173.6C446.136 173.6 488.4 215.864 488.4 268Z" fill="#3CB371"/>
<path d="M512 268C512 239.244 501.499 211.477 482.47 189.917C463.442 168.357 437.195 154.487 408.661 150.914L405.729 174.332C428.556 177.19 449.553 188.285 464.776 205.534C479.999 222.782 488.4 244.995 488.4 268H512Z" fill="#FF6B6B"/>
<path d="M358.908 298.497C356.044 298.497 353.499 298.006 351.273 297.023C349.06 296.029 347.32 294.662 346.053 292.922C344.787 291.182 344.147 289.181 344.136 286.92H354.079C354.091 287.619 354.304 288.246 354.718 288.803C355.144 289.347 355.724 289.773 356.458 290.081C357.192 290.389 358.032 290.543 358.979 290.543C359.891 290.543 360.696 290.383 361.394 290.063C362.093 289.732 362.637 289.276 363.028 288.696C363.418 288.116 363.608 287.453 363.596 286.707C363.608 285.973 363.383 285.322 362.921 284.754C362.471 284.186 361.838 283.742 361.021 283.423C360.205 283.103 359.263 282.943 358.198 282.943H354.505V276.125H358.198C359.181 276.125 360.045 275.965 360.79 275.646C361.548 275.326 362.134 274.882 362.548 274.314C362.974 273.746 363.182 273.095 363.17 272.361C363.182 271.651 363.01 271.023 362.655 270.479C362.3 269.934 361.803 269.508 361.163 269.2C360.536 268.893 359.808 268.739 358.979 268.739C358.08 268.739 357.275 268.898 356.565 269.218C355.866 269.538 355.316 269.982 354.913 270.55C354.511 271.118 354.304 271.769 354.292 272.503H344.846C344.858 270.277 345.467 268.312 346.675 266.608C347.894 264.903 349.563 263.566 351.682 262.595C353.801 261.625 356.233 261.139 358.979 261.139C361.666 261.139 364.04 261.595 366.099 262.506C368.171 263.418 369.787 264.673 370.947 266.271C372.119 267.857 372.699 269.674 372.687 271.722C372.71 273.758 372.012 275.427 370.592 276.729C369.183 278.031 367.396 278.8 365.229 279.037V279.321C368.165 279.641 370.373 280.54 371.852 282.02C373.332 283.488 374.06 285.334 374.036 287.56C374.048 289.69 373.409 291.578 372.119 293.224C370.84 294.869 369.059 296.159 366.774 297.094C364.501 298.03 361.879 298.497 358.908 298.497ZM393.004 298.497C390.21 298.497 387.73 298.006 385.564 297.023C383.41 296.029 381.711 294.662 380.468 292.922C379.237 291.182 378.61 289.181 378.586 286.92H388.174C388.21 288.175 388.695 289.175 389.63 289.921C390.577 290.667 391.702 291.04 393.004 291.04C394.01 291.04 394.898 290.827 395.667 290.401C396.436 289.963 397.04 289.347 397.478 288.554C397.916 287.761 398.129 286.838 398.117 285.784C398.129 284.719 397.916 283.795 397.478 283.014C397.04 282.221 396.436 281.612 395.667 281.185C394.898 280.747 394.01 280.528 393.004 280.528C391.962 280.528 390.997 280.783 390.11 281.292C389.234 281.789 388.588 282.482 388.174 283.369L379.509 281.665L380.93 261.636H405.362V269.52H389.026L388.316 277.545H388.529C389.097 276.445 390.08 275.533 391.477 274.811C392.874 274.077 394.495 273.71 396.342 273.71C398.508 273.71 400.437 274.213 402.13 275.219C403.835 276.226 405.178 277.616 406.161 279.392C407.155 281.156 407.646 283.192 407.634 285.5C407.646 288.033 407.043 290.282 405.823 292.247C404.616 294.2 402.917 295.733 400.727 296.846C398.538 297.947 395.963 298.497 393.004 298.497ZM427.729 298.994C424.427 298.982 421.574 298.219 419.171 296.704C416.768 295.189 414.916 293.005 413.614 290.152C412.312 287.299 411.666 283.878 411.678 279.889C411.69 275.888 412.341 272.491 413.631 269.697C414.933 266.904 416.78 264.779 419.171 263.323C421.574 261.867 424.427 261.139 427.729 261.139C431.032 261.139 433.885 261.873 436.288 263.341C438.691 264.797 440.543 266.922 441.845 269.715C443.147 272.509 443.792 275.9 443.781 279.889C443.781 283.902 443.129 287.335 441.827 290.188C440.525 293.04 438.673 295.224 436.27 296.739C433.879 298.243 431.032 298.994 427.729 298.994ZM427.729 290.969C429.434 290.969 430.831 290.081 431.92 288.305C433.021 286.518 433.565 283.713 433.553 279.889C433.553 277.392 433.305 275.35 432.808 273.763C432.31 272.177 431.624 271.005 430.748 270.248C429.872 269.478 428.866 269.094 427.729 269.094C426.025 269.094 424.634 269.958 423.557 271.686C422.48 273.414 421.929 276.149 421.906 279.889C421.894 282.434 422.136 284.529 422.634 286.175C423.131 287.808 423.817 289.016 424.693 289.797C425.581 290.578 426.593 290.969 427.729 290.969Z" fill="#335269"/>
<path d="M344.264 243.066C344.003 243.737 343.603 244.229 343.062 244.541C342.522 244.847 341.738 245 340.709 245H340.045V242.637H340.211C340.66 242.637 341.018 242.552 341.285 242.383C341.546 242.214 341.731 241.956 341.842 241.611C341.952 241.26 342.008 240.729 342.008 240.02V235.244H340.152V232.881H346.949C348.824 232.881 350.169 233.278 350.982 234.072C351.803 234.86 352.213 236.169 352.213 237.998V245H349.566V238.037C349.566 236.995 349.355 236.27 348.932 235.859C348.508 235.449 347.796 235.244 346.793 235.244H344.645V240.361C344.645 241.488 344.518 242.389 344.264 243.066ZM357.73 232.881V239.316H355.094V232.881H357.73ZM369.596 238.301C369.596 237.207 369.387 236.426 368.971 235.957C368.554 235.482 367.825 235.244 366.783 235.244H364.176V245H361.539V232.881H366.783C368.71 232.881 370.1 233.281 370.953 234.082C371.812 234.876 372.242 236.175 372.242 237.979V245H369.596V238.301ZM383.805 239.18C383.805 243.06 381.826 245 377.867 245H374.625V242.637H377.721C378.886 242.637 379.749 242.344 380.309 241.758C380.868 241.172 381.148 240.28 381.148 239.082V238.818C381.148 237.601 380.868 236.702 380.309 236.123C379.749 235.537 378.899 235.244 377.76 235.244H374.625V232.881H378.004C381.871 232.881 383.805 234.814 383.805 238.682V239.18ZM389.254 232.881V245H386.617V232.881H389.254ZM397.975 237.656V245H391.656V242.637H395.338V238.164C395.338 237.285 395.279 236.657 395.162 236.279C395.045 235.908 394.85 235.645 394.576 235.488C394.303 235.326 393.902 235.244 393.375 235.244H392.213V232.881H393.873C394.993 232.881 395.829 233.031 396.383 233.33C396.936 233.63 397.34 234.121 397.594 234.805C397.848 235.488 397.975 236.439 397.975 237.656ZM415.494 237.979V245H412.848V237.959C412.848 236.963 412.636 236.263 412.213 235.859C411.79 235.449 411.054 235.244 410.006 235.244H405.055V232.881H410.172C411.454 232.881 412.483 233.053 413.258 233.398C414.039 233.743 414.605 234.29 414.957 235.039C415.315 235.781 415.494 236.761 415.494 237.979ZM407.887 237.637V245H405.25V237.637H407.887ZM426.402 237.979V245H423.756V237.959C423.756 236.95 423.538 236.247 423.102 235.85C422.672 235.446 421.946 235.244 420.924 235.244H416.861V232.881H421.08C422.363 232.881 423.391 233.053 424.166 233.398C424.947 233.737 425.514 234.281 425.865 235.029C426.223 235.771 426.402 236.755 426.402 237.979ZM433.424 243.066C433.163 243.737 432.763 244.229 432.223 244.541C431.682 244.847 430.898 245 429.869 245H429.205V242.637H429.371C429.82 242.637 430.178 242.552 430.445 242.383C430.706 242.214 430.891 241.956 431.002 241.611C431.113 241.26 431.168 240.729 431.168 240.02V235.244H429.312V232.881H436.109C437.984 232.881 439.329 233.278 440.143 234.072C440.963 234.86 441.373 236.169 441.373 237.998V245H438.727V238.037C438.727 236.995 438.515 236.27 438.092 235.859C437.669 235.449 436.956 235.244 435.953 235.244H433.805V240.361C433.805 241.488 433.678 242.389 433.424 243.066ZM446.891 232.881V239.316H444.254V232.881H446.891Z" fill="#335269"/>
<defs>
<filter id="filter0_d_228_5473" x="0" y="0" width="601" height="464" filterUnits="userSpaceOnUse" color-interpolation-filters="sRGB">
<feFlood flood-opacity="0" result="BackgroundImageFix"/>
<feColorMatrix in="SourceAlpha" type="matrix" values="0 0 0 0 0 0 0 0 0 0 0 0 0 0 0 0 0 0 127 0" result="hardAlpha"/>
<feOffset dy="5"/>
<feGaussianBlur stdDeviation="12"/>
<feComposite in2="hardAlpha" operator="out"/>
<feColorMatrix type="matrix" values="0 0 0 0 0.172986 0 0 0 0 0.380504 0 0 0 0 0.783333 0 0 0 0.15 0"/>
<feBlend mode="normal" in2="BackgroundImageFix" result="effect1_dropShadow_228_5473"/>
<feBlend mode="normal" in="SourceGraphic" in2="effect1_dropShadow_228_5473" result="shape"/>
</filter>
</defs>
</svg>
