<svg width="241" height="162" viewBox="0 0 241 162" fill="none" xmlns="http://www.w3.org/2000/svg">
<g filter="url(#filter0_d_228_5474)">
<rect x="24" y="20" width="193" height="114" rx="5" fill="white"/>
<path fill-rule="evenodd" clip-rule="evenodd" d="M120.056 62.8995V57.4282C118.8 57.4521 117.551 57.5626 116.351 57.7582L116.351 63.2191C117.556 63.0296 118.804 62.9226 120.056 62.8995Z" fill="#335269"/>
<path fill-rule="evenodd" clip-rule="evenodd" d="M124.65 63.2016C124.65 62.0978 124.651 60.4182 124.652 57.7396C123.451 57.5473 122.201 57.4433 120.945 57.4263V62.8975C122.197 62.9141 123.445 63.0151 124.65 63.2016Z" fill="#335269"/>
<path fill-rule="evenodd" clip-rule="evenodd" d="M129.689 64.6373V59.2557C128.465 58.6547 127.051 58.2036 125.539 57.8994L125.539 63.3559C127.032 63.6452 128.441 64.0715 129.689 64.6373Z" fill="#335269"/>
<path fill-rule="evenodd" clip-rule="evenodd" d="M111.313 65.619V74.9997H116.13V67.8205H119.835V74.9997H121.168V67.8205H124.873V74.9997H129.689V65.616C127.185 64.3861 123.887 63.7837 120.575 63.7837C117.216 63.7837 113.858 64.4043 111.313 65.619Z" fill="#335269"/>
<path fill-rule="evenodd" clip-rule="evenodd" d="M111.313 59.2589V64.6416C112.56 64.09 113.969 63.6673 115.463 63.3759C115.463 62.2952 115.464 60.6317 115.465 57.9204C113.953 58.2269 112.539 58.674 111.313 59.2589Z" fill="#335269"/>
<path fill-rule="evenodd" clip-rule="evenodd" d="M125.539 56.9958C127.032 57.285 128.441 57.7112 129.688 58.2771V52.8955C128.465 52.2944 127.051 51.8433 125.539 51.5391L125.538 54.2097C125.538 55.5547 125.538 52.8589 125.539 56.9958Z" fill="#335269"/>
<path fill-rule="evenodd" clip-rule="evenodd" d="M120.945 56.5377C122.197 56.5544 123.446 56.6554 124.652 56.8422L124.653 54.2104C124.653 52.8607 124.653 55.5792 124.652 51.3798C123.451 51.1875 122.201 51.0835 120.945 51.0664V56.5377Z" fill="#335269"/>
<path fill-rule="evenodd" clip-rule="evenodd" d="M116.351 56.8594C117.557 56.6698 118.805 56.5627 120.057 56.5395V51.0684C118.801 51.0923 117.552 51.2027 116.351 51.3983L116.351 54.22C116.35 55.5504 116.351 52.935 116.351 56.8594Z" fill="#335269"/>
<path fill-rule="evenodd" clip-rule="evenodd" d="M111.313 52.8987V58.2814C112.56 57.7296 113.971 57.3068 115.465 57.0154L115.466 54.2198C115.466 52.8873 115.465 55.5143 115.465 51.5601C113.953 51.8665 112.539 52.3137 111.313 52.8987Z" fill="#335269"/>
<path fill-rule="evenodd" clip-rule="evenodd" d="M125.539 50.6356C127.032 50.9248 128.441 51.351 129.688 51.9168V46.5353C128.465 45.9345 127.052 45.4835 125.541 45.1792C125.541 46.2762 125.54 47.9514 125.539 50.6356Z" fill="#335269"/>
<path fill-rule="evenodd" clip-rule="evenodd" d="M120.945 50.1768C122.197 50.1934 123.446 50.2946 124.652 50.4812L124.652 45.0188C123.451 44.8266 122.201 44.7226 120.945 44.7056V50.1768Z" fill="#335269"/>
<path fill-rule="evenodd" clip-rule="evenodd" d="M116.351 50.499C117.556 50.3095 118.804 50.2023 120.055 50.1792V44.708C118.801 44.7318 117.552 44.8422 116.352 45.0377C116.352 46.1151 116.351 47.7779 116.351 50.499Z" fill="#335269"/>
<path fill-rule="evenodd" clip-rule="evenodd" d="M111.313 46.5387V51.9214C112.56 51.3696 113.971 50.9467 115.465 50.6554L115.465 45.2002C113.953 45.5065 112.539 45.9537 111.313 46.5387Z" fill="#335269"/>
<path fill-rule="evenodd" clip-rule="evenodd" d="M111.314 36.9237C116.354 34.3222 124.65 34.3956 129.689 36.9237V45.561C127.076 44.4046 123.746 43.8143 120.428 43.8143C117.161 43.8143 113.892 44.3876 111.314 45.5569V36.9237ZM123.484 37.8984H116.59L117.578 41.2246H122.592L122.435 41.8102H117.887C117.656 41.8102 117.469 41.9974 117.469 42.228C117.469 42.4587 117.656 42.6458 117.887 42.6458H118.739V42.8169C118.739 43.0476 118.926 43.2347 119.157 43.2347C119.388 43.2347 119.575 43.0476 119.575 42.8169V42.6458H121.068V42.8169C121.068 43.0476 121.255 43.2347 121.486 43.2347C121.716 43.2347 121.903 43.0476 121.903 42.8169V42.6458H122.749C122.936 42.6486 123.108 42.5249 123.159 42.3361L124.345 37.9077L125.528 37.225C125.727 37.1105 125.795 36.8563 125.681 36.6571C125.567 36.458 125.312 36.3893 125.113 36.5038L123.778 37.2728C123.671 37.3342 123.602 37.4355 123.578 37.547L123.484 37.8984Z" fill="#335269"/>
<path fill-rule="evenodd" clip-rule="evenodd" d="M110.423 50.0537V56.0575H105.906V50.0537H110.423ZM110.423 56.9429V62.0842H105.906V56.9429H110.423ZM110.423 62.9696V68.111H105.906V62.9696H110.423ZM110.423 68.9965V75.0001H105.906V68.9964L110.423 68.9965ZM105.017 75.0001H100.5V68.9964H105.017V75.0001ZM100.5 68.111V62.9696H105.017V68.111H100.5ZM100.5 62.0842V56.9429H105.017V62.0842H100.5ZM100.5 56.0574V50.0537H105.017V56.0574H100.5Z" fill="#DBB65D"/>
<path fill-rule="evenodd" clip-rule="evenodd" d="M130.576 50.0537V56.0575H135.093V50.0537H130.576ZM130.576 56.9429V62.0842H135.093V56.9429H130.576ZM130.576 62.9696V68.111H135.093V62.9696H130.576ZM130.576 68.9965V75.0001H135.093V68.9964L130.576 68.9965ZM135.982 75.0001H140.499V68.9964H135.982V75.0001ZM140.499 68.111V62.9696H135.982V68.111H140.499ZM140.499 62.0842V56.9429H135.982V62.0842H140.499ZM140.499 56.0574V50.0537H135.982V56.0574H140.499Z" fill="#DBB65D"/>
<path d="M77.8984 102.711V118.766H76.1172V102.711C76.1172 101.945 76.0664 101.16 75.9648 100.355C75.8633 99.5508 75.7617 98.9375 75.6602 98.5156L75.5078 97.8828H77.3008C77.457 98.4219 77.5938 99.168 77.7109 100.121C77.8359 101.066 77.8984 101.93 77.8984 102.711ZM82.7852 113H81.0156V97.8828H82.7852V113ZM87.6719 105.676C86.8203 106.887 86.3828 107.508 86.3594 107.539H85.9023V97.8828H87.6719V105.676ZM90.2852 97.8477C90.8633 97.7148 91.3555 97.6484 91.7617 97.6484C92.168 97.6484 92.5352 97.6914 92.8633 97.7773C93.1914 97.8555 93.4648 97.9609 93.6836 98.0938C93.9102 98.2266 94.1016 98.4102 94.2578 98.6445C94.4141 98.8711 94.5352 99.0977 94.6211 99.3242C94.7148 99.5508 94.7891 99.8359 94.8438 100.18C94.9141 100.68 94.9492 101.355 94.9492 102.207V109.016C94.9492 109.609 94.9062 110.238 94.8203 110.902C94.7422 111.566 94.6641 112.082 94.5859 112.449L94.457 113H89.6875V111.512H92.8984C93.0859 110.863 93.1797 110.031 93.1797 109.016V101.422C93.1797 100.773 93.0859 100.258 92.8984 99.875C92.6719 99.4219 92.2188 99.1953 91.5391 99.1953C91.2578 99.1953 90.8398 99.2617 90.2852 99.3945V97.8477ZM103.117 112.742V113H101.371V112.742C101.371 112.414 101.398 112.098 101.453 111.793C101.508 111.488 101.551 111.242 101.582 111.055C101.621 110.859 101.672 110.621 101.734 110.34C101.805 110.051 101.863 109.812 101.91 109.625C101.957 109.43 102.023 109.164 102.109 108.828C102.203 108.484 102.273 108.219 102.32 108.031C102.531 107.297 102.871 106.031 103.34 104.234C103.816 102.438 104.254 100.82 104.652 99.3828H98.1133V97.8828H106.504V99.1953L104.547 106.355C104.523 106.441 104.457 106.688 104.348 107.094C104.238 107.5 104.164 107.773 104.125 107.914C104.086 108.055 104.016 108.312 103.914 108.688C103.812 109.062 103.738 109.34 103.691 109.52C103.652 109.691 103.594 109.938 103.516 110.258C103.445 110.578 103.391 110.832 103.352 111.02C103.312 111.207 103.273 111.422 103.234 111.664C103.156 112.07 103.117 112.43 103.117 112.742ZM99.8945 118.766H98.125V104.059H99.8945V118.766ZM108.332 97.7891C109.168 97.6953 109.988 97.6484 110.793 97.6484C111.605 97.6484 112.262 97.7188 112.762 97.8594C113.262 98 113.664 98.1914 113.969 98.4336C114.281 98.6758 114.527 98.9961 114.707 99.3945C114.887 99.793 115.008 100.215 115.07 100.66C115.133 101.098 115.164 101.625 115.164 102.242V111.512H116.359V113H108.344V111.512H113.383V102.242C113.383 100.664 113.023 99.7188 112.305 99.4062C111.953 99.25 111.516 99.1719 110.992 99.1719C110.016 99.1719 109.234 99.2109 108.648 99.2891L108.332 99.3242V97.7891ZM126.918 97.6484C128.582 97.6484 129.75 97.9805 130.422 98.6445C131.094 99.3008 131.43 100.492 131.43 102.219V113H129.637V102.219C129.637 101.578 129.586 101.059 129.484 100.66C129.391 100.262 129.223 99.9531 128.98 99.7344C128.738 99.5156 128.445 99.3672 128.102 99.2891C127.766 99.2109 127.25 99.1719 126.555 99.1719C125.859 99.1719 124.773 99.2773 123.297 99.4883V97.9766C124.57 97.7578 125.777 97.6484 126.918 97.6484ZM125.078 113H123.297V103.438H125.078V113ZM137.16 113H134.934L133.68 97.8828H135.391L136.082 106.203C136.879 105.914 137.465 105.438 137.84 104.773C138.223 104.102 138.473 103.094 138.59 101.75L138.93 97.8828H140.605L140.266 101.738C140.141 103.105 139.906 104.188 139.562 104.984C138.977 106.375 137.859 107.27 136.211 107.668L136.527 111.488H137.16C138.285 111.488 139.281 111.188 140.148 110.586C141.016 109.977 141.695 109.152 142.188 108.113C142.688 107.066 143 105.855 143.125 104.48L143.734 97.8828H145.422L144.812 104.48C144.578 107.121 143.805 109.203 142.492 110.727C142.094 111.195 141.648 111.594 141.156 111.922C140.664 112.242 140.074 112.504 139.387 112.707C138.707 112.902 137.965 113 137.16 113ZM149.453 105.676C148.602 106.887 148.164 107.508 148.141 107.539H147.684V97.8828H149.453V105.676ZM151.527 98.0469C152.324 97.7812 153.059 97.6484 153.73 97.6484C154.402 97.6484 154.984 97.7695 155.477 98.0117C155.977 98.2461 156.383 98.5664 156.695 98.9727C157.016 99.3711 157.273 99.8672 157.469 100.461C157.828 101.523 158.008 102.867 158.008 104.492V106.812C158.008 107.453 157.977 108.051 157.914 108.605C157.852 109.16 157.723 109.73 157.527 110.316C157.34 110.902 157.094 111.402 156.789 111.816C156.492 112.23 156.082 112.57 155.559 112.836C155.043 113.102 154.414 113.234 153.672 113.234C152.93 113.234 152.23 113.125 151.574 112.906V111.301C152.176 111.504 152.621 111.621 152.91 111.652C153.207 111.676 153.5 111.688 153.789 111.688C154.086 111.688 154.379 111.602 154.668 111.43C154.965 111.258 155.199 111.023 155.371 110.727C155.551 110.422 155.699 110.109 155.816 109.789C155.934 109.461 156.016 109.094 156.062 108.688C156.148 108.023 156.191 107.398 156.191 106.812V104.492C156.191 100.992 155.352 99.2422 153.672 99.2422C153.039 99.2422 152.324 99.3945 151.527 99.6992V98.0469ZM161.734 97.6484C163.383 97.6484 164.504 97.9727 165.098 98.6211C165.691 99.2617 165.988 100.461 165.988 102.219V113H164.207V102.219C164.207 101.57 164.172 101.059 164.102 100.684C164.031 100.309 163.891 100.004 163.68 99.7695C163.477 99.5273 163.215 99.3672 162.895 99.2891C162.574 99.2109 162.145 99.1719 161.605 99.1719C161.074 99.1719 160.34 99.2188 159.402 99.3125V97.7891C160.309 97.6953 161.086 97.6484 161.734 97.6484Z" fill="black"/>
<rect x="24.5" y="20.5" width="192" height="113" rx="4.5" stroke="#DBB65D"/>
</g>
<defs>
<filter id="filter0_d_228_5474" x="0" y="0" width="241" height="162" filterUnits="userSpaceOnUse" color-interpolation-filters="sRGB">
<feFlood flood-opacity="0" result="BackgroundImageFix"/>
<feColorMatrix in="SourceAlpha" type="matrix" values="0 0 0 0 0 0 0 0 0 0 0 0 0 0 0 0 0 0 127 0" result="hardAlpha"/>
<feOffset dy="4"/>
<feGaussianBlur stdDeviation="12"/>
<feComposite in2="hardAlpha" operator="out"/>
<feColorMatrix type="matrix" values="0 0 0 0 0.245573 0 0 0 0 0.594951 0 0 0 0 0.854167 0 0 0 0.15 0"/>
<feBlend mode="normal" in2="BackgroundImageFix" result="effect1_dropShadow_228_5474"/>
<feBlend mode="normal" in="SourceGraphic" in2="effect1_dropShadow_228_5474" result="shape"/>
</filter>
</defs>
</svg>
