<svg width="302" height="323" viewBox="0 0 302 323" fill="none" xmlns="http://www.w3.org/2000/svg">
<rect x="20" y="20" width="262" height="61" rx="5" fill="#E96D5A"/>
<path d="M58.7842 49.811L68.5567 40.0384C68.9077 39.6285 69.5247 39.5807 69.9346 39.9318C70.3445 40.2829 70.3923 40.8998 70.0412 41.3097C70.0084 41.3479 69.9728 41.3836 69.9346 41.4163L61.8332 49.5275H100.523C101.062 49.5275 101.5 49.9651 101.5 50.5048C101.5 51.0446 101.062 51.4821 100.523 51.4821H61.8332L69.9346 59.5835C70.3445 59.9345 70.3923 60.5515 70.0412 60.9614C69.69 61.3713 69.0732 61.4191 68.6633 61.068C68.625 61.0352 68.5894 60.9996 68.5567 60.9614L58.7841 51.1888C58.4052 50.8078 58.4052 50.1922 58.7842 49.811Z" fill="white"/>
<path d="M115.188 47.3047V57H113.078V47.3047H115.188ZM120.016 47.3047V52.4531H117.906V47.3047H120.016ZM130.93 56.0391C130.503 56.2786 129.977 56.4766 129.352 56.6328C128.732 56.7839 127.958 56.8958 127.031 56.9688C126.109 57.0417 124.982 57.0781 123.648 57.0781L121.82 47.3047H124.031L124.883 51.9766L125.453 51.8672C125.807 51.7995 126.068 51.6849 126.234 51.5234C126.406 51.3568 126.536 51.1094 126.625 50.7812C126.667 50.6198 126.706 50.3958 126.742 50.1094C126.784 49.8177 126.823 49.4635 126.859 49.0469L126.977 47.3047H129.133L128.898 49.9766C128.867 50.3411 128.823 50.6693 128.766 50.9609C128.708 51.2526 128.635 51.5052 128.547 51.7188C128.375 52.1458 128.133 52.4792 127.82 52.7188C127.513 52.9583 127.023 53.1589 126.352 53.3203L125.18 53.5938L125.5 55.1953H125.688C126.339 55.1953 126.914 55.1693 127.414 55.1172C127.919 55.0599 128.349 54.974 128.703 54.8594C129.177 54.7135 129.568 54.5104 129.875 54.25C130.182 53.9844 130.424 53.6328 130.602 53.1953C130.779 52.7526 130.904 52.1927 130.977 51.5156L131.469 47.3047H133.648L133.148 51.4609C133.044 52.3568 132.898 53.099 132.711 53.6875C132.529 54.276 132.292 54.7552 132 55.125C131.714 55.4896 131.357 55.7943 130.93 56.0391ZM141.906 52.3438C141.906 55.4479 140.323 57 137.156 57H134.562V55.1094H137.039C137.971 55.1094 138.661 54.875 139.109 54.4062C139.557 53.9375 139.781 53.224 139.781 52.2656V52.0547C139.781 51.0807 139.557 50.362 139.109 49.8984C138.661 49.4297 137.982 49.1953 137.07 49.1953H134.562V47.3047H137.266C140.359 47.3047 141.906 48.8516 141.906 51.9453V52.3438ZM143.445 55.2891C144.794 55.263 145.839 55.1302 146.578 54.8906L143.812 47.3047H146.102L148.406 53.9453C148.802 53.6276 149.117 53.1953 149.352 52.6484C149.591 52.0964 149.766 51.3854 149.875 50.5156C149.984 49.6406 150.039 48.5703 150.039 47.3047H152.211C152.211 49.7995 151.935 51.7422 151.383 53.1328C151.013 54.0703 150.495 54.8411 149.828 55.4453C149.161 56.0443 148.307 56.4974 147.266 56.8047C146.224 57.112 144.951 57.2995 143.445 57.3672V55.2891ZM160.641 47.3047V60.0078H158.531V47.3047H160.641ZM165.469 47.3047V57H163.359V47.3047H165.469ZM176.508 55.1094V57H167.469V55.1094H173.359V51.6562C173.359 50.7448 173.188 50.1068 172.844 49.7422C172.505 49.3776 171.924 49.1953 171.102 49.1953H167.836V47.3047H171.133C172.654 47.3047 173.755 47.6224 174.438 48.2578C175.125 48.8932 175.469 49.9349 175.469 51.3828V55.1094H176.508ZM186.633 56.0391C186.206 56.2786 185.68 56.4766 185.055 56.6328C184.435 56.7839 183.661 56.8958 182.734 56.9688C181.812 57.0417 180.685 57.0781 179.352 57.0781L177.523 47.3047H179.734L180.586 51.9766L181.156 51.8672C181.51 51.7995 181.771 51.6849 181.938 51.5234C182.109 51.3568 182.24 51.1094 182.328 50.7812C182.37 50.6198 182.409 50.3958 182.445 50.1094C182.487 49.8177 182.526 49.4635 182.562 49.0469L182.68 47.3047H184.836L184.602 49.9766C184.57 50.3411 184.526 50.6693 184.469 50.9609C184.411 51.2526 184.339 51.5052 184.25 51.7188C184.078 52.1458 183.836 52.4792 183.523 52.7188C183.216 52.9583 182.727 53.1589 182.055 53.3203L180.883 53.5938L181.203 55.1953H181.391C182.042 55.1953 182.617 55.1693 183.117 55.1172C183.622 55.0599 184.052 54.974 184.406 54.8594C184.88 54.7135 185.271 54.5104 185.578 54.25C185.885 53.9844 186.128 53.6328 186.305 53.1953C186.482 52.7526 186.607 52.1927 186.68 51.5156L187.172 47.3047H189.352L188.852 51.4609C188.747 52.3568 188.602 53.099 188.414 53.6875C188.232 54.276 187.995 54.7552 187.703 55.125C187.417 55.4896 187.06 55.7943 186.633 56.0391ZM197.773 51.6406C197.773 50.7656 197.607 50.1406 197.273 49.7656C196.94 49.3854 196.357 49.1953 195.523 49.1953H193.438V57H191.328V47.3047H195.523C197.065 47.3047 198.177 47.625 198.859 48.2656C199.547 48.901 199.891 49.9401 199.891 51.3828V57H197.773V51.6406ZM208.797 47.3047V57H206.688V47.3047H208.797ZM217.961 51.6406C217.961 50.7656 217.794 50.1406 217.461 49.7656C217.128 49.3854 216.544 49.1953 215.711 49.1953H213.625V57H211.516V47.3047H215.711C217.253 47.3047 218.365 47.625 219.047 48.2656C219.734 48.901 220.078 49.9401 220.078 51.3828V57H217.961V51.6406ZM225.211 55.4531C225.003 55.9896 224.682 56.3828 224.25 56.6328C223.818 56.8776 223.19 57 222.367 57H221.836V55.1094H221.969C222.328 55.1094 222.615 55.0417 222.828 54.9062C223.036 54.7708 223.185 54.5651 223.273 54.2891C223.362 54.0078 223.406 53.5833 223.406 53.0156V49.1953H221.922V47.3047H227.359C228.859 47.3047 229.935 47.6224 230.586 48.2578C231.242 48.888 231.57 49.9349 231.57 51.3984V57H229.453V51.4297C229.453 50.5964 229.284 50.0156 228.945 49.6875C228.607 49.3594 228.036 49.1953 227.234 49.1953H225.516V53.2891C225.516 54.1901 225.414 54.9115 225.211 55.4531ZM240.266 51.6719C240.266 50.8385 240.076 50.2188 239.695 49.8125C239.315 49.401 238.716 49.1953 237.898 49.1953H236.094V51.2891H237.992V53.1797H233.961V47.3047H237.914C239.445 47.3047 240.576 47.6615 241.305 48.375C242.034 49.0885 242.398 50.1979 242.398 51.7031V52.3438C242.398 55.4479 240.802 57 237.609 57H234.047V55.1094H237.562C238.464 55.1094 239.138 54.8776 239.586 54.4141C240.039 53.9505 240.266 53.2552 240.266 52.3281V51.6719Z" fill="white"/>
<rect x="20" y="202" width="262" height="61" rx="5" fill="#E96D5A" fill-opacity="0.75"/>
<path d="M58.7842 231.811L68.5567 222.038C68.9077 221.628 69.5247 221.581 69.9346 221.932C70.3445 222.283 70.3923 222.9 70.0412 223.31C70.0084 223.348 69.9728 223.384 69.9346 223.416L61.8332 231.528H100.523C101.062 231.528 101.5 231.965 101.5 232.505C101.5 233.045 101.062 233.482 100.523 233.482H61.8332L69.9346 241.583C70.3445 241.935 70.3923 242.551 70.0412 242.961C69.69 243.371 69.0732 243.419 68.6633 243.068C68.625 243.035 68.5894 243 68.5567 242.961L58.7841 233.189C58.4052 232.808 58.4052 232.192 58.7842 231.811Z" fill="white" fill-opacity="0.75"/>
<path d="M115.188 229.305V239H113.078V229.305H115.188ZM120.016 229.305V234.453H117.906V229.305H120.016ZM130.93 238.039C130.503 238.279 129.977 238.477 129.352 238.633C128.732 238.784 127.958 238.896 127.031 238.969C126.109 239.042 124.982 239.078 123.648 239.078L121.82 229.305H124.031L124.883 233.977L125.453 233.867C125.807 233.799 126.068 233.685 126.234 233.523C126.406 233.357 126.536 233.109 126.625 232.781C126.667 232.62 126.706 232.396 126.742 232.109C126.784 231.818 126.823 231.464 126.859 231.047L126.977 229.305H129.133L128.898 231.977C128.867 232.341 128.823 232.669 128.766 232.961C128.708 233.253 128.635 233.505 128.547 233.719C128.375 234.146 128.133 234.479 127.82 234.719C127.513 234.958 127.023 235.159 126.352 235.32L125.18 235.594L125.5 237.195H125.688C126.339 237.195 126.914 237.169 127.414 237.117C127.919 237.06 128.349 236.974 128.703 236.859C129.177 236.714 129.568 236.51 129.875 236.25C130.182 235.984 130.424 235.633 130.602 235.195C130.779 234.753 130.904 234.193 130.977 233.516L131.469 229.305H133.648L133.148 233.461C133.044 234.357 132.898 235.099 132.711 235.688C132.529 236.276 132.292 236.755 132 237.125C131.714 237.49 131.357 237.794 130.93 238.039ZM141.906 234.344C141.906 237.448 140.323 239 137.156 239H134.562V237.109H137.039C137.971 237.109 138.661 236.875 139.109 236.406C139.557 235.938 139.781 235.224 139.781 234.266V234.055C139.781 233.081 139.557 232.362 139.109 231.898C138.661 231.43 137.982 231.195 137.07 231.195H134.562V229.305H137.266C140.359 229.305 141.906 230.852 141.906 233.945V234.344ZM143.445 237.289C144.794 237.263 145.839 237.13 146.578 236.891L143.812 229.305H146.102L148.406 235.945C148.802 235.628 149.117 235.195 149.352 234.648C149.591 234.096 149.766 233.385 149.875 232.516C149.984 231.641 150.039 230.57 150.039 229.305H152.211C152.211 231.799 151.935 233.742 151.383 235.133C151.013 236.07 150.495 236.841 149.828 237.445C149.161 238.044 148.307 238.497 147.266 238.805C146.224 239.112 144.951 239.299 143.445 239.367V237.289ZM160.641 229.305V242.008H158.531V229.305H160.641ZM165.469 229.305V239H163.359V229.305H165.469ZM176.508 237.109V239H167.469V237.109H173.359V233.656C173.359 232.745 173.188 232.107 172.844 231.742C172.505 231.378 171.924 231.195 171.102 231.195H167.836V229.305H171.133C172.654 229.305 173.755 229.622 174.438 230.258C175.125 230.893 175.469 231.935 175.469 233.383V237.109H176.508ZM186.633 238.039C186.206 238.279 185.68 238.477 185.055 238.633C184.435 238.784 183.661 238.896 182.734 238.969C181.812 239.042 180.685 239.078 179.352 239.078L177.523 229.305H179.734L180.586 233.977L181.156 233.867C181.51 233.799 181.771 233.685 181.938 233.523C182.109 233.357 182.24 233.109 182.328 232.781C182.37 232.62 182.409 232.396 182.445 232.109C182.487 231.818 182.526 231.464 182.562 231.047L182.68 229.305H184.836L184.602 231.977C184.57 232.341 184.526 232.669 184.469 232.961C184.411 233.253 184.339 233.505 184.25 233.719C184.078 234.146 183.836 234.479 183.523 234.719C183.216 234.958 182.727 235.159 182.055 235.32L180.883 235.594L181.203 237.195H181.391C182.042 237.195 182.617 237.169 183.117 237.117C183.622 237.06 184.052 236.974 184.406 236.859C184.88 236.714 185.271 236.51 185.578 236.25C185.885 235.984 186.128 235.633 186.305 235.195C186.482 234.753 186.607 234.193 186.68 233.516L187.172 229.305H189.352L188.852 233.461C188.747 234.357 188.602 235.099 188.414 235.688C188.232 236.276 187.995 236.755 187.703 237.125C187.417 237.49 187.06 237.794 186.633 238.039ZM197.773 233.641C197.773 232.766 197.607 232.141 197.273 231.766C196.94 231.385 196.357 231.195 195.523 231.195H193.438V239H191.328V229.305H195.523C197.065 229.305 198.177 229.625 198.859 230.266C199.547 230.901 199.891 231.94 199.891 233.383V239H197.773V233.641ZM208.797 229.305V239H206.688V229.305H208.797ZM217.961 233.641C217.961 232.766 217.794 232.141 217.461 231.766C217.128 231.385 216.544 231.195 215.711 231.195H213.625V239H211.516V229.305H215.711C217.253 229.305 218.365 229.625 219.047 230.266C219.734 230.901 220.078 231.94 220.078 233.383V239H217.961V233.641ZM225.211 237.453C225.003 237.99 224.682 238.383 224.25 238.633C223.818 238.878 223.19 239 222.367 239H221.836V237.109H221.969C222.328 237.109 222.615 237.042 222.828 236.906C223.036 236.771 223.185 236.565 223.273 236.289C223.362 236.008 223.406 235.583 223.406 235.016V231.195H221.922V229.305H227.359C228.859 229.305 229.935 229.622 230.586 230.258C231.242 230.888 231.57 231.935 231.57 233.398V239H229.453V233.43C229.453 232.596 229.284 232.016 228.945 231.688C228.607 231.359 228.036 231.195 227.234 231.195H225.516V235.289C225.516 236.19 225.414 236.911 225.211 237.453ZM240.266 233.672C240.266 232.839 240.076 232.219 239.695 231.812C239.315 231.401 238.716 231.195 237.898 231.195H236.094V233.289H237.992V235.18H233.961V229.305H237.914C239.445 229.305 240.576 229.661 241.305 230.375C242.034 231.089 242.398 232.198 242.398 233.703V234.344C242.398 237.448 240.802 239 237.609 239H234.047V237.109H237.562C238.464 237.109 239.138 236.878 239.586 236.414C240.039 235.951 240.266 235.255 240.266 234.328V233.672Z" fill="white"/>
<path d="M60.7842 140.811L70.5567 131.038C70.9077 130.628 71.5247 130.581 71.9346 130.932C72.3445 131.283 72.3923 131.9 72.0412 132.31C72.0084 132.348 71.9728 132.384 71.9346 132.416L63.8332 140.528H102.523C103.062 140.528 103.5 140.965 103.5 141.505C103.5 142.045 103.062 142.482 102.523 142.482H63.8332L71.9346 150.583C72.3445 150.935 72.3923 151.551 72.0412 151.961C71.69 152.371 71.0732 152.419 70.6633 152.068C70.625 152.035 70.5894 152 70.5567 151.961L60.7841 142.189C60.4052 141.808 60.4052 141.192 60.7842 140.811Z" fill="#E96D5A"/>
<path d="M115.148 148V137.898H117.508V148H115.148ZM119.938 144.578V137.898H122.297V142.828L120.906 144.578H119.938ZM125.062 148L124.211 137.898H126.492L126.922 143.008C127.094 142.977 127.268 142.922 127.445 142.844C127.622 142.76 127.768 142.651 127.883 142.516C128.018 142.359 128.128 142.154 128.211 141.898C128.294 141.638 128.349 141.352 128.375 141.039L128.648 137.898H130.914L130.641 141.008C130.589 141.602 130.474 142.133 130.297 142.602C130.125 143.07 129.862 143.469 129.508 143.797C129.211 144.083 128.87 144.299 128.484 144.445C128.099 144.586 127.659 144.677 127.164 144.719C127.148 144.719 127.13 144.719 127.109 144.719C127.094 144.719 127.078 144.719 127.062 144.719L127.195 146.164H129.289C129.831 146.164 130.323 146.023 130.766 145.742C131.208 145.461 131.573 145.044 131.859 144.492C132.151 143.909 132.336 143.203 132.414 142.375L132.82 137.898H135.094L134.672 142.43C134.62 143.018 134.521 143.565 134.375 144.07C134.229 144.576 134.047 145.031 133.828 145.438C133.62 145.823 133.375 146.167 133.094 146.469C132.818 146.771 132.49 147.026 132.109 147.234C131.667 147.521 131.188 147.721 130.672 147.836C130.161 147.945 129.617 148 129.039 148H125.062ZM139.383 148.156C138.784 148.156 138.242 148.135 137.758 148.094C137.279 148.057 136.852 148 136.477 147.922V146.016C136.706 146.057 136.964 146.096 137.25 146.133C137.542 146.164 137.849 146.19 138.172 146.211C138.495 146.232 138.826 146.242 139.164 146.242C139.435 146.242 139.672 146.206 139.875 146.133C140.083 146.055 140.26 145.951 140.406 145.82C140.526 145.711 140.633 145.583 140.727 145.438C140.82 145.286 140.893 145.13 140.945 144.969C141.003 144.792 141.049 144.591 141.086 144.367C141.122 144.143 141.141 143.906 141.141 143.656V142.32C141.141 141.924 141.102 141.547 141.023 141.188C140.951 140.828 140.823 140.531 140.641 140.297C140.453 140.042 140.203 139.862 139.891 139.758C139.578 139.654 139.242 139.602 138.883 139.602C138.555 139.602 138.219 139.615 137.875 139.641C137.536 139.667 137.19 139.708 136.836 139.766C136.768 139.781 136.703 139.794 136.641 139.805C136.578 139.81 136.523 139.818 136.477 139.828V137.938C136.643 137.906 136.81 137.88 136.977 137.859C137.148 137.839 137.333 137.82 137.531 137.805C137.807 137.779 138.099 137.763 138.406 137.758C138.714 137.747 139.039 137.742 139.383 137.742C139.982 137.742 140.526 137.831 141.016 138.008C141.51 138.18 141.909 138.409 142.211 138.695C142.367 138.841 142.508 139 142.633 139.172C142.758 139.344 142.87 139.531 142.969 139.734C143.089 139.979 143.188 140.24 143.266 140.516C143.344 140.786 143.401 141.073 143.438 141.375C143.479 141.677 143.5 141.997 143.5 142.336V143.656C143.5 144.13 143.466 144.568 143.398 144.969C143.331 145.365 143.214 145.753 143.047 146.133C142.885 146.487 142.677 146.794 142.422 147.055C142.172 147.31 141.841 147.521 141.43 147.688C141.133 147.865 140.807 147.987 140.453 148.055C140.099 148.122 139.742 148.156 139.383 148.156ZM144.758 148.5V146.609L146.594 146.336C146.729 146.31 146.865 146.286 147 146.266C147.135 146.24 147.271 146.214 147.406 146.188L145.18 137.898H147.531L148.742 142.336L149.422 145.438C149.693 145.25 149.93 145.01 150.133 144.719C150.341 144.427 150.513 144.089 150.648 143.703C150.784 143.312 150.875 142.883 150.922 142.414L151.336 137.898H153.656L153.25 142.312C153.219 142.661 153.167 142.995 153.094 143.312C153.026 143.63 152.938 143.93 152.828 144.211C152.724 144.487 152.599 144.745 152.453 144.984C152.062 145.807 151.482 146.474 150.711 146.984C149.945 147.495 148.995 147.839 147.859 148.016C147.323 148.099 146.794 148.18 146.273 148.258C145.758 148.341 145.253 148.422 144.758 148.5ZM159.602 151.742V141.391C159.602 141 159.581 140.612 159.539 140.227C159.503 139.836 159.453 139.474 159.391 139.141C159.333 138.802 159.268 138.518 159.195 138.289C159.174 138.221 159.154 138.156 159.133 138.094C159.117 138.026 159.099 137.961 159.078 137.898H161.445C161.466 137.956 161.49 138.023 161.516 138.102C161.542 138.18 161.568 138.271 161.594 138.375C161.635 138.516 161.685 138.753 161.742 139.086C161.799 139.414 161.849 139.784 161.891 140.195C161.938 140.607 161.961 141.005 161.961 141.391V151.742H159.602ZM164.461 148V137.898H166.82V148H164.461ZM168.898 148V146.156H173.469V141.289C173.469 140.846 173.38 140.503 173.203 140.258C173.031 140.008 172.771 139.833 172.422 139.734C172.302 139.688 172.164 139.651 172.008 139.625C171.852 139.599 171.677 139.586 171.484 139.586C171.177 139.586 170.82 139.599 170.414 139.625C170.008 139.651 169.503 139.69 168.898 139.742V137.906C169.242 137.849 169.646 137.807 170.109 137.781C170.573 137.755 171.096 137.742 171.68 137.742C172.169 137.742 172.596 137.766 172.961 137.812C173.331 137.854 173.667 137.924 173.969 138.023C174.276 138.122 174.534 138.245 174.742 138.391C174.951 138.536 175.12 138.714 175.25 138.922C175.406 139.115 175.526 139.326 175.609 139.555C175.693 139.779 175.75 140.026 175.781 140.297C175.812 140.568 175.828 140.867 175.828 141.195V146.156H176.953V148H168.898ZM178.984 148L178.133 137.898H180.414L180.844 143.008C181.016 142.977 181.19 142.922 181.367 142.844C181.544 142.76 181.69 142.651 181.805 142.516C181.94 142.359 182.049 142.154 182.133 141.898C182.216 141.638 182.271 141.352 182.297 141.039L182.57 137.898H184.836L184.562 141.008C184.51 141.602 184.396 142.133 184.219 142.602C184.047 143.07 183.784 143.469 183.43 143.797C183.133 144.083 182.792 144.299 182.406 144.445C182.021 144.586 181.581 144.677 181.086 144.719C181.07 144.719 181.052 144.719 181.031 144.719C181.016 144.719 181 144.719 180.984 144.719L181.117 146.164H183.211C183.753 146.164 184.245 146.023 184.688 145.742C185.13 145.461 185.495 145.044 185.781 144.492C186.073 143.909 186.258 143.203 186.336 142.375L186.742 137.898H189.016L188.594 142.43C188.542 143.018 188.443 143.565 188.297 144.07C188.151 144.576 187.969 145.031 187.75 145.438C187.542 145.823 187.297 146.167 187.016 146.469C186.74 146.771 186.411 147.026 186.031 147.234C185.589 147.521 185.109 147.721 184.594 147.836C184.083 147.945 183.539 148 182.961 148H178.984ZM191.133 148V137.992C191.299 137.966 191.482 137.943 191.68 137.922C191.878 137.901 192.096 137.88 192.336 137.859C192.789 137.818 193.237 137.789 193.68 137.773C194.128 137.753 194.57 137.742 195.008 137.742C195.622 137.742 196.141 137.776 196.562 137.844C196.99 137.906 197.357 138.01 197.664 138.156C197.982 138.302 198.242 138.477 198.445 138.68C198.654 138.883 198.815 139.146 198.93 139.469C199.023 139.734 199.089 140.01 199.125 140.297C199.161 140.578 199.18 140.909 199.18 141.289V148H196.812V141.289C196.812 140.815 196.714 140.448 196.516 140.188C196.318 139.927 196.021 139.755 195.625 139.672C195.521 139.646 195.398 139.625 195.258 139.609C195.117 139.594 194.961 139.586 194.789 139.586C194.612 139.586 194.417 139.591 194.203 139.602C193.99 139.612 193.753 139.625 193.492 139.641V148H191.133ZM205.805 148V137.898H208.164V148H205.805ZM210.695 148V137.992C210.862 137.966 211.044 137.943 211.242 137.922C211.44 137.901 211.659 137.88 211.898 137.859C212.352 137.818 212.799 137.789 213.242 137.773C213.69 137.753 214.133 137.742 214.57 137.742C215.185 137.742 215.703 137.776 216.125 137.844C216.552 137.906 216.919 138.01 217.227 138.156C217.544 138.302 217.805 138.477 218.008 138.68C218.216 138.883 218.378 139.146 218.492 139.469C218.586 139.734 218.651 140.01 218.688 140.297C218.724 140.578 218.742 140.909 218.742 141.289V148H216.375V141.289C216.375 140.815 216.276 140.448 216.078 140.188C215.88 139.927 215.583 139.755 215.188 139.672C215.083 139.646 214.961 139.625 214.82 139.609C214.68 139.594 214.523 139.586 214.352 139.586C214.174 139.586 213.979 139.591 213.766 139.602C213.552 139.612 213.315 139.625 213.055 139.641V148H210.695ZM221.672 148.102C221.479 148.102 221.289 148.081 221.102 148.039C220.914 147.997 220.719 147.935 220.516 147.852V146.133C220.812 146.185 221.094 146.211 221.359 146.211C221.672 146.211 221.893 146.125 222.023 145.953C222.159 145.776 222.227 145.497 222.227 145.117V139.758C222.044 139.768 221.859 139.781 221.672 139.797C221.49 139.812 221.307 139.826 221.125 139.836V137.992C221.688 137.935 222.227 137.888 222.742 137.852C223.258 137.815 223.753 137.789 224.227 137.773C224.701 137.753 225.154 137.742 225.586 137.742C226.086 137.742 226.523 137.766 226.898 137.812C227.279 137.854 227.609 137.919 227.891 138.008C228.177 138.096 228.427 138.211 228.641 138.352C228.885 138.513 229.086 138.693 229.242 138.891C229.398 139.083 229.523 139.326 229.617 139.617C229.69 139.826 229.74 140.062 229.766 140.328C229.797 140.589 229.812 140.88 229.812 141.203V148H227.453V141.297C227.453 140.833 227.357 140.474 227.164 140.219C226.977 139.958 226.693 139.784 226.312 139.695C226.094 139.628 225.815 139.594 225.477 139.594C225.32 139.594 225.167 139.596 225.016 139.602C224.87 139.602 224.727 139.607 224.586 139.617V145.117C224.586 145.466 224.56 145.781 224.508 146.062C224.461 146.344 224.375 146.607 224.25 146.852C224.109 147.138 223.919 147.375 223.68 147.562C223.445 147.74 223.161 147.875 222.828 147.969C222.495 148.057 222.109 148.102 221.672 148.102ZM236.023 148.156C235.664 148.156 235.302 148.148 234.938 148.133C234.578 148.122 234.247 148.104 233.945 148.078C233.643 148.052 233.401 148.026 233.219 148L232.844 147.953V146.141C233.391 146.193 233.935 146.234 234.477 146.266C235.018 146.292 235.56 146.305 236.102 146.305C236.362 146.305 236.591 146.263 236.789 146.18C236.987 146.096 237.151 145.984 237.281 145.844C237.464 145.661 237.602 145.427 237.695 145.141C237.789 144.849 237.849 144.56 237.875 144.273C237.901 143.997 237.917 143.768 237.922 143.586C237.932 143.404 237.938 143.19 237.938 142.945C237.938 142.617 237.927 142.333 237.906 142.094C237.885 141.854 237.849 141.599 237.797 141.328C237.74 141.036 237.651 140.763 237.531 140.508C237.411 140.253 237.25 140.057 237.047 139.922C236.917 139.828 236.776 139.758 236.625 139.711C236.479 139.664 236.323 139.641 236.156 139.641C235.823 139.641 235.539 139.685 235.305 139.773C235.07 139.857 234.888 139.958 234.758 140.078C234.607 140.219 234.484 140.398 234.391 140.617C234.297 140.836 234.25 141.07 234.25 141.32C234.25 141.581 234.294 141.823 234.383 142.047C234.477 142.266 234.599 142.44 234.75 142.57C234.875 142.669 235.008 142.75 235.148 142.812C235.289 142.875 235.435 142.914 235.586 142.93L236.07 143.023L235.695 144.734L235.148 144.703C234.846 144.688 234.562 144.648 234.297 144.586C234.031 144.523 233.784 144.44 233.555 144.336C233.326 144.221 233.117 144.086 232.93 143.93C232.742 143.773 232.581 143.596 232.445 143.398C232.268 143.133 232.133 142.828 232.039 142.484C231.945 142.141 231.898 141.763 231.898 141.352C231.898 140.794 231.995 140.297 232.188 139.859C232.38 139.422 232.63 139.068 232.938 138.797C233.344 138.432 233.826 138.167 234.383 138C234.945 137.828 235.518 137.742 236.102 137.742C236.586 137.742 237.031 137.797 237.438 137.906C237.844 138.01 238.208 138.169 238.531 138.383C238.776 138.544 239.008 138.753 239.227 139.008C239.445 139.258 239.63 139.549 239.781 139.883C239.964 140.279 240.102 140.732 240.195 141.242C240.294 141.753 240.344 142.32 240.344 142.945C240.344 143.742 240.271 144.443 240.125 145.047C239.984 145.651 239.792 146.146 239.547 146.531C239.318 146.88 239.036 147.169 238.703 147.398C238.37 147.628 238.026 147.794 237.672 147.898C237.448 147.982 237.198 148.044 236.922 148.086C236.646 148.133 236.346 148.156 236.023 148.156Z" fill="#E96D5A"/>
<rect x="20.5" y="111.5" width="261" height="60" rx="4.5" stroke="#E96D5A"/>
<rect x="0.5" y="0.5" width="301" height="322" rx="4.5" stroke="#9747FF" stroke-dasharray="10 5"/>
</svg>
