<svg width="700" height="371" viewBox="0 0 700 371" fill="none" xmlns="http://www.w3.org/2000/svg">
<g filter="url(#filter0_d_47_16617)">
<rect x="24" y="20" width="652" height="323" rx="10" fill="white"/>
<path d="M171.45 105.042V103.929C171.45 103.265 171.509 102.679 171.626 102.171C171.753 101.663 171.953 101.185 172.227 100.735C172.5 100.286 172.861 99.8223 173.311 99.3438C173.74 98.8848 174.082 98.4746 174.336 98.1133C174.6 97.7422 174.79 97.376 174.907 97.0146C175.024 96.6533 175.083 96.248 175.083 95.7988C175.083 95.1348 174.922 94.6367 174.6 94.3047C174.277 93.9629 173.799 93.792 173.164 93.792C172.627 93.792 172.085 93.9092 171.538 94.1436C170.991 94.3779 170.41 94.71 169.795 95.1396L168.477 92.0781C169.307 91.4727 170.137 91.0234 170.967 90.7305C171.797 90.4277 172.637 90.2764 173.486 90.2764C175.264 90.2764 176.611 90.7354 177.529 91.6533C178.457 92.5713 178.921 93.8359 178.921 95.4473C178.921 96.3066 178.818 97.0586 178.613 97.7031C178.418 98.3379 178.125 98.9287 177.734 99.4756C177.344 100.022 176.851 100.599 176.255 101.204C175.796 101.673 175.454 102.068 175.229 102.391C175.005 102.713 174.858 103.025 174.79 103.328C174.722 103.621 174.688 103.963 174.688 104.354V105.042H171.45ZM170.762 109.876C170.762 109.075 170.957 108.465 171.348 108.045C171.748 107.625 172.334 107.415 173.105 107.415C173.828 107.415 174.385 107.625 174.775 108.045C175.176 108.455 175.376 109.065 175.376 109.876C175.376 110.667 175.171 111.277 174.761 111.707C174.36 112.127 173.809 112.337 173.105 112.337C172.383 112.337 171.812 112.127 171.392 111.707C170.972 111.277 170.762 110.667 170.762 109.876ZM181.558 112L180.034 93.1035H183.916L184.736 102.83C185.127 102.762 185.444 102.635 185.688 102.449C185.942 102.264 186.143 102.02 186.289 101.717C186.455 101.395 186.577 100.999 186.655 100.53C186.733 100.052 186.802 99.4902 186.86 98.8457L187.314 93.1035H191.167L190.625 100.149C190.557 100.882 190.439 101.507 190.273 102.024C190.117 102.532 189.883 103.016 189.57 103.475C189.121 104.09 188.564 104.578 187.9 104.939C187.236 105.301 186.387 105.53 185.352 105.628C185.283 105.628 185.215 105.628 185.146 105.628C185.088 105.628 185.024 105.628 184.956 105.628L185.22 108.851H186.875C187.852 108.851 188.73 108.665 189.512 108.294C190.303 107.913 190.967 107.371 191.504 106.668C192.461 105.438 193.032 103.748 193.218 101.6L193.906 93.1035H197.788L197.085 101.585C196.978 102.952 196.738 104.246 196.367 105.467C195.996 106.688 195.469 107.693 194.785 108.484C194.512 108.895 194.111 109.334 193.584 109.803C193.057 110.271 192.466 110.662 191.812 110.975C191.147 111.307 190.386 111.561 189.526 111.736C188.667 111.912 187.783 112 186.875 112H181.558ZM199.985 112V93.1035H203.896V112H199.985ZM210.034 112.293C209.38 112.293 208.73 112.254 208.086 112.176C207.441 112.098 206.86 111.98 206.343 111.824V108.47C206.685 108.567 207.036 108.655 207.397 108.733C207.759 108.802 208.13 108.855 208.511 108.895C208.901 108.934 209.302 108.953 209.712 108.953C210.171 108.953 210.532 108.88 210.796 108.733C211.06 108.577 211.27 108.377 211.426 108.133C211.562 107.928 211.665 107.703 211.733 107.459C211.812 107.205 211.87 106.956 211.909 106.712C211.978 106.331 212.021 105.95 212.041 105.569C212.061 105.188 212.07 104.783 212.07 104.354V101.189C212.07 100.291 212.012 99.5098 211.895 98.8457C211.777 98.1816 211.606 97.6396 211.382 97.2197C211.196 96.8779 210.967 96.6191 210.693 96.4434C210.43 96.2578 210.063 96.165 209.595 96.165C209.175 96.165 208.794 96.1846 208.452 96.2236C208.12 96.2529 207.661 96.3262 207.075 96.4434C206.958 96.4629 206.841 96.4873 206.724 96.5166C206.606 96.5361 206.479 96.5605 206.343 96.5898V93.2061C206.479 93.167 206.616 93.1328 206.753 93.1035C206.89 93.0645 207.031 93.04 207.178 93.0303C207.617 92.9521 208.057 92.8984 208.496 92.8691C208.936 92.8301 209.38 92.8105 209.829 92.8105C210.601 92.8105 211.27 92.8936 211.836 93.0596C212.412 93.2158 212.92 93.4307 213.359 93.7041C213.857 94.0068 214.268 94.3975 214.59 94.876C214.922 95.3447 215.176 95.8184 215.352 96.2969C215.508 96.7266 215.635 97.2344 215.732 97.8203C215.84 98.3965 215.918 98.9824 215.967 99.5781C216.025 100.174 216.055 100.711 216.055 101.189V104.354C216.055 105.203 215.991 105.999 215.864 106.741C215.737 107.474 215.547 108.152 215.293 108.777C215.01 109.48 214.644 110.086 214.194 110.594C213.745 111.092 213.169 111.502 212.466 111.824C212.124 111.98 211.724 112.098 211.265 112.176C210.806 112.254 210.396 112.293 210.034 112.293ZM223.804 112V99.373C223.804 98.6699 223.75 98.0791 223.643 97.6006C223.535 97.1123 223.325 96.7461 223.013 96.502C222.798 96.3262 222.524 96.1992 222.192 96.1211C221.87 96.0332 221.523 95.9893 221.152 95.9893C220.908 95.9893 220.576 96.0039 220.156 96.0332C219.736 96.0527 219.312 96.082 218.882 96.1211C218.452 96.1504 218.091 96.1797 217.798 96.209V93.0449C218.521 92.9668 219.194 92.9082 219.819 92.8691C220.444 92.8301 220.996 92.8105 221.475 92.8105C222.314 92.8105 223.042 92.8643 223.657 92.9717C224.272 93.0693 224.81 93.2158 225.269 93.4111C225.669 93.5869 226.011 93.8066 226.294 94.0703C226.587 94.334 226.841 94.6611 227.056 95.0518C227.368 95.5986 227.554 96.2383 227.612 96.9707C227.681 97.6934 227.715 98.499 227.715 99.3877V112H223.804ZM232.886 112L234.38 104.72L236.709 96.2529H229.839V89.207H233.735V93.1035H240.62V95.7402L238.159 104.734L236.665 112H232.886ZM248.325 112V93.2207C248.462 93.1914 248.667 93.1572 248.94 93.1182C249.224 93.0791 249.551 93.0449 249.922 93.0156C250.537 92.957 251.187 92.9082 251.87 92.8691C252.563 92.8301 253.208 92.8105 253.804 92.8105C254.78 92.8105 255.576 92.8545 256.191 92.9424C256.816 93.0303 257.349 93.1719 257.788 93.3672C258.403 93.6309 258.906 94.0068 259.297 94.4951C259.688 94.9834 259.956 95.5547 260.103 96.209C260.19 96.5996 260.259 97.0537 260.308 97.5713C260.356 98.0791 260.381 98.6846 260.381 99.3877V112H248.325ZM252.236 108.851H256.47V99.373C256.47 98.9727 256.45 98.5771 256.411 98.1865C256.372 97.7959 256.299 97.4785 256.191 97.2344C256.094 96.9707 255.957 96.7607 255.781 96.6045C255.615 96.4385 255.415 96.3066 255.181 96.209C254.946 96.1113 254.712 96.0527 254.478 96.0332C254.243 96.0039 253.989 95.9893 253.716 95.9893C253.364 95.9893 253.091 95.9941 252.896 96.0039C252.7 96.0137 252.48 96.0283 252.236 96.0479V108.851ZM266.372 112.293C265.718 112.293 265.068 112.254 264.424 112.176C263.779 112.098 263.198 111.98 262.681 111.824V108.47C263.022 108.567 263.374 108.655 263.735 108.733C264.097 108.802 264.468 108.855 264.849 108.895C265.239 108.934 265.64 108.953 266.05 108.953C266.509 108.953 266.87 108.88 267.134 108.733C267.397 108.577 267.607 108.377 267.764 108.133C267.9 107.928 268.003 107.703 268.071 107.459C268.149 107.205 268.208 106.956 268.247 106.712C268.315 106.331 268.359 105.95 268.379 105.569C268.398 105.188 268.408 104.783 268.408 104.354V101.189C268.408 100.291 268.35 99.5098 268.232 98.8457C268.115 98.1816 267.944 97.6396 267.72 97.2197C267.534 96.8779 267.305 96.6191 267.031 96.4434C266.768 96.2578 266.401 96.165 265.933 96.165C265.513 96.165 265.132 96.1846 264.79 96.2236C264.458 96.2529 263.999 96.3262 263.413 96.4434C263.296 96.4629 263.179 96.4873 263.062 96.5166C262.944 96.5361 262.817 96.5605 262.681 96.5898V93.2061C262.817 93.167 262.954 93.1328 263.091 93.1035C263.228 93.0645 263.369 93.04 263.516 93.0303C263.955 92.9521 264.395 92.8984 264.834 92.8691C265.273 92.8301 265.718 92.8105 266.167 92.8105C266.938 92.8105 267.607 92.8936 268.174 93.0596C268.75 93.2158 269.258 93.4307 269.697 93.7041C270.195 94.0068 270.605 94.3975 270.928 94.876C271.26 95.3447 271.514 95.8184 271.689 96.2969C271.846 96.7266 271.973 97.2344 272.07 97.8203C272.178 98.3965 272.256 98.9824 272.305 99.5781C272.363 100.174 272.393 100.711 272.393 101.189V104.354C272.393 105.203 272.329 105.999 272.202 106.741C272.075 107.474 271.885 108.152 271.631 108.777C271.348 109.48 270.981 110.086 270.532 110.594C270.083 111.092 269.507 111.502 268.804 111.824C268.462 111.98 268.062 112.098 267.603 112.176C267.144 112.254 266.733 112.293 266.372 112.293ZM274.136 112V108.851H278.311C278.408 108.479 278.477 108.016 278.516 107.459C278.555 106.893 278.574 106.238 278.574 105.496V98.4209C278.574 98.0303 278.525 97.6396 278.428 97.249C278.34 96.8486 278.179 96.5605 277.944 96.3848C277.788 96.2578 277.588 96.1748 277.344 96.1357C277.109 96.0869 276.899 96.0625 276.714 96.0625C276.528 96.0625 276.284 96.0869 275.981 96.1357C275.688 96.1846 275.356 96.2578 274.985 96.3555V93.1182C275.532 93.001 275.986 92.9229 276.348 92.8838C276.719 92.835 277.07 92.8105 277.402 92.8105C277.979 92.8105 278.54 92.8594 279.087 92.957C279.634 93.0449 280.073 93.1719 280.405 93.3379C280.864 93.543 281.255 93.8701 281.577 94.3193C281.909 94.7588 282.139 95.2812 282.266 95.8867C282.324 96.1602 282.373 96.5166 282.412 96.9561C282.451 97.3857 282.471 97.874 282.471 98.4209V106.653C282.471 107.259 282.441 107.864 282.383 108.47C282.334 109.075 282.266 109.632 282.178 110.14C282.09 110.647 282.002 111.058 281.914 111.37L281.738 112H274.136ZM285.649 112V93.1035H289.561V112H285.649ZM292.197 112V108.851H297.266L299.8 109.041L297.354 105.276L292.051 93.1035H296.108L299.404 100.867L299.565 101.292C299.956 100.813 300.269 100.286 300.503 99.71C300.737 99.124 300.903 98.3037 301.001 97.249L301.367 93.1182H305.264L305.088 95.0078C305.049 95.75 305.005 96.375 304.956 96.8828C304.907 97.3809 304.844 97.835 304.766 98.2451C304.697 98.6553 304.6 99.0996 304.473 99.5781C304.355 100.027 304.194 100.506 303.989 101.014C303.784 101.521 303.467 102.083 303.037 102.698C302.822 103.06 302.578 103.416 302.305 103.768C302.031 104.119 301.694 104.456 301.294 104.778L304.385 109.686V112H292.197ZM312.544 112V99.373C312.544 98.6699 312.49 98.0791 312.383 97.6006C312.275 97.1123 312.065 96.7461 311.753 96.502C311.538 96.3262 311.265 96.1992 310.933 96.1211C310.61 96.0332 310.264 95.9893 309.893 95.9893C309.648 95.9893 309.316 96.0039 308.896 96.0332C308.477 96.0527 308.052 96.082 307.622 96.1211C307.192 96.1504 306.831 96.1797 306.538 96.209V93.0449C307.261 92.9668 307.935 92.9082 308.56 92.8691C309.185 92.8301 309.736 92.8105 310.215 92.8105C311.055 92.8105 311.782 92.8643 312.397 92.9717C313.013 93.0693 313.55 93.2158 314.009 93.4111C314.409 93.5869 314.751 93.8066 315.034 94.0703C315.327 94.334 315.581 94.6611 315.796 95.0518C316.108 95.5986 316.294 96.2383 316.353 96.9707C316.421 97.6934 316.455 98.499 316.455 99.3877V112H312.544ZM319.194 112V108.851H325.171V99.373C325.171 98.3867 325.049 97.625 324.805 97.0879C324.57 96.541 324.126 96.2041 323.472 96.0771C323.315 96.0479 323.149 96.0283 322.974 96.0186C322.798 95.999 322.646 95.9893 322.52 95.9893C321.797 95.9893 321.216 96.0039 320.776 96.0332C320.347 96.0625 319.814 96.1309 319.18 96.2383V93.0449C319.766 92.9668 320.337 92.9082 320.894 92.8691C321.45 92.8301 322.017 92.8105 322.593 92.8105C323.56 92.8105 324.351 92.8594 324.966 92.957C325.581 93.0547 326.099 93.1914 326.519 93.3672C327.075 93.5918 327.515 93.8652 327.837 94.1875C328.169 94.5098 328.442 94.876 328.657 95.2861C328.774 95.4912 328.862 95.833 328.921 96.3115C328.989 96.7803 329.033 97.293 329.053 97.8496C329.082 98.4062 329.097 98.9189 329.097 99.3877V108.851H331.06V112H319.194ZM333.696 112L332.173 93.1035H336.055L336.875 102.83C337.266 102.762 337.583 102.635 337.827 102.449C338.081 102.264 338.281 102.02 338.428 101.717C338.594 101.395 338.716 100.999 338.794 100.53C338.872 100.052 338.94 99.4902 338.999 98.8457L339.453 93.1035H343.306L342.764 100.149C342.695 100.882 342.578 101.507 342.412 102.024C342.256 102.532 342.021 103.016 341.709 103.475C341.26 104.09 340.703 104.578 340.039 104.939C339.375 105.301 338.525 105.53 337.49 105.628C337.422 105.628 337.354 105.628 337.285 105.628C337.227 105.628 337.163 105.628 337.095 105.628L337.358 108.851H339.014C339.99 108.851 340.869 108.665 341.65 108.294C342.441 107.913 343.105 107.371 343.643 106.668C344.6 105.438 345.171 103.748 345.356 101.6L346.045 93.1035H349.927L349.224 101.585C349.116 102.952 348.877 104.246 348.506 105.467C348.135 106.688 347.607 107.693 346.924 108.484C346.65 108.895 346.25 109.334 345.723 109.803C345.195 110.271 344.604 110.662 343.95 110.975C343.286 111.307 342.524 111.561 341.665 111.736C340.806 111.912 339.922 112 339.014 112H333.696ZM357.515 112V93.2207C357.651 93.1914 357.856 93.1572 358.13 93.1182C358.413 93.0791 358.74 93.0449 359.111 93.0156C359.727 92.957 360.376 92.9082 361.06 92.8691C361.753 92.8301 362.397 92.8105 362.993 92.8105C363.97 92.8105 364.766 92.8545 365.381 92.9424C366.006 93.0303 366.538 93.1719 366.978 93.3672C367.593 93.6309 368.096 94.0068 368.486 94.4951C368.877 94.9834 369.146 95.5547 369.292 96.209C369.38 96.5996 369.448 97.0537 369.497 97.5713C369.546 98.0791 369.57 98.6846 369.57 99.3877V112H357.515ZM361.426 108.851H365.659V99.373C365.659 98.9727 365.64 98.5771 365.601 98.1865C365.562 97.7959 365.488 97.4785 365.381 97.2344C365.283 96.9707 365.146 96.7607 364.971 96.6045C364.805 96.4385 364.604 96.3066 364.37 96.209C364.136 96.1113 363.901 96.0527 363.667 96.0332C363.433 96.0039 363.179 95.9893 362.905 95.9893C362.554 95.9893 362.28 95.9941 362.085 96.0039C361.89 96.0137 361.67 96.0283 361.426 96.0479V108.851ZM372.72 105.613V93.1035H376.602V101.849L374.199 105.613H372.72ZM379.927 112V93.4404C380.337 93.3525 380.747 93.2793 381.157 93.2207C381.567 93.1523 381.968 93.0938 382.358 93.0449C382.964 92.9668 383.555 92.9082 384.131 92.8691C384.707 92.8301 385.244 92.8105 385.742 92.8105C386.934 92.8105 387.9 92.9131 388.643 93.1182C389.395 93.3232 390.01 93.6406 390.488 94.0703C390.654 94.2168 390.796 94.373 390.913 94.5391C391.04 94.6953 391.152 94.8662 391.25 95.0518C391.543 95.5889 391.738 96.2139 391.836 96.9268C391.934 97.6396 391.982 98.46 391.982 99.3877V112H388.071V99.373C388.071 98.7285 388.022 98.1816 387.925 97.7324C387.837 97.2832 387.681 96.9316 387.456 96.6777C387.241 96.4336 386.968 96.2578 386.636 96.1504C386.313 96.043 385.894 95.9893 385.376 95.9893C385.151 95.9893 384.917 95.999 384.673 96.0186C384.429 96.0381 384.15 96.0723 383.838 96.1211V112H379.927ZM395.132 112V93.1035H399.043V112H395.132ZM408.301 112.322C407.627 112.322 407.012 112.22 406.455 112.015C405.908 111.819 405.415 111.526 404.976 111.136C404.585 110.794 404.229 110.379 403.906 109.891C403.594 109.402 403.311 108.846 403.057 108.221C402.773 107.488 402.554 106.644 402.397 105.687C402.251 104.72 402.178 103.675 402.178 102.552V93.1328H406.147V102.537C406.147 103.846 406.201 104.925 406.309 105.774C406.426 106.614 406.606 107.293 406.851 107.811C407.085 108.318 407.334 108.665 407.598 108.851C407.871 109.026 408.164 109.114 408.477 109.114C408.848 109.114 409.165 109.012 409.429 108.807C409.702 108.592 409.941 108.26 410.146 107.811C410.371 107.332 410.537 106.678 410.645 105.848C410.762 105.008 410.82 103.904 410.82 102.537C410.82 101.336 410.767 100.286 410.659 99.3877C410.562 98.4893 410.391 97.7861 410.146 97.2783C409.932 96.8193 409.683 96.4922 409.399 96.2969C409.126 96.0918 408.838 95.9893 408.535 95.9893C408.398 95.9893 408.252 95.9941 408.096 96.0039C407.949 96.0137 407.744 96.0381 407.48 96.0771V92.9424C407.705 92.8936 407.969 92.8594 408.271 92.8398C408.584 92.8203 408.838 92.8105 409.033 92.8105C409.688 92.8105 410.312 92.9424 410.908 93.2061C411.514 93.46 412.056 93.8701 412.534 94.4365C412.905 94.8662 413.247 95.4082 413.56 96.0625C413.882 96.7168 414.136 97.4395 414.321 98.2305C414.487 98.8848 414.609 99.5928 414.688 100.354C414.766 101.106 414.805 101.863 414.805 102.625C414.805 103.719 414.722 104.754 414.556 105.73C414.39 106.707 414.175 107.532 413.911 108.206C413.657 108.86 413.34 109.437 412.959 109.935C412.588 110.423 412.217 110.818 411.846 111.121C411.279 111.57 410.688 111.883 410.073 112.059C409.458 112.234 408.867 112.322 408.301 112.322ZM417.31 112V108.851H423.286V99.373C423.286 98.3867 423.164 97.625 422.92 97.0879C422.686 96.541 422.241 96.2041 421.587 96.0771C421.431 96.0479 421.265 96.0283 421.089 96.0186C420.913 95.999 420.762 95.9893 420.635 95.9893C419.912 95.9893 419.331 96.0039 418.892 96.0332C418.462 96.0625 417.93 96.1309 417.295 96.2383V93.0449C417.881 92.9668 418.452 92.9082 419.009 92.8691C419.565 92.8301 420.132 92.8105 420.708 92.8105C421.675 92.8105 422.466 92.8594 423.081 92.957C423.696 93.0547 424.214 93.1914 424.634 93.3672C425.19 93.5918 425.63 93.8652 425.952 94.1875C426.284 94.5098 426.558 94.876 426.772 95.2861C426.89 95.4912 426.978 95.833 427.036 96.3115C427.104 96.7803 427.148 97.293 427.168 97.8496C427.197 98.4062 427.212 98.9189 427.212 99.3877V108.851H429.175V112H417.31ZM436.704 112V93.2207C436.841 93.1914 437.046 93.1572 437.319 93.1182C437.603 93.0791 437.93 93.0449 438.301 93.0156C438.916 92.957 439.565 92.9082 440.249 92.8691C440.942 92.8301 441.587 92.8105 442.183 92.8105C443.159 92.8105 443.955 92.8545 444.57 92.9424C445.195 93.0303 445.728 93.1719 446.167 93.3672C446.782 93.6309 447.285 94.0068 447.676 94.4951C448.066 94.9834 448.335 95.5547 448.481 96.209C448.569 96.5996 448.638 97.0537 448.687 97.5713C448.735 98.0791 448.76 98.6846 448.76 99.3877V112H436.704ZM440.615 108.851H444.849V99.373C444.849 98.9727 444.829 98.5771 444.79 98.1865C444.751 97.7959 444.678 97.4785 444.57 97.2344C444.473 96.9707 444.336 96.7607 444.16 96.6045C443.994 96.4385 443.794 96.3066 443.56 96.209C443.325 96.1113 443.091 96.0527 442.856 96.0332C442.622 96.0039 442.368 95.9893 442.095 95.9893C441.743 95.9893 441.47 95.9941 441.274 96.0039C441.079 96.0137 440.859 96.0283 440.615 96.0479V108.851ZM452.305 112.293C452.09 112.293 451.836 112.254 451.543 112.176C451.25 112.107 450.977 112.015 450.723 111.897V108.763C451.035 108.938 451.348 109.026 451.66 109.026C452.217 109.026 452.563 108.816 452.7 108.396C452.847 107.977 452.92 107.4 452.92 106.668V96.3555C452.695 96.375 452.466 96.4092 452.231 96.458C451.997 96.5068 451.763 96.5654 451.528 96.6338V93.5137C451.87 93.4355 452.363 93.3428 453.008 93.2354C453.652 93.1279 454.385 93.0303 455.205 92.9424C456.025 92.8545 456.865 92.8105 457.725 92.8105C458.457 92.8105 459.067 92.8301 459.556 92.8691C460.044 92.9082 460.459 92.9717 460.801 93.0596C461.152 93.1377 461.475 93.2402 461.768 93.3672C462.021 93.4746 462.256 93.5967 462.471 93.7334C462.686 93.8701 462.876 94.0215 463.042 94.1875C463.638 94.7344 464.004 95.4375 464.141 96.2969C464.287 97.1465 464.36 98.1768 464.36 99.3877V112H460.449V99.373C460.449 98.5527 460.371 97.9131 460.215 97.4541C460.059 96.9854 459.78 96.6533 459.38 96.458C459.155 96.2725 458.843 96.1406 458.442 96.0625C458.296 96.043 458.086 96.0283 457.812 96.0186C457.549 95.999 457.227 95.9941 456.846 96.0039V106.668C456.846 107.4 456.802 108.084 456.714 108.719C456.636 109.344 456.504 109.891 456.318 110.359C456.045 111.102 455.596 111.614 454.971 111.897C454.58 112.083 454.146 112.195 453.667 112.234C453.188 112.273 452.734 112.293 452.305 112.293ZM467.129 112V105.247C467.129 104.808 467.144 104.437 467.173 104.134C467.202 103.821 467.251 103.528 467.319 103.255C467.397 102.981 467.5 102.679 467.627 102.347C467.832 101.8 468.159 101.336 468.608 100.955C469.067 100.564 469.59 100.247 470.176 100.003L466.763 93.1035H471.245L475.317 102.273C475.464 102.166 475.591 102.034 475.698 101.878C475.806 101.712 475.898 101.521 475.977 101.307C476.045 101.102 476.094 100.882 476.123 100.647C476.162 100.403 476.182 100.159 476.182 99.915V93.1035H480.063V99.8711C480.063 100.604 479.99 101.282 479.844 101.907C479.697 102.532 479.473 103.055 479.17 103.475C478.984 103.777 478.672 104.095 478.232 104.427C477.803 104.759 477.3 105.027 476.724 105.232L479.917 112H475.405L471.641 103.035C471.533 103.143 471.436 103.27 471.348 103.416C471.27 103.562 471.206 103.724 471.157 103.899C471.05 104.28 470.996 104.715 470.996 105.203V112H467.129ZM487.915 112V93.2207C488.052 93.1914 488.257 93.1572 488.53 93.1182C488.813 93.0791 489.141 93.0449 489.512 93.0156C490.127 92.957 490.776 92.9082 491.46 92.8691C492.153 92.8301 492.798 92.8105 493.394 92.8105C494.37 92.8105 495.166 92.8545 495.781 92.9424C496.406 93.0303 496.938 93.1719 497.378 93.3672C497.993 93.6309 498.496 94.0068 498.887 94.4951C499.277 94.9834 499.546 95.5547 499.692 96.209C499.78 96.5996 499.849 97.0537 499.897 97.5713C499.946 98.0791 499.971 98.6846 499.971 99.3877V112H487.915ZM491.826 108.851H496.06V99.373C496.06 98.9727 496.04 98.5771 496.001 98.1865C495.962 97.7959 495.889 97.4785 495.781 97.2344C495.684 96.9707 495.547 96.7607 495.371 96.6045C495.205 96.4385 495.005 96.3066 494.771 96.209C494.536 96.1113 494.302 96.0527 494.067 96.0332C493.833 96.0039 493.579 95.9893 493.306 95.9893C492.954 95.9893 492.681 95.9941 492.485 96.0039C492.29 96.0137 492.07 96.0283 491.826 96.0479V108.851ZM502.725 112V105.247C502.725 104.808 502.739 104.437 502.769 104.134C502.798 103.821 502.847 103.528 502.915 103.255C502.993 102.981 503.096 102.679 503.223 102.347C503.428 101.8 503.755 101.336 504.204 100.955C504.663 100.564 505.186 100.247 505.771 100.003L502.358 93.1035H506.841L510.913 102.273C511.06 102.166 511.187 102.034 511.294 101.878C511.401 101.712 511.494 101.521 511.572 101.307C511.641 101.102 511.689 100.882 511.719 100.647C511.758 100.403 511.777 100.159 511.777 99.915V93.1035H515.659V99.8711C515.659 100.604 515.586 101.282 515.439 101.907C515.293 102.532 515.068 103.055 514.766 103.475C514.58 103.777 514.268 104.095 513.828 104.427C513.398 104.759 512.896 105.027 512.319 105.232L515.513 112H511.001L507.236 103.035C507.129 103.143 507.031 103.27 506.943 103.416C506.865 103.562 506.802 103.724 506.753 103.899C506.646 104.28 506.592 104.715 506.592 105.203V112H502.725ZM526.265 112V99.373C526.265 98.582 526.191 97.9326 526.045 97.4248C525.898 96.917 525.625 96.5508 525.225 96.3262C525.02 96.1895 524.771 96.1016 524.478 96.0625C524.185 96.0137 523.833 95.9893 523.423 95.9893C522.788 95.9893 522.08 96.0332 521.299 96.1211C520.527 96.1992 519.468 96.3408 518.12 96.5459V93.4404C518.403 93.3525 518.755 93.2744 519.175 93.2061C519.595 93.1377 520.078 93.0693 520.625 93.001C521.26 92.9229 521.821 92.874 522.31 92.8545C522.808 92.8252 523.271 92.8105 523.701 92.8105C524.717 92.8105 525.508 92.8545 526.074 92.9424C526.641 93.0303 527.144 93.1719 527.583 93.3672C527.808 93.4648 528.013 93.5674 528.198 93.6748C528.384 93.7725 528.555 93.8896 528.711 94.0264C529.375 94.5635 529.785 95.2617 529.941 96.1211C530.098 96.9805 530.176 98.0693 530.176 99.3877V112H526.265ZM518.12 112V99.9297H522.031V112H518.12ZM259.399 153V139.509C259.399 138.659 259.326 137.976 259.18 137.458C259.043 136.94 258.789 136.55 258.418 136.286C258.115 136.052 257.764 135.9 257.363 135.832C256.963 135.754 256.519 135.715 256.03 135.715C255.649 135.715 255.112 135.744 254.419 135.803C253.735 135.861 252.749 135.959 251.46 136.096V134.221C251.743 134.172 252.041 134.128 252.354 134.089C252.676 134.05 253.008 134.011 253.35 133.972C253.955 133.913 254.478 133.874 254.917 133.854C255.366 133.825 255.752 133.811 256.074 133.811C256.729 133.811 257.29 133.845 257.759 133.913C258.237 133.972 258.677 134.079 259.077 134.235C259.292 134.313 259.492 134.406 259.678 134.514C259.863 134.611 260.044 134.729 260.22 134.865C260.767 135.295 261.138 135.891 261.333 136.652C261.538 137.404 261.641 138.361 261.641 139.523V153H259.399ZM251.46 153V141.032H253.701V153H251.46ZM269.668 153C269.668 152.98 269.658 152.946 269.639 152.897C269.629 152.839 269.624 152.756 269.624 152.648C269.624 152.346 269.634 152.067 269.653 151.813C269.683 151.56 269.727 151.286 269.785 150.993C269.971 150.065 270.146 149.265 270.312 148.591C270.488 147.917 270.664 147.282 270.84 146.687C271.016 146.081 271.191 145.432 271.367 144.738L273.784 135.979H265.596V134.104H276.113V135.729L273.33 145.881C273.213 146.32 273.101 146.735 272.993 147.126C272.896 147.517 272.798 147.888 272.7 148.239C272.612 148.591 272.534 148.923 272.466 149.235C272.368 149.626 272.28 149.992 272.202 150.334C272.134 150.676 272.075 150.988 272.026 151.271C271.978 151.555 271.938 151.813 271.909 152.048C271.89 152.282 271.88 152.487 271.88 152.663V153H269.668ZM265.61 160.207V141.823H267.837V160.207H265.61ZM283.833 153.293C282.925 153.293 282.134 153.078 281.46 152.648C280.884 152.307 280.391 151.833 279.98 151.228C279.58 150.612 279.248 149.88 278.984 149.03C278.76 148.278 278.589 147.434 278.472 146.496C278.364 145.559 278.311 144.548 278.311 143.464C278.311 142.292 278.384 141.247 278.53 140.329C278.687 139.411 278.921 138.596 279.233 137.883C279.546 137.17 279.941 136.53 280.42 135.964L280.464 135.861L278.589 135.979V134.089C279.263 134.03 279.897 133.981 280.493 133.942C281.089 133.894 281.67 133.859 282.236 133.84C282.803 133.82 283.384 133.811 283.979 133.811C284.458 133.811 284.907 133.884 285.327 134.03C285.747 134.167 286.138 134.362 286.499 134.616C286.89 134.899 287.251 135.275 287.583 135.744C287.915 136.203 288.198 136.755 288.433 137.399C288.726 138.151 288.945 139.045 289.092 140.08C289.248 141.105 289.326 142.263 289.326 143.552C289.326 144.636 289.268 145.642 289.15 146.569C289.043 147.487 288.877 148.317 288.652 149.06C288.447 149.724 288.193 150.314 287.891 150.832C287.598 151.35 287.256 151.789 286.865 152.15C286.055 152.912 285.044 153.293 283.833 153.293ZM283.804 151.359C284.282 151.359 284.702 151.242 285.063 151.008C285.435 150.764 285.776 150.358 286.089 149.792C286.294 149.401 286.465 148.903 286.602 148.298C286.748 147.683 286.855 146.979 286.924 146.188C286.992 145.397 287.026 144.528 287.026 143.581C287.026 142.097 286.943 140.827 286.777 139.772C286.621 138.708 286.387 137.888 286.074 137.312C285.781 136.765 285.454 136.369 285.093 136.125C284.731 135.871 284.331 135.744 283.892 135.744C283.657 135.754 283.433 135.764 283.218 135.773C283.003 135.783 282.783 135.798 282.559 135.817C281.816 136.628 281.304 137.639 281.021 138.85C280.747 140.061 280.61 141.516 280.61 143.215C280.61 144.924 280.688 146.311 280.845 147.375C281.011 148.43 281.245 149.24 281.548 149.807C281.841 150.354 282.168 150.749 282.529 150.993C282.9 151.237 283.325 151.359 283.804 151.359ZM296.87 153.293C296.509 153.293 296.133 153.278 295.742 153.249C295.361 153.229 294.995 153.2 294.644 153.161C294.292 153.132 293.989 153.093 293.735 153.044L293.281 152.956V150.993C293.936 151.12 294.561 151.213 295.156 151.271C295.762 151.33 296.382 151.359 297.017 151.359C297.378 151.359 297.72 151.271 298.042 151.096C298.374 150.91 298.687 150.617 298.979 150.217C299.126 150.021 299.258 149.797 299.375 149.543C299.492 149.289 299.6 149.016 299.697 148.723C299.902 148.098 300.054 147.355 300.151 146.496C300.259 145.627 300.312 144.66 300.312 143.596C300.312 142.658 300.283 141.813 300.225 141.062C300.166 140.3 300.078 139.636 299.961 139.069C299.883 138.698 299.795 138.366 299.697 138.073C299.6 137.78 299.492 137.521 299.375 137.297C299.062 136.721 298.721 136.32 298.35 136.096C297.979 135.861 297.554 135.744 297.075 135.744C296.577 135.744 296.123 135.886 295.713 136.169C295.312 136.452 294.995 136.823 294.761 137.282C294.507 137.761 294.321 138.259 294.204 138.776C294.087 139.294 294.028 139.831 294.028 140.388C294.028 141.14 294.092 141.809 294.219 142.395C294.346 142.98 294.541 143.444 294.805 143.786C295.02 144.079 295.293 144.318 295.625 144.504C295.967 144.689 296.372 144.797 296.841 144.826L297.163 144.855L296.753 146.613L296.445 146.584C295.918 146.574 295.42 146.486 294.951 146.32C294.482 146.145 294.077 145.915 293.735 145.632C293.53 145.476 293.335 145.29 293.149 145.075C292.964 144.851 292.803 144.611 292.666 144.357C292.422 143.889 292.222 143.322 292.065 142.658C291.919 141.994 291.846 141.247 291.846 140.417C291.846 139.44 291.968 138.547 292.212 137.736C292.466 136.926 292.837 136.223 293.325 135.627C293.794 135.041 294.351 134.592 294.995 134.279C295.64 133.967 296.333 133.811 297.075 133.811C297.661 133.811 298.188 133.894 298.657 134.06C299.126 134.226 299.541 134.445 299.902 134.719C300.273 135.012 300.62 135.393 300.942 135.861C301.265 136.33 301.538 136.877 301.763 137.502C302.036 138.244 302.246 139.123 302.393 140.139C302.539 141.154 302.612 142.292 302.612 143.552C302.612 144.821 302.529 145.969 302.363 146.994C302.207 148.01 301.982 148.894 301.689 149.646C301.445 150.261 301.157 150.798 300.825 151.257C300.493 151.706 300.137 152.082 299.756 152.385C299.395 152.648 298.979 152.863 298.511 153.029C298.042 153.205 297.495 153.293 296.87 153.293ZM313.804 153V139.509C313.804 138.659 313.73 137.976 313.584 137.458C313.447 136.94 313.193 136.55 312.822 136.286C312.52 136.052 312.168 135.9 311.768 135.832C311.367 135.754 310.923 135.715 310.435 135.715C310.054 135.715 309.517 135.744 308.823 135.803C308.14 135.861 307.153 135.959 305.864 136.096V134.221C306.147 134.172 306.445 134.128 306.758 134.089C307.08 134.05 307.412 134.011 307.754 133.972C308.359 133.913 308.882 133.874 309.321 133.854C309.771 133.825 310.156 133.811 310.479 133.811C311.133 133.811 311.694 133.845 312.163 133.913C312.642 133.972 313.081 134.079 313.481 134.235C313.696 134.313 313.896 134.406 314.082 134.514C314.268 134.611 314.448 134.729 314.624 134.865C315.171 135.295 315.542 135.891 315.737 136.652C315.942 137.404 316.045 138.361 316.045 139.523V153H313.804ZM305.864 153V141.032H308.105V153H305.864ZM319.282 153V151.125H325.581V139.509C325.581 138.308 325.43 137.419 325.127 136.843C324.824 136.267 324.302 135.92 323.56 135.803C323.394 135.773 323.213 135.754 323.018 135.744C322.832 135.725 322.642 135.715 322.446 135.715C321.87 135.715 321.367 135.729 320.938 135.759C320.518 135.778 319.961 135.827 319.268 135.905V133.986C319.795 133.928 320.303 133.884 320.791 133.854C321.279 133.825 321.758 133.811 322.227 133.811C322.881 133.811 323.428 133.835 323.867 133.884C324.307 133.933 324.692 134.011 325.024 134.118C325.483 134.265 325.884 134.47 326.226 134.733C326.577 134.987 326.865 135.295 327.09 135.656C327.256 135.91 327.393 136.242 327.5 136.652C327.607 137.053 327.686 137.502 327.734 138C327.783 138.488 327.808 138.996 327.808 139.523V151.125H329.302V153H319.282ZM337.3 153V134.147C337.505 134.118 337.725 134.094 337.959 134.074C338.203 134.045 338.452 134.021 338.706 134.001C339.341 133.942 339.927 133.898 340.464 133.869C341.001 133.83 341.46 133.811 341.841 133.811C342.651 133.811 343.345 133.85 343.921 133.928C344.507 134.006 345.024 134.143 345.474 134.338C345.942 134.543 346.304 134.816 346.558 135.158C346.812 135.5 347.007 135.915 347.144 136.403C347.251 136.774 347.334 137.209 347.393 137.707C347.451 138.205 347.48 138.771 347.48 139.406V153H337.3ZM339.541 151.125H345.239V139.392C345.239 138.854 345.215 138.381 345.166 137.971C345.127 137.561 345.054 137.233 344.946 136.989C344.829 136.696 344.688 136.472 344.521 136.315C344.355 136.149 344.121 136.022 343.818 135.935C343.516 135.837 343.203 135.778 342.881 135.759C342.559 135.729 342.173 135.715 341.724 135.715C341.421 135.715 341.094 135.725 340.742 135.744C340.391 135.764 339.99 135.798 339.541 135.847V151.125ZM351.26 146.159V134.104H353.486V143.83L351.846 146.159H351.26ZM361.851 153V139.509C361.851 138.679 361.797 138.015 361.689 137.517C361.592 137.009 361.396 136.618 361.104 136.345C360.84 136.091 360.513 135.925 360.122 135.847C359.741 135.759 359.302 135.715 358.804 135.715C358.54 135.715 358.228 135.725 357.866 135.744C357.505 135.754 357.144 135.773 356.782 135.803C356.421 135.832 356.108 135.861 355.845 135.891V133.986C356.333 133.928 356.807 133.884 357.266 133.854C357.725 133.825 358.164 133.811 358.584 133.811C359.365 133.811 360.01 133.845 360.518 133.913C361.025 133.981 361.484 134.099 361.895 134.265C362.285 134.421 362.607 134.631 362.861 134.895C363.125 135.148 363.35 135.471 363.535 135.861C363.74 136.281 363.882 136.799 363.96 137.414C364.038 138.02 364.077 138.723 364.077 139.523V153H361.851ZM367.871 146.159V134.104H370.098V143.83L368.457 146.159H367.871ZM374.521 153L372.954 134.104H375.107L375.972 144.504C376.45 144.318 376.86 144.089 377.202 143.815C377.544 143.532 377.837 143.181 378.081 142.761C378.364 142.272 378.584 141.682 378.74 140.988C378.906 140.295 379.038 139.465 379.136 138.498L379.531 134.104H381.626L381.201 138.938C381.104 140.002 380.962 140.9 380.776 141.633C380.591 142.355 380.332 143.034 380 143.669C379.609 144.343 379.116 144.895 378.521 145.324C377.925 145.754 377.178 146.091 376.279 146.335C376.26 146.335 376.235 146.34 376.206 146.35C376.177 146.35 376.147 146.35 376.118 146.35L376.528 151.096H377.319C378.394 151.096 379.375 150.876 380.264 150.437C381.162 149.987 381.924 149.362 382.549 148.562C383.789 146.979 384.531 144.909 384.775 142.351L385.537 134.104H387.661L386.885 142.351C386.777 143.571 386.567 144.719 386.255 145.793C385.952 146.867 385.537 147.824 385.01 148.664C384.59 149.426 384.067 150.119 383.442 150.744C382.827 151.359 382.075 151.857 381.187 152.238C380.63 152.492 380.024 152.683 379.37 152.81C378.716 152.937 378.032 153 377.319 153H374.521ZM395.732 153.103C395.547 153.103 395.342 153.083 395.117 153.044C394.893 153.005 394.668 152.951 394.443 152.883V150.949C394.844 151.066 395.146 151.125 395.352 151.125C395.801 151.125 396.094 150.949 396.23 150.598C396.367 150.236 396.436 149.782 396.436 149.235V135.993C396.23 136.003 396.021 136.022 395.806 136.052C395.601 136.081 395.396 136.115 395.19 136.154V134.265C395.571 134.196 396.05 134.128 396.626 134.06C397.212 133.991 397.817 133.933 398.442 133.884C399.067 133.835 399.644 133.811 400.171 133.811C400.874 133.811 401.45 133.83 401.899 133.869C402.349 133.898 402.729 133.957 403.042 134.045C403.364 134.133 403.672 134.245 403.965 134.382C404.189 134.499 404.395 134.631 404.58 134.777C404.766 134.924 404.937 135.09 405.093 135.275C405.483 135.734 405.752 136.315 405.898 137.019C406.045 137.722 406.118 138.557 406.118 139.523V153H403.877V139.509C403.877 138.356 403.73 137.512 403.438 136.975C403.145 136.428 402.651 136.076 401.958 135.92C401.665 135.822 401.313 135.759 400.903 135.729C400.728 135.729 400.454 135.734 400.083 135.744C399.712 135.744 399.243 135.759 398.677 135.788V149.235C398.677 149.724 398.647 150.173 398.589 150.583C398.53 150.983 398.447 151.335 398.34 151.638C398.135 152.204 397.803 152.6 397.344 152.824C397.109 152.932 396.851 153.005 396.567 153.044C396.294 153.083 396.016 153.103 395.732 153.103ZM414.468 153V139.509C414.468 138.679 414.414 138.015 414.307 137.517C414.209 137.009 414.014 136.618 413.721 136.345C413.457 136.091 413.13 135.925 412.739 135.847C412.358 135.759 411.919 135.715 411.421 135.715C411.157 135.715 410.845 135.725 410.483 135.744C410.122 135.754 409.761 135.773 409.399 135.803C409.038 135.832 408.726 135.861 408.462 135.891V133.986C408.95 133.928 409.424 133.884 409.883 133.854C410.342 133.825 410.781 133.811 411.201 133.811C411.982 133.811 412.627 133.845 413.135 133.913C413.643 133.981 414.102 134.099 414.512 134.265C414.902 134.421 415.225 134.631 415.479 134.895C415.742 135.148 415.967 135.471 416.152 135.861C416.357 136.281 416.499 136.799 416.577 137.414C416.655 138.02 416.694 138.723 416.694 139.523V153H414.468ZM420.488 146.159V134.104H422.715V143.83L421.074 146.159H420.488ZM426.597 153V134.221C427.036 134.162 427.451 134.113 427.842 134.074C428.232 134.025 428.599 133.981 428.94 133.942C429.409 133.903 429.839 133.874 430.229 133.854C430.63 133.825 430.981 133.811 431.284 133.811C432.183 133.811 432.959 133.889 433.613 134.045C434.277 134.201 434.854 134.479 435.342 134.88C435.488 134.997 435.615 135.124 435.723 135.261C435.84 135.397 435.947 135.544 436.045 135.7C436.309 136.149 436.494 136.691 436.602 137.326C436.719 137.951 436.777 138.684 436.777 139.523V153H434.536V139.509C434.536 138.708 434.473 138.059 434.346 137.561C434.229 137.062 434.014 136.677 433.701 136.403C433.398 136.13 433.037 135.949 432.617 135.861C432.207 135.764 431.704 135.715 431.108 135.715C430.825 135.715 430.493 135.729 430.112 135.759C429.741 135.778 429.316 135.817 428.838 135.876V153H426.597ZM440.015 153V151.125H446.313V139.509C446.313 138.308 446.162 137.419 445.859 136.843C445.557 136.267 445.034 135.92 444.292 135.803C444.126 135.773 443.945 135.754 443.75 135.744C443.564 135.725 443.374 135.715 443.179 135.715C442.603 135.715 442.1 135.729 441.67 135.759C441.25 135.778 440.693 135.827 440 135.905V133.986C440.527 133.928 441.035 133.884 441.523 133.854C442.012 133.825 442.49 133.811 442.959 133.811C443.613 133.811 444.16 133.835 444.6 133.884C445.039 133.933 445.425 134.011 445.757 134.118C446.216 134.265 446.616 134.47 446.958 134.733C447.31 134.987 447.598 135.295 447.822 135.656C447.988 135.91 448.125 136.242 448.232 136.652C448.34 137.053 448.418 137.502 448.467 138C448.516 138.488 448.54 138.996 448.54 139.523V151.125H450.034V153H440.015Z" fill="#062841"/>
<rect x="181" y="226" width="144" height="57" rx="5" fill="#E96D5A"/>
<path d="M230.939 260.067H229.24L228.713 244.584H231.438L230.939 260.067ZM228.581 264.433C228.581 263.837 228.708 263.383 228.962 263.07C229.216 262.758 229.597 262.602 230.104 262.602C230.573 262.602 230.944 262.748 231.218 263.041C231.491 263.324 231.628 263.788 231.628 264.433C231.628 265.058 231.481 265.517 231.188 265.81C230.905 266.103 230.544 266.249 230.104 266.249C229.606 266.249 229.226 266.098 228.962 265.795C228.708 265.482 228.581 265.028 228.581 264.433ZM235.51 266V247.221C235.949 247.162 236.364 247.113 236.755 247.074C237.146 247.025 237.512 246.981 237.854 246.942C238.322 246.903 238.752 246.874 239.143 246.854C239.543 246.825 239.895 246.811 240.197 246.811C241.096 246.811 241.872 246.889 242.526 247.045C243.19 247.201 243.767 247.479 244.255 247.88C244.401 247.997 244.528 248.124 244.636 248.261C244.753 248.397 244.86 248.544 244.958 248.7C245.222 249.149 245.407 249.691 245.515 250.326C245.632 250.951 245.69 251.684 245.69 252.523V266H243.449V252.509C243.449 251.708 243.386 251.059 243.259 250.561C243.142 250.062 242.927 249.677 242.614 249.403C242.312 249.13 241.95 248.949 241.53 248.861C241.12 248.764 240.617 248.715 240.021 248.715C239.738 248.715 239.406 248.729 239.025 248.759C238.654 248.778 238.229 248.817 237.751 248.876V266H235.51ZM249.543 266V247.104H251.784V266H249.543ZM260.632 266.308C259.948 266.308 259.333 266.186 258.786 265.941C258.239 265.697 257.756 265.336 257.336 264.857C257.004 264.486 256.706 264.042 256.442 263.524C256.188 263.007 255.974 262.421 255.798 261.767C255.593 261.063 255.441 260.277 255.344 259.408C255.246 258.529 255.197 257.577 255.197 256.552V247.118H257.453V256.552C257.453 258.065 257.531 259.34 257.688 260.375C257.854 261.4 258.098 262.206 258.42 262.792C258.732 263.368 259.069 263.773 259.431 264.008C259.802 264.242 260.222 264.359 260.69 264.359C261.169 264.359 261.589 264.237 261.95 263.993C262.312 263.749 262.644 263.349 262.946 262.792C263.259 262.226 263.493 261.43 263.649 260.404C263.815 259.369 263.898 258.085 263.898 256.552C263.898 255.067 263.82 253.803 263.664 252.758C263.508 251.703 263.269 250.883 262.946 250.297C262.644 249.73 262.307 249.33 261.936 249.096C261.564 248.852 261.169 248.725 260.749 248.715C260.534 248.715 260.324 248.725 260.119 248.744C259.914 248.764 259.689 248.793 259.445 248.832V246.928C259.67 246.889 259.909 246.859 260.163 246.84C260.417 246.82 260.651 246.811 260.866 246.811C261.481 246.811 262.053 246.923 262.58 247.147C263.107 247.362 263.576 247.694 263.986 248.144C264.377 248.554 264.719 249.071 265.012 249.696C265.314 250.321 265.554 251.034 265.729 251.835C265.886 252.499 266.003 253.231 266.081 254.032C266.159 254.833 266.198 255.683 266.198 256.581C266.198 257.665 266.135 258.671 266.008 259.599C265.891 260.526 265.725 261.342 265.51 262.045C265.305 262.738 265.046 263.349 264.733 263.876C264.431 264.403 264.089 264.833 263.708 265.165C263.269 265.565 262.785 265.854 262.258 266.029C261.74 266.215 261.198 266.308 260.632 266.308ZM268.879 266V264.125H275.178V252.509C275.178 251.308 275.026 250.419 274.724 249.843C274.421 249.267 273.898 248.92 273.156 248.803C272.99 248.773 272.81 248.754 272.614 248.744C272.429 248.725 272.238 248.715 272.043 248.715C271.467 248.715 270.964 248.729 270.534 248.759C270.114 248.778 269.558 248.827 268.864 248.905V246.986C269.392 246.928 269.899 246.884 270.388 246.854C270.876 246.825 271.354 246.811 271.823 246.811C272.478 246.811 273.024 246.835 273.464 246.884C273.903 246.933 274.289 247.011 274.621 247.118C275.08 247.265 275.48 247.47 275.822 247.733C276.174 247.987 276.462 248.295 276.687 248.656C276.853 248.91 276.989 249.242 277.097 249.652C277.204 250.053 277.282 250.502 277.331 251C277.38 251.488 277.404 251.996 277.404 252.523V264.125H278.898V266H268.879Z" fill="white"/>
<rect x="375.5" y="226.5" width="143" height="56" rx="4.5" fill="white"/>
<path d="M408.519 266V259.32C408.519 258.93 408.533 258.559 408.562 258.207C408.592 257.846 408.636 257.504 408.694 257.182C408.763 256.85 408.851 256.527 408.958 256.215C409.153 255.609 409.446 255.097 409.837 254.677C410.237 254.257 410.716 253.915 411.272 253.651L408.387 247.104H410.877L415.286 257.606C415.55 257.431 415.774 257.226 415.96 256.991C416.146 256.757 416.292 256.474 416.399 256.142C416.507 255.849 416.58 255.521 416.619 255.16C416.668 254.789 416.692 254.379 416.692 253.93V247.104H418.875V253.93C418.875 254.359 418.836 254.877 418.758 255.482C418.689 256.088 418.548 256.659 418.333 257.196C418.157 257.646 417.889 258.065 417.527 258.456C417.176 258.847 416.702 259.179 416.106 259.452L418.934 266H416.429L412.093 255.482C411.839 255.658 411.624 255.863 411.448 256.098C411.282 256.322 411.141 256.591 411.023 256.903C410.799 257.528 410.687 258.334 410.687 259.32V266H408.519ZM423.445 266L424.808 258.734L427.239 248.993H420.633V243.075H422.859V247.045H429.393V248.993L427.034 258.632L425.643 266H423.445ZM437.449 266V247.147C437.654 247.118 437.874 247.094 438.108 247.074C438.353 247.045 438.602 247.021 438.855 247.001C439.49 246.942 440.076 246.898 440.613 246.869C441.15 246.83 441.609 246.811 441.99 246.811C442.801 246.811 443.494 246.85 444.07 246.928C444.656 247.006 445.174 247.143 445.623 247.338C446.092 247.543 446.453 247.816 446.707 248.158C446.961 248.5 447.156 248.915 447.293 249.403C447.4 249.774 447.483 250.209 447.542 250.707C447.601 251.205 447.63 251.771 447.63 252.406V266H437.449ZM439.69 264.125H445.389V252.392C445.389 251.854 445.364 251.381 445.315 250.971C445.276 250.561 445.203 250.233 445.096 249.989C444.979 249.696 444.837 249.472 444.671 249.315C444.505 249.149 444.271 249.022 443.968 248.935C443.665 248.837 443.353 248.778 443.03 248.759C442.708 248.729 442.322 248.715 441.873 248.715C441.57 248.715 441.243 248.725 440.892 248.744C440.54 248.764 440.14 248.798 439.69 248.847V264.125ZM450.398 266V264.125H455.613L457.752 264.198L454.852 257.973L450.354 247.104H452.684L456.536 256.493L456.653 256.83C457.093 256.166 457.425 255.419 457.649 254.589C457.874 253.749 458.05 252.719 458.177 251.498L458.616 247.104H460.828L460.462 250.751C460.433 251.22 460.398 251.649 460.359 252.04C460.32 252.421 460.271 252.787 460.213 253.139C460.154 253.48 460.086 253.832 460.008 254.193C459.92 254.574 459.817 254.96 459.7 255.351C459.583 255.731 459.417 256.127 459.202 256.537C459.017 256.996 458.802 257.426 458.558 257.826C458.313 258.217 458.006 258.588 457.635 258.939L460.462 264.813V266H450.398ZM462.718 266.776V264.872L465.193 264.433C465.408 264.394 465.623 264.354 465.838 264.315C466.053 264.276 466.272 264.242 466.497 264.213L462.762 247.104H464.988L466.834 255.644L468.313 263.363C469.036 262.904 469.583 262.279 469.954 261.488C470.335 260.697 470.613 259.799 470.789 258.793C470.965 257.787 471.111 256.742 471.229 255.658L472.034 247.104H474.261L473.455 255.453C473.328 256.723 473.187 257.885 473.03 258.939C472.874 259.984 472.62 260.927 472.269 261.767C471.927 262.597 471.404 263.329 470.701 263.964C470.242 264.511 469.681 264.96 469.017 265.312C468.353 265.653 467.552 265.912 466.614 266.088C465.97 266.195 465.32 266.308 464.666 266.425C464.021 266.542 463.372 266.659 462.718 266.776ZM476.121 266V264.125H482.42V252.509C482.42 251.308 482.269 250.419 481.966 249.843C481.663 249.267 481.141 248.92 480.398 248.803C480.232 248.773 480.052 248.754 479.856 248.744C479.671 248.725 479.48 248.715 479.285 248.715C478.709 248.715 478.206 248.729 477.776 248.759C477.356 248.778 476.8 248.827 476.106 248.905V246.986C476.634 246.928 477.142 246.884 477.63 246.854C478.118 246.825 478.597 246.811 479.065 246.811C479.72 246.811 480.267 246.835 480.706 246.884C481.146 246.933 481.531 247.011 481.863 247.118C482.322 247.265 482.723 247.47 483.064 247.733C483.416 247.987 483.704 248.295 483.929 248.656C484.095 248.91 484.231 249.242 484.339 249.652C484.446 250.053 484.524 250.502 484.573 251C484.622 251.488 484.646 251.996 484.646 252.523V264.125H486.141V266H476.121Z" fill="#E96D5A"/>
<rect x="375.5" y="226.5" width="143" height="56" rx="4.5" stroke="#E96D5A"/>
<rect x="24.5" y="20.5" width="651" height="322" rx="9.5" stroke="#DBB65D"/>
</g>
<defs>
<filter id="filter0_d_47_16617" x="0" y="0" width="700" height="371" filterUnits="userSpaceOnUse" color-interpolation-filters="sRGB">
<feFlood flood-opacity="0" result="BackgroundImageFix"/>
<feColorMatrix in="SourceAlpha" type="matrix" values="0 0 0 0 0 0 0 0 0 0 0 0 0 0 0 0 0 0 127 0" result="hardAlpha"/>
<feOffset dy="4"/>
<feGaussianBlur stdDeviation="12"/>
<feComposite in2="hardAlpha" operator="out"/>
<feColorMatrix type="matrix" values="0 0 0 0 0.245573 0 0 0 0 0.594951 0 0 0 0 0.854167 0 0 0 0.15 0"/>
<feBlend mode="normal" in2="BackgroundImageFix" result="effect1_dropShadow_47_16617"/>
<feBlend mode="normal" in="SourceGraphic" in2="effect1_dropShadow_47_16617" result="shape"/>
</filter>
</defs>
</svg>
