<svg width="1091" height="745" viewBox="0 0 1091 745" fill="none" xmlns="http://www.w3.org/2000/svg">
<g filter="url(#filter0_d_224_1469)">
<rect x="24.5" y="20.5" width="1042" height="696" rx="9.5" fill="white" stroke="#DBB65D"/>
<path d="M696.717 175V159.848C696.717 158.898 696.629 158.119 696.453 157.51C696.277 156.9 695.949 156.461 695.469 156.191C695.223 156.027 694.924 155.922 694.572 155.875C694.221 155.816 693.799 155.787 693.307 155.787C692.545 155.787 691.695 155.84 690.758 155.945C689.832 156.039 688.561 156.209 686.943 156.455V152.729C687.283 152.623 687.705 152.529 688.209 152.447C688.713 152.365 689.293 152.283 689.949 152.201C690.711 152.107 691.385 152.049 691.971 152.025C692.568 151.99 693.125 151.973 693.641 151.973C694.859 151.973 695.809 152.025 696.488 152.131C697.168 152.236 697.771 152.406 698.299 152.641C698.568 152.758 698.814 152.881 699.037 153.01C699.26 153.127 699.465 153.268 699.652 153.432C700.449 154.076 700.941 154.914 701.129 155.945C701.316 156.977 701.41 158.283 701.41 159.865V175H696.717ZM686.943 175V160.516H691.637V175H686.943ZM704.697 175V171.221H711.869V159.848C711.869 158.664 711.723 157.75 711.43 157.105C711.148 156.449 710.615 156.045 709.83 155.893C709.643 155.857 709.443 155.834 709.232 155.822C709.021 155.799 708.84 155.787 708.688 155.787C707.82 155.787 707.123 155.805 706.596 155.84C706.08 155.875 705.441 155.957 704.68 156.086V152.254C705.383 152.16 706.068 152.09 706.736 152.043C707.404 151.996 708.084 151.973 708.775 151.973C709.936 151.973 710.885 152.031 711.623 152.148C712.361 152.266 712.982 152.43 713.486 152.641C714.154 152.91 714.682 153.238 715.068 153.625C715.467 154.012 715.795 154.451 716.053 154.943C716.193 155.189 716.299 155.6 716.369 156.174C716.451 156.736 716.504 157.352 716.527 158.02C716.562 158.688 716.58 159.303 716.58 159.865V171.221H718.936V175H704.697ZM728.656 175.387C727.848 175.387 727.109 175.264 726.441 175.018C725.785 174.783 725.193 174.432 724.666 173.963C724.197 173.553 723.77 173.055 723.383 172.469C723.008 171.883 722.668 171.215 722.363 170.465C722.023 169.586 721.76 168.572 721.572 167.424C721.396 166.264 721.309 165.01 721.309 163.662V152.359H726.072V163.645C726.072 165.215 726.137 166.51 726.266 167.529C726.406 168.537 726.623 169.352 726.916 169.973C727.197 170.582 727.496 170.998 727.812 171.221C728.141 171.432 728.492 171.537 728.867 171.537C729.312 171.537 729.693 171.414 730.01 171.168C730.338 170.91 730.625 170.512 730.871 169.973C731.141 169.398 731.34 168.613 731.469 167.617C731.609 166.609 731.68 165.285 731.68 163.645C731.68 162.203 731.615 160.943 731.486 159.865C731.369 158.787 731.164 157.943 730.871 157.334C730.613 156.783 730.314 156.391 729.975 156.156C729.646 155.91 729.301 155.787 728.938 155.787C728.773 155.787 728.598 155.793 728.41 155.805C728.234 155.816 727.988 155.846 727.672 155.893V152.131C727.941 152.072 728.258 152.031 728.621 152.008C728.996 151.984 729.301 151.973 729.535 151.973C730.32 151.973 731.07 152.131 731.785 152.447C732.512 152.752 733.162 153.244 733.736 153.924C734.182 154.439 734.592 155.09 734.967 155.875C735.354 156.66 735.658 157.527 735.881 158.477C736.08 159.262 736.227 160.111 736.32 161.025C736.414 161.928 736.461 162.836 736.461 163.75C736.461 165.062 736.361 166.305 736.162 167.477C735.963 168.648 735.705 169.639 735.389 170.447C735.084 171.232 734.703 171.924 734.246 172.521C733.801 173.107 733.355 173.582 732.91 173.945C732.23 174.484 731.521 174.859 730.783 175.07C730.045 175.281 729.336 175.387 728.656 175.387ZM749.732 175V159.848C749.732 158.898 749.645 158.119 749.469 157.51C749.293 156.9 748.965 156.461 748.484 156.191C748.238 156.027 747.939 155.922 747.588 155.875C747.236 155.816 746.814 155.787 746.322 155.787C745.561 155.787 744.711 155.84 743.773 155.945C742.848 156.039 741.576 156.209 739.959 156.455V152.729C740.299 152.623 740.721 152.529 741.225 152.447C741.729 152.365 742.309 152.283 742.965 152.201C743.727 152.107 744.4 152.049 744.986 152.025C745.584 151.99 746.141 151.973 746.656 151.973C747.875 151.973 748.824 152.025 749.504 152.131C750.184 152.236 750.787 152.406 751.314 152.641C751.584 152.758 751.83 152.881 752.053 153.01C752.275 153.127 752.48 153.268 752.668 153.432C753.465 154.076 753.957 154.914 754.145 155.945C754.332 156.977 754.426 158.283 754.426 159.865V175H749.732ZM739.959 175V160.516H744.652V175H739.959ZM764.674 175V152.324H769.367V175H764.674ZM779.369 175.352C778.9 175.352 778.361 175.328 777.752 175.281C777.143 175.246 776.568 175.199 776.029 175.141C775.49 175.082 775.092 175.029 774.834 174.982L774.219 174.859V170.922C775.367 171.121 776.381 171.273 777.26 171.379C778.139 171.484 779.018 171.537 779.896 171.537C780.213 171.537 780.523 171.402 780.828 171.133C781.133 170.852 781.396 170.459 781.619 169.955C781.748 169.697 781.854 169.422 781.936 169.129C782.018 168.824 782.082 168.502 782.129 168.162C782.223 167.588 782.299 166.92 782.357 166.158C782.416 165.396 782.445 164.623 782.445 163.838C782.445 162.842 782.422 161.969 782.375 161.219C782.328 160.457 782.252 159.795 782.146 159.232C782.088 158.822 782.012 158.465 781.918 158.16C781.836 157.855 781.742 157.58 781.637 157.334C781.355 156.713 781.045 156.303 780.705 156.104C780.365 155.893 780.002 155.787 779.615 155.787C779.182 155.787 778.801 155.887 778.473 156.086C778.156 156.285 777.898 156.555 777.699 156.895C777.465 157.293 777.295 157.738 777.189 158.23C777.096 158.723 777.049 159.244 777.049 159.795C777.049 160.193 777.09 160.633 777.172 161.113C777.254 161.582 777.371 161.951 777.523 162.221C777.676 162.537 777.916 162.842 778.244 163.135C778.584 163.428 779.018 163.615 779.545 163.697L780.213 163.82L779.316 167.512L778.402 167.389C777.863 167.354 777.289 167.23 776.68 167.02C776.07 166.809 775.566 166.574 775.168 166.316C774.922 166.164 774.664 165.977 774.395 165.754C774.125 165.52 773.891 165.273 773.691 165.016C773.328 164.535 773 163.861 772.707 162.994C772.426 162.127 772.285 161.113 772.285 159.953C772.285 158.723 772.479 157.592 772.865 156.561C773.252 155.529 773.826 154.65 774.588 153.924C775.279 153.268 776.053 152.781 776.908 152.465C777.775 152.137 778.654 151.973 779.545 151.973C780.447 151.973 781.244 152.113 781.936 152.395C782.627 152.664 783.201 152.975 783.658 153.326C784.092 153.678 784.537 154.152 784.994 154.75C785.451 155.348 785.838 156.045 786.154 156.842C786.459 157.627 786.711 158.605 786.91 159.777C787.109 160.949 787.209 162.25 787.209 163.68C787.209 165.051 787.115 166.311 786.928 167.459C786.74 168.596 786.477 169.586 786.137 170.43C785.832 171.215 785.457 171.906 785.012 172.504C784.578 173.102 784.133 173.588 783.676 173.963C783.254 174.303 782.703 174.619 782.023 174.912C781.344 175.205 780.459 175.352 779.369 175.352ZM790.479 167.336V152.324H795.137V162.818L792.254 167.336H790.479ZM806.088 175.352C805.045 175.352 804.119 175.158 803.311 174.771C802.42 174.396 801.664 173.84 801.043 173.102C800.434 172.363 799.93 171.484 799.531 170.465C799.156 169.48 798.881 168.385 798.705 167.178C798.529 165.971 798.441 164.699 798.441 163.363C798.441 162.273 798.559 161.266 798.793 160.34C799.027 159.402 799.338 158.582 799.725 157.879C800.123 157.164 800.545 156.602 800.99 156.191V156.033L798.67 156.209V152.465C799.35 152.359 800.047 152.271 800.762 152.201C801.477 152.131 802.297 152.078 803.223 152.043C804.16 151.996 805.279 151.973 806.58 151.973C807.26 151.973 807.898 152.096 808.496 152.342C809.105 152.588 809.65 152.916 810.131 153.326C810.564 153.689 810.992 154.17 811.414 154.768C811.836 155.365 812.205 156.062 812.521 156.859C812.861 157.691 813.125 158.682 813.312 159.83C813.5 160.967 813.594 162.244 813.594 163.662C813.594 164.869 813.512 166.012 813.348 167.09C813.195 168.156 812.967 169.141 812.662 170.043C812.346 170.934 811.947 171.736 811.467 172.451C810.986 173.154 810.43 173.729 809.797 174.174C808.766 174.959 807.529 175.352 806.088 175.352ZM805.965 171.537C806.41 171.537 806.797 171.42 807.125 171.186C807.465 170.939 807.764 170.535 808.021 169.973C808.221 169.516 808.379 168.965 808.496 168.32C808.613 167.676 808.695 166.967 808.742 166.193C808.801 165.42 808.83 164.611 808.83 163.768C808.83 162.291 808.76 161.008 808.619 159.918C808.49 158.816 808.285 157.961 808.004 157.352C807.77 156.848 807.494 156.461 807.178 156.191C806.873 155.922 806.568 155.787 806.264 155.787C805.971 155.799 805.713 155.816 805.49 155.84C805.279 155.852 805.045 155.887 804.787 155.945C804.178 156.801 803.768 157.826 803.557 159.021C803.346 160.217 803.24 161.658 803.24 163.346C803.24 165.033 803.305 166.428 803.434 167.529C803.574 168.619 803.762 169.439 803.996 169.99C804.219 170.529 804.488 170.922 804.805 171.168C805.121 171.414 805.508 171.537 805.965 171.537ZM817.092 175V152.324H821.785V175H817.092ZM835.514 175V159.848C835.514 158.898 835.426 158.119 835.25 157.51C835.074 156.9 834.746 156.461 834.266 156.191C834.02 156.027 833.721 155.922 833.369 155.875C833.018 155.816 832.596 155.787 832.104 155.787C831.342 155.787 830.492 155.84 829.555 155.945C828.629 156.039 827.357 156.209 825.74 156.455V152.729C826.08 152.623 826.502 152.529 827.006 152.447C827.51 152.365 828.09 152.283 828.746 152.201C829.508 152.107 830.182 152.049 830.768 152.025C831.365 151.99 831.922 151.973 832.438 151.973C833.656 151.973 834.605 152.025 835.285 152.131C835.965 152.236 836.568 152.406 837.096 152.641C837.365 152.758 837.611 152.881 837.834 153.01C838.057 153.127 838.262 153.268 838.449 153.432C839.246 154.076 839.738 154.914 839.926 155.945C840.113 156.977 840.207 158.283 840.207 159.865V175H835.514ZM825.74 175V160.516H830.434V175H825.74Z" fill="#062841"/>
<path fill-rule="evenodd" clip-rule="evenodd" d="M890.941 151.492C890.755 150.318 889.976 149.325 888.892 148.885L888.231 148.609C886.791 148.022 885.936 146.511 886.156 144.949L886.249 144.224C886.495 142.324 885.191 140.581 883.327 140.33C882.836 140.261 882.328 140.304 881.854 140.46L881.168 140.684C879.694 141.176 878.085 140.572 877.272 139.234L876.882 138.612C875.858 136.99 873.757 136.515 872.174 137.542C871.75 137.818 871.394 138.181 871.123 138.612L870.734 139.234C869.912 140.572 868.303 141.168 866.83 140.684L866.144 140.46C864.348 139.881 862.443 140.891 861.875 142.721C861.723 143.205 861.68 143.723 861.748 144.224L861.841 144.949C862.061 146.511 861.206 148.022 859.766 148.609L859.106 148.885C857.37 149.619 856.54 151.647 857.259 153.417C857.454 153.892 857.742 154.306 858.106 154.652L858.64 155.144C859.792 156.197 860.088 157.915 859.36 159.313L859.03 159.96C858.157 161.661 858.801 163.759 860.469 164.639C860.91 164.872 861.401 165.01 861.901 165.028L862.62 165.062C864.17 165.114 865.483 166.236 865.796 167.781L865.949 168.498C866.355 170.371 868.168 171.554 870.005 171.139C870.497 171.027 870.954 170.811 871.352 170.501L871.919 170.052C873.139 169.076 874.85 169.076 876.069 170.052L876.637 170.501C878.127 171.666 880.262 171.381 881.413 169.871C881.718 169.465 881.93 168.999 882.04 168.498L882.192 167.781C882.514 166.236 883.827 165.114 885.368 165.062L886.088 165.028C887.968 164.95 889.425 163.327 889.34 161.411C889.323 160.901 889.188 160.401 888.959 159.952L888.629 159.304C887.901 157.915 888.197 156.197 889.349 155.135L889.882 154.643C890.755 153.857 891.161 152.657 890.941 151.492Z" fill="#DBB65D"/>
<path fill-rule="evenodd" clip-rule="evenodd" d="M874 167.536C867.057 167.536 861.419 161.872 861.419 154.873C861.419 147.885 867.057 142.21 874 142.21C880.943 142.21 886.581 147.875 886.581 154.873C886.581 161.861 880.943 167.536 874 167.536Z" fill="white"/>
<path fill-rule="evenodd" clip-rule="evenodd" d="M874 143.714C867.874 143.714 862.914 148.707 862.914 154.873C862.914 161.039 867.874 166.032 874 166.032C880.126 166.032 885.087 161.039 885.087 154.873C885.087 148.707 880.126 143.714 874 143.714ZM880.495 152.126L873.93 159.836C873.343 160.598 872.247 160.739 871.48 160.147C871.4 160.087 871.321 160.017 871.251 159.936L867.525 155.746C866.878 155.024 866.938 153.921 867.655 153.269C868.372 152.617 869.468 152.678 870.115 153.4L872.526 156.107L877.855 149.85C878.483 149.118 879.578 149.028 880.305 149.66C881.042 150.281 881.122 151.394 880.495 152.126Z" fill="#335269"/>
<path fill-rule="evenodd" clip-rule="evenodd" d="M880.192 172.169C879.192 172.536 878.099 172.553 877.091 172.211L880.014 179L882.725 173.428L888.682 175.38L884.877 166.556C884.089 166.739 883.479 167.356 883.318 168.14L883.166 168.833C882.827 170.384 881.709 171.652 880.192 172.169Z" fill="#335269"/>
<path fill-rule="evenodd" clip-rule="evenodd" d="M863.123 166.556L859.318 175.38L865.275 173.428L867.986 179L870.909 172.211C868.452 173.02 865.792 171.719 864.97 169.308C864.919 169.15 864.877 169 864.834 168.841L864.682 168.149C864.521 167.365 863.911 166.748 863.123 166.556Z" fill="#335269"/>
<path d="M235.374 240.463C235.374 239.337 235.484 238.246 235.706 237.191C235.927 236.13 236.249 235.128 236.672 234.184C237.102 233.24 237.62 232.38 238.225 231.605H239.553C238.681 232.901 238.02 234.301 237.571 235.805C237.122 237.302 236.897 238.848 236.897 240.443C236.897 241.498 236.998 242.54 237.2 243.568C237.408 244.59 237.708 245.574 238.098 246.518C238.495 247.468 238.974 248.35 239.534 249.164H238.225C237.607 248.409 237.086 247.572 236.663 246.654C236.239 245.736 235.917 244.757 235.696 243.715C235.481 242.667 235.374 241.583 235.374 240.463ZM246.76 246V237.006C246.76 236.439 246.711 235.984 246.614 235.639C246.523 235.294 246.353 235.033 246.106 234.857C245.904 234.701 245.67 234.6 245.403 234.555C245.136 234.503 244.84 234.477 244.514 234.477C244.26 234.477 243.902 234.496 243.44 234.535C242.984 234.574 242.327 234.639 241.467 234.73V233.48C241.656 233.448 241.855 233.419 242.063 233.393C242.278 233.367 242.499 233.34 242.727 233.314C243.131 233.275 243.479 233.249 243.772 233.236C244.071 233.217 244.329 233.207 244.543 233.207C244.98 233.207 245.354 233.23 245.667 233.275C245.986 233.314 246.278 233.386 246.545 233.49C246.689 233.542 246.822 233.604 246.946 233.676C247.069 233.741 247.19 233.819 247.307 233.91C247.672 234.197 247.919 234.594 248.049 235.102C248.186 235.603 248.254 236.241 248.254 237.016V246H246.76ZM241.467 246V238.021H242.961V246H241.467ZM250.413 246V244.75H254.612V237.006C254.612 236.205 254.511 235.613 254.309 235.229C254.107 234.844 253.759 234.613 253.264 234.535C253.153 234.516 253.033 234.503 252.903 234.496C252.779 234.483 252.652 234.477 252.522 234.477C252.138 234.477 251.803 234.486 251.516 234.506C251.236 234.519 250.865 234.551 250.403 234.604V233.324C250.754 233.285 251.093 233.256 251.418 233.236C251.744 233.217 252.063 233.207 252.375 233.207C252.812 233.207 253.176 233.223 253.469 233.256C253.762 233.288 254.019 233.34 254.241 233.412C254.547 233.51 254.814 233.646 255.042 233.822C255.276 233.992 255.468 234.197 255.618 234.438C255.728 234.607 255.819 234.828 255.891 235.102C255.963 235.368 256.015 235.668 256.047 236C256.08 236.326 256.096 236.664 256.096 237.016V244.75H257.092V246H250.413ZM258.713 246V233.402H260.208V246H258.713ZM262.834 246V233.48C263.127 233.441 263.404 233.409 263.665 233.383C263.925 233.35 264.169 233.321 264.397 233.295C264.709 233.269 264.996 233.249 265.256 233.236C265.523 233.217 265.758 233.207 265.959 233.207C266.558 233.207 267.076 233.259 267.512 233.363C267.955 233.467 268.339 233.653 268.665 233.92C268.762 233.998 268.847 234.083 268.918 234.174C268.997 234.265 269.068 234.363 269.133 234.467C269.309 234.766 269.433 235.128 269.504 235.551C269.583 235.967 269.622 236.456 269.622 237.016V246H268.127V237.006C268.127 236.472 268.085 236.039 268 235.707C267.922 235.375 267.779 235.118 267.571 234.936C267.369 234.753 267.128 234.633 266.848 234.574C266.575 234.509 266.239 234.477 265.842 234.477C265.653 234.477 265.432 234.486 265.178 234.506C264.931 234.519 264.648 234.545 264.329 234.584V246H262.834ZM275.657 240.453C275.657 241.553 275.546 242.628 275.325 243.676C275.11 244.724 274.791 245.714 274.368 246.645C273.944 247.576 273.427 248.415 272.815 249.164H271.497C272.063 248.344 272.542 247.455 272.932 246.498C273.329 245.548 273.629 244.558 273.831 243.529C274.039 242.501 274.143 241.469 274.143 240.434C274.143 239.353 274.039 238.301 273.831 237.279C273.629 236.251 273.329 235.261 272.932 234.311C272.542 233.36 272.06 232.458 271.487 231.605H272.815C273.427 232.374 273.941 233.233 274.358 234.184C274.781 235.134 275.103 236.14 275.325 237.201C275.546 238.262 275.657 239.346 275.657 240.453ZM286.956 246V237.006C286.956 236.439 286.907 235.984 286.809 235.639C286.718 235.294 286.549 235.033 286.301 234.857C286.099 234.701 285.865 234.6 285.598 234.555C285.331 234.503 285.035 234.477 284.709 234.477C284.456 234.477 284.097 234.496 283.635 234.535C283.18 234.574 282.522 234.639 281.663 234.73V233.48C281.851 233.448 282.05 233.419 282.258 233.393C282.473 233.367 282.694 233.34 282.922 233.314C283.326 233.275 283.674 233.249 283.967 233.236C284.267 233.217 284.524 233.207 284.739 233.207C285.175 233.207 285.549 233.23 285.862 233.275C286.181 233.314 286.474 233.386 286.741 233.49C286.884 233.542 287.017 233.604 287.141 233.676C287.265 233.741 287.385 233.819 287.502 233.91C287.867 234.197 288.114 234.594 288.245 235.102C288.381 235.603 288.45 236.241 288.45 237.016V246H286.956ZM281.663 246V238.021H283.157V246H281.663ZM290.608 246V244.75H294.807V237.006C294.807 236.205 294.706 235.613 294.504 235.229C294.303 234.844 293.954 234.613 293.459 234.535C293.349 234.516 293.228 234.503 293.098 234.496C292.974 234.483 292.847 234.477 292.717 234.477C292.333 234.477 291.998 234.486 291.711 234.506C291.431 234.519 291.06 234.551 290.598 234.604V233.324C290.95 233.285 291.288 233.256 291.614 233.236C291.939 233.217 292.258 233.207 292.571 233.207C293.007 233.207 293.372 233.223 293.665 233.256C293.958 233.288 294.215 233.34 294.436 233.412C294.742 233.51 295.009 233.646 295.237 233.822C295.471 233.992 295.663 234.197 295.813 234.438C295.924 234.607 296.015 234.828 296.086 235.102C296.158 235.368 296.21 235.668 296.243 236C296.275 236.326 296.292 236.664 296.292 237.016V244.75H297.288V246H290.608ZM302.18 246.205C301.724 246.205 301.314 246.124 300.95 245.961C300.585 245.798 300.263 245.557 299.983 245.238C299.762 244.991 299.563 244.695 299.387 244.35C299.218 244.005 299.075 243.614 298.958 243.178C298.821 242.709 298.72 242.185 298.655 241.605C298.59 241.02 298.557 240.385 298.557 239.701V233.412H300.061V239.701C300.061 240.71 300.113 241.56 300.217 242.25C300.328 242.934 300.491 243.471 300.706 243.861C300.914 244.245 301.139 244.516 301.379 244.672C301.627 244.828 301.907 244.906 302.219 244.906C302.538 244.906 302.818 244.825 303.059 244.662C303.3 244.499 303.521 244.232 303.723 243.861C303.931 243.484 304.088 242.953 304.192 242.27C304.303 241.579 304.358 240.723 304.358 239.701C304.358 238.712 304.306 237.868 304.202 237.172C304.097 236.469 303.938 235.922 303.723 235.531C303.521 235.154 303.297 234.887 303.049 234.73C302.802 234.568 302.538 234.483 302.258 234.477C302.115 234.477 301.975 234.483 301.838 234.496C301.702 234.509 301.552 234.529 301.389 234.555V233.285C301.539 233.259 301.698 233.24 301.868 233.227C302.037 233.214 302.193 233.207 302.336 233.207C302.747 233.207 303.127 233.282 303.479 233.432C303.831 233.575 304.143 233.796 304.417 234.096C304.677 234.369 304.905 234.714 305.1 235.131C305.302 235.548 305.461 236.023 305.579 236.557C305.683 236.999 305.761 237.488 305.813 238.021C305.865 238.555 305.891 239.122 305.891 239.721C305.891 240.443 305.849 241.114 305.764 241.732C305.686 242.351 305.575 242.895 305.432 243.363C305.295 243.826 305.123 244.232 304.915 244.584C304.713 244.936 304.485 245.222 304.231 245.443C303.938 245.71 303.616 245.902 303.264 246.02C302.919 246.143 302.558 246.205 302.18 246.205ZM313.381 246V237.006C313.381 236.439 313.333 235.984 313.235 235.639C313.144 235.294 312.974 235.033 312.727 234.857C312.525 234.701 312.291 234.6 312.024 234.555C311.757 234.503 311.461 234.477 311.135 234.477C310.881 234.477 310.523 234.496 310.061 234.535C309.605 234.574 308.948 234.639 308.088 234.73V233.48C308.277 233.448 308.476 233.419 308.684 233.393C308.899 233.367 309.12 233.34 309.348 233.314C309.752 233.275 310.1 233.249 310.393 233.236C310.693 233.217 310.95 233.207 311.165 233.207C311.601 233.207 311.975 233.23 312.288 233.275C312.607 233.314 312.9 233.386 313.167 233.49C313.31 233.542 313.443 233.604 313.567 233.676C313.691 233.741 313.811 233.819 313.928 233.91C314.293 234.197 314.54 234.594 314.67 235.102C314.807 235.603 314.875 236.241 314.875 237.016V246H313.381ZM308.088 246V238.021H309.583V246H308.088ZM322.737 246V237.006C322.737 236.439 322.688 235.984 322.59 235.639C322.499 235.294 322.33 235.033 322.083 234.857C321.881 234.701 321.646 234.6 321.379 234.555C321.112 234.503 320.816 234.477 320.491 234.477C320.237 234.477 319.879 234.496 319.417 234.535C318.961 234.574 318.303 234.639 317.444 234.73V233.48C317.633 233.448 317.831 233.419 318.04 233.393C318.254 233.367 318.476 233.34 318.704 233.314C319.107 233.275 319.456 233.249 319.749 233.236C320.048 233.217 320.305 233.207 320.52 233.207C320.956 233.207 321.331 233.23 321.643 233.275C321.962 233.314 322.255 233.386 322.522 233.49C322.665 233.542 322.799 233.604 322.922 233.676C323.046 233.741 323.167 233.819 323.284 233.91C323.648 234.197 323.896 234.594 324.026 235.102C324.163 235.603 324.231 236.241 324.231 237.016V246H322.737ZM317.444 246V238.021H318.938V246H317.444ZM333.499 246V237.006C333.499 236.452 333.463 236.01 333.391 235.678C333.326 235.339 333.196 235.079 333 234.896C332.825 234.727 332.607 234.617 332.346 234.564C332.092 234.506 331.799 234.477 331.467 234.477C331.292 234.477 331.083 234.483 330.842 234.496C330.601 234.503 330.361 234.516 330.12 234.535C329.879 234.555 329.67 234.574 329.495 234.594V233.324C329.82 233.285 330.136 233.256 330.442 233.236C330.748 233.217 331.041 233.207 331.321 233.207C331.842 233.207 332.271 233.23 332.61 233.275C332.948 233.321 333.254 233.399 333.528 233.51C333.788 233.614 334.003 233.754 334.172 233.93C334.348 234.099 334.498 234.314 334.622 234.574C334.758 234.854 334.853 235.199 334.905 235.609C334.957 236.013 334.983 236.482 334.983 237.016V246H333.499ZM337.512 241.439V233.402H338.997V239.887L337.903 241.439H337.512ZM341.584 246V233.48C341.877 233.441 342.154 233.409 342.415 233.383C342.675 233.35 342.919 233.321 343.147 233.295C343.459 233.269 343.746 233.249 344.006 233.236C344.273 233.217 344.508 233.207 344.709 233.207C345.308 233.207 345.826 233.259 346.262 233.363C346.705 233.467 347.089 233.653 347.415 233.92C347.512 233.998 347.597 234.083 347.668 234.174C347.747 234.265 347.818 234.363 347.883 234.467C348.059 234.766 348.183 235.128 348.254 235.551C348.333 235.967 348.372 236.456 348.372 237.016V246H346.877V237.006C346.877 236.472 346.835 236.039 346.75 235.707C346.672 235.375 346.529 235.118 346.321 234.936C346.119 234.753 345.878 234.633 345.598 234.574C345.325 234.509 344.989 234.477 344.592 234.477C344.403 234.477 344.182 234.486 343.928 234.506C343.681 234.519 343.398 234.545 343.079 234.584V246H341.584ZM350.159 246L350.989 236.732C350.995 236.648 351.002 236.55 351.008 236.439C351.015 236.322 351.018 236.215 351.018 236.117C351.018 235.896 350.999 235.661 350.959 235.414C350.92 235.167 350.865 234.916 350.793 234.662C350.78 234.597 350.761 234.532 350.735 234.467C350.715 234.395 350.693 234.327 350.667 234.262C350.647 234.197 350.627 234.132 350.608 234.066C350.569 233.956 350.53 233.845 350.491 233.734C350.458 233.624 350.422 233.513 350.383 233.402H351.858C351.956 233.624 352.043 233.868 352.122 234.135C352.206 234.402 352.268 234.646 352.307 234.867H352.395C352.486 234.665 352.607 234.467 352.756 234.271C352.906 234.076 353.066 233.913 353.235 233.783C353.417 233.633 353.661 233.5 353.967 233.383C354.273 233.266 354.615 233.207 354.993 233.207C355.39 233.207 355.732 233.279 356.018 233.422C356.305 233.559 356.539 233.741 356.721 233.969C356.845 234.118 356.952 234.304 357.043 234.525C357.141 234.747 357.216 234.984 357.268 235.238C357.346 235.57 357.405 235.958 357.444 236.4C357.483 236.837 357.502 237.309 357.502 237.816V246H353.792V244.75H356.018V237.816C356.018 237.1 355.995 236.576 355.95 236.244C355.904 235.912 355.852 235.645 355.793 235.443C355.709 235.163 355.598 234.958 355.461 234.828C355.331 234.691 355.201 234.604 355.071 234.564C354.947 234.519 354.843 234.496 354.758 234.496C354.387 234.496 354.075 234.568 353.821 234.711C353.573 234.848 353.365 235.027 353.196 235.248C353.02 235.469 352.877 235.691 352.766 235.912C352.655 236.127 352.564 236.355 352.493 236.596L351.643 246H350.159Z" fill="#062841"/>
<circle cx="12.0264" cy="12.0264" r="12.0264" transform="matrix(-0.995396 -0.0958442 -0.0958442 0.995396 400 227.305)" fill="#335269"/>
<path d="M389.379 242.087L389.505 242.085L390.404 242.08L394.501 242.061L390.387 238.317L394.464 234.534L390.367 234.553L389.47 234.558H389.342L385.263 238.341L389.379 242.087Z" fill="#DBB65D"/>
<path d="M382.673 242.087L382.799 242.085L383.697 242.082L387.795 242.061L383.679 238.317L387.758 234.534L383.661 234.553L382.763 234.558L382.636 234.56L378.557 238.343L382.673 242.087Z" fill="#DBB65D"/>
<rect x="200.5" y="267.5" width="199" height="54" rx="4.5" fill="white" stroke="#335269"/>
<path d="M231.694 301.413L231.913 301.41L233.465 301.402L240.541 301.367L233.435 294.718L240.478 288L233.401 288.035L231.852 288.043H231.63L224.584 294.761L231.694 301.413Z" fill="#DBB65D"/>
<path d="M220.109 301.413L220.328 301.41L221.878 301.405L228.957 301.367L221.847 294.718L228.893 288L221.817 288.035L220.264 288.043L220.046 288.046L213 294.764L220.109 301.413Z" fill="#DBB65D"/>
<path d="M730.185 240.463C730.185 239.337 730.296 238.246 730.517 237.191C730.738 236.13 731.061 235.128 731.484 234.184C731.914 233.24 732.431 232.38 733.037 231.605H734.365C733.492 232.901 732.832 234.301 732.382 235.805C731.933 237.302 731.708 238.848 731.708 240.443C731.708 241.498 731.809 242.54 732.011 243.568C732.22 244.59 732.519 245.574 732.91 246.518C733.307 247.468 733.785 248.35 734.345 249.164H733.037C732.418 248.409 731.897 247.572 731.474 246.654C731.051 245.736 730.729 244.757 730.507 243.715C730.292 242.667 730.185 241.583 730.185 240.463ZM741.572 246V237.006C741.572 236.439 741.523 235.984 741.425 235.639C741.334 235.294 741.165 235.033 740.917 234.857C740.716 234.701 740.481 234.6 740.214 234.555C739.947 234.503 739.651 234.477 739.326 234.477C739.072 234.477 738.714 234.496 738.251 234.535C737.796 234.574 737.138 234.639 736.279 234.73V233.48C736.468 233.448 736.666 233.419 736.875 233.393C737.089 233.367 737.311 233.34 737.539 233.314C737.942 233.275 738.291 233.249 738.583 233.236C738.883 233.217 739.14 233.207 739.355 233.207C739.791 233.207 740.166 233.23 740.478 233.275C740.797 233.314 741.09 233.386 741.357 233.49C741.5 233.542 741.634 233.604 741.757 233.676C741.881 233.741 742.001 233.819 742.119 233.91C742.483 234.197 742.731 234.594 742.861 235.102C742.998 235.603 743.066 236.241 743.066 237.016V246H741.572ZM736.279 246V238.021H737.773V246H736.279ZM745.224 246V244.75H749.423V237.006C749.423 236.205 749.322 235.613 749.121 235.229C748.919 234.844 748.57 234.613 748.076 234.535C747.965 234.516 747.845 234.503 747.714 234.496C747.591 234.483 747.464 234.477 747.333 234.477C746.949 234.477 746.614 234.486 746.328 234.506C746.048 234.519 745.677 234.551 745.214 234.604V233.324C745.566 233.285 745.904 233.256 746.23 233.236C746.556 233.217 746.875 233.207 747.187 233.207C747.623 233.207 747.988 233.223 748.281 233.256C748.574 233.288 748.831 233.34 749.052 233.412C749.358 233.51 749.625 233.646 749.853 233.822C750.087 233.992 750.279 234.197 750.429 234.438C750.54 234.607 750.631 234.828 750.703 235.102C750.774 235.368 750.826 235.668 750.859 236C750.891 236.326 750.908 236.664 750.908 237.016V244.75H751.904V246H745.224ZM753.525 246V233.402H755.019V246H753.525ZM757.646 246V233.48C757.939 233.441 758.216 233.409 758.476 233.383C758.736 233.35 758.981 233.321 759.208 233.295C759.521 233.269 759.807 233.249 760.068 233.236C760.335 233.217 760.569 233.207 760.771 233.207C761.37 233.207 761.888 233.259 762.324 233.363C762.766 233.467 763.151 233.653 763.476 233.92C763.574 233.998 763.658 234.083 763.73 234.174C763.808 234.265 763.88 234.363 763.945 234.467C764.121 234.766 764.244 235.128 764.316 235.551C764.394 235.967 764.433 236.456 764.433 237.016V246H762.939V237.006C762.939 236.472 762.897 236.039 762.812 235.707C762.734 235.375 762.591 235.118 762.382 234.936C762.181 234.753 761.94 234.633 761.66 234.574C761.386 234.509 761.051 234.477 760.654 234.477C760.465 234.477 760.244 234.486 759.99 234.506C759.742 234.519 759.459 234.545 759.14 234.584V246H757.646ZM770.468 240.453C770.468 241.553 770.358 242.628 770.136 243.676C769.921 244.724 769.602 245.714 769.179 246.645C768.756 247.576 768.238 248.415 767.626 249.164H766.308C766.875 248.344 767.353 247.455 767.744 246.498C768.141 245.548 768.44 244.558 768.642 243.529C768.85 242.501 768.955 241.469 768.955 240.434C768.955 239.353 768.85 238.301 768.642 237.279C768.44 236.251 768.141 235.261 767.744 234.311C767.353 233.36 766.871 232.458 766.298 231.605H767.626C768.238 232.374 768.753 233.233 769.169 234.184C769.593 235.134 769.915 236.14 770.136 237.201C770.358 238.262 770.468 239.346 770.468 240.453ZM781.767 246V237.006C781.767 236.439 781.718 235.984 781.621 235.639C781.529 235.294 781.36 235.033 781.113 234.857C780.911 234.701 780.677 234.6 780.41 234.555C780.143 234.503 779.847 234.477 779.521 234.477C779.267 234.477 778.909 234.496 778.447 234.535C777.991 234.574 777.333 234.639 776.474 234.73V233.48C776.663 233.448 776.861 233.419 777.07 233.393C777.285 233.367 777.506 233.34 777.734 233.314C778.138 233.275 778.486 233.249 778.779 233.236C779.078 233.217 779.335 233.207 779.55 233.207C779.986 233.207 780.361 233.23 780.673 233.275C780.992 233.314 781.285 233.386 781.552 233.49C781.695 233.542 781.829 233.604 781.953 233.676C782.076 233.741 782.197 233.819 782.314 233.91C782.679 234.197 782.926 234.594 783.056 235.102C783.193 235.603 783.261 236.241 783.261 237.016V246H781.767ZM776.474 246V238.021H777.968V246H776.474ZM785.419 246V244.75H789.619V237.006C789.619 236.205 789.518 235.613 789.316 235.229C789.114 234.844 788.766 234.613 788.271 234.535C788.16 234.516 788.04 234.503 787.91 234.496C787.786 234.483 787.659 234.477 787.529 234.477C787.145 234.477 786.809 234.486 786.523 234.506C786.243 234.519 785.872 234.551 785.41 234.604V233.324C785.761 233.285 786.1 233.256 786.425 233.236C786.751 233.217 787.07 233.207 787.382 233.207C787.819 233.207 788.183 233.223 788.476 233.256C788.769 233.288 789.026 233.34 789.248 233.412C789.554 233.51 789.82 233.646 790.048 233.822C790.283 233.992 790.475 234.197 790.625 234.438C790.735 234.607 790.826 234.828 790.898 235.102C790.97 235.368 791.022 235.668 791.054 236C791.087 236.326 791.103 236.664 791.103 237.016V244.75H792.099V246H785.419ZM796.992 246.205C796.536 246.205 796.126 246.124 795.761 245.961C795.397 245.798 795.074 245.557 794.794 245.238C794.573 244.991 794.375 244.695 794.199 244.35C794.029 244.005 793.886 243.614 793.769 243.178C793.632 242.709 793.531 242.185 793.466 241.605C793.401 241.02 793.369 240.385 793.369 239.701V233.412H794.873V239.701C794.873 240.71 794.925 241.56 795.029 242.25C795.139 242.934 795.302 243.471 795.517 243.861C795.725 244.245 795.95 244.516 796.191 244.672C796.438 244.828 796.718 244.906 797.031 244.906C797.35 244.906 797.63 244.825 797.871 244.662C798.111 244.499 798.333 244.232 798.535 243.861C798.743 243.484 798.899 242.953 799.003 242.27C799.114 241.579 799.169 240.723 799.169 239.701C799.169 238.712 799.117 237.868 799.013 237.172C798.909 236.469 798.75 235.922 798.535 235.531C798.333 235.154 798.108 234.887 797.861 234.73C797.613 234.568 797.35 234.483 797.07 234.477C796.927 234.477 796.787 234.483 796.65 234.496C796.513 234.509 796.363 234.529 796.201 234.555V233.285C796.35 233.259 796.51 233.24 796.679 233.227C796.848 233.214 797.005 233.207 797.148 233.207C797.558 233.207 797.939 233.282 798.291 233.432C798.642 233.575 798.955 233.796 799.228 234.096C799.488 234.369 799.716 234.714 799.912 235.131C800.113 235.548 800.273 236.023 800.39 236.557C800.494 236.999 800.572 237.488 800.625 238.021C800.677 238.555 800.703 239.122 800.703 239.721C800.703 240.443 800.66 241.114 800.576 241.732C800.498 242.351 800.387 242.895 800.244 243.363C800.107 243.826 799.934 244.232 799.726 244.584C799.524 244.936 799.296 245.222 799.042 245.443C798.75 245.71 798.427 245.902 798.076 246.02C797.731 246.143 797.369 246.205 796.992 246.205ZM808.193 246V237.006C808.193 236.439 808.144 235.984 808.046 235.639C807.955 235.294 807.786 235.033 807.539 234.857C807.337 234.701 807.102 234.6 806.835 234.555C806.569 234.503 806.272 234.477 805.947 234.477C805.693 234.477 805.335 234.496 804.873 234.535C804.417 234.574 803.759 234.639 802.9 234.73V233.48C803.089 233.448 803.287 233.419 803.496 233.393C803.71 233.367 803.932 233.34 804.16 233.314C804.563 233.275 804.912 233.249 805.205 233.236C805.504 233.217 805.761 233.207 805.976 233.207C806.412 233.207 806.787 233.23 807.099 233.275C807.418 233.314 807.711 233.386 807.978 233.49C808.121 233.542 808.255 233.604 808.378 233.676C808.502 233.741 808.623 233.819 808.74 233.91C809.104 234.197 809.352 234.594 809.482 235.102C809.619 235.603 809.687 236.241 809.687 237.016V246H808.193ZM802.9 246V238.021H804.394V246H802.9ZM817.548 246V237.006C817.548 236.439 817.5 235.984 817.402 235.639C817.311 235.294 817.141 235.033 816.894 234.857C816.692 234.701 816.458 234.6 816.191 234.555C815.924 234.503 815.628 234.477 815.302 234.477C815.048 234.477 814.69 234.496 814.228 234.535C813.772 234.574 813.115 234.639 812.255 234.73V233.48C812.444 233.448 812.643 233.419 812.851 233.393C813.066 233.367 813.287 233.34 813.515 233.314C813.919 233.275 814.267 233.249 814.56 233.236C814.86 233.217 815.117 233.207 815.332 233.207C815.768 233.207 816.142 233.23 816.455 233.275C816.774 233.314 817.067 233.386 817.333 233.49C817.477 233.542 817.61 233.604 817.734 233.676C817.858 233.741 817.978 233.819 818.095 233.91C818.46 234.197 818.707 234.594 818.837 235.102C818.974 235.603 819.042 236.241 819.042 237.016V246H817.548ZM812.255 246V238.021H813.75V246H812.255ZM825.078 246.068C824.954 246.068 824.817 246.055 824.667 246.029C824.518 246.003 824.368 245.967 824.218 245.922V244.633C824.485 244.711 824.687 244.75 824.824 244.75C825.123 244.75 825.319 244.633 825.41 244.398C825.501 244.158 825.546 243.855 825.546 243.49V234.662C825.41 234.669 825.27 234.682 825.126 234.701C824.99 234.721 824.853 234.743 824.716 234.77V233.51C824.97 233.464 825.289 233.419 825.673 233.373C826.064 233.327 826.468 233.288 826.884 233.256C827.301 233.223 827.685 233.207 828.037 233.207C828.505 233.207 828.889 233.22 829.189 233.246C829.488 233.266 829.742 233.305 829.951 233.363C830.166 233.422 830.371 233.497 830.566 233.588C830.716 233.666 830.852 233.754 830.976 233.852C831.1 233.949 831.214 234.06 831.318 234.184C831.578 234.49 831.757 234.877 831.855 235.346C831.953 235.814 832.001 236.371 832.001 237.016V246H830.507V237.006C830.507 236.238 830.41 235.674 830.214 235.316C830.019 234.952 829.69 234.717 829.228 234.613C829.033 234.548 828.798 234.506 828.525 234.486C828.408 234.486 828.225 234.49 827.978 234.496C827.731 234.496 827.418 234.506 827.041 234.525V243.49C827.041 243.816 827.021 244.115 826.982 244.389C826.943 244.656 826.888 244.89 826.816 245.092C826.679 245.469 826.458 245.733 826.152 245.883C825.996 245.954 825.823 246.003 825.634 246.029C825.452 246.055 825.266 246.068 825.078 246.068ZM837.568 246V237.006C837.568 236.452 837.532 236.01 837.46 235.678C837.395 235.339 837.265 235.079 837.07 234.896C836.894 234.727 836.676 234.617 836.416 234.564C836.162 234.506 835.869 234.477 835.537 234.477C835.361 234.477 835.153 234.483 834.912 234.496C834.671 234.503 834.43 234.516 834.189 234.535C833.948 234.555 833.74 234.574 833.564 234.594V233.324C833.889 233.285 834.205 233.256 834.511 233.236C834.817 233.217 835.11 233.207 835.39 233.207C835.911 233.207 836.341 233.23 836.679 233.275C837.018 233.321 837.324 233.399 837.597 233.51C837.858 233.614 838.072 233.754 838.242 233.93C838.417 234.099 838.567 234.314 838.691 234.574C838.828 234.854 838.922 235.199 838.974 235.609C839.026 236.013 839.052 236.482 839.052 237.016V246H837.568ZM841.367 246.068C841.243 246.068 841.106 246.055 840.957 246.029C840.807 246.003 840.657 245.967 840.507 245.922V244.633C840.774 244.711 840.976 244.75 841.113 244.75C841.412 244.75 841.608 244.633 841.699 244.398C841.79 244.158 841.835 243.855 841.835 243.49V234.662C841.699 234.669 841.559 234.682 841.416 234.701C841.279 234.721 841.142 234.743 841.005 234.77V233.51C841.259 233.464 841.578 233.419 841.962 233.373C842.353 233.327 842.757 233.288 843.173 233.256C843.59 233.223 843.974 233.207 844.326 233.207C844.794 233.207 845.179 233.22 845.478 233.246C845.778 233.266 846.031 233.305 846.24 233.363C846.455 233.422 846.66 233.497 846.855 233.588C847.005 233.666 847.141 233.754 847.265 233.852C847.389 233.949 847.503 234.06 847.607 234.184C847.867 234.49 848.046 234.877 848.144 235.346C848.242 235.814 848.291 236.371 848.291 237.016V246H846.796V237.006C846.796 236.238 846.699 235.674 846.503 235.316C846.308 234.952 845.979 234.717 845.517 234.613C845.322 234.548 845.087 234.506 844.814 234.486C844.697 234.486 844.514 234.49 844.267 234.496C844.02 234.496 843.707 234.506 843.33 234.525V243.49C843.33 243.816 843.31 244.115 843.271 244.389C843.232 244.656 843.177 244.89 843.105 245.092C842.968 245.469 842.747 245.733 842.441 245.883C842.285 245.954 842.112 246.003 841.923 246.029C841.741 246.055 841.556 246.068 841.367 246.068ZM850.869 246V233.402H852.363V246H850.869ZM855.986 246.195C855.654 246.195 855.345 246.173 855.058 246.127C854.778 246.088 854.482 246.016 854.169 245.912V244.574C854.326 244.639 854.495 244.698 854.677 244.75C854.86 244.796 855.052 244.831 855.253 244.857C855.462 244.883 855.68 244.896 855.908 244.896C856.253 244.896 856.536 244.828 856.757 244.691C856.985 244.555 857.174 244.385 857.324 244.184C857.46 243.988 857.568 243.78 857.646 243.559C857.724 243.337 857.779 243.139 857.812 242.963C857.89 242.585 857.942 242.237 857.968 241.918C857.994 241.599 858.007 241.238 858.007 240.834V238.9C858.007 238.093 857.952 237.4 857.841 236.82C857.737 236.234 857.578 235.759 857.363 235.395C857.194 235.115 856.988 234.903 856.748 234.76C856.507 234.61 856.22 234.535 855.888 234.535C855.641 234.535 855.403 234.561 855.175 234.613C854.954 234.659 854.703 234.737 854.423 234.848C854.378 234.867 854.329 234.887 854.277 234.906C854.231 234.919 854.182 234.936 854.13 234.955V233.539C854.208 233.5 854.29 233.467 854.375 233.441C854.466 233.409 854.557 233.383 854.648 233.363C854.856 233.311 855.068 233.272 855.283 233.246C855.498 233.22 855.719 233.207 855.947 233.207C856.396 233.207 856.8 233.272 857.158 233.402C857.516 233.533 857.832 233.725 858.105 233.979C858.352 234.2 858.564 234.47 858.74 234.789C858.916 235.102 859.059 235.45 859.169 235.834C859.248 236.114 859.313 236.423 859.365 236.762C859.423 237.094 859.466 237.442 859.492 237.807C859.518 238.171 859.531 238.536 859.531 238.9V240.834C859.531 241.452 859.492 242.022 859.414 242.543C859.335 243.057 859.222 243.523 859.072 243.939C858.903 244.408 858.681 244.805 858.408 245.131C858.141 245.456 857.812 245.714 857.421 245.902C857.213 246 856.985 246.072 856.738 246.117C856.49 246.169 856.24 246.195 855.986 246.195Z" fill="#062841"/>
<path d="M890.133 229.833H876.267C875.775 229.833 875.4 230.209 875.4 230.7V233.011C875.4 233.502 875.775 233.878 876.267 233.878C876.758 233.878 877.133 233.502 877.133 233.011V231.567H882.333V245.433H880.6C880.109 245.433 879.733 245.809 879.733 246.3C879.733 246.791 880.109 247.167 880.6 247.167H885.8C886.291 247.167 886.667 246.791 886.667 246.3C886.667 245.809 886.291 245.433 885.8 245.433H884.067V231.567H889.267V233.011C889.267 233.502 889.642 233.878 890.133 233.878C890.624 233.878 891 233.502 891 233.011V230.7C891 230.209 890.624 229.833 890.133 229.833Z" fill="#DBB65D"/>
<rect x="545.5" y="267.5" width="345" height="54" rx="4.5" fill="white" stroke="#335269"/>
<path d="M705.59 376.463C705.59 375.337 705.701 374.246 705.922 373.191C706.143 372.13 706.465 371.128 706.889 370.184C707.318 369.24 707.836 368.38 708.441 367.605H709.77C708.897 368.901 708.236 370.301 707.787 371.805C707.338 373.302 707.113 374.848 707.113 376.443C707.113 377.498 707.214 378.54 707.416 379.568C707.624 380.59 707.924 381.574 708.314 382.518C708.712 383.468 709.19 384.35 709.75 385.164H708.441C707.823 384.409 707.302 383.572 706.879 382.654C706.456 381.736 706.133 380.757 705.912 379.715C705.697 378.667 705.59 377.583 705.59 376.463ZM716.977 382V373.006C716.977 372.439 716.928 371.984 716.83 371.639C716.739 371.294 716.57 371.033 716.322 370.857C716.12 370.701 715.886 370.6 715.619 370.555C715.352 370.503 715.056 370.477 714.73 370.477C714.477 370.477 714.118 370.496 713.656 370.535C713.201 370.574 712.543 370.639 711.684 370.73V369.48C711.872 369.448 712.071 369.419 712.279 369.393C712.494 369.367 712.715 369.34 712.943 369.314C713.347 369.275 713.695 369.249 713.988 369.236C714.288 369.217 714.545 369.207 714.76 369.207C715.196 369.207 715.57 369.23 715.883 369.275C716.202 369.314 716.495 369.386 716.762 369.49C716.905 369.542 717.038 369.604 717.162 369.676C717.286 369.741 717.406 369.819 717.523 369.91C717.888 370.197 718.135 370.594 718.266 371.102C718.402 371.603 718.471 372.241 718.471 373.016V382H716.977ZM711.684 382V374.021H713.178V382H711.684ZM720.629 382V380.75H724.828V373.006C724.828 372.205 724.727 371.613 724.525 371.229C724.324 370.844 723.975 370.613 723.48 370.535C723.37 370.516 723.249 370.503 723.119 370.496C722.995 370.483 722.868 370.477 722.738 370.477C722.354 370.477 722.019 370.486 721.732 370.506C721.452 370.519 721.081 370.551 720.619 370.604V369.324C720.971 369.285 721.309 369.256 721.635 369.236C721.96 369.217 722.279 369.207 722.592 369.207C723.028 369.207 723.393 369.223 723.686 369.256C723.979 369.288 724.236 369.34 724.457 369.412C724.763 369.51 725.03 369.646 725.258 369.822C725.492 369.992 725.684 370.197 725.834 370.438C725.945 370.607 726.036 370.828 726.107 371.102C726.179 371.368 726.231 371.668 726.264 372C726.296 372.326 726.312 372.664 726.312 373.016V380.75H727.309V382H720.629ZM728.93 382V369.402H730.424V382H728.93ZM733.051 382V369.48C733.344 369.441 733.62 369.409 733.881 369.383C734.141 369.35 734.385 369.321 734.613 369.295C734.926 369.269 735.212 369.249 735.473 369.236C735.74 369.217 735.974 369.207 736.176 369.207C736.775 369.207 737.292 369.259 737.729 369.363C738.171 369.467 738.555 369.653 738.881 369.92C738.979 369.998 739.063 370.083 739.135 370.174C739.213 370.265 739.285 370.363 739.35 370.467C739.525 370.766 739.649 371.128 739.721 371.551C739.799 371.967 739.838 372.456 739.838 373.016V382H738.344V373.006C738.344 372.472 738.301 372.039 738.217 371.707C738.139 371.375 737.995 371.118 737.787 370.936C737.585 370.753 737.344 370.633 737.064 370.574C736.791 370.509 736.456 370.477 736.059 370.477C735.87 370.477 735.648 370.486 735.395 370.506C735.147 370.519 734.864 370.545 734.545 370.584V382H733.051ZM745.561 382V377.547C745.561 377.286 745.57 377.039 745.59 376.805C745.609 376.564 745.639 376.336 745.678 376.121C745.723 375.9 745.782 375.685 745.854 375.477C745.984 375.073 746.179 374.731 746.439 374.451C746.706 374.171 747.025 373.943 747.396 373.768L745.473 369.402H747.133L750.072 376.404C750.248 376.287 750.398 376.15 750.521 375.994C750.645 375.838 750.743 375.649 750.814 375.428C750.886 375.232 750.935 375.014 750.961 374.773C750.993 374.526 751.01 374.253 751.01 373.953V369.402H752.465V373.953C752.465 374.24 752.439 374.585 752.387 374.988C752.341 375.392 752.247 375.773 752.104 376.131C751.986 376.43 751.807 376.71 751.566 376.971C751.332 377.231 751.016 377.452 750.619 377.635L752.504 382H750.834L747.943 374.988C747.774 375.105 747.631 375.242 747.514 375.398C747.403 375.548 747.309 375.727 747.23 375.936C747.081 376.352 747.006 376.889 747.006 377.547V382H745.561ZM755.512 382L756.42 377.156L758.041 370.662H753.637V366.717H755.121V369.363H759.477V370.662L757.904 377.088L756.977 382H755.512ZM764.604 376.453C764.604 377.553 764.493 378.628 764.271 379.676C764.057 380.724 763.738 381.714 763.314 382.645C762.891 383.576 762.374 384.415 761.762 385.164H760.443C761.01 384.344 761.488 383.455 761.879 382.498C762.276 381.548 762.576 380.558 762.777 379.529C762.986 378.501 763.09 377.469 763.09 376.434C763.09 375.353 762.986 374.301 762.777 373.279C762.576 372.251 762.276 371.261 761.879 370.311C761.488 369.36 761.007 368.458 760.434 367.605H761.762C762.374 368.374 762.888 369.233 763.305 370.184C763.728 371.134 764.05 372.14 764.271 373.201C764.493 374.262 764.604 375.346 764.604 376.453ZM775.902 382V373.006C775.902 372.439 775.854 371.984 775.756 371.639C775.665 371.294 775.495 371.033 775.248 370.857C775.046 370.701 774.812 370.6 774.545 370.555C774.278 370.503 773.982 370.477 773.656 370.477C773.402 370.477 773.044 370.496 772.582 370.535C772.126 370.574 771.469 370.639 770.609 370.73V369.48C770.798 369.448 770.997 369.419 771.205 369.393C771.42 369.367 771.641 369.34 771.869 369.314C772.273 369.275 772.621 369.249 772.914 369.236C773.214 369.217 773.471 369.207 773.686 369.207C774.122 369.207 774.496 369.23 774.809 369.275C775.128 369.314 775.421 369.386 775.688 369.49C775.831 369.542 775.964 369.604 776.088 369.676C776.212 369.741 776.332 369.819 776.449 369.91C776.814 370.197 777.061 370.594 777.191 371.102C777.328 371.603 777.396 372.241 777.396 373.016V382H775.902ZM770.609 382V374.021H772.104V382H770.609ZM779.555 382V380.75H783.754V373.006C783.754 372.205 783.653 371.613 783.451 371.229C783.249 370.844 782.901 370.613 782.406 370.535C782.296 370.516 782.175 370.503 782.045 370.496C781.921 370.483 781.794 370.477 781.664 370.477C781.28 370.477 780.945 370.486 780.658 370.506C780.378 370.519 780.007 370.551 779.545 370.604V369.324C779.896 369.285 780.235 369.256 780.561 369.236C780.886 369.217 781.205 369.207 781.518 369.207C781.954 369.207 782.318 369.223 782.611 369.256C782.904 369.288 783.161 369.34 783.383 369.412C783.689 369.51 783.956 369.646 784.184 369.822C784.418 369.992 784.61 370.197 784.76 370.438C784.87 370.607 784.962 370.828 785.033 371.102C785.105 371.368 785.157 371.668 785.189 372C785.222 372.326 785.238 372.664 785.238 373.016V380.75H786.234V382H779.555ZM791.127 382.205C790.671 382.205 790.261 382.124 789.896 381.961C789.532 381.798 789.21 381.557 788.93 381.238C788.708 380.991 788.51 380.695 788.334 380.35C788.165 380.005 788.021 379.614 787.904 379.178C787.768 378.709 787.667 378.185 787.602 377.605C787.536 377.02 787.504 376.385 787.504 375.701V369.412H789.008V375.701C789.008 376.71 789.06 377.56 789.164 378.25C789.275 378.934 789.438 379.471 789.652 379.861C789.861 380.245 790.085 380.516 790.326 380.672C790.574 380.828 790.854 380.906 791.166 380.906C791.485 380.906 791.765 380.825 792.006 380.662C792.247 380.499 792.468 380.232 792.67 379.861C792.878 379.484 793.035 378.953 793.139 378.27C793.249 377.579 793.305 376.723 793.305 375.701C793.305 374.712 793.253 373.868 793.148 373.172C793.044 372.469 792.885 371.922 792.67 371.531C792.468 371.154 792.243 370.887 791.996 370.73C791.749 370.568 791.485 370.483 791.205 370.477C791.062 370.477 790.922 370.483 790.785 370.496C790.648 370.509 790.499 370.529 790.336 370.555V369.285C790.486 369.259 790.645 369.24 790.814 369.227C790.984 369.214 791.14 369.207 791.283 369.207C791.693 369.207 792.074 369.282 792.426 369.432C792.777 369.575 793.09 369.796 793.363 370.096C793.624 370.369 793.852 370.714 794.047 371.131C794.249 371.548 794.408 372.023 794.525 372.557C794.63 372.999 794.708 373.488 794.76 374.021C794.812 374.555 794.838 375.122 794.838 375.721C794.838 376.443 794.796 377.114 794.711 377.732C794.633 378.351 794.522 378.895 794.379 379.363C794.242 379.826 794.07 380.232 793.861 380.584C793.66 380.936 793.432 381.222 793.178 381.443C792.885 381.71 792.562 381.902 792.211 382.02C791.866 382.143 791.505 382.205 791.127 382.205ZM802.328 382V373.006C802.328 372.439 802.279 371.984 802.182 371.639C802.09 371.294 801.921 371.033 801.674 370.857C801.472 370.701 801.238 370.6 800.971 370.555C800.704 370.503 800.408 370.477 800.082 370.477C799.828 370.477 799.47 370.496 799.008 370.535C798.552 370.574 797.895 370.639 797.035 370.73V369.48C797.224 369.448 797.423 369.419 797.631 369.393C797.846 369.367 798.067 369.34 798.295 369.314C798.699 369.275 799.047 369.249 799.34 369.236C799.639 369.217 799.896 369.207 800.111 369.207C800.548 369.207 800.922 369.23 801.234 369.275C801.553 369.314 801.846 369.386 802.113 369.49C802.257 369.542 802.39 369.604 802.514 369.676C802.637 369.741 802.758 369.819 802.875 369.91C803.24 370.197 803.487 370.594 803.617 371.102C803.754 371.603 803.822 372.241 803.822 373.016V382H802.328ZM797.035 382V374.021H798.529V382H797.035ZM811.684 382V373.006C811.684 372.439 811.635 371.984 811.537 371.639C811.446 371.294 811.277 371.033 811.029 370.857C810.827 370.701 810.593 370.6 810.326 370.555C810.059 370.503 809.763 370.477 809.438 370.477C809.184 370.477 808.826 370.496 808.363 370.535C807.908 370.574 807.25 370.639 806.391 370.73V369.48C806.579 369.448 806.778 369.419 806.986 369.393C807.201 369.367 807.423 369.34 807.65 369.314C808.054 369.275 808.402 369.249 808.695 369.236C808.995 369.217 809.252 369.207 809.467 369.207C809.903 369.207 810.277 369.23 810.59 369.275C810.909 369.314 811.202 369.386 811.469 369.49C811.612 369.542 811.745 369.604 811.869 369.676C811.993 369.741 812.113 369.819 812.23 369.91C812.595 370.197 812.842 370.594 812.973 371.102C813.109 371.603 813.178 372.241 813.178 373.016V382H811.684ZM806.391 382V374.021H807.885V382H806.391ZM822.445 382V373.006C822.445 372.452 822.41 372.01 822.338 371.678C822.273 371.339 822.143 371.079 821.947 370.896C821.771 370.727 821.553 370.617 821.293 370.564C821.039 370.506 820.746 370.477 820.414 370.477C820.238 370.477 820.03 370.483 819.789 370.496C819.548 370.503 819.307 370.516 819.066 370.535C818.826 370.555 818.617 370.574 818.441 370.594V369.324C818.767 369.285 819.083 369.256 819.389 369.236C819.695 369.217 819.988 369.207 820.268 369.207C820.788 369.207 821.218 369.23 821.557 369.275C821.895 369.321 822.201 369.399 822.475 369.51C822.735 369.614 822.95 369.754 823.119 369.93C823.295 370.099 823.445 370.314 823.568 370.574C823.705 370.854 823.799 371.199 823.852 371.609C823.904 372.013 823.93 372.482 823.93 373.016V382H822.445ZM826.488 382V369.402H827.982V382H826.488ZM830.053 382V377.547C830.053 377.286 830.062 377.039 830.082 376.805C830.102 376.564 830.131 376.336 830.17 376.121C830.215 375.9 830.274 375.685 830.346 375.477C830.476 375.073 830.671 374.731 830.932 374.451C831.199 374.171 831.518 373.943 831.889 373.768L829.965 369.402H831.625L834.564 376.404C834.74 376.287 834.89 376.15 835.014 375.994C835.137 375.838 835.235 375.649 835.307 375.428C835.378 375.232 835.427 375.014 835.453 374.773C835.486 374.526 835.502 374.253 835.502 373.953V369.402H836.957V373.953C836.957 374.24 836.931 374.585 836.879 374.988C836.833 375.392 836.739 375.773 836.596 376.131C836.479 376.43 836.299 376.71 836.059 376.971C835.824 377.231 835.508 377.452 835.111 377.635L836.996 382H835.326L832.436 374.988C832.266 375.105 832.123 375.242 832.006 375.398C831.895 375.548 831.801 375.727 831.723 375.936C831.573 376.352 831.498 376.889 831.498 377.547V382H830.053ZM838.979 377.439V369.402H840.463V375.887L839.369 377.439H838.979ZM842.807 382.068C842.683 382.068 842.546 382.055 842.396 382.029C842.247 382.003 842.097 381.967 841.947 381.922V380.633C842.214 380.711 842.416 380.75 842.553 380.75C842.852 380.75 843.048 380.633 843.139 380.398C843.23 380.158 843.275 379.855 843.275 379.49V370.662C843.139 370.669 842.999 370.682 842.855 370.701C842.719 370.721 842.582 370.743 842.445 370.77V369.51C842.699 369.464 843.018 369.419 843.402 369.373C843.793 369.327 844.197 369.288 844.613 369.256C845.03 369.223 845.414 369.207 845.766 369.207C846.234 369.207 846.618 369.22 846.918 369.246C847.217 369.266 847.471 369.305 847.68 369.363C847.895 369.422 848.1 369.497 848.295 369.588C848.445 369.666 848.581 369.754 848.705 369.852C848.829 369.949 848.943 370.06 849.047 370.184C849.307 370.49 849.486 370.877 849.584 371.346C849.682 371.814 849.73 372.371 849.73 373.016V382H848.236V373.006C848.236 372.238 848.139 371.674 847.943 371.316C847.748 370.952 847.419 370.717 846.957 370.613C846.762 370.548 846.527 370.506 846.254 370.486C846.137 370.486 845.954 370.49 845.707 370.496C845.46 370.496 845.147 370.506 844.77 370.525V379.49C844.77 379.816 844.75 380.115 844.711 380.389C844.672 380.656 844.617 380.89 844.545 381.092C844.408 381.469 844.187 381.733 843.881 381.883C843.725 381.954 843.552 382.003 843.363 382.029C843.181 382.055 842.995 382.068 842.807 382.068Z" fill="#062841"/>
<path d="M890.392 365.906H880.67C880.326 365.906 880.062 366.17 880.062 366.514V368.134C880.062 368.479 880.326 368.742 880.67 368.742C881.014 368.742 881.278 368.479 881.278 368.134V367.122H884.924V376.844H883.708C883.364 376.844 883.101 377.107 883.101 377.451C883.101 377.796 883.364 378.059 883.708 378.059H887.354C887.698 378.059 887.962 377.796 887.962 377.451C887.962 377.107 887.698 376.844 887.354 376.844H886.139V367.122H889.785V368.134C889.785 368.479 890.048 368.742 890.392 368.742C890.737 368.742 891 368.479 891 368.134V366.514C891 366.17 890.737 365.906 890.392 365.906Z" fill="#DBB65D"/>
<path d="M866 383.094H889.438" stroke="#335269" stroke-width="1.5625" stroke-linecap="round"/>
<path d="M866 377.625H880.062" stroke="#335269" stroke-width="1.5625" stroke-linecap="round"/>
<path d="M866 372.156H877.328" stroke="#335269" stroke-width="1.5625" stroke-linecap="round"/>
<path d="M866 366.688H875.375" stroke="#335269" stroke-width="1.5625" stroke-linecap="round"/>
<rect x="200.5" y="403.5" width="690" height="99" rx="4.5" fill="white" stroke="#335269"/>
<rect x="200" y="542" width="216" height="57" rx="5" fill="#E96D5A"/>
<path d="M259.12 582V568.509C259.12 567.659 259.047 566.976 258.9 566.458C258.764 565.94 258.51 565.55 258.139 565.286C257.836 565.052 257.484 564.9 257.084 564.832C256.684 564.754 256.239 564.715 255.751 564.715C255.37 564.715 254.833 564.744 254.14 564.803C253.456 564.861 252.47 564.959 251.181 565.096V563.221C251.464 563.172 251.762 563.128 252.074 563.089C252.396 563.05 252.729 563.011 253.07 562.972C253.676 562.913 254.198 562.874 254.638 562.854C255.087 562.825 255.473 562.811 255.795 562.811C256.449 562.811 257.011 562.845 257.479 562.913C257.958 562.972 258.397 563.079 258.798 563.235C259.013 563.313 259.213 563.406 259.398 563.514C259.584 563.611 259.765 563.729 259.94 563.865C260.487 564.295 260.858 564.891 261.054 565.652C261.259 566.404 261.361 567.361 261.361 568.523V582H259.12ZM251.181 582V570.032H253.422V582H251.181ZM264.599 582V580.125H270.897V568.509C270.897 567.308 270.746 566.419 270.443 565.843C270.141 565.267 269.618 564.92 268.876 564.803C268.71 564.773 268.529 564.754 268.334 564.744C268.148 564.725 267.958 564.715 267.763 564.715C267.187 564.715 266.684 564.729 266.254 564.759C265.834 564.778 265.277 564.827 264.584 564.905V562.986C265.111 562.928 265.619 562.884 266.107 562.854C266.596 562.825 267.074 562.811 267.543 562.811C268.197 562.811 268.744 562.835 269.184 562.884C269.623 562.933 270.009 563.011 270.341 563.118C270.8 563.265 271.2 563.47 271.542 563.733C271.894 563.987 272.182 564.295 272.406 564.656C272.572 564.91 272.709 565.242 272.816 565.652C272.924 566.053 273.002 566.502 273.051 567C273.1 567.488 273.124 567.996 273.124 568.523V580.125H274.618V582H264.599ZM281.957 582.308C281.273 582.308 280.658 582.186 280.111 581.941C279.564 581.697 279.081 581.336 278.661 580.857C278.329 580.486 278.031 580.042 277.768 579.524C277.514 579.007 277.299 578.421 277.123 577.767C276.918 577.063 276.767 576.277 276.669 575.408C276.571 574.529 276.522 573.577 276.522 572.552V563.118H278.778V572.552C278.778 574.065 278.856 575.34 279.013 576.375C279.179 577.4 279.423 578.206 279.745 578.792C280.058 579.368 280.395 579.773 280.756 580.008C281.127 580.242 281.547 580.359 282.016 580.359C282.494 580.359 282.914 580.237 283.275 579.993C283.637 579.749 283.969 579.349 284.271 578.792C284.584 578.226 284.818 577.43 284.975 576.404C285.141 575.369 285.224 574.085 285.224 572.552C285.224 571.067 285.146 569.803 284.989 568.758C284.833 567.703 284.594 566.883 284.271 566.297C283.969 565.73 283.632 565.33 283.261 565.096C282.89 564.852 282.494 564.725 282.074 564.715C281.859 564.715 281.649 564.725 281.444 564.744C281.239 564.764 281.015 564.793 280.771 564.832V562.928C280.995 562.889 281.234 562.859 281.488 562.84C281.742 562.82 281.977 562.811 282.191 562.811C282.807 562.811 283.378 562.923 283.905 563.147C284.433 563.362 284.901 563.694 285.312 564.144C285.702 564.554 286.044 565.071 286.337 565.696C286.64 566.321 286.879 567.034 287.055 567.835C287.211 568.499 287.328 569.231 287.406 570.032C287.484 570.833 287.523 571.683 287.523 572.581C287.523 573.665 287.46 574.671 287.333 575.599C287.216 576.526 287.05 577.342 286.835 578.045C286.63 578.738 286.371 579.349 286.059 579.876C285.756 580.403 285.414 580.833 285.033 581.165C284.594 581.565 284.11 581.854 283.583 582.029C283.065 582.215 282.523 582.308 281.957 582.308ZM298.759 582V568.509C298.759 567.659 298.686 566.976 298.539 566.458C298.402 565.94 298.148 565.55 297.777 565.286C297.475 565.052 297.123 564.9 296.723 564.832C296.322 564.754 295.878 564.715 295.39 564.715C295.009 564.715 294.472 564.744 293.778 564.803C293.095 564.861 292.108 564.959 290.819 565.096V563.221C291.103 563.172 291.4 563.128 291.713 563.089C292.035 563.05 292.367 563.011 292.709 562.972C293.314 562.913 293.837 562.874 294.276 562.854C294.726 562.825 295.111 562.811 295.434 562.811C296.088 562.811 296.649 562.845 297.118 562.913C297.597 562.972 298.036 563.079 298.437 563.235C298.651 563.313 298.852 563.406 299.037 563.514C299.223 563.611 299.403 563.729 299.579 563.865C300.126 564.295 300.497 564.891 300.692 565.652C300.897 566.404 301 567.361 301 568.523V582H298.759ZM290.819 582V570.032H293.061V582H290.819ZM310.419 582V563.104H312.66V582H310.419ZM320.849 582.293C320.487 582.293 320.111 582.278 319.721 582.249C319.34 582.229 318.974 582.2 318.622 582.161C318.271 582.132 317.968 582.093 317.714 582.044L317.26 581.956V579.993C317.914 580.12 318.539 580.213 319.135 580.271C319.74 580.33 320.36 580.359 320.995 580.359C321.356 580.359 321.698 580.271 322.021 580.096C322.353 579.91 322.665 579.617 322.958 579.217C323.104 579.021 323.236 578.797 323.354 578.543C323.471 578.289 323.578 578.016 323.676 577.723C323.881 577.098 324.032 576.355 324.13 575.496C324.237 574.627 324.291 573.66 324.291 572.596C324.291 571.658 324.262 570.813 324.203 570.062C324.145 569.3 324.057 568.636 323.939 568.069C323.861 567.698 323.773 567.366 323.676 567.073C323.578 566.78 323.471 566.521 323.354 566.297C323.041 565.721 322.699 565.32 322.328 565.096C321.957 564.861 321.532 564.744 321.054 564.744C320.556 564.744 320.102 564.886 319.691 565.169C319.291 565.452 318.974 565.823 318.739 566.282C318.485 566.761 318.3 567.259 318.183 567.776C318.065 568.294 318.007 568.831 318.007 569.388C318.007 570.14 318.07 570.809 318.197 571.395C318.324 571.98 318.52 572.444 318.783 572.786C318.998 573.079 319.271 573.318 319.604 573.504C319.945 573.689 320.351 573.797 320.819 573.826L321.142 573.855L320.731 575.613L320.424 575.584C319.896 575.574 319.398 575.486 318.93 575.32C318.461 575.145 318.056 574.915 317.714 574.632C317.509 574.476 317.313 574.29 317.128 574.075C316.942 573.851 316.781 573.611 316.645 573.357C316.4 572.889 316.2 572.322 316.044 571.658C315.897 570.994 315.824 570.247 315.824 569.417C315.824 568.44 315.946 567.547 316.19 566.736C316.444 565.926 316.815 565.223 317.304 564.627C317.772 564.041 318.329 563.592 318.974 563.279C319.618 562.967 320.312 562.811 321.054 562.811C321.64 562.811 322.167 562.894 322.636 563.06C323.104 563.226 323.52 563.445 323.881 563.719C324.252 564.012 324.599 564.393 324.921 564.861C325.243 565.33 325.517 565.877 325.741 566.502C326.015 567.244 326.225 568.123 326.371 569.139C326.518 570.154 326.591 571.292 326.591 572.552C326.591 573.821 326.508 574.969 326.342 575.994C326.186 577.01 325.961 577.894 325.668 578.646C325.424 579.261 325.136 579.798 324.804 580.257C324.472 580.706 324.115 581.082 323.734 581.385C323.373 581.648 322.958 581.863 322.489 582.029C322.021 582.205 321.474 582.293 320.849 582.293ZM329.799 575.159V563.104H332.025V572.83L330.385 575.159H329.799ZM340.741 582.293C339.833 582.293 339.042 582.078 338.368 581.648C337.792 581.307 337.299 580.833 336.889 580.228C336.488 579.612 336.156 578.88 335.893 578.03C335.668 577.278 335.497 576.434 335.38 575.496C335.272 574.559 335.219 573.548 335.219 572.464C335.219 571.292 335.292 570.247 335.438 569.329C335.595 568.411 335.829 567.596 336.142 566.883C336.454 566.17 336.85 565.53 337.328 564.964L337.372 564.861L335.497 564.979V563.089C336.171 563.03 336.806 562.981 337.401 562.942C337.997 562.894 338.578 562.859 339.145 562.84C339.711 562.82 340.292 562.811 340.888 562.811C341.366 562.811 341.815 562.884 342.235 563.03C342.655 563.167 343.046 563.362 343.407 563.616C343.798 563.899 344.159 564.275 344.491 564.744C344.823 565.203 345.106 565.755 345.341 566.399C345.634 567.151 345.854 568.045 346 569.08C346.156 570.105 346.234 571.263 346.234 572.552C346.234 573.636 346.176 574.642 346.059 575.569C345.951 576.487 345.785 577.317 345.561 578.06C345.355 578.724 345.102 579.314 344.799 579.832C344.506 580.35 344.164 580.789 343.773 581.15C342.963 581.912 341.952 582.293 340.741 582.293ZM340.712 580.359C341.19 580.359 341.61 580.242 341.972 580.008C342.343 579.764 342.685 579.358 342.997 578.792C343.202 578.401 343.373 577.903 343.51 577.298C343.656 576.683 343.764 575.979 343.832 575.188C343.9 574.397 343.935 573.528 343.935 572.581C343.935 571.097 343.852 569.827 343.686 568.772C343.529 567.708 343.295 566.888 342.982 566.312C342.689 565.765 342.362 565.369 342.001 565.125C341.64 564.871 341.239 564.744 340.8 564.744C340.565 564.754 340.341 564.764 340.126 564.773C339.911 564.783 339.691 564.798 339.467 564.817C338.725 565.628 338.212 566.639 337.929 567.85C337.655 569.061 337.519 570.516 337.519 572.215C337.519 573.924 337.597 575.311 337.753 576.375C337.919 577.43 338.153 578.24 338.456 578.807C338.749 579.354 339.076 579.749 339.438 579.993C339.809 580.237 340.233 580.359 340.712 580.359ZM349.53 582V563.104H351.771V582H349.53ZM363.651 582V568.509C363.651 567.659 363.578 566.976 363.432 566.458C363.295 565.94 363.041 565.55 362.67 565.286C362.367 565.052 362.016 564.9 361.615 564.832C361.215 564.754 360.771 564.715 360.282 564.715C359.901 564.715 359.364 564.744 358.671 564.803C357.987 564.861 357.001 564.959 355.712 565.096V563.221C355.995 563.172 356.293 563.128 356.605 563.089C356.928 563.05 357.26 563.011 357.602 562.972C358.207 562.913 358.729 562.874 359.169 562.854C359.618 562.825 360.004 562.811 360.326 562.811C360.98 562.811 361.542 562.845 362.011 562.913C362.489 562.972 362.929 563.079 363.329 563.235C363.544 563.313 363.744 563.406 363.93 563.514C364.115 563.611 364.296 563.729 364.472 563.865C365.019 564.295 365.39 564.891 365.585 565.652C365.79 566.404 365.893 567.361 365.893 568.523V582H363.651ZM355.712 582V570.032H357.953V582H355.712Z" fill="white"/>
<rect x="675.5" y="542.5" width="215" height="56" rx="4.5" fill="white"/>
<path d="M744.519 582V575.32C744.519 574.93 744.533 574.559 744.562 574.207C744.592 573.846 744.636 573.504 744.694 573.182C744.763 572.85 744.851 572.527 744.958 572.215C745.153 571.609 745.446 571.097 745.837 570.677C746.237 570.257 746.716 569.915 747.272 569.651L744.387 563.104H746.877L751.286 573.606C751.55 573.431 751.774 573.226 751.96 572.991C752.146 572.757 752.292 572.474 752.399 572.142C752.507 571.849 752.58 571.521 752.619 571.16C752.668 570.789 752.692 570.379 752.692 569.93V563.104H754.875V569.93C754.875 570.359 754.836 570.877 754.758 571.482C754.689 572.088 754.548 572.659 754.333 573.196C754.157 573.646 753.889 574.065 753.527 574.456C753.176 574.847 752.702 575.179 752.106 575.452L754.934 582H752.429L748.093 571.482C747.839 571.658 747.624 571.863 747.448 572.098C747.282 572.322 747.141 572.591 747.023 572.903C746.799 573.528 746.687 574.334 746.687 575.32V582H744.519ZM759.445 582L760.808 574.734L763.239 564.993H756.633V559.075H758.859V563.045H765.393V564.993L763.034 574.632L761.643 582H759.445ZM773.449 582V563.147C773.654 563.118 773.874 563.094 774.108 563.074C774.353 563.045 774.602 563.021 774.855 563.001C775.49 562.942 776.076 562.898 776.613 562.869C777.15 562.83 777.609 562.811 777.99 562.811C778.801 562.811 779.494 562.85 780.07 562.928C780.656 563.006 781.174 563.143 781.623 563.338C782.092 563.543 782.453 563.816 782.707 564.158C782.961 564.5 783.156 564.915 783.293 565.403C783.4 565.774 783.483 566.209 783.542 566.707C783.601 567.205 783.63 567.771 783.63 568.406V582H773.449ZM775.69 580.125H781.389V568.392C781.389 567.854 781.364 567.381 781.315 566.971C781.276 566.561 781.203 566.233 781.096 565.989C780.979 565.696 780.837 565.472 780.671 565.315C780.505 565.149 780.271 565.022 779.968 564.935C779.665 564.837 779.353 564.778 779.03 564.759C778.708 564.729 778.322 564.715 777.873 564.715C777.57 564.715 777.243 564.725 776.892 564.744C776.54 564.764 776.14 564.798 775.69 564.847V580.125ZM786.398 582V580.125H791.613L793.752 580.198L790.852 573.973L786.354 563.104H788.684L792.536 572.493L792.653 572.83C793.093 572.166 793.425 571.419 793.649 570.589C793.874 569.749 794.05 568.719 794.177 567.498L794.616 563.104H796.828L796.462 566.751C796.433 567.22 796.398 567.649 796.359 568.04C796.32 568.421 796.271 568.787 796.213 569.139C796.154 569.48 796.086 569.832 796.008 570.193C795.92 570.574 795.817 570.96 795.7 571.351C795.583 571.731 795.417 572.127 795.202 572.537C795.017 572.996 794.802 573.426 794.558 573.826C794.313 574.217 794.006 574.588 793.635 574.939L796.462 580.813V582H786.398ZM798.718 582.776V580.872L801.193 580.433C801.408 580.394 801.623 580.354 801.838 580.315C802.053 580.276 802.272 580.242 802.497 580.213L798.762 563.104H800.988L802.834 571.644L804.313 579.363C805.036 578.904 805.583 578.279 805.954 577.488C806.335 576.697 806.613 575.799 806.789 574.793C806.965 573.787 807.111 572.742 807.229 571.658L808.034 563.104H810.261L809.455 571.453C809.328 572.723 809.187 573.885 809.03 574.939C808.874 575.984 808.62 576.927 808.269 577.767C807.927 578.597 807.404 579.329 806.701 579.964C806.242 580.511 805.681 580.96 805.017 581.312C804.353 581.653 803.552 581.912 802.614 582.088C801.97 582.195 801.32 582.308 800.666 582.425C800.021 582.542 799.372 582.659 798.718 582.776ZM812.121 582V580.125H818.42V568.509C818.42 567.308 818.269 566.419 817.966 565.843C817.663 565.267 817.141 564.92 816.398 564.803C816.232 564.773 816.052 564.754 815.856 564.744C815.671 564.725 815.48 564.715 815.285 564.715C814.709 564.715 814.206 564.729 813.776 564.759C813.356 564.778 812.8 564.827 812.106 564.905V562.986C812.634 562.928 813.142 562.884 813.63 562.854C814.118 562.825 814.597 562.811 815.065 562.811C815.72 562.811 816.267 562.835 816.706 562.884C817.146 562.933 817.531 563.011 817.863 563.118C818.322 563.265 818.723 563.47 819.064 563.733C819.416 563.987 819.704 564.295 819.929 564.656C820.095 564.91 820.231 565.242 820.339 565.652C820.446 566.053 820.524 566.502 820.573 567C820.622 567.488 820.646 567.996 820.646 568.523V580.125H822.141V582H812.121Z" fill="#E96D5A"/>
<rect x="675.5" y="542.5" width="215" height="56" rx="4.5" stroke="#E96D5A"/>
</g>
<defs>
<filter id="filter0_d_224_1469" x="0" y="0" width="1091" height="745" filterUnits="userSpaceOnUse" color-interpolation-filters="sRGB">
<feFlood flood-opacity="0" result="BackgroundImageFix"/>
<feColorMatrix in="SourceAlpha" type="matrix" values="0 0 0 0 0 0 0 0 0 0 0 0 0 0 0 0 0 0 127 0" result="hardAlpha"/>
<feOffset dy="4"/>
<feGaussianBlur stdDeviation="12"/>
<feComposite in2="hardAlpha" operator="out"/>
<feColorMatrix type="matrix" values="0 0 0 0 0.2 0 0 0 0 0.321569 0 0 0 0 0.411765 0 0 0 0.5 0"/>
<feBlend mode="normal" in2="BackgroundImageFix" result="effect1_dropShadow_224_1469"/>
<feBlend mode="normal" in="SourceGraphic" in2="effect1_dropShadow_224_1469" result="shape"/>
</filter>
</defs>
</svg>
